<svg width="181" height="85" viewBox="0 0 181 85" fill="none" xmlns="http://www.w3.org/2000/svg">
<path fill-rule="evenodd" clip-rule="evenodd" d="M64.7649 46.6373C54.6463 67.3844 59.9666 16.9258 55.893 1.48924C44.9109 -7.01447 24.0901 30.7343 1.55411 76.5431C-3.10317 87.5659 3.65842 88.3885 9.31624 74.5305C17.1558 52.3744 27.2585 32.0272 40.0888 13.8545C43.5848 8.84668 44.9724 9.61403 44.2458 16.1546C45.963 22.8837 38.3875 81.7508 58.3844 59.8632C59.9746 57.2355 63.0993 50.1333 65.0865 51.5975C65.7932 52.1192 65.4339 55.9217 69.4737 58.7131C72.7473 57.5592 75.2745 53.7739 77.3768 51.2338C78.6196 49.7353 76.95 55.7256 83.3662 54.825L99.9902 34.4873C93.6753 56.5805 87.6423 76.7392 116.88 44.3372C117.883 47.0124 121.764 47.3 128.524 45.1978C125.982 52.8104 146.595 35.4717 153.384 33.1106C164.509 29.2434 167.862 28.436 175.656 29.3824C183.099 28.8797 181.709 24.5936 171.495 25.9303C161.952 27.5792 150.291 29.1615 135.936 40.9707C128.919 42.3741 132.843 36.3114 131.297 33.9846C129.653 32.8212 129.159 33.4495 128.524 35.4203C119.771 51.3843 116.644 29.9098 126.86 29.093C122.054 25.1991 116.958 30.761 116.326 41.7476C93.1572 66.9179 108.223 39.9387 113.277 23.632C101.801 17.7045 82.8083 66.5352 86.4174 36.7094L78.3456 38.008C77.9287 51.6775 71.9473 52.3058 73.3548 39.4455L65.0388 40.8831L64.7649 46.6373Z" fill="#01519E"/>
</svg>
