<svg width="164" height="77" viewBox="0 0 164 77" fill="none" xmlns="http://www.w3.org/2000/svg">
<path fill-rule="evenodd" clip-rule="evenodd" d="M58.8901 42.1945C49.6894 61.0806 54.5271 15.148 50.823 1.09608C40.837 -6.64487 21.9049 27.7179 1.41313 69.4178C-2.82169 79.4519 3.32657 80.2007 8.47117 67.5857C15.5996 47.4169 24.7859 28.8948 36.4524 12.3522C39.6312 7.79357 40.893 8.49209 40.2323 14.446C41.7938 20.5715 34.9054 74.1584 53.0884 54.234C54.5343 51.8421 57.3756 45.3768 59.1825 46.7097C59.8251 47.1847 59.4984 50.6461 63.1718 53.1871C66.1485 52.1367 68.4464 48.6909 70.358 46.3787C71.488 45.0146 69.9699 50.4675 75.8041 49.6477L90.9202 31.1343C85.1781 51.2458 79.6923 69.5963 106.278 40.1006C107.19 42.5359 110.719 42.7977 116.865 40.8841C114.555 47.8139 133.297 32.0304 139.471 29.8811C149.587 26.3607 152.636 25.6258 159.722 26.4873C166.49 26.0297 165.226 22.128 155.939 23.3448C147.262 24.8458 136.658 26.2862 123.606 37.0362C117.224 38.3136 120.793 32.7948 119.387 30.6767C117.892 29.6176 117.443 30.1896 116.865 31.9836C108.906 46.5156 106.063 26.9674 115.353 26.2238C110.982 22.6792 106.349 27.7422 105.775 37.7434C84.7069 60.6559 98.406 36.0967 103.002 21.2527C92.5665 15.8569 75.2968 60.3075 78.5786 33.157L71.2389 34.3391C70.8599 46.7825 65.421 47.3545 66.7009 35.6478L59.1392 36.9564L58.8901 42.1945Z" fill="white"/>
</svg>
