<svg width="88" height="88" viewBox="0 0 88 88" fill="none" xmlns="http://www.w3.org/2000/svg">
<path d="M87.5 0.078125H0.5V87.0781H87.5V0.078125Z" fill="#232E50"/>
<path d="M77.8697 9.58594H10.1289V77.57H77.8697V9.58594Z" fill="white"/>
<path d="M74.3152 13.127H13.2207V74.7325H74.3152V13.127Z" fill="#232E50"/>
<path d="M70.5638 16.9102H16.5781V71.3475H70.5638V16.9102Z" fill="white"/>
<path d="M68.3497 19.0742H19.0918V69.1866H68.3497V19.0742Z" fill="#253154"/>
<path d="M65.8681 21.4688H21.3379V66.6664H65.8681V21.4688Z" fill="white"/>
<path d="M63.2658 23.7734H23.6953V64.0385H63.2658V23.7734Z" fill="#2A3860"/>
<path fill-rule="evenodd" clip-rule="evenodd" d="M34.3996 45.2201C30.1179 53.8879 32.3658 32.7992 30.6531 26.3475C25.9967 22.791 17.1834 38.5718 7.62084 57.7124C5.65837 62.3233 8.51287 62.6629 10.9035 56.8724C14.2219 47.6149 18.5036 39.1079 23.945 31.5124C25.4258 29.4215 26.0145 29.7431 25.7112 32.4775C26.4427 35.2834 23.2314 59.8928 31.7057 50.7424C32.3836 49.6523 33.7038 46.6855 34.5423 47.2932C34.8456 47.5076 34.6851 49.0982 36.3978 50.2599C37.7893 49.7774 38.8598 48.1868 39.7518 47.1323C40.2692 46.5068 39.5734 49.0089 42.2852 48.6336L49.3322 40.1266C46.6561 49.3663 44.1049 57.7839 56.4863 44.2371C56.9145 45.363 58.5558 45.4703 61.4282 44.5946C60.3577 47.7757 69.0818 40.5198 71.9541 39.5369C76.664 37.9284 78.0913 37.5888 81.3918 37.982C84.5496 37.7676 83.9608 35.9804 79.6256 36.5344C75.5758 37.2314 70.6339 37.8927 64.5681 42.8253C61.5887 43.415 63.2479 40.8772 62.6056 39.9122C61.9099 39.4296 61.6958 39.6977 61.4282 40.5198C57.7173 47.186 56.3971 38.2143 60.7324 37.8748C58.6985 36.2485 56.5398 38.5718 56.2722 43.1648C46.4599 53.6913 52.829 42.4142 54.9698 35.5872C50.1172 33.1209 42.0711 53.5126 43.5875 41.056L40.1621 41.5921C39.9837 47.3111 37.4504 47.5613 38.0391 42.1997L34.5067 42.8074L34.3818 45.2201H34.3996Z" fill="white"/>
</svg>
