<svg width="39" height="37" viewBox="0 0 39 37" fill="none" xmlns="http://www.w3.org/2000/svg">
<path d="M20.2061 1.32422C26.246 6.32976 30.3156 10.7557 33.1553 16.0625C35.9923 21.3645 37.5734 27.4929 38.7256 35.8545L37.3945 36.0381V36.043H37.3604L37.3467 36.0449V36.043H2.37109V34.6523H37.1465C36.0226 27.0792 34.497 21.5214 31.9277 16.7197C29.2693 11.7515 25.4665 7.54166 19.7305 2.74023C16.9192 4.78972 12.8516 8.38245 9.3125 12.8623C5.74266 17.3811 2.76129 22.7365 2.08008 28.2715H14.3262V29.6641H0.550781L0.614258 28.9092C1.1373 22.7177 4.4113 16.821 8.2207 11.999C12.0364 7.16916 16.4463 3.34531 19.3604 1.29102L19.7959 0.984375L20.2061 1.32422Z" fill="#E06053"/>
<path d="M11.5425 29.7148L18.1536 12.2089H21.5459L28.1323 29.7148H25.3095L24.0219 26.1988H15.6528L14.3652 29.7148H11.5425ZM16.5194 23.8465H23.1553L19.8374 14.7098L16.5194 23.8465Z" fill="#E06053"/>
</svg>
