<svg width="393" height="134" viewBox="0 0 393 134" fill="none" xmlns="http://www.w3.org/2000/svg">
<path d="M321.977 49.1006V123.084H18.4307V49.1006H321.977Z" stroke="white" stroke-width="2.03637"/>
<path d="M323.501 32.4697V132.829H392.054V32.4697H323.501Z" stroke="white" stroke-width="1.01819"/>
<path d="M312.099 31.4521V30.5264H392.417V31.4521H312.099Z" stroke="white" stroke-width="1.01819"/>
<path d="M322.485 47.5732V46.5225H17.9209V47.5732H322.485Z" stroke="white" stroke-width="1.01819"/>
<mask id="path-5-inside-1_4219_4383" fill="white">
<path fill-rule="evenodd" clip-rule="evenodd" d="M322.445 47.5328H17.9614V46.563H322.445V47.5328ZM17.4121 48.082V46.0137H322.994V48.082H17.4121Z"/>
</mask>
<path d="M17.9614 47.5328V48.5509H16.9432V47.5328H17.9614ZM322.445 47.5328H323.463V48.5509H322.445V47.5328ZM17.9614 46.563H16.9432V45.5448H17.9614V46.563ZM322.445 46.563V45.5448H323.463V46.563H322.445ZM17.4121 48.082V49.1002H16.3939V48.082H17.4121ZM17.4121 46.0137H16.3939V44.9955H17.4121V46.0137ZM322.994 46.0137V44.9955H324.013V46.0137H322.994ZM322.994 48.082H324.013V49.1002H322.994V48.082ZM17.9614 47.5328V46.5146H322.445V47.5328V48.5509H17.9614V47.5328ZM17.9614 46.563H18.9796V47.5328H17.9614H16.9432V46.563H17.9614ZM322.445 46.563V47.5811H17.9614V46.563V45.5448H322.445V46.563ZM322.445 47.5328H321.427V46.563H322.445H323.463V47.5328H322.445ZM17.4121 48.082V47.0638H322.994V48.082V49.1002H17.4121V48.082ZM17.4121 46.0137H18.4303V48.082H17.4121H16.3939V46.0137H17.4121ZM322.994 46.0137V47.0319H17.4121V46.0137V44.9955H322.994V46.0137ZM322.994 48.082H321.976V46.0137H322.994H324.013V48.082H322.994Z" fill="white" mask="url(#path-5-inside-1_4219_4383)"/>
<path d="M322.485 35.4619V45.5078H17.9209V35.4619H322.485Z" stroke="white" stroke-width="1.01819"/>
<mask id="path-8-inside-2_4219_4383" fill="white">
<path fill-rule="evenodd" clip-rule="evenodd" d="M322.445 35.5024H17.9614V45.4676H322.445V35.5024ZM17.4121 34.9531V46.0168H322.994V34.9531H17.4121Z"/>
</mask>
<path d="M17.9614 35.5024V34.4842H16.9432V35.5024H17.9614ZM322.445 35.5024H323.463V34.4842H322.445V35.5024ZM17.9614 45.4676H16.9432V46.4857H17.9614V45.4676ZM322.445 45.4676V46.4857H323.463V45.4676H322.445ZM17.4121 34.9531V33.9349H16.3939V34.9531H17.4121ZM17.4121 46.0168H16.3939V47.035H17.4121V46.0168ZM322.994 46.0168V47.035H324.013V46.0168H322.994ZM322.994 34.9531H324.013V33.9349H322.994V34.9531ZM17.9614 35.5024V36.5206H322.445V35.5024V34.4842H17.9614V35.5024ZM17.9614 45.4676H18.9796V35.5024H17.9614H16.9432V45.4676H17.9614ZM322.445 45.4676V44.4494H17.9614V45.4676V46.4857H322.445V45.4676ZM322.445 35.5024H321.427V45.4676H322.445H323.463V35.5024H322.445ZM17.4121 34.9531V35.9713H322.994V34.9531V33.9349H17.4121V34.9531ZM17.4121 46.0168H18.4303V34.9531H17.4121H16.3939V46.0168H17.4121ZM322.994 46.0168V44.9986H17.4121V46.0168V47.035H322.994V46.0168ZM322.994 34.9531H321.976V46.0168H322.994H324.013V34.9531H322.994Z" fill="white" mask="url(#path-8-inside-2_4219_4383)"/>
<path d="M340.21 34.4443V32.4717H0.790039V34.4443H340.21Z" stroke="white" stroke-width="1.01819"/>
<mask id="path-11-inside-3_4219_4383" fill="white">
<path fill-rule="evenodd" clip-rule="evenodd" d="M340.169 34.4039H0.830519V32.5115H340.169V34.4039ZM0.28125 34.9531V31.9622H340.719V34.9531H0.28125Z"/>
</mask>
<path d="M0.830519 34.4039V35.422H-0.187667V34.4039H0.830519ZM340.169 34.4039H341.188V35.422H340.169V34.4039ZM0.830519 32.5115H-0.187667V31.4933H0.830519V32.5115ZM340.169 32.5115V31.4933H341.188V32.5115H340.169ZM0.28125 34.9531V35.9713H-0.736936V34.9531H0.28125ZM0.28125 31.9622H-0.736936V30.944H0.28125V31.9622ZM340.719 31.9622V30.944H341.737V31.9622H340.719ZM340.719 34.9531H341.737V35.9713H340.719V34.9531ZM0.830519 34.4039V33.3857H340.169V34.4039V35.422H0.830519V34.4039ZM0.830519 32.5115H1.8487V34.4039H0.830519H-0.187667V32.5115H0.830519ZM340.169 32.5115V33.5296H0.830519V32.5115V31.4933H340.169V32.5115ZM340.169 34.4039H339.151V32.5115H340.169H341.188V34.4039H340.169ZM0.28125 34.9531V33.9349H340.719V34.9531V35.9713H0.28125V34.9531ZM0.28125 31.9622H1.29944V34.9531H0.28125H-0.736936V31.9622H0.28125ZM340.719 31.9622V32.9804H0.28125V31.9622V30.944H340.719V31.9622ZM340.719 34.9531H339.7V31.9622H340.719H341.737V34.9531H340.719Z" fill="white" mask="url(#path-11-inside-3_4219_4383)"/>
<path d="M330.978 30.9424H12.8457L192.392 1.64453L330.978 30.9424Z" stroke="white" stroke-width="2.03637"/>
<path d="M322.485 132.827V124.61H17.9209V132.827H322.485Z" stroke="white" stroke-width="1.01819"/>
<path d="M51.3477 91.5049V100.555H43.6748V91.5049H51.3477Z" stroke="white" stroke-width="1.01819"/>
<mask id="path-16-inside-4_4219_4383" fill="white">
<path fill-rule="evenodd" clip-rule="evenodd" d="M51.3074 91.5454H43.7153V100.514H51.3074V91.5454ZM43.166 90.9961V101.064H51.8567V90.9961H43.166Z"/>
</mask>
<path d="M43.7153 91.5454V90.5272H42.6971V91.5454H43.7153ZM51.3074 91.5454H52.3256V90.5272H51.3074V91.5454ZM43.7153 100.514H42.6971V101.533H43.7153V100.514ZM51.3074 100.514V101.533H52.3256V100.514H51.3074ZM43.166 90.9961V89.9779H42.1478V90.9961H43.166ZM43.166 101.064H42.1478V102.082H43.166V101.064ZM51.8567 101.064V102.082H52.8749V101.064H51.8567ZM51.8567 90.9961H52.8749V89.9779H51.8567V90.9961ZM43.7153 91.5454V92.5635H51.3074V91.5454V90.5272H43.7153V91.5454ZM43.7153 100.514H44.7335V91.5454H43.7153H42.6971V100.514H43.7153ZM51.3074 100.514V99.4962H43.7153V100.514V101.533H51.3074V100.514ZM51.3074 91.5454H50.2892V100.514H51.3074H52.3256V91.5454H51.3074ZM43.166 90.9961V92.0143H51.8567V90.9961V89.9779H43.166V90.9961ZM43.166 101.064H44.1842V90.9961H43.166H42.1478V101.064H43.166ZM51.8567 101.064V100.045H43.166V101.064V102.082H51.8567V101.064ZM51.8567 90.9961H50.8385V101.064H51.8567H52.8749V90.9961H51.8567Z" fill="white" mask="url(#path-16-inside-4_4219_4383)"/>
<path d="M51.3477 72.6221V81.6719H43.6748V72.6221H51.3477Z" stroke="white" stroke-width="1.01819"/>
<mask id="path-19-inside-5_4219_4383" fill="white">
<path fill-rule="evenodd" clip-rule="evenodd" d="M51.3074 72.6626H43.7153V81.6316H51.3074V72.6626ZM43.166 72.1133V82.1809H51.8567V72.1133H43.166Z"/>
</mask>
<path d="M43.7153 72.6626V71.6444H42.6971V72.6626H43.7153ZM51.3074 72.6626H52.3256V71.6444H51.3074V72.6626ZM43.7153 81.6316H42.6971V82.6498H43.7153V81.6316ZM51.3074 81.6316V82.6498H52.3256V81.6316H51.3074ZM43.166 72.1133V71.0951H42.1478V72.1133H43.166ZM43.166 82.1809H42.1478V83.199H43.166V82.1809ZM51.8567 82.1809V83.199H52.8749V82.1809H51.8567ZM51.8567 72.1133H52.8749V71.0951H51.8567V72.1133ZM43.7153 72.6626V73.6807H51.3074V72.6626V71.6444H43.7153V72.6626ZM43.7153 81.6316H44.7335V72.6626H43.7153H42.6971V81.6316H43.7153ZM51.3074 81.6316V80.6134H43.7153V81.6316V82.6498H51.3074V81.6316ZM51.3074 72.6626H50.2892V81.6316H51.3074H52.3256V72.6626H51.3074ZM43.166 72.1133V73.1315H51.8567V72.1133V71.0951H43.166V72.1133ZM43.166 82.1809H44.1842V72.1133H43.166H42.1478V82.1809H43.166ZM51.8567 82.1809V81.1627H43.166V82.1809V83.199H51.8567V82.1809ZM51.8567 72.1133H50.8385V82.1809H51.8567H52.8749V72.1133H51.8567Z" fill="white" mask="url(#path-19-inside-5_4219_4383)"/>
<path d="M60.0391 91.5049V100.555H52.3662V91.5049H60.0391Z" stroke="white" stroke-width="1.01819"/>
<mask id="path-22-inside-6_4219_4383" fill="white">
<path fill-rule="evenodd" clip-rule="evenodd" d="M59.9988 91.5454H52.4067V100.514H59.9988V91.5454ZM51.8574 90.9961V101.064H60.5481V90.9961H51.8574Z"/>
</mask>
<path d="M52.4067 91.5454V90.5272H51.3885V91.5454H52.4067ZM59.9988 91.5454H61.017V90.5272H59.9988V91.5454ZM52.4067 100.514H51.3885V101.533H52.4067V100.514ZM59.9988 100.514V101.533H61.017V100.514H59.9988ZM51.8574 90.9961V89.9779H50.8392V90.9961H51.8574ZM51.8574 101.064H50.8392V102.082H51.8574V101.064ZM60.5481 101.064V102.082H61.5663V101.064H60.5481ZM60.5481 90.9961H61.5663V89.9779H60.5481V90.9961ZM52.4067 91.5454V92.5635H59.9988V91.5454V90.5272H52.4067V91.5454ZM52.4067 100.514H53.4249V91.5454H52.4067H51.3885V100.514H52.4067ZM59.9988 100.514V99.4962H52.4067V100.514V101.533H59.9988V100.514ZM59.9988 91.5454H58.9806V100.514H59.9988H61.017V91.5454H59.9988ZM51.8574 90.9961V92.0143H60.5481V90.9961V89.9779H51.8574V90.9961ZM51.8574 101.064H52.8756V90.9961H51.8574H50.8392V101.064H51.8574ZM60.5481 101.064V100.045H51.8574V101.064V102.082H60.5481V101.064ZM60.5481 90.9961H59.5299V101.064H60.5481H61.5663V90.9961H60.5481Z" fill="white" mask="url(#path-22-inside-6_4219_4383)"/>
<path d="M60.0391 72.6221V81.6719H52.3662V72.6221H60.0391Z" stroke="white" stroke-width="1.01819"/>
<mask id="path-25-inside-7_4219_4383" fill="white">
<path fill-rule="evenodd" clip-rule="evenodd" d="M59.9988 72.6626H52.4067V81.6316H59.9988V72.6626ZM51.8574 72.1133V82.1809H60.5481V72.1133H51.8574Z"/>
</mask>
<path d="M52.4067 72.6626V71.6444H51.3885V72.6626H52.4067ZM59.9988 72.6626H61.017V71.6444H59.9988V72.6626ZM52.4067 81.6316H51.3885V82.6498H52.4067V81.6316ZM59.9988 81.6316V82.6498H61.017V81.6316H59.9988ZM51.8574 72.1133V71.0951H50.8392V72.1133H51.8574ZM51.8574 82.1809H50.8392V83.199H51.8574V82.1809ZM60.5481 82.1809V83.199H61.5663V82.1809H60.5481ZM60.5481 72.1133H61.5663V71.0951H60.5481V72.1133ZM52.4067 72.6626V73.6807H59.9988V72.6626V71.6444H52.4067V72.6626ZM52.4067 81.6316H53.4249V72.6626H52.4067H51.3885V81.6316H52.4067ZM59.9988 81.6316V80.6134H52.4067V81.6316V82.6498H59.9988V81.6316ZM59.9988 72.6626H58.9806V81.6316H59.9988H61.017V72.6626H59.9988ZM51.8574 72.1133V73.1315H60.5481V72.1133V71.0951H51.8574V72.1133ZM51.8574 82.1809H52.8756V72.1133H51.8574H50.8392V82.1809H51.8574ZM60.5481 82.1809V81.1627H51.8574V82.1809V83.199H60.5481V82.1809ZM60.5481 72.1133H59.5299V82.1809H60.5481H61.5663V72.1133H60.5481Z" fill="white" mask="url(#path-25-inside-7_4219_4383)"/>
<path d="M51.3477 82.0439V91.0938H43.6748V82.0439H51.3477Z" stroke="white" stroke-width="1.01819"/>
<mask id="path-28-inside-8_4219_4383" fill="white">
<path fill-rule="evenodd" clip-rule="evenodd" d="M51.3074 82.0844H43.7153V91.0535H51.3074V82.0844ZM43.166 81.5352V91.6027H51.8567V81.5352H43.166Z"/>
</mask>
<path d="M43.7153 82.0844V81.0662H42.6971V82.0844H43.7153ZM51.3074 82.0844H52.3256V81.0662H51.3074V82.0844ZM43.7153 91.0535H42.6971V92.0716H43.7153V91.0535ZM51.3074 91.0535V92.0716H52.3256V91.0535H51.3074ZM43.166 81.5352V80.517H42.1478V81.5352H43.166ZM43.166 91.6027H42.1478V92.6209H43.166V91.6027ZM51.8567 91.6027V92.6209H52.8749V91.6027H51.8567ZM51.8567 81.5352H52.8749V80.517H51.8567V81.5352ZM43.7153 82.0844V83.1026H51.3074V82.0844V81.0662H43.7153V82.0844ZM43.7153 91.0535H44.7335V82.0844H43.7153H42.6971V91.0535H43.7153ZM51.3074 91.0535V90.0353H43.7153V91.0535V92.0716H51.3074V91.0535ZM51.3074 82.0844H50.2892V91.0535H51.3074H52.3256V82.0844H51.3074ZM43.166 81.5352V82.5533H51.8567V81.5352V80.517H43.166V81.5352ZM43.166 91.6027H44.1842V81.5352H43.166H42.1478V91.6027H43.166ZM51.8567 91.6027V90.5845H43.166V91.6027V92.6209H51.8567V91.6027ZM51.8567 81.5352H50.8385V91.6027H51.8567H52.8749V81.5352H51.8567Z" fill="white" mask="url(#path-28-inside-8_4219_4383)"/>
<path d="M51.3477 63.1611V72.2109H43.6748V63.1611H51.3477Z" stroke="white" stroke-width="1.01819"/>
<mask id="path-31-inside-9_4219_4383" fill="white">
<path fill-rule="evenodd" clip-rule="evenodd" d="M51.3074 63.2016H43.7153V72.1706H51.3074V63.2016ZM43.166 62.6523V72.7199H51.8567V62.6523H43.166Z"/>
</mask>
<path d="M43.7153 63.2016V62.1834H42.6971V63.2016H43.7153ZM51.3074 63.2016H52.3256V62.1834H51.3074V63.2016ZM43.7153 72.1706H42.6971V73.1888H43.7153V72.1706ZM51.3074 72.1706V73.1888H52.3256V72.1706H51.3074ZM43.166 62.6523V61.6342H42.1478V62.6523H43.166ZM43.166 72.7199H42.1478V73.7381H43.166V72.7199ZM51.8567 72.7199V73.7381H52.8749V72.7199H51.8567ZM51.8567 62.6523H52.8749V61.6342H51.8567V62.6523ZM43.7153 63.2016V64.2198H51.3074V63.2016V62.1834H43.7153V63.2016ZM43.7153 72.1706H44.7335V63.2016H43.7153H42.6971V72.1706H43.7153ZM51.3074 72.1706V71.1525H43.7153V72.1706V73.1888H51.3074V72.1706ZM51.3074 63.2016H50.2892V72.1706H51.3074H52.3256V63.2016H51.3074ZM43.166 62.6523V63.6705H51.8567V62.6523V61.6342H43.166V62.6523ZM43.166 72.7199H44.1842V62.6523H43.166H42.1478V72.7199H43.166ZM51.8567 72.7199V71.7017H43.166V72.7199V73.7381H51.8567V72.7199ZM51.8567 62.6523H50.8385V72.7199H51.8567H52.8749V62.6523H51.8567Z" fill="white" mask="url(#path-31-inside-9_4219_4383)"/>
<path d="M60.0391 82.0439V91.0938H52.3662V82.0439H60.0391Z" stroke="white" stroke-width="1.01819"/>
<mask id="path-34-inside-10_4219_4383" fill="white">
<path fill-rule="evenodd" clip-rule="evenodd" d="M59.9988 82.0844H52.4067V91.0535H59.9988V82.0844ZM51.8574 81.5352V91.6027H60.5481V81.5352H51.8574Z"/>
</mask>
<path d="M52.4067 82.0844V81.0662H51.3885V82.0844H52.4067ZM59.9988 82.0844H61.017V81.0662H59.9988V82.0844ZM52.4067 91.0535H51.3885V92.0716H52.4067V91.0535ZM59.9988 91.0535V92.0716H61.017V91.0535H59.9988ZM51.8574 81.5352V80.517H50.8392V81.5352H51.8574ZM51.8574 91.6027H50.8392V92.6209H51.8574V91.6027ZM60.5481 91.6027V92.6209H61.5663V91.6027H60.5481ZM60.5481 81.5352H61.5663V80.517H60.5481V81.5352ZM52.4067 82.0844V83.1026H59.9988V82.0844V81.0662H52.4067V82.0844ZM52.4067 91.0535H53.4249V82.0844H52.4067H51.3885V91.0535H52.4067ZM59.9988 91.0535V90.0353H52.4067V91.0535V92.0716H59.9988V91.0535ZM59.9988 82.0844H58.9806V91.0535H59.9988H61.017V82.0844H59.9988ZM51.8574 81.5352V82.5533H60.5481V81.5352V80.517H51.8574V81.5352ZM51.8574 91.6027H52.8756V81.5352H51.8574H50.8392V91.6027H51.8574ZM60.5481 91.6027V90.5845H51.8574V91.6027V92.6209H60.5481V91.6027ZM60.5481 81.5352H59.5299V91.6027H60.5481H61.5663V81.5352H60.5481Z" fill="white" mask="url(#path-34-inside-10_4219_4383)"/>
<path d="M60.0391 63.1611V72.2109H52.3662V63.1611H60.0391Z" stroke="white" stroke-width="1.01819"/>
<mask id="path-37-inside-11_4219_4383" fill="white">
<path fill-rule="evenodd" clip-rule="evenodd" d="M59.9988 63.2016H52.4067V72.1706H59.9988V63.2016ZM51.8574 62.6523V72.7199H60.5481V62.6523H51.8574Z"/>
</mask>
<path d="M52.4067 63.2016V62.1834H51.3885V63.2016H52.4067ZM59.9988 63.2016H61.017V62.1834H59.9988V63.2016ZM52.4067 72.1706H51.3885V73.1888H52.4067V72.1706ZM59.9988 72.1706V73.1888H61.017V72.1706H59.9988ZM51.8574 62.6523V61.6342H50.8392V62.6523H51.8574ZM51.8574 72.7199H50.8392V73.7381H51.8574V72.7199ZM60.5481 72.7199V73.7381H61.5663V72.7199H60.5481ZM60.5481 62.6523H61.5663V61.6342H60.5481V62.6523ZM52.4067 63.2016V64.2198H59.9988V63.2016V62.1834H52.4067V63.2016ZM52.4067 72.1706H53.4249V63.2016H52.4067H51.3885V72.1706H52.4067ZM59.9988 72.1706V71.1525H52.4067V72.1706V73.1888H59.9988V72.1706ZM59.9988 63.2016H58.9806V72.1706H59.9988H61.017V63.2016H59.9988ZM51.8574 62.6523V63.6705H60.5481V62.6523V61.6342H51.8574V62.6523ZM51.8574 72.7199H52.8756V62.6523H51.8574H50.8392V72.7199H51.8574ZM60.5481 72.7199V71.7017H51.8574V72.7199V73.7381H60.5481V72.7199ZM60.5481 62.6523H59.5299V72.7199H60.5481H61.5663V62.6523H60.5481Z" fill="white" mask="url(#path-37-inside-11_4219_4383)"/>
<mask id="path-39-inside-12_4219_4383" fill="white">
<path d="M42.7559 101.828H61.0341V101.064H42.7559V101.828Z"/>
</mask>
<path d="M42.7559 101.828V102.846H41.7377V101.828H42.7559ZM61.0341 101.828H62.0523V102.846H61.0341V101.828ZM61.0341 101.064V100.046H62.0523V101.064H61.0341ZM42.7559 101.064H41.7377V100.046H42.7559V101.064ZM42.7559 101.828V100.81H61.0341V101.828V102.846H42.7559V101.828ZM61.0341 101.828H60.0159V101.064H61.0341H62.0523V101.828H61.0341ZM61.0341 101.064V102.082H42.7559V101.064V100.046H61.0341V101.064ZM42.7559 101.064H43.774V101.828H42.7559H41.7377V101.064H42.7559Z" fill="white" mask="url(#path-39-inside-12_4219_4383)"/>
<path d="M141.527 91.5049V100.555H133.854V91.5049H141.527Z" stroke="white" stroke-width="1.01819"/>
<mask id="path-42-inside-13_4219_4383" fill="white">
<path fill-rule="evenodd" clip-rule="evenodd" d="M141.487 91.5454H133.895V100.514H141.487V91.5454ZM133.346 90.9961V101.064H142.036V90.9961H133.346Z"/>
</mask>
<path d="M133.895 91.5454V90.5272H132.877V91.5454H133.895ZM141.487 91.5454H142.505V90.5272H141.487V91.5454ZM133.895 100.514H132.877V101.533H133.895V100.514ZM141.487 100.514V101.533H142.505V100.514H141.487ZM133.346 90.9961V89.9779H132.328V90.9961H133.346ZM133.346 101.064H132.328V102.082H133.346V101.064ZM142.036 101.064V102.082H143.055V101.064H142.036ZM142.036 90.9961H143.055V89.9779H142.036V90.9961ZM133.895 91.5454V92.5635H141.487V91.5454V90.5272H133.895V91.5454ZM133.895 100.514H134.913V91.5454H133.895H132.877V100.514H133.895ZM141.487 100.514V99.4962H133.895V100.514V101.533H141.487V100.514ZM141.487 91.5454H140.469V100.514H141.487H142.505V91.5454H141.487ZM133.346 90.9961V92.0143H142.036V90.9961V89.9779H133.346V90.9961ZM133.346 101.064H134.364V90.9961H133.346H132.328V101.064H133.346ZM142.036 101.064V100.045H133.346V101.064V102.082H142.036V101.064ZM142.036 90.9961H141.018V101.064H142.036H143.055V90.9961H142.036Z" fill="white" mask="url(#path-42-inside-13_4219_4383)"/>
<path d="M141.527 72.6221V81.6719H133.854V72.6221H141.527Z" stroke="white" stroke-width="1.01819"/>
<mask id="path-45-inside-14_4219_4383" fill="white">
<path fill-rule="evenodd" clip-rule="evenodd" d="M141.487 72.6626H133.895V81.6316H141.487V72.6626ZM133.346 72.1133V82.1809H142.036V72.1133H133.346Z"/>
</mask>
<path d="M133.895 72.6626V71.6444H132.877V72.6626H133.895ZM141.487 72.6626H142.505V71.6444H141.487V72.6626ZM133.895 81.6316H132.877V82.6498H133.895V81.6316ZM141.487 81.6316V82.6498H142.505V81.6316H141.487ZM133.346 72.1133V71.0951H132.328V72.1133H133.346ZM133.346 82.1809H132.328V83.199H133.346V82.1809ZM142.036 82.1809V83.199H143.055V82.1809H142.036ZM142.036 72.1133H143.055V71.0951H142.036V72.1133ZM133.895 72.6626V73.6807H141.487V72.6626V71.6444H133.895V72.6626ZM133.895 81.6316H134.913V72.6626H133.895H132.877V81.6316H133.895ZM141.487 81.6316V80.6134H133.895V81.6316V82.6498H141.487V81.6316ZM141.487 72.6626H140.469V81.6316H141.487H142.505V72.6626H141.487ZM133.346 72.1133V73.1315H142.036V72.1133V71.0951H133.346V72.1133ZM133.346 82.1809H134.364V72.1133H133.346H132.328V82.1809H133.346ZM142.036 82.1809V81.1627H133.346V82.1809V83.199H142.036V82.1809ZM142.036 72.1133H141.018V82.1809H142.036H143.055V72.1133H142.036Z" fill="white" mask="url(#path-45-inside-14_4219_4383)"/>
<path d="M150.221 91.5049V100.555H142.548V91.5049H150.221Z" stroke="white" stroke-width="1.01819"/>
<mask id="path-48-inside-15_4219_4383" fill="white">
<path fill-rule="evenodd" clip-rule="evenodd" d="M150.18 91.5454H142.588V100.514H150.18V91.5454ZM142.039 90.9961V101.064H150.73V90.9961H142.039Z"/>
</mask>
<path d="M142.588 91.5454V90.5272H141.57V91.5454H142.588ZM150.18 91.5454H151.199V90.5272H150.18V91.5454ZM142.588 100.514H141.57V101.533H142.588V100.514ZM150.18 100.514V101.533H151.199V100.514H150.18ZM142.039 90.9961V89.9779H141.021V90.9961H142.039ZM142.039 101.064H141.021V102.082H142.039V101.064ZM150.73 101.064V102.082H151.748V101.064H150.73ZM150.73 90.9961H151.748V89.9779H150.73V90.9961ZM142.588 91.5454V92.5635H150.18V91.5454V90.5272H142.588V91.5454ZM142.588 100.514H143.607V91.5454H142.588H141.57V100.514H142.588ZM150.18 100.514V99.4962H142.588V100.514V101.533H150.18V100.514ZM150.18 91.5454H149.162V100.514H150.18H151.199V91.5454H150.18ZM142.039 90.9961V92.0143H150.73V90.9961V89.9779H142.039V90.9961ZM142.039 101.064H143.057V90.9961H142.039H141.021V101.064H142.039ZM150.73 101.064V100.045H142.039V101.064V102.082H150.73V101.064ZM150.73 90.9961H149.712V101.064H150.73H151.748V90.9961H150.73Z" fill="white" mask="url(#path-48-inside-15_4219_4383)"/>
<path d="M150.221 72.6221V81.6719H142.548V72.6221H150.221Z" stroke="white" stroke-width="1.01819"/>
<mask id="path-51-inside-16_4219_4383" fill="white">
<path fill-rule="evenodd" clip-rule="evenodd" d="M150.18 72.6626H142.588V81.6316H150.18V72.6626ZM142.039 72.1133V82.1809H150.73V72.1133H142.039Z"/>
</mask>
<path d="M142.588 72.6626V71.6444H141.57V72.6626H142.588ZM150.18 72.6626H151.199V71.6444H150.18V72.6626ZM142.588 81.6316H141.57V82.6498H142.588V81.6316ZM150.18 81.6316V82.6498H151.199V81.6316H150.18ZM142.039 72.1133V71.0951H141.021V72.1133H142.039ZM142.039 82.1809H141.021V83.199H142.039V82.1809ZM150.73 82.1809V83.199H151.748V82.1809H150.73ZM150.73 72.1133H151.748V71.0951H150.73V72.1133ZM142.588 72.6626V73.6807H150.18V72.6626V71.6444H142.588V72.6626ZM142.588 81.6316H143.607V72.6626H142.588H141.57V81.6316H142.588ZM150.18 81.6316V80.6134H142.588V81.6316V82.6498H150.18V81.6316ZM150.18 72.6626H149.162V81.6316H150.18H151.199V72.6626H150.18ZM142.039 72.1133V73.1315H150.73V72.1133V71.0951H142.039V72.1133ZM142.039 82.1809H143.057V72.1133H142.039H141.021V82.1809H142.039ZM150.73 82.1809V81.1627H142.039V82.1809V83.199H150.73V82.1809ZM150.73 72.1133H149.712V82.1809H150.73H151.748V72.1133H150.73Z" fill="white" mask="url(#path-51-inside-16_4219_4383)"/>
<path d="M141.527 82.0439V91.0938H133.854V82.0439H141.527Z" stroke="white" stroke-width="1.01819"/>
<mask id="path-54-inside-17_4219_4383" fill="white">
<path fill-rule="evenodd" clip-rule="evenodd" d="M141.487 82.0844H133.895V91.0535H141.487V82.0844ZM133.346 81.5352V91.6027H142.036V81.5352H133.346Z"/>
</mask>
<path d="M133.895 82.0844V81.0662H132.877V82.0844H133.895ZM141.487 82.0844H142.505V81.0662H141.487V82.0844ZM133.895 91.0535H132.877V92.0716H133.895V91.0535ZM141.487 91.0535V92.0716H142.505V91.0535H141.487ZM133.346 81.5352V80.517H132.328V81.5352H133.346ZM133.346 91.6027H132.328V92.6209H133.346V91.6027ZM142.036 91.6027V92.6209H143.055V91.6027H142.036ZM142.036 81.5352H143.055V80.517H142.036V81.5352ZM133.895 82.0844V83.1026H141.487V82.0844V81.0662H133.895V82.0844ZM133.895 91.0535H134.913V82.0844H133.895H132.877V91.0535H133.895ZM141.487 91.0535V90.0353H133.895V91.0535V92.0716H141.487V91.0535ZM141.487 82.0844H140.469V91.0535H141.487H142.505V82.0844H141.487ZM133.346 81.5352V82.5533H142.036V81.5352V80.517H133.346V81.5352ZM133.346 91.6027H134.364V81.5352H133.346H132.328V91.6027H133.346ZM142.036 91.6027V90.5845H133.346V91.6027V92.6209H142.036V91.6027ZM142.036 81.5352H141.018V91.6027H142.036H143.055V81.5352H142.036Z" fill="white" mask="url(#path-54-inside-17_4219_4383)"/>
<path d="M141.527 63.1611V72.2109H133.854V63.1611H141.527Z" stroke="white" stroke-width="1.01819"/>
<mask id="path-57-inside-18_4219_4383" fill="white">
<path fill-rule="evenodd" clip-rule="evenodd" d="M141.487 63.2016H133.895V72.1706H141.487V63.2016ZM133.346 62.6523V72.7199H142.036V62.6523H133.346Z"/>
</mask>
<path d="M133.895 63.2016V62.1834H132.877V63.2016H133.895ZM141.487 63.2016H142.505V62.1834H141.487V63.2016ZM133.895 72.1706H132.877V73.1888H133.895V72.1706ZM141.487 72.1706V73.1888H142.505V72.1706H141.487ZM133.346 62.6523V61.6342H132.328V62.6523H133.346ZM133.346 72.7199H132.328V73.7381H133.346V72.7199ZM142.036 72.7199V73.7381H143.055V72.7199H142.036ZM142.036 62.6523H143.055V61.6342H142.036V62.6523ZM133.895 63.2016V64.2198H141.487V63.2016V62.1834H133.895V63.2016ZM133.895 72.1706H134.913V63.2016H133.895H132.877V72.1706H133.895ZM141.487 72.1706V71.1525H133.895V72.1706V73.1888H141.487V72.1706ZM141.487 63.2016H140.469V72.1706H141.487H142.505V63.2016H141.487ZM133.346 62.6523V63.6705H142.036V62.6523V61.6342H133.346V62.6523ZM133.346 72.7199H134.364V62.6523H133.346H132.328V72.7199H133.346ZM142.036 72.7199V71.7017H133.346V72.7199V73.7381H142.036V72.7199ZM142.036 62.6523H141.018V72.7199H142.036H143.055V62.6523H142.036Z" fill="white" mask="url(#path-57-inside-18_4219_4383)"/>
<path d="M150.221 82.0439V91.0938H142.548V82.0439H150.221Z" stroke="white" stroke-width="1.01819"/>
<mask id="path-60-inside-19_4219_4383" fill="white">
<path fill-rule="evenodd" clip-rule="evenodd" d="M150.18 82.0844H142.588V91.0535H150.18V82.0844ZM142.039 81.5352V91.6027H150.73V81.5352H142.039Z"/>
</mask>
<path d="M142.588 82.0844V81.0662H141.57V82.0844H142.588ZM150.18 82.0844H151.199V81.0662H150.18V82.0844ZM142.588 91.0535H141.57V92.0716H142.588V91.0535ZM150.18 91.0535V92.0716H151.199V91.0535H150.18ZM142.039 81.5352V80.517H141.021V81.5352H142.039ZM142.039 91.6027H141.021V92.6209H142.039V91.6027ZM150.73 91.6027V92.6209H151.748V91.6027H150.73ZM150.73 81.5352H151.748V80.517H150.73V81.5352ZM142.588 82.0844V83.1026H150.18V82.0844V81.0662H142.588V82.0844ZM142.588 91.0535H143.607V82.0844H142.588H141.57V91.0535H142.588ZM150.18 91.0535V90.0353H142.588V91.0535V92.0716H150.18V91.0535ZM150.18 82.0844H149.162V91.0535H150.18H151.199V82.0844H150.18ZM142.039 81.5352V82.5533H150.73V81.5352V80.517H142.039V81.5352ZM142.039 91.6027H143.057V81.5352H142.039H141.021V91.6027H142.039ZM150.73 91.6027V90.5845H142.039V91.6027V92.6209H150.73V91.6027ZM150.73 81.5352H149.712V91.6027H150.73H151.748V81.5352H150.73Z" fill="white" mask="url(#path-60-inside-19_4219_4383)"/>
<path d="M150.221 63.1611V72.2109H142.548V63.1611H150.221Z" stroke="white" stroke-width="1.01819"/>
<mask id="path-63-inside-20_4219_4383" fill="white">
<path fill-rule="evenodd" clip-rule="evenodd" d="M150.18 63.2016H142.588V72.1706H150.18V63.2016ZM142.039 62.6523V72.7199H150.73V62.6523H142.039Z"/>
</mask>
<path d="M142.588 63.2016V62.1834H141.57V63.2016H142.588ZM150.18 63.2016H151.199V62.1834H150.18V63.2016ZM142.588 72.1706H141.57V73.1888H142.588V72.1706ZM150.18 72.1706V73.1888H151.199V72.1706H150.18ZM142.039 62.6523V61.6342H141.021V62.6523H142.039ZM142.039 72.7199H141.021V73.7381H142.039V72.7199ZM150.73 72.7199V73.7381H151.748V72.7199H150.73ZM150.73 62.6523H151.748V61.6342H150.73V62.6523ZM142.588 63.2016V64.2198H150.18V63.2016V62.1834H142.588V63.2016ZM142.588 72.1706H143.607V63.2016H142.588H141.57V72.1706H142.588ZM150.18 72.1706V71.1525H142.588V72.1706V73.1888H150.18V72.1706ZM150.18 63.2016H149.162V72.1706H150.18H151.199V63.2016H150.18ZM142.039 62.6523V63.6705H150.73V62.6523V61.6342H142.039V62.6523ZM142.039 72.7199H143.057V62.6523H142.039H141.021V72.7199H142.039ZM150.73 72.7199V71.7017H142.039V72.7199V73.7381H150.73V72.7199ZM150.73 62.6523H149.712V72.7199H150.73H151.748V62.6523H150.73Z" fill="white" mask="url(#path-63-inside-20_4219_4383)"/>
<mask id="path-65-inside-21_4219_4383" fill="white">
<path d="M132.938 101.828H151.216V101.064H132.938V101.828Z"/>
</mask>
<path d="M132.938 101.828V102.846H131.919V101.828H132.938ZM151.216 101.828H152.234V102.846H151.216V101.828ZM151.216 101.064V100.046H152.234V101.064H151.216ZM132.938 101.064H131.919V100.046H132.938V101.064ZM132.938 101.828V100.81H151.216V101.828V102.846H132.938V101.828ZM151.216 101.828H150.198V101.064H151.216H152.234V101.828H151.216ZM151.216 101.064V102.082H132.938V101.064V100.046H151.216V101.064ZM132.938 101.064H133.956V101.828H132.938H131.919V101.064H132.938Z" fill="white" mask="url(#path-65-inside-21_4219_4383)"/>
<path d="M93.8711 91.5049V100.555H86.1982V91.5049H93.8711Z" stroke="white" stroke-width="1.01819"/>
<mask id="path-68-inside-22_4219_4383" fill="white">
<path fill-rule="evenodd" clip-rule="evenodd" d="M93.8309 91.5454H86.2387V100.514H93.8309V91.5454ZM85.6895 90.9961V101.064H94.3801V90.9961H85.6895Z"/>
</mask>
<path d="M86.2387 91.5454V90.5272H85.2205V91.5454H86.2387ZM93.8309 91.5454H94.8491V90.5272H93.8309V91.5454ZM86.2387 100.514H85.2205V101.533H86.2387V100.514ZM93.8309 100.514V101.533H94.8491V100.514H93.8309ZM85.6895 90.9961V89.9779H84.6713V90.9961H85.6895ZM85.6895 101.064H84.6713V102.082H85.6895V101.064ZM94.3801 101.064V102.082H95.3983V101.064H94.3801ZM94.3801 90.9961H95.3983V89.9779H94.3801V90.9961ZM86.2387 91.5454V92.5635H93.8309V91.5454V90.5272H86.2387V91.5454ZM86.2387 100.514H87.2569V91.5454H86.2387H85.2205V100.514H86.2387ZM93.8309 100.514V99.4962H86.2387V100.514V101.533H93.8309V100.514ZM93.8309 91.5454H92.8127V100.514H93.8309H94.8491V91.5454H93.8309ZM85.6895 90.9961V92.0143H94.3801V90.9961V89.9779H85.6895V90.9961ZM85.6895 101.064H86.7076V90.9961H85.6895H84.6713V101.064H85.6895ZM94.3801 101.064V100.045H85.6895V101.064V102.082H94.3801V101.064ZM94.3801 90.9961H93.3619V101.064H94.3801H95.3983V90.9961H94.3801Z" fill="white" mask="url(#path-68-inside-22_4219_4383)"/>
<path d="M93.8711 72.6221V81.6719H86.1982V72.6221H93.8711Z" stroke="white" stroke-width="1.01819"/>
<mask id="path-71-inside-23_4219_4383" fill="white">
<path fill-rule="evenodd" clip-rule="evenodd" d="M93.8309 72.6626H86.2387V81.6316H93.8309V72.6626ZM85.6895 72.1133V82.1809H94.3801V72.1133H85.6895Z"/>
</mask>
<path d="M86.2387 72.6626V71.6444H85.2205V72.6626H86.2387ZM93.8309 72.6626H94.8491V71.6444H93.8309V72.6626ZM86.2387 81.6316H85.2205V82.6498H86.2387V81.6316ZM93.8309 81.6316V82.6498H94.8491V81.6316H93.8309ZM85.6895 72.1133V71.0951H84.6713V72.1133H85.6895ZM85.6895 82.1809H84.6713V83.199H85.6895V82.1809ZM94.3801 82.1809V83.199H95.3983V82.1809H94.3801ZM94.3801 72.1133H95.3983V71.0951H94.3801V72.1133ZM86.2387 72.6626V73.6807H93.8309V72.6626V71.6444H86.2387V72.6626ZM86.2387 81.6316H87.2569V72.6626H86.2387H85.2205V81.6316H86.2387ZM93.8309 81.6316V80.6134H86.2387V81.6316V82.6498H93.8309V81.6316ZM93.8309 72.6626H92.8127V81.6316H93.8309H94.8491V72.6626H93.8309ZM85.6895 72.1133V73.1315H94.3801V72.1133V71.0951H85.6895V72.1133ZM85.6895 82.1809H86.7076V72.1133H85.6895H84.6713V82.1809H85.6895ZM94.3801 82.1809V81.1627H85.6895V82.1809V83.199H94.3801V82.1809ZM94.3801 72.1133H93.3619V82.1809H94.3801H95.3983V72.1133H94.3801Z" fill="white" mask="url(#path-71-inside-23_4219_4383)"/>
<path d="M102.562 91.5049V100.555H94.8896V91.5049H102.562Z" stroke="white" stroke-width="1.01819"/>
<mask id="path-74-inside-24_4219_4383" fill="white">
<path fill-rule="evenodd" clip-rule="evenodd" d="M102.522 91.5454H94.9301V100.514H102.522V91.5454ZM94.3809 90.9961V101.064H103.072V90.9961H94.3809Z"/>
</mask>
<path d="M94.9301 91.5454V90.5272H93.9119V91.5454H94.9301ZM102.522 91.5454H103.54V90.5272H102.522V91.5454ZM94.9301 100.514H93.9119V101.533H94.9301V100.514ZM102.522 100.514V101.533H103.54V100.514H102.522ZM94.3809 90.9961V89.9779H93.3627V90.9961H94.3809ZM94.3809 101.064H93.3627V102.082H94.3809V101.064ZM103.072 101.064V102.082H104.09V101.064H103.072ZM103.072 90.9961H104.09V89.9779H103.072V90.9961ZM94.9301 91.5454V92.5635H102.522V91.5454V90.5272H94.9301V91.5454ZM94.9301 100.514H95.9483V91.5454H94.9301H93.9119V100.514H94.9301ZM102.522 100.514V99.4962H94.9301V100.514V101.533H102.522V100.514ZM102.522 91.5454H101.504V100.514H102.522H103.54V91.5454H102.522ZM94.3809 90.9961V92.0143H103.072V90.9961V89.9779H94.3809V90.9961ZM94.3809 101.064H95.399V90.9961H94.3809H93.3627V101.064H94.3809ZM103.072 101.064V100.045H94.3809V101.064V102.082H103.072V101.064ZM103.072 90.9961H102.053V101.064H103.072H104.09V90.9961H103.072Z" fill="white" mask="url(#path-74-inside-24_4219_4383)"/>
<path d="M102.562 72.6221V81.6719H94.8896V72.6221H102.562Z" stroke="white" stroke-width="1.01819"/>
<mask id="path-77-inside-25_4219_4383" fill="white">
<path fill-rule="evenodd" clip-rule="evenodd" d="M102.522 72.6626H94.9301V81.6316H102.522V72.6626ZM94.3809 72.1133V82.1809H103.072V72.1133H94.3809Z"/>
</mask>
<path d="M94.9301 72.6626V71.6444H93.9119V72.6626H94.9301ZM102.522 72.6626H103.54V71.6444H102.522V72.6626ZM94.9301 81.6316H93.9119V82.6498H94.9301V81.6316ZM102.522 81.6316V82.6498H103.54V81.6316H102.522ZM94.3809 72.1133V71.0951H93.3627V72.1133H94.3809ZM94.3809 82.1809H93.3627V83.199H94.3809V82.1809ZM103.072 82.1809V83.199H104.09V82.1809H103.072ZM103.072 72.1133H104.09V71.0951H103.072V72.1133ZM94.9301 72.6626V73.6807H102.522V72.6626V71.6444H94.9301V72.6626ZM94.9301 81.6316H95.9483V72.6626H94.9301H93.9119V81.6316H94.9301ZM102.522 81.6316V80.6134H94.9301V81.6316V82.6498H102.522V81.6316ZM102.522 72.6626H101.504V81.6316H102.522H103.54V72.6626H102.522ZM94.3809 72.1133V73.1315H103.072V72.1133V71.0951H94.3809V72.1133ZM94.3809 82.1809H95.399V72.1133H94.3809H93.3627V82.1809H94.3809ZM103.072 82.1809V81.1627H94.3809V82.1809V83.199H103.072V82.1809ZM103.072 72.1133H102.053V82.1809H103.072H104.09V72.1133H103.072Z" fill="white" mask="url(#path-77-inside-25_4219_4383)"/>
<path d="M93.8711 82.0439V91.0938H86.1982V82.0439H93.8711Z" stroke="white" stroke-width="1.01819"/>
<mask id="path-80-inside-26_4219_4383" fill="white">
<path fill-rule="evenodd" clip-rule="evenodd" d="M93.8309 82.0844H86.2387V91.0535H93.8309V82.0844ZM85.6895 81.5352V91.6027H94.3801V81.5352H85.6895Z"/>
</mask>
<path d="M86.2387 82.0844V81.0662H85.2205V82.0844H86.2387ZM93.8309 82.0844H94.8491V81.0662H93.8309V82.0844ZM86.2387 91.0535H85.2205V92.0716H86.2387V91.0535ZM93.8309 91.0535V92.0716H94.8491V91.0535H93.8309ZM85.6895 81.5352V80.517H84.6713V81.5352H85.6895ZM85.6895 91.6027H84.6713V92.6209H85.6895V91.6027ZM94.3801 91.6027V92.6209H95.3983V91.6027H94.3801ZM94.3801 81.5352H95.3983V80.517H94.3801V81.5352ZM86.2387 82.0844V83.1026H93.8309V82.0844V81.0662H86.2387V82.0844ZM86.2387 91.0535H87.2569V82.0844H86.2387H85.2205V91.0535H86.2387ZM93.8309 91.0535V90.0353H86.2387V91.0535V92.0716H93.8309V91.0535ZM93.8309 82.0844H92.8127V91.0535H93.8309H94.8491V82.0844H93.8309ZM85.6895 81.5352V82.5533H94.3801V81.5352V80.517H85.6895V81.5352ZM85.6895 91.6027H86.7076V81.5352H85.6895H84.6713V91.6027H85.6895ZM94.3801 91.6027V90.5845H85.6895V91.6027V92.6209H94.3801V91.6027ZM94.3801 81.5352H93.3619V91.6027H94.3801H95.3983V81.5352H94.3801Z" fill="white" mask="url(#path-80-inside-26_4219_4383)"/>
<path d="M93.8711 63.1611V72.2109H86.1982V63.1611H93.8711Z" stroke="white" stroke-width="1.01819"/>
<mask id="path-83-inside-27_4219_4383" fill="white">
<path fill-rule="evenodd" clip-rule="evenodd" d="M93.8309 63.2016H86.2387V72.1706H93.8309V63.2016ZM85.6895 62.6523V72.7199H94.3801V62.6523H85.6895Z"/>
</mask>
<path d="M86.2387 63.2016V62.1834H85.2205V63.2016H86.2387ZM93.8309 63.2016H94.8491V62.1834H93.8309V63.2016ZM86.2387 72.1706H85.2205V73.1888H86.2387V72.1706ZM93.8309 72.1706V73.1888H94.8491V72.1706H93.8309ZM85.6895 62.6523V61.6342H84.6713V62.6523H85.6895ZM85.6895 72.7199H84.6713V73.7381H85.6895V72.7199ZM94.3801 72.7199V73.7381H95.3983V72.7199H94.3801ZM94.3801 62.6523H95.3983V61.6342H94.3801V62.6523ZM86.2387 63.2016V64.2198H93.8309V63.2016V62.1834H86.2387V63.2016ZM86.2387 72.1706H87.2569V63.2016H86.2387H85.2205V72.1706H86.2387ZM93.8309 72.1706V71.1525H86.2387V72.1706V73.1888H93.8309V72.1706ZM93.8309 63.2016H92.8127V72.1706H93.8309H94.8491V63.2016H93.8309ZM85.6895 62.6523V63.6705H94.3801V62.6523V61.6342H85.6895V62.6523ZM85.6895 72.7199H86.7076V62.6523H85.6895H84.6713V72.7199H85.6895ZM94.3801 72.7199V71.7017H85.6895V72.7199V73.7381H94.3801V72.7199ZM94.3801 62.6523H93.3619V72.7199H94.3801H95.3983V62.6523H94.3801Z" fill="white" mask="url(#path-83-inside-27_4219_4383)"/>
<path d="M102.562 82.0439V91.0938H94.8896V82.0439H102.562Z" stroke="white" stroke-width="1.01819"/>
<mask id="path-86-inside-28_4219_4383" fill="white">
<path fill-rule="evenodd" clip-rule="evenodd" d="M102.522 82.0844H94.9301V91.0535H102.522V82.0844ZM94.3809 81.5352V91.6027H103.072V81.5352H94.3809Z"/>
</mask>
<path d="M94.9301 82.0844V81.0662H93.9119V82.0844H94.9301ZM102.522 82.0844H103.54V81.0662H102.522V82.0844ZM94.9301 91.0535H93.9119V92.0716H94.9301V91.0535ZM102.522 91.0535V92.0716H103.54V91.0535H102.522ZM94.3809 81.5352V80.517H93.3627V81.5352H94.3809ZM94.3809 91.6027H93.3627V92.6209H94.3809V91.6027ZM103.072 91.6027V92.6209H104.09V91.6027H103.072ZM103.072 81.5352H104.09V80.517H103.072V81.5352ZM94.9301 82.0844V83.1026H102.522V82.0844V81.0662H94.9301V82.0844ZM94.9301 91.0535H95.9483V82.0844H94.9301H93.9119V91.0535H94.9301ZM102.522 91.0535V90.0353H94.9301V91.0535V92.0716H102.522V91.0535ZM102.522 82.0844H101.504V91.0535H102.522H103.54V82.0844H102.522ZM94.3809 81.5352V82.5533H103.072V81.5352V80.517H94.3809V81.5352ZM94.3809 91.6027H95.399V81.5352H94.3809H93.3627V91.6027H94.3809ZM103.072 91.6027V90.5845H94.3809V91.6027V92.6209H103.072V91.6027ZM103.072 81.5352H102.053V91.6027H103.072H104.09V81.5352H103.072Z" fill="white" mask="url(#path-86-inside-28_4219_4383)"/>
<path d="M102.562 63.1611V72.2109H94.8896V63.1611H102.562Z" stroke="white" stroke-width="1.01819"/>
<mask id="path-89-inside-29_4219_4383" fill="white">
<path fill-rule="evenodd" clip-rule="evenodd" d="M102.522 63.2016H94.9301V72.1706H102.522V63.2016ZM94.3809 62.6523V72.7199H103.072V62.6523H94.3809Z"/>
</mask>
<path d="M94.9301 63.2016V62.1834H93.9119V63.2016H94.9301ZM102.522 63.2016H103.54V62.1834H102.522V63.2016ZM94.9301 72.1706H93.9119V73.1888H94.9301V72.1706ZM102.522 72.1706V73.1888H103.54V72.1706H102.522ZM94.3809 62.6523V61.6342H93.3627V62.6523H94.3809ZM94.3809 72.7199H93.3627V73.7381H94.3809V72.7199ZM103.072 72.7199V73.7381H104.09V72.7199H103.072ZM103.072 62.6523H104.09V61.6342H103.072V62.6523ZM94.9301 63.2016V64.2198H102.522V63.2016V62.1834H94.9301V63.2016ZM94.9301 72.1706H95.9483V63.2016H94.9301H93.9119V72.1706H94.9301ZM102.522 72.1706V71.1525H94.9301V72.1706V73.1888H102.522V72.1706ZM102.522 63.2016H101.504V72.1706H102.522H103.54V63.2016H102.522ZM94.3809 62.6523V63.6705H103.072V62.6523V61.6342H94.3809V62.6523ZM94.3809 72.7199H95.399V62.6523H94.3809H93.3627V72.7199H94.3809ZM103.072 72.7199V71.7017H94.3809V72.7199V73.7381H103.072V72.7199ZM103.072 62.6523H102.053V72.7199H103.072H104.09V62.6523H103.072Z" fill="white" mask="url(#path-89-inside-29_4219_4383)"/>
<mask id="path-91-inside-30_4219_4383" fill="white">
<path d="M85.2793 101.828H103.558V101.064H85.2793V101.828Z"/>
</mask>
<path d="M85.2793 101.828V102.846H84.2611V101.828H85.2793ZM103.558 101.828H104.576V102.846H103.558V101.828ZM103.558 101.064V100.046H104.576V101.064H103.558ZM85.2793 101.064H84.2611V100.046H85.2793V101.064ZM85.2793 101.828V100.81H103.558V101.828V102.846H85.2793V101.828ZM103.558 101.828H102.539V101.064H103.558H104.576V101.828H103.558ZM103.558 101.064V102.082H85.2793V101.064V100.046H103.558V101.064ZM85.2793 101.064H86.2975V101.828H85.2793H84.2611V101.064H85.2793Z" fill="white" mask="url(#path-91-inside-30_4219_4383)"/>
<path d="M184.055 91.5049V100.555H176.382V91.5049H184.055Z" stroke="white" stroke-width="1.01819"/>
<mask id="path-94-inside-31_4219_4383" fill="white">
<path fill-rule="evenodd" clip-rule="evenodd" d="M184.014 91.5454H176.422V100.514H184.014V91.5454ZM175.873 90.9961V101.064H184.564V90.9961H175.873Z"/>
</mask>
<path d="M176.422 91.5454V90.5272H175.404V91.5454H176.422ZM184.014 91.5454H185.033V90.5272H184.014V91.5454ZM176.422 100.514H175.404V101.533H176.422V100.514ZM184.014 100.514V101.533H185.033V100.514H184.014ZM175.873 90.9961V89.9779H174.855V90.9961H175.873ZM175.873 101.064H174.855V102.082H175.873V101.064ZM184.564 101.064V102.082H185.582V101.064H184.564ZM184.564 90.9961H185.582V89.9779H184.564V90.9961ZM176.422 91.5454V92.5635H184.014V91.5454V90.5272H176.422V91.5454ZM176.422 100.514H177.441V91.5454H176.422H175.404V100.514H176.422ZM184.014 100.514V99.4962H176.422V100.514V101.533H184.014V100.514ZM184.014 91.5454H182.996V100.514H184.014H185.033V91.5454H184.014ZM175.873 90.9961V92.0143H184.564V90.9961V89.9779H175.873V90.9961ZM175.873 101.064H176.891V90.9961H175.873H174.855V101.064H175.873ZM184.564 101.064V100.045H175.873V101.064V102.082H184.564V101.064ZM184.564 90.9961H183.546V101.064H184.564H185.582V90.9961H184.564Z" fill="white" mask="url(#path-94-inside-31_4219_4383)"/>
<path d="M184.055 72.6221V81.6719H176.382V72.6221H184.055Z" stroke="white" stroke-width="1.01819"/>
<mask id="path-97-inside-32_4219_4383" fill="white">
<path fill-rule="evenodd" clip-rule="evenodd" d="M184.014 72.6626H176.422V81.6316H184.014V72.6626ZM175.873 72.1133V82.1809H184.564V72.1133H175.873Z"/>
</mask>
<path d="M176.422 72.6626V71.6444H175.404V72.6626H176.422ZM184.014 72.6626H185.033V71.6444H184.014V72.6626ZM176.422 81.6316H175.404V82.6498H176.422V81.6316ZM184.014 81.6316V82.6498H185.033V81.6316H184.014ZM175.873 72.1133V71.0951H174.855V72.1133H175.873ZM175.873 82.1809H174.855V83.199H175.873V82.1809ZM184.564 82.1809V83.199H185.582V82.1809H184.564ZM184.564 72.1133H185.582V71.0951H184.564V72.1133ZM176.422 72.6626V73.6807H184.014V72.6626V71.6444H176.422V72.6626ZM176.422 81.6316H177.441V72.6626H176.422H175.404V81.6316H176.422ZM184.014 81.6316V80.6134H176.422V81.6316V82.6498H184.014V81.6316ZM184.014 72.6626H182.996V81.6316H184.014H185.033V72.6626H184.014ZM175.873 72.1133V73.1315H184.564V72.1133V71.0951H175.873V72.1133ZM175.873 82.1809H176.891V72.1133H175.873H174.855V82.1809H175.873ZM184.564 82.1809V81.1627H175.873V82.1809V83.199H184.564V82.1809ZM184.564 72.1133H183.546V82.1809H184.564H185.582V72.1133H184.564Z" fill="white" mask="url(#path-97-inside-32_4219_4383)"/>
<path d="M192.744 91.5049V100.555H185.071V91.5049H192.744Z" stroke="white" stroke-width="1.01819"/>
<mask id="path-100-inside-33_4219_4383" fill="white">
<path fill-rule="evenodd" clip-rule="evenodd" d="M192.704 91.5454H185.112V100.514H192.704V91.5454ZM184.562 90.9961V101.064H193.253V90.9961H184.562Z"/>
</mask>
<path d="M185.112 91.5454V90.5272H184.094V91.5454H185.112ZM192.704 91.5454H193.722V90.5272H192.704V91.5454ZM185.112 100.514H184.094V101.533H185.112V100.514ZM192.704 100.514V101.533H193.722V100.514H192.704ZM184.562 90.9961V89.9779H183.544V90.9961H184.562ZM184.562 101.064H183.544V102.082H184.562V101.064ZM193.253 101.064V102.082H194.271V101.064H193.253ZM193.253 90.9961H194.271V89.9779H193.253V90.9961ZM185.112 91.5454V92.5635H192.704V91.5454V90.5272H185.112V91.5454ZM185.112 100.514H186.13V91.5454H185.112H184.094V100.514H185.112ZM192.704 100.514V99.4962H185.112V100.514V101.533H192.704V100.514ZM192.704 91.5454H191.686V100.514H192.704H193.722V91.5454H192.704ZM184.562 90.9961V92.0143H193.253V90.9961V89.9779H184.562V90.9961ZM184.562 101.064H185.581V90.9961H184.562H183.544V101.064H184.562ZM193.253 101.064V100.045H184.562V101.064V102.082H193.253V101.064ZM193.253 90.9961H192.235V101.064H193.253H194.271V90.9961H193.253Z" fill="white" mask="url(#path-100-inside-33_4219_4383)"/>
<path d="M192.744 72.6221V81.6719H185.071V72.6221H192.744Z" stroke="white" stroke-width="1.01819"/>
<mask id="path-103-inside-34_4219_4383" fill="white">
<path fill-rule="evenodd" clip-rule="evenodd" d="M192.704 72.6626H185.112V81.6316H192.704V72.6626ZM184.562 72.1133V82.1809H193.253V72.1133H184.562Z"/>
</mask>
<path d="M185.112 72.6626V71.6444H184.094V72.6626H185.112ZM192.704 72.6626H193.722V71.6444H192.704V72.6626ZM185.112 81.6316H184.094V82.6498H185.112V81.6316ZM192.704 81.6316V82.6498H193.722V81.6316H192.704ZM184.562 72.1133V71.0951H183.544V72.1133H184.562ZM184.562 82.1809H183.544V83.199H184.562V82.1809ZM193.253 82.1809V83.199H194.271V82.1809H193.253ZM193.253 72.1133H194.271V71.0951H193.253V72.1133ZM185.112 72.6626V73.6807H192.704V72.6626V71.6444H185.112V72.6626ZM185.112 81.6316H186.13V72.6626H185.112H184.094V81.6316H185.112ZM192.704 81.6316V80.6134H185.112V81.6316V82.6498H192.704V81.6316ZM192.704 72.6626H191.686V81.6316H192.704H193.722V72.6626H192.704ZM184.562 72.1133V73.1315H193.253V72.1133V71.0951H184.562V72.1133ZM184.562 82.1809H185.581V72.1133H184.562H183.544V82.1809H184.562ZM193.253 82.1809V81.1627H184.562V82.1809V83.199H193.253V82.1809ZM193.253 72.1133H192.235V82.1809H193.253H194.271V72.1133H193.253Z" fill="white" mask="url(#path-103-inside-34_4219_4383)"/>
<path d="M184.055 82.0439V91.0938H176.382V82.0439H184.055Z" stroke="white" stroke-width="1.01819"/>
<mask id="path-106-inside-35_4219_4383" fill="white">
<path fill-rule="evenodd" clip-rule="evenodd" d="M184.014 82.0844H176.422V91.0535H184.014V82.0844ZM175.873 81.5352V91.6027H184.564V81.5352H175.873Z"/>
</mask>
<path d="M176.422 82.0844V81.0662H175.404V82.0844H176.422ZM184.014 82.0844H185.033V81.0662H184.014V82.0844ZM176.422 91.0535H175.404V92.0716H176.422V91.0535ZM184.014 91.0535V92.0716H185.033V91.0535H184.014ZM175.873 81.5352V80.517H174.855V81.5352H175.873ZM175.873 91.6027H174.855V92.6209H175.873V91.6027ZM184.564 91.6027V92.6209H185.582V91.6027H184.564ZM184.564 81.5352H185.582V80.517H184.564V81.5352ZM176.422 82.0844V83.1026H184.014V82.0844V81.0662H176.422V82.0844ZM176.422 91.0535H177.441V82.0844H176.422H175.404V91.0535H176.422ZM184.014 91.0535V90.0353H176.422V91.0535V92.0716H184.014V91.0535ZM184.014 82.0844H182.996V91.0535H184.014H185.033V82.0844H184.014ZM175.873 81.5352V82.5533H184.564V81.5352V80.517H175.873V81.5352ZM175.873 91.6027H176.891V81.5352H175.873H174.855V91.6027H175.873ZM184.564 91.6027V90.5845H175.873V91.6027V92.6209H184.564V91.6027ZM184.564 81.5352H183.546V91.6027H184.564H185.582V81.5352H184.564Z" fill="white" mask="url(#path-106-inside-35_4219_4383)"/>
<path d="M184.055 63.1611V72.2109H176.382V63.1611H184.055Z" stroke="white" stroke-width="1.01819"/>
<mask id="path-109-inside-36_4219_4383" fill="white">
<path fill-rule="evenodd" clip-rule="evenodd" d="M184.014 63.2016H176.422V72.1706H184.014V63.2016ZM175.873 62.6523V72.7199H184.564V62.6523H175.873Z"/>
</mask>
<path d="M176.422 63.2016V62.1834H175.404V63.2016H176.422ZM184.014 63.2016H185.033V62.1834H184.014V63.2016ZM176.422 72.1706H175.404V73.1888H176.422V72.1706ZM184.014 72.1706V73.1888H185.033V72.1706H184.014ZM175.873 62.6523V61.6342H174.855V62.6523H175.873ZM175.873 72.7199H174.855V73.7381H175.873V72.7199ZM184.564 72.7199V73.7381H185.582V72.7199H184.564ZM184.564 62.6523H185.582V61.6342H184.564V62.6523ZM176.422 63.2016V64.2198H184.014V63.2016V62.1834H176.422V63.2016ZM176.422 72.1706H177.441V63.2016H176.422H175.404V72.1706H176.422ZM184.014 72.1706V71.1525H176.422V72.1706V73.1888H184.014V72.1706ZM184.014 63.2016H182.996V72.1706H184.014H185.033V63.2016H184.014ZM175.873 62.6523V63.6705H184.564V62.6523V61.6342H175.873V62.6523ZM175.873 72.7199H176.891V62.6523H175.873H174.855V72.7199H175.873ZM184.564 72.7199V71.7017H175.873V72.7199V73.7381H184.564V72.7199ZM184.564 62.6523H183.546V72.7199H184.564H185.582V62.6523H184.564Z" fill="white" mask="url(#path-109-inside-36_4219_4383)"/>
<path d="M192.744 82.0439V91.0938H185.071V82.0439H192.744Z" stroke="white" stroke-width="1.01819"/>
<mask id="path-112-inside-37_4219_4383" fill="white">
<path fill-rule="evenodd" clip-rule="evenodd" d="M192.704 82.0844H185.112V91.0535H192.704V82.0844ZM184.562 81.5352V91.6027H193.253V81.5352H184.562Z"/>
</mask>
<path d="M185.112 82.0844V81.0662H184.094V82.0844H185.112ZM192.704 82.0844H193.722V81.0662H192.704V82.0844ZM185.112 91.0535H184.094V92.0716H185.112V91.0535ZM192.704 91.0535V92.0716H193.722V91.0535H192.704ZM184.562 81.5352V80.517H183.544V81.5352H184.562ZM184.562 91.6027H183.544V92.6209H184.562V91.6027ZM193.253 91.6027V92.6209H194.271V91.6027H193.253ZM193.253 81.5352H194.271V80.517H193.253V81.5352ZM185.112 82.0844V83.1026H192.704V82.0844V81.0662H185.112V82.0844ZM185.112 91.0535H186.13V82.0844H185.112H184.094V91.0535H185.112ZM192.704 91.0535V90.0353H185.112V91.0535V92.0716H192.704V91.0535ZM192.704 82.0844H191.686V91.0535H192.704H193.722V82.0844H192.704ZM184.562 81.5352V82.5533H193.253V81.5352V80.517H184.562V81.5352ZM184.562 91.6027H185.581V81.5352H184.562H183.544V91.6027H184.562ZM193.253 91.6027V90.5845H184.562V91.6027V92.6209H193.253V91.6027ZM193.253 81.5352H192.235V91.6027H193.253H194.271V81.5352H193.253Z" fill="white" mask="url(#path-112-inside-37_4219_4383)"/>
<path d="M192.744 63.1611V72.2109H185.071V63.1611H192.744Z" stroke="white" stroke-width="1.01819"/>
<mask id="path-115-inside-38_4219_4383" fill="white">
<path fill-rule="evenodd" clip-rule="evenodd" d="M192.704 63.2016H185.112V72.1706H192.704V63.2016ZM184.562 62.6523V72.7199H193.253V62.6523H184.562Z"/>
</mask>
<path d="M185.112 63.2016V62.1834H184.094V63.2016H185.112ZM192.704 63.2016H193.722V62.1834H192.704V63.2016ZM185.112 72.1706H184.094V73.1888H185.112V72.1706ZM192.704 72.1706V73.1888H193.722V72.1706H192.704ZM184.562 62.6523V61.6342H183.544V62.6523H184.562ZM184.562 72.7199H183.544V73.7381H184.562V72.7199ZM193.253 72.7199V73.7381H194.271V72.7199H193.253ZM193.253 62.6523H194.271V61.6342H193.253V62.6523ZM185.112 63.2016V64.2198H192.704V63.2016V62.1834H185.112V63.2016ZM185.112 72.1706H186.13V63.2016H185.112H184.094V72.1706H185.112ZM192.704 72.1706V71.1525H185.112V72.1706V73.1888H192.704V72.1706ZM192.704 63.2016H191.686V72.1706H192.704H193.722V63.2016H192.704ZM184.562 62.6523V63.6705H193.253V62.6523V61.6342H184.562V62.6523ZM184.562 72.7199H185.581V62.6523H184.562H183.544V72.7199H184.562ZM193.253 72.7199V71.7017H184.562V72.7199V73.7381H193.253V72.7199ZM193.253 62.6523H192.235V72.7199H193.253H194.271V62.6523H193.253Z" fill="white" mask="url(#path-115-inside-38_4219_4383)"/>
<mask id="path-117-inside-39_4219_4383" fill="white">
<path d="M175.463 101.828H193.741V101.064H175.463V101.828Z"/>
</mask>
<path d="M175.463 101.828V102.846H174.445V101.828H175.463ZM193.741 101.828H194.759V102.846H193.741V101.828ZM193.741 101.064V100.046H194.759V101.064H193.741ZM175.463 101.064H174.445V100.046H175.463V101.064ZM175.463 101.828V100.81H193.741V101.828V102.846H175.463V101.828ZM193.741 101.828H192.723V101.064H193.741H194.759V101.828H193.741ZM193.741 101.064V102.082H175.463V101.064V100.046H193.741V101.064ZM175.463 101.064H176.481V101.828H175.463H174.445V101.064H175.463Z" fill="white" mask="url(#path-117-inside-39_4219_4383)"/>
<path d="M234.92 91.5049V100.555H227.247V91.5049H234.92Z" stroke="white" stroke-width="1.01819"/>
<mask id="path-120-inside-40_4219_4383" fill="white">
<path fill-rule="evenodd" clip-rule="evenodd" d="M234.88 91.5454H227.288V100.514H234.88V91.5454ZM226.738 90.9961V101.064H235.429V90.9961H226.738Z"/>
</mask>
<path d="M227.288 91.5454V90.5272H226.269V91.5454H227.288ZM234.88 91.5454H235.898V90.5272H234.88V91.5454ZM227.288 100.514H226.269V101.533H227.288V100.514ZM234.88 100.514V101.533H235.898V100.514H234.88ZM226.738 90.9961V89.9779H225.72V90.9961H226.738ZM226.738 101.064H225.72V102.082H226.738V101.064ZM235.429 101.064V102.082H236.447V101.064H235.429ZM235.429 90.9961H236.447V89.9779H235.429V90.9961ZM227.288 91.5454V92.5635H234.88V91.5454V90.5272H227.288V91.5454ZM227.288 100.514H228.306V91.5454H227.288H226.269V100.514H227.288ZM234.88 100.514V99.4962H227.288V100.514V101.533H234.88V100.514ZM234.88 91.5454H233.862V100.514H234.88H235.898V91.5454H234.88ZM226.738 90.9961V92.0143H235.429V90.9961V89.9779H226.738V90.9961ZM226.738 101.064H227.756V90.9961H226.738H225.72V101.064H226.738ZM235.429 101.064V100.045H226.738V101.064V102.082H235.429V101.064ZM235.429 90.9961H234.411V101.064H235.429H236.447V90.9961H235.429Z" fill="white" mask="url(#path-120-inside-40_4219_4383)"/>
<path d="M234.92 72.6221V81.6719H227.247V72.6221H234.92Z" stroke="white" stroke-width="1.01819"/>
<mask id="path-123-inside-41_4219_4383" fill="white">
<path fill-rule="evenodd" clip-rule="evenodd" d="M234.88 72.6626H227.288V81.6316H234.88V72.6626ZM226.738 72.1133V82.1809H235.429V72.1133H226.738Z"/>
</mask>
<path d="M227.288 72.6626V71.6444H226.269V72.6626H227.288ZM234.88 72.6626H235.898V71.6444H234.88V72.6626ZM227.288 81.6316H226.269V82.6498H227.288V81.6316ZM234.88 81.6316V82.6498H235.898V81.6316H234.88ZM226.738 72.1133V71.0951H225.72V72.1133H226.738ZM226.738 82.1809H225.72V83.199H226.738V82.1809ZM235.429 82.1809V83.199H236.447V82.1809H235.429ZM235.429 72.1133H236.447V71.0951H235.429V72.1133ZM227.288 72.6626V73.6807H234.88V72.6626V71.6444H227.288V72.6626ZM227.288 81.6316H228.306V72.6626H227.288H226.269V81.6316H227.288ZM234.88 81.6316V80.6134H227.288V81.6316V82.6498H234.88V81.6316ZM234.88 72.6626H233.862V81.6316H234.88H235.898V72.6626H234.88ZM226.738 72.1133V73.1315H235.429V72.1133V71.0951H226.738V72.1133ZM226.738 82.1809H227.756V72.1133H226.738H225.72V82.1809H226.738ZM235.429 82.1809V81.1627H226.738V82.1809V83.199H235.429V82.1809ZM235.429 72.1133H234.411V82.1809H235.429H236.447V72.1133H235.429Z" fill="white" mask="url(#path-123-inside-41_4219_4383)"/>
<path d="M243.609 91.5049V100.555H235.937V91.5049H243.609Z" stroke="white" stroke-width="1.01819"/>
<mask id="path-126-inside-42_4219_4383" fill="white">
<path fill-rule="evenodd" clip-rule="evenodd" d="M243.569 91.5454H235.977V100.514H243.569V91.5454ZM235.428 90.9961V101.064H244.118V90.9961H235.428Z"/>
</mask>
<path d="M235.977 91.5454V90.5272H234.959V91.5454H235.977ZM243.569 91.5454H244.587V90.5272H243.569V91.5454ZM235.977 100.514H234.959V101.533H235.977V100.514ZM243.569 100.514V101.533H244.587V100.514H243.569ZM235.428 90.9961V89.9779H234.41V90.9961H235.428ZM235.428 101.064H234.41V102.082H235.428V101.064ZM244.118 101.064V102.082H245.137V101.064H244.118ZM244.118 90.9961H245.137V89.9779H244.118V90.9961ZM235.977 91.5454V92.5635H243.569V91.5454V90.5272H235.977V91.5454ZM235.977 100.514H236.995V91.5454H235.977H234.959V100.514H235.977ZM243.569 100.514V99.4962H235.977V100.514V101.533H243.569V100.514ZM243.569 91.5454H242.551V100.514H243.569H244.587V91.5454H243.569ZM235.428 90.9961V92.0143H244.118V90.9961V89.9779H235.428V90.9961ZM235.428 101.064H236.446V90.9961H235.428H234.41V101.064H235.428ZM244.118 101.064V100.045H235.428V101.064V102.082H244.118V101.064ZM244.118 90.9961H243.1V101.064H244.118H245.137V90.9961H244.118Z" fill="white" mask="url(#path-126-inside-42_4219_4383)"/>
<path d="M243.609 72.6221V81.6719H235.937V72.6221H243.609Z" stroke="white" stroke-width="1.01819"/>
<mask id="path-129-inside-43_4219_4383" fill="white">
<path fill-rule="evenodd" clip-rule="evenodd" d="M243.569 72.6626H235.977V81.6316H243.569V72.6626ZM235.428 72.1133V82.1809H244.118V72.1133H235.428Z"/>
</mask>
<path d="M235.977 72.6626V71.6444H234.959V72.6626H235.977ZM243.569 72.6626H244.587V71.6444H243.569V72.6626ZM235.977 81.6316H234.959V82.6498H235.977V81.6316ZM243.569 81.6316V82.6498H244.587V81.6316H243.569ZM235.428 72.1133V71.0951H234.41V72.1133H235.428ZM235.428 82.1809H234.41V83.199H235.428V82.1809ZM244.118 82.1809V83.199H245.137V82.1809H244.118ZM244.118 72.1133H245.137V71.0951H244.118V72.1133ZM235.977 72.6626V73.6807H243.569V72.6626V71.6444H235.977V72.6626ZM235.977 81.6316H236.995V72.6626H235.977H234.959V81.6316H235.977ZM243.569 81.6316V80.6134H235.977V81.6316V82.6498H243.569V81.6316ZM243.569 72.6626H242.551V81.6316H243.569H244.587V72.6626H243.569ZM235.428 72.1133V73.1315H244.118V72.1133V71.0951H235.428V72.1133ZM235.428 82.1809H236.446V72.1133H235.428H234.41V82.1809H235.428ZM244.118 82.1809V81.1627H235.428V82.1809V83.199H244.118V82.1809ZM244.118 72.1133H243.1V82.1809H244.118H245.137V72.1133H244.118Z" fill="white" mask="url(#path-129-inside-43_4219_4383)"/>
<path d="M234.92 82.0439V91.0938H227.247V82.0439H234.92Z" stroke="white" stroke-width="1.01819"/>
<mask id="path-132-inside-44_4219_4383" fill="white">
<path fill-rule="evenodd" clip-rule="evenodd" d="M234.88 82.0844H227.288V91.0535H234.88V82.0844ZM226.738 81.5352V91.6027H235.429V81.5352H226.738Z"/>
</mask>
<path d="M227.288 82.0844V81.0662H226.269V82.0844H227.288ZM234.88 82.0844H235.898V81.0662H234.88V82.0844ZM227.288 91.0535H226.269V92.0716H227.288V91.0535ZM234.88 91.0535V92.0716H235.898V91.0535H234.88ZM226.738 81.5352V80.517H225.72V81.5352H226.738ZM226.738 91.6027H225.72V92.6209H226.738V91.6027ZM235.429 91.6027V92.6209H236.447V91.6027H235.429ZM235.429 81.5352H236.447V80.517H235.429V81.5352ZM227.288 82.0844V83.1026H234.88V82.0844V81.0662H227.288V82.0844ZM227.288 91.0535H228.306V82.0844H227.288H226.269V91.0535H227.288ZM234.88 91.0535V90.0353H227.288V91.0535V92.0716H234.88V91.0535ZM234.88 82.0844H233.862V91.0535H234.88H235.898V82.0844H234.88ZM226.738 81.5352V82.5533H235.429V81.5352V80.517H226.738V81.5352ZM226.738 91.6027H227.756V81.5352H226.738H225.72V91.6027H226.738ZM235.429 91.6027V90.5845H226.738V91.6027V92.6209H235.429V91.6027ZM235.429 81.5352H234.411V91.6027H235.429H236.447V81.5352H235.429Z" fill="white" mask="url(#path-132-inside-44_4219_4383)"/>
<path d="M234.92 63.1611V72.2109H227.247V63.1611H234.92Z" stroke="white" stroke-width="1.01819"/>
<mask id="path-135-inside-45_4219_4383" fill="white">
<path fill-rule="evenodd" clip-rule="evenodd" d="M234.88 63.2016H227.288V72.1706H234.88V63.2016ZM226.738 62.6523V72.7199H235.429V62.6523H226.738Z"/>
</mask>
<path d="M227.288 63.2016V62.1834H226.269V63.2016H227.288ZM234.88 63.2016H235.898V62.1834H234.88V63.2016ZM227.288 72.1706H226.269V73.1888H227.288V72.1706ZM234.88 72.1706V73.1888H235.898V72.1706H234.88ZM226.738 62.6523V61.6342H225.72V62.6523H226.738ZM226.738 72.7199H225.72V73.7381H226.738V72.7199ZM235.429 72.7199V73.7381H236.447V72.7199H235.429ZM235.429 62.6523H236.447V61.6342H235.429V62.6523ZM227.288 63.2016V64.2198H234.88V63.2016V62.1834H227.288V63.2016ZM227.288 72.1706H228.306V63.2016H227.288H226.269V72.1706H227.288ZM234.88 72.1706V71.1525H227.288V72.1706V73.1888H234.88V72.1706ZM234.88 63.2016H233.862V72.1706H234.88H235.898V63.2016H234.88ZM226.738 62.6523V63.6705H235.429V62.6523V61.6342H226.738V62.6523ZM226.738 72.7199H227.756V62.6523H226.738H225.72V72.7199H226.738ZM235.429 72.7199V71.7017H226.738V72.7199V73.7381H235.429V72.7199ZM235.429 62.6523H234.411V72.7199H235.429H236.447V62.6523H235.429Z" fill="white" mask="url(#path-135-inside-45_4219_4383)"/>
<path d="M243.609 82.0439V91.0938H235.937V82.0439H243.609Z" stroke="white" stroke-width="1.01819"/>
<mask id="path-138-inside-46_4219_4383" fill="white">
<path fill-rule="evenodd" clip-rule="evenodd" d="M243.569 82.0844H235.977V91.0535H243.569V82.0844ZM235.428 81.5352V91.6027H244.118V81.5352H235.428Z"/>
</mask>
<path d="M235.977 82.0844V81.0662H234.959V82.0844H235.977ZM243.569 82.0844H244.587V81.0662H243.569V82.0844ZM235.977 91.0535H234.959V92.0716H235.977V91.0535ZM243.569 91.0535V92.0716H244.587V91.0535H243.569ZM235.428 81.5352V80.517H234.41V81.5352H235.428ZM235.428 91.6027H234.41V92.6209H235.428V91.6027ZM244.118 91.6027V92.6209H245.137V91.6027H244.118ZM244.118 81.5352H245.137V80.517H244.118V81.5352ZM235.977 82.0844V83.1026H243.569V82.0844V81.0662H235.977V82.0844ZM235.977 91.0535H236.995V82.0844H235.977H234.959V91.0535H235.977ZM243.569 91.0535V90.0353H235.977V91.0535V92.0716H243.569V91.0535ZM243.569 82.0844H242.551V91.0535H243.569H244.587V82.0844H243.569ZM235.428 81.5352V82.5533H244.118V81.5352V80.517H235.428V81.5352ZM235.428 91.6027H236.446V81.5352H235.428H234.41V91.6027H235.428ZM244.118 91.6027V90.5845H235.428V91.6027V92.6209H244.118V91.6027ZM244.118 81.5352H243.1V91.6027H244.118H245.137V81.5352H244.118Z" fill="white" mask="url(#path-138-inside-46_4219_4383)"/>
<path d="M243.609 63.1611V72.2109H235.937V63.1611H243.609Z" stroke="white" stroke-width="1.01819"/>
<mask id="path-141-inside-47_4219_4383" fill="white">
<path fill-rule="evenodd" clip-rule="evenodd" d="M243.569 63.2016H235.977V72.1706H243.569V63.2016ZM235.428 62.6523V72.7199H244.118V62.6523H235.428Z"/>
</mask>
<path d="M235.977 63.2016V62.1834H234.959V63.2016H235.977ZM243.569 63.2016H244.587V62.1834H243.569V63.2016ZM235.977 72.1706H234.959V73.1888H235.977V72.1706ZM243.569 72.1706V73.1888H244.587V72.1706H243.569ZM235.428 62.6523V61.6342H234.41V62.6523H235.428ZM235.428 72.7199H234.41V73.7381H235.428V72.7199ZM244.118 72.7199V73.7381H245.137V72.7199H244.118ZM244.118 62.6523H245.137V61.6342H244.118V62.6523ZM235.977 63.2016V64.2198H243.569V63.2016V62.1834H235.977V63.2016ZM235.977 72.1706H236.995V63.2016H235.977H234.959V72.1706H235.977ZM243.569 72.1706V71.1525H235.977V72.1706V73.1888H243.569V72.1706ZM243.569 63.2016H242.551V72.1706H243.569H244.587V63.2016H243.569ZM235.428 62.6523V63.6705H244.118V62.6523V61.6342H235.428V62.6523ZM235.428 72.7199H236.446V62.6523H235.428H234.41V72.7199H235.428ZM244.118 72.7199V71.7017H235.428V72.7199V73.7381H244.118V72.7199ZM244.118 62.6523H243.1V72.7199H244.118H245.137V62.6523H244.118Z" fill="white" mask="url(#path-141-inside-47_4219_4383)"/>
<mask id="path-143-inside-48_4219_4383" fill="white">
<path d="M226.33 101.828H244.608V101.064H226.33V101.828Z"/>
</mask>
<path d="M226.33 101.828V102.846H225.312V101.828H226.33ZM244.608 101.828H245.626V102.846H244.608V101.828ZM244.608 101.064V100.046H245.626V101.064H244.608ZM226.33 101.064H225.312V100.046H226.33V101.064ZM226.33 101.828V100.81H244.608V101.828V102.846H226.33V101.828ZM244.608 101.828H243.59V101.064H244.608H245.626V101.828H244.608ZM244.608 101.064V102.082H226.33V101.064V100.046H244.608V101.064ZM226.33 101.064H227.348V101.828H226.33H225.312V101.064H226.33Z" fill="white" mask="url(#path-143-inside-48_4219_4383)"/>
<path d="M283.912 91.5049V100.555H276.239V91.5049H283.912Z" stroke="white" stroke-width="1.01819"/>
<mask id="path-146-inside-49_4219_4383" fill="white">
<path fill-rule="evenodd" clip-rule="evenodd" d="M283.872 91.5454H276.28V100.514H283.872V91.5454ZM275.73 90.9961V101.064H284.421V90.9961H275.73Z"/>
</mask>
<path d="M276.28 91.5454V90.5272H275.262V91.5454H276.28ZM283.872 91.5454H284.89V90.5272H283.872V91.5454ZM276.28 100.514H275.262V101.533H276.28V100.514ZM283.872 100.514V101.533H284.89V100.514H283.872ZM275.73 90.9961V89.9779H274.712V90.9961H275.73ZM275.73 101.064H274.712V102.082H275.73V101.064ZM284.421 101.064V102.082H285.439V101.064H284.421ZM284.421 90.9961H285.439V89.9779H284.421V90.9961ZM276.28 91.5454V92.5635H283.872V91.5454V90.5272H276.28V91.5454ZM276.28 100.514H277.298V91.5454H276.28H275.262V100.514H276.28ZM283.872 100.514V99.4962H276.28V100.514V101.533H283.872V100.514ZM283.872 91.5454H282.854V100.514H283.872H284.89V91.5454H283.872ZM275.73 90.9961V92.0143H284.421V90.9961V89.9779H275.73V90.9961ZM275.73 101.064H276.749V90.9961H275.73H274.712V101.064H275.73ZM284.421 101.064V100.045H275.73V101.064V102.082H284.421V101.064ZM284.421 90.9961H283.403V101.064H284.421H285.439V90.9961H284.421Z" fill="white" mask="url(#path-146-inside-49_4219_4383)"/>
<path d="M283.912 72.6221V81.6719H276.239V72.6221H283.912Z" stroke="white" stroke-width="1.01819"/>
<mask id="path-149-inside-50_4219_4383" fill="white">
<path fill-rule="evenodd" clip-rule="evenodd" d="M283.872 72.6626H276.28V81.6316H283.872V72.6626ZM275.73 72.1133V82.1809H284.421V72.1133H275.73Z"/>
</mask>
<path d="M276.28 72.6626V71.6444H275.262V72.6626H276.28ZM283.872 72.6626H284.89V71.6444H283.872V72.6626ZM276.28 81.6316H275.262V82.6498H276.28V81.6316ZM283.872 81.6316V82.6498H284.89V81.6316H283.872ZM275.73 72.1133V71.0951H274.712V72.1133H275.73ZM275.73 82.1809H274.712V83.199H275.73V82.1809ZM284.421 82.1809V83.199H285.439V82.1809H284.421ZM284.421 72.1133H285.439V71.0951H284.421V72.1133ZM276.28 72.6626V73.6807H283.872V72.6626V71.6444H276.28V72.6626ZM276.28 81.6316H277.298V72.6626H276.28H275.262V81.6316H276.28ZM283.872 81.6316V80.6134H276.28V81.6316V82.6498H283.872V81.6316ZM283.872 72.6626H282.854V81.6316H283.872H284.89V72.6626H283.872ZM275.73 72.1133V73.1315H284.421V72.1133V71.0951H275.73V72.1133ZM275.73 82.1809H276.749V72.1133H275.73H274.712V82.1809H275.73ZM284.421 82.1809V81.1627H275.73V82.1809V83.199H284.421V82.1809ZM284.421 72.1133H283.403V82.1809H284.421H285.439V72.1133H284.421Z" fill="white" mask="url(#path-149-inside-50_4219_4383)"/>
<path d="M292.604 91.5049V100.555H284.931V91.5049H292.604Z" stroke="white" stroke-width="1.01819"/>
<mask id="path-152-inside-51_4219_4383" fill="white">
<path fill-rule="evenodd" clip-rule="evenodd" d="M292.563 91.5454H284.971V100.514H292.563V91.5454ZM284.422 90.9961V101.064H293.113V90.9961H284.422Z"/>
</mask>
<path d="M284.971 91.5454V90.5272H283.953V91.5454H284.971ZM292.563 91.5454H293.581V90.5272H292.563V91.5454ZM284.971 100.514H283.953V101.533H284.971V100.514ZM292.563 100.514V101.533H293.581V100.514H292.563ZM284.422 90.9961V89.9779H283.404V90.9961H284.422ZM284.422 101.064H283.404V102.082H284.422V101.064ZM293.113 101.064V102.082H294.131V101.064H293.113ZM293.113 90.9961H294.131V89.9779H293.113V90.9961ZM284.971 91.5454V92.5635H292.563V91.5454V90.5272H284.971V91.5454ZM284.971 100.514H285.989V91.5454H284.971H283.953V100.514H284.971ZM292.563 100.514V99.4962H284.971V100.514V101.533H292.563V100.514ZM292.563 91.5454H291.545V100.514H292.563H293.581V91.5454H292.563ZM284.422 90.9961V92.0143H293.113V90.9961V89.9779H284.422V90.9961ZM284.422 101.064H285.44V90.9961H284.422H283.404V101.064H284.422ZM293.113 101.064V100.045H284.422V101.064V102.082H293.113V101.064ZM293.113 90.9961H292.094V101.064H293.113H294.131V90.9961H293.113Z" fill="white" mask="url(#path-152-inside-51_4219_4383)"/>
<path d="M292.604 72.6221V81.6719H284.931V72.6221H292.604Z" stroke="white" stroke-width="1.01819"/>
<mask id="path-155-inside-52_4219_4383" fill="white">
<path fill-rule="evenodd" clip-rule="evenodd" d="M292.563 72.6626H284.971V81.6316H292.563V72.6626ZM284.422 72.1133V82.1809H293.113V72.1133H284.422Z"/>
</mask>
<path d="M284.971 72.6626V71.6444H283.953V72.6626H284.971ZM292.563 72.6626H293.581V71.6444H292.563V72.6626ZM284.971 81.6316H283.953V82.6498H284.971V81.6316ZM292.563 81.6316V82.6498H293.581V81.6316H292.563ZM284.422 72.1133V71.0951H283.404V72.1133H284.422ZM284.422 82.1809H283.404V83.199H284.422V82.1809ZM293.113 82.1809V83.199H294.131V82.1809H293.113ZM293.113 72.1133H294.131V71.0951H293.113V72.1133ZM284.971 72.6626V73.6807H292.563V72.6626V71.6444H284.971V72.6626ZM284.971 81.6316H285.989V72.6626H284.971H283.953V81.6316H284.971ZM292.563 81.6316V80.6134H284.971V81.6316V82.6498H292.563V81.6316ZM292.563 72.6626H291.545V81.6316H292.563H293.581V72.6626H292.563ZM284.422 72.1133V73.1315H293.113V72.1133V71.0951H284.422V72.1133ZM284.422 82.1809H285.44V72.1133H284.422H283.404V82.1809H284.422ZM293.113 82.1809V81.1627H284.422V82.1809V83.199H293.113V82.1809ZM293.113 72.1133H292.094V82.1809H293.113H294.131V72.1133H293.113Z" fill="white" mask="url(#path-155-inside-52_4219_4383)"/>
<path d="M283.912 82.0439V91.0938H276.239V82.0439H283.912Z" stroke="white" stroke-width="1.01819"/>
<mask id="path-158-inside-53_4219_4383" fill="white">
<path fill-rule="evenodd" clip-rule="evenodd" d="M283.872 82.0844H276.28V91.0535H283.872V82.0844ZM275.73 81.5352V91.6027H284.421V81.5352H275.73Z"/>
</mask>
<path d="M276.28 82.0844V81.0662H275.262V82.0844H276.28ZM283.872 82.0844H284.89V81.0662H283.872V82.0844ZM276.28 91.0535H275.262V92.0716H276.28V91.0535ZM283.872 91.0535V92.0716H284.89V91.0535H283.872ZM275.73 81.5352V80.517H274.712V81.5352H275.73ZM275.73 91.6027H274.712V92.6209H275.73V91.6027ZM284.421 91.6027V92.6209H285.439V91.6027H284.421ZM284.421 81.5352H285.439V80.517H284.421V81.5352ZM276.28 82.0844V83.1026H283.872V82.0844V81.0662H276.28V82.0844ZM276.28 91.0535H277.298V82.0844H276.28H275.262V91.0535H276.28ZM283.872 91.0535V90.0353H276.28V91.0535V92.0716H283.872V91.0535ZM283.872 82.0844H282.854V91.0535H283.872H284.89V82.0844H283.872ZM275.73 81.5352V82.5533H284.421V81.5352V80.517H275.73V81.5352ZM275.73 91.6027H276.749V81.5352H275.73H274.712V91.6027H275.73ZM284.421 91.6027V90.5845H275.73V91.6027V92.6209H284.421V91.6027ZM284.421 81.5352H283.403V91.6027H284.421H285.439V81.5352H284.421Z" fill="white" mask="url(#path-158-inside-53_4219_4383)"/>
<path d="M283.912 63.1611V72.2109H276.239V63.1611H283.912Z" stroke="white" stroke-width="1.01819"/>
<mask id="path-161-inside-54_4219_4383" fill="white">
<path fill-rule="evenodd" clip-rule="evenodd" d="M283.872 63.2016H276.28V72.1706H283.872V63.2016ZM275.73 62.6523V72.7199H284.421V62.6523H275.73Z"/>
</mask>
<path d="M276.28 63.2016V62.1834H275.262V63.2016H276.28ZM283.872 63.2016H284.89V62.1834H283.872V63.2016ZM276.28 72.1706H275.262V73.1888H276.28V72.1706ZM283.872 72.1706V73.1888H284.89V72.1706H283.872ZM275.73 62.6523V61.6342H274.712V62.6523H275.73ZM275.73 72.7199H274.712V73.7381H275.73V72.7199ZM284.421 72.7199V73.7381H285.439V72.7199H284.421ZM284.421 62.6523H285.439V61.6342H284.421V62.6523ZM276.28 63.2016V64.2198H283.872V63.2016V62.1834H276.28V63.2016ZM276.28 72.1706H277.298V63.2016H276.28H275.262V72.1706H276.28ZM283.872 72.1706V71.1525H276.28V72.1706V73.1888H283.872V72.1706ZM283.872 63.2016H282.854V72.1706H283.872H284.89V63.2016H283.872ZM275.73 62.6523V63.6705H284.421V62.6523V61.6342H275.73V62.6523ZM275.73 72.7199H276.749V62.6523H275.73H274.712V72.7199H275.73ZM284.421 72.7199V71.7017H275.73V72.7199V73.7381H284.421V72.7199ZM284.421 62.6523H283.403V72.7199H284.421H285.439V62.6523H284.421Z" fill="white" mask="url(#path-161-inside-54_4219_4383)"/>
<path d="M292.604 82.0439V91.0938H284.931V82.0439H292.604Z" stroke="white" stroke-width="1.01819"/>
<mask id="path-164-inside-55_4219_4383" fill="white">
<path fill-rule="evenodd" clip-rule="evenodd" d="M292.563 82.0844H284.971V91.0535H292.563V82.0844ZM284.422 81.5352V91.6027H293.113V81.5352H284.422Z"/>
</mask>
<path d="M284.971 82.0844V81.0662H283.953V82.0844H284.971ZM292.563 82.0844H293.581V81.0662H292.563V82.0844ZM284.971 91.0535H283.953V92.0716H284.971V91.0535ZM292.563 91.0535V92.0716H293.581V91.0535H292.563ZM284.422 81.5352V80.517H283.404V81.5352H284.422ZM284.422 91.6027H283.404V92.6209H284.422V91.6027ZM293.113 91.6027V92.6209H294.131V91.6027H293.113ZM293.113 81.5352H294.131V80.517H293.113V81.5352ZM284.971 82.0844V83.1026H292.563V82.0844V81.0662H284.971V82.0844ZM284.971 91.0535H285.989V82.0844H284.971H283.953V91.0535H284.971ZM292.563 91.0535V90.0353H284.971V91.0535V92.0716H292.563V91.0535ZM292.563 82.0844H291.545V91.0535H292.563H293.581V82.0844H292.563ZM284.422 81.5352V82.5533H293.113V81.5352V80.517H284.422V81.5352ZM284.422 91.6027H285.44V81.5352H284.422H283.404V91.6027H284.422ZM293.113 91.6027V90.5845H284.422V91.6027V92.6209H293.113V91.6027ZM293.113 81.5352H292.094V91.6027H293.113H294.131V81.5352H293.113Z" fill="white" mask="url(#path-164-inside-55_4219_4383)"/>
<path d="M292.604 63.1611V72.2109H284.931V63.1611H292.604Z" stroke="white" stroke-width="1.01819"/>
<mask id="path-167-inside-56_4219_4383" fill="white">
<path fill-rule="evenodd" clip-rule="evenodd" d="M292.563 63.2016H284.971V72.1706H292.563V63.2016ZM284.422 62.6523V72.7199H293.113V62.6523H284.422Z"/>
</mask>
<path d="M284.971 63.2016V62.1834H283.953V63.2016H284.971ZM292.563 63.2016H293.581V62.1834H292.563V63.2016ZM284.971 72.1706H283.953V73.1888H284.971V72.1706ZM292.563 72.1706V73.1888H293.581V72.1706H292.563ZM284.422 62.6523V61.6342H283.404V62.6523H284.422ZM284.422 72.7199H283.404V73.7381H284.422V72.7199ZM293.113 72.7199V73.7381H294.131V72.7199H293.113ZM293.113 62.6523H294.131V61.6342H293.113V62.6523ZM284.971 63.2016V64.2198H292.563V63.2016V62.1834H284.971V63.2016ZM284.971 72.1706H285.989V63.2016H284.971H283.953V72.1706H284.971ZM292.563 72.1706V71.1525H284.971V72.1706V73.1888H292.563V72.1706ZM292.563 63.2016H291.545V72.1706H292.563H293.581V63.2016H292.563ZM284.422 62.6523V63.6705H293.113V62.6523V61.6342H284.422V62.6523ZM284.422 72.7199H285.44V62.6523H284.422H283.404V72.7199H284.422ZM293.113 72.7199V71.7017H284.422V72.7199V73.7381H293.113V72.7199ZM293.113 62.6523H292.094V72.7199H293.113H294.131V62.6523H293.113Z" fill="white" mask="url(#path-167-inside-56_4219_4383)"/>
<mask id="path-169-inside-57_4219_4383" fill="white">
<path d="M275.318 101.828H293.597V101.064H275.318V101.828Z"/>
</mask>
<path d="M275.318 101.828V102.846H274.3V101.828H275.318ZM293.597 101.828H294.615V102.846H293.597V101.828ZM293.597 101.064V100.046H294.615V101.064H293.597ZM275.318 101.064H274.3V100.046H275.318V101.064ZM275.318 101.828V100.81H293.597V101.828V102.846H275.318V101.828ZM293.597 101.828H292.578V101.064H293.597H294.615V101.828H293.597ZM293.597 101.064V102.082H275.318V101.064V100.046H293.597V101.064ZM275.318 101.064H276.337V101.828H275.318H274.3V101.064H275.318Z" fill="white" mask="url(#path-169-inside-57_4219_4383)"/>
<path d="M292.606 63.1611V100.552H276.241V63.1611H292.606Z" fill="white" stroke="white" stroke-width="1.01819"/>
<path d="M287.135 71.5508L281.307 69.3827L281.307 68.3522L287.135 66.1923L287.135 66.9672L285.882 67.4289L285.882 70.3142L287.135 70.7759L287.135 71.5508ZM285.231 70.0751L285.231 67.6679L281.933 68.8715L285.231 70.0751Z" fill="white"/>
<path d="M287.135 78.8711L281.307 78.8711L281.307 78.1539L286.484 78.1539L286.484 75.9693L281.307 75.9693L281.307 75.2521L286.484 75.2521L286.484 73.0674L281.307 73.0674L281.307 72.3502L287.135 72.3502L287.135 78.8711Z" fill="white"/>
<path d="M287.135 84.9062L281.307 84.9062L281.307 84.189L286.014 84.189L281.307 81.0646L281.307 80.3062L287.135 80.3062L287.135 81.0234L282.469 81.0234L287.135 84.1561L287.135 84.9062Z" fill="white"/>
<path d="M287.207 89.4293L286.258 89.4293L286.258 90.0888C286.247 90.5284 286.143 90.9022 285.945 91.2099C285.747 91.5122 285.478 91.7403 285.137 91.8942C284.797 92.0481 284.412 92.125 283.983 92.125C283.533 92.1195 283.145 92.0233 282.821 91.8365C282.497 91.6496 282.246 91.394 282.071 91.0698C281.895 90.7455 281.807 90.3773 281.807 89.9651L281.807 89.4293L280.982 89.4293L280.982 88.7121L281.807 88.7121L281.807 88.1844C281.807 87.7668 281.895 87.3958 282.071 87.0715C282.246 86.7473 282.497 86.4917 282.821 86.3049C283.145 86.118 283.533 86.0218 283.983 86.0163C284.412 86.0108 284.797 86.0905 285.137 86.2554C285.478 86.4203 285.747 86.6593 285.945 86.9726C286.143 87.2804 286.247 87.6541 286.258 88.0938L286.258 88.7121L287.207 88.7121L287.207 89.4293ZM285.64 89.9404L285.64 89.4293L282.425 89.4293L282.425 89.9074C282.425 90.2152 282.491 90.4817 282.623 90.7071C282.755 90.9269 282.936 91.0973 283.167 91.2182C283.398 91.3391 283.664 91.3995 283.967 91.3995C284.285 91.3995 284.571 91.3501 284.824 91.2512C285.077 91.1522 285.277 90.9956 285.426 90.7813C285.569 90.5669 285.64 90.2866 285.64 89.9404ZM285.64 88.7121L285.64 88.2009C285.64 87.8547 285.569 87.5744 285.426 87.3601C285.277 87.1457 285.077 86.9891 284.824 86.8902C284.571 86.7912 284.285 86.7418 283.967 86.7418C283.664 86.7418 283.398 86.8022 283.167 86.9231C282.936 87.0441 282.755 87.2172 282.623 87.4425C282.491 87.6623 282.425 87.9261 282.425 88.2339L282.425 88.7121L285.64 88.7121Z" fill="white"/>
<path d="M287.135 97.8398L281.307 95.6717L281.307 94.6412L287.135 92.4814L287.135 93.2563L285.882 93.7179L285.882 96.6033L287.135 97.0649L287.135 97.8398ZM285.231 96.3642L285.231 93.957L281.933 95.1606L285.231 96.3642Z" fill="white"/>
<path d="M354.048 56.1299C354.087 56.4135 354.113 56.784 354.128 57.209C354.138 57.5048 354.144 57.8135 354.15 58.1201C354.156 58.4247 354.162 58.7285 354.172 59.0068C354.182 59.284 354.197 59.5475 354.223 59.7695C354.246 59.9724 354.284 60.207 354.37 60.3857C354.383 60.412 354.402 60.4457 354.427 60.4834C354.416 60.5034 354.404 60.5224 354.394 60.541C354.353 60.6153 354.322 60.6702 354.298 60.7129C354.218 60.7976 354.153 60.8576 354.1 60.8975C354.081 60.848 354.058 60.7795 354.037 60.6865C353.994 60.4948 353.965 60.2515 353.947 59.9717C353.911 59.4119 353.925 58.766 353.939 58.2031C353.946 57.9267 353.954 57.6658 353.954 57.4561C353.954 57.3091 353.951 57.1396 353.931 57C353.943 56.8678 353.95 56.7414 353.939 56.6299C353.933 56.5636 353.92 56.4775 353.887 56.3906C353.875 56.3611 353.858 56.3251 353.834 56.2861C353.853 56.2695 353.872 56.2532 353.891 56.2383C353.954 56.1882 354.006 56.1532 354.048 56.1299Z" stroke="white" stroke-width="1.01819"/>
<path fill-rule="evenodd" clip-rule="evenodd" d="M344.631 62.5273L344.758 62.6161C345.105 62.8572 345.625 63.3025 346.076 63.8652C346.524 64.4253 346.921 65.1233 346.985 65.8674L347.004 66.0909H344.435V65.0972H344.136V64.6853H345.134V65.0972H344.847V65.679H346.543C346.438 65.1286 346.129 64.5909 345.754 64.1227C345.383 63.6596 344.961 63.2809 344.649 63.0457C344.033 63.5632 343.626 64.0175 343.34 64.545C343.035 65.1079 342.858 65.77 342.726 66.7118L342.318 66.6549C342.453 65.6922 342.639 64.9742 342.978 64.3486C343.318 63.7217 343.804 63.2035 344.51 62.6257L344.631 62.5273Z" fill="white"/>
<path fill-rule="evenodd" clip-rule="evenodd" d="M341.545 62.2188H348.209V66.8918H341.545V62.2188ZM341.957 62.6307V66.4799H347.797V62.6307H341.957Z" fill="white"/>
<path fill-rule="evenodd" clip-rule="evenodd" d="M332.119 62.5273L332.246 62.6161C332.593 62.8572 333.113 63.3025 333.564 63.8652C334.013 64.4253 334.409 65.1233 334.473 65.8674L334.492 66.0909H331.923V65.0972H331.625V64.6853H332.622V65.0972H332.335V65.679H334.032C333.927 65.1286 333.617 64.5909 333.243 64.1227C332.872 63.6596 332.45 63.2809 332.137 63.0457C331.521 63.5632 331.115 64.0175 330.829 64.545C330.523 65.1079 330.346 65.77 330.215 66.7118L329.807 66.6549C329.941 65.6922 330.127 64.9742 330.466 64.3486C330.807 63.7217 331.292 63.2035 331.998 62.6257L332.119 62.5273Z" fill="white"/>
<path fill-rule="evenodd" clip-rule="evenodd" d="M329.035 62.2188H335.7V66.8918H329.035V62.2188ZM329.447 62.6307V66.4799H335.288V62.6307H329.447Z" fill="white"/>
<path fill-rule="evenodd" clip-rule="evenodd" d="M338.868 58.2734L338.74 58.3622C338.393 58.6033 337.873 59.0486 337.422 59.6113C336.974 60.1714 336.577 60.8694 336.513 61.6135L336.494 61.837H339.063V60.8433H339.362V60.4314H338.365V60.8433H338.652V61.4251H336.955C337.06 60.8747 337.369 60.337 337.744 59.8688C338.115 59.4057 338.537 59.027 338.849 58.7918C339.465 59.3093 339.872 59.7636 340.158 60.2911C340.463 60.854 340.64 61.5161 340.772 62.4579L341.18 62.401C341.045 61.4383 340.859 60.7203 340.52 60.0947C340.18 59.4678 339.695 58.9496 338.988 58.3718L338.868 58.2734Z" fill="white"/>
<path fill-rule="evenodd" clip-rule="evenodd" d="M341.953 57.9648H335.289V62.6379H341.953V57.9648ZM341.541 58.3768V62.226H335.701V58.3768H341.541Z" fill="white"/>
<path fill-rule="evenodd" clip-rule="evenodd" d="M335.699 57.9648H329.035V62.6379H335.699V57.9648ZM335.287 58.3768V62.226H329.447V58.3768H335.287Z" fill="white"/>
<path d="M330.584 58.7305H334.481V61.9342H330.584V58.7305Z" fill="white"/>
<path fill-rule="evenodd" clip-rule="evenodd" d="M348.211 57.9648H341.547V62.6379H348.211V57.9648ZM347.799 58.3768V62.226H341.959V58.3768H347.799Z" fill="white"/>
<path d="M343.096 58.7305H346.993V61.9342H343.096V58.7305Z" fill="white"/>
<path fill-rule="evenodd" clip-rule="evenodd" d="M341.979 62.2227H335.314V66.8957H341.979V62.2227ZM341.567 62.6346V66.4838H335.726V62.6346H341.567Z" fill="white"/>
<path d="M336.865 62.9883H340.762V66.192H336.865V62.9883Z" fill="white"/>
<path fill-rule="evenodd" clip-rule="evenodd" d="M329.449 62.2227H322.785V66.8957H329.449V62.2227ZM329.037 62.6346V66.4838H323.197V62.6346H329.037Z" fill="white"/>
<path d="M324.336 62.9883H328.233V66.192H324.336V62.9883Z" fill="white"/>
<path fill-rule="evenodd" clip-rule="evenodd" d="M326.368 58.2734L326.24 58.3622C325.893 58.6033 325.373 59.0486 324.922 59.6113C324.474 60.1714 324.077 60.8694 324.013 61.6135L323.994 61.837H326.563V60.8433H326.862V60.4314H325.865V60.8433H326.152V61.4251H324.455C324.56 60.8747 324.869 60.337 325.244 59.8688C325.615 59.4057 326.037 59.027 326.349 58.7918C326.965 59.3093 327.372 59.7636 327.658 60.2911C327.963 60.854 328.14 61.5161 328.272 62.4579L328.68 62.401C328.545 61.4383 328.359 60.7203 328.02 60.0947C327.68 59.4678 327.195 58.9496 326.488 58.3718L326.368 58.2734Z" fill="white"/>
<path fill-rule="evenodd" clip-rule="evenodd" d="M329.447 57.9648H322.783V62.6379H329.447V57.9648ZM329.035 58.3768V62.226H323.195V58.3768H329.035Z" fill="white"/>
<path fill-rule="evenodd" clip-rule="evenodd" d="M388.492 62.5273L388.619 62.6161C388.966 62.8572 389.487 63.3025 389.937 63.8652C390.386 64.4253 390.782 65.1233 390.846 65.8674L390.865 66.0909H388.296V65.0972H387.998V64.6853H388.995V65.0972H388.708V65.679H390.405C390.3 65.1286 389.99 64.5909 389.616 64.1227C389.245 63.6596 388.823 63.2809 388.51 63.0457C387.894 63.5632 387.488 64.0175 387.202 64.545C386.896 65.1079 386.719 65.77 386.588 66.7118L386.18 66.6549C386.314 65.6922 386.5 64.9742 386.84 64.3486C387.18 63.7217 387.665 63.2035 388.371 62.6257L388.492 62.5273Z" fill="white"/>
<path fill-rule="evenodd" clip-rule="evenodd" d="M385.41 62.2188H392.075V66.8918H385.41V62.2188ZM385.822 62.6307V66.4799H391.663V62.6307H385.822Z" fill="white"/>
<path fill-rule="evenodd" clip-rule="evenodd" d="M375.994 62.5273L376.121 62.6161C376.468 62.8572 376.988 63.3025 377.439 63.8652C377.888 64.4253 378.284 65.1233 378.348 65.8674L378.367 66.0909H375.798V65.0972H375.5V64.6853H376.497V65.0972H376.21V65.679H377.907C377.802 65.1286 377.492 64.5909 377.118 64.1227C376.747 63.6596 376.325 63.2809 376.012 63.0457C375.396 63.5632 374.99 64.0175 374.704 64.545C374.398 65.1079 374.221 65.77 374.09 66.7118L373.682 66.6549C373.816 65.6922 374.002 64.9742 374.341 64.3486C374.682 63.7217 375.167 63.2035 375.873 62.6257L375.994 62.5273Z" fill="white"/>
<path fill-rule="evenodd" clip-rule="evenodd" d="M372.912 62.2188H379.576V66.8918H372.912V62.2188ZM373.324 62.6307V66.4799H379.165V62.6307H373.324Z" fill="white"/>
<path fill-rule="evenodd" clip-rule="evenodd" d="M382.741 58.2734L382.613 58.3622C382.266 58.6033 381.746 59.0486 381.295 59.6113C380.847 60.1714 380.45 60.8694 380.386 61.6135L380.367 61.837H382.937V60.8433H383.235V60.4314H382.238V60.8433H382.525V61.4251H380.828C380.933 60.8747 381.242 60.337 381.617 59.8688C381.988 59.4057 382.41 59.027 382.722 58.7918C383.338 59.3093 383.745 59.7636 384.031 60.2911C384.336 60.854 384.513 61.5161 384.645 62.4579L385.053 62.401C384.918 61.4383 384.732 60.7203 384.393 60.0947C384.053 59.4678 383.568 58.9496 382.861 58.3718L382.741 58.2734Z" fill="white"/>
<path fill-rule="evenodd" clip-rule="evenodd" d="M385.826 57.9648H379.162V62.6379H385.826V57.9648ZM385.414 58.3768V62.226H379.574V58.3768H385.414Z" fill="white"/>
<path fill-rule="evenodd" clip-rule="evenodd" d="M379.57 57.9648H372.906V62.6379H379.57V57.9648ZM379.158 58.3768V62.226H373.318V58.3768H379.158Z" fill="white"/>
<path d="M374.453 58.7305H378.35V61.9342H374.453V58.7305Z" fill="white"/>
<path fill-rule="evenodd" clip-rule="evenodd" d="M392.078 57.9648H385.414V62.6379H392.078V57.9648ZM391.666 58.3768V62.226H385.826V58.3768H391.666Z" fill="white"/>
<path d="M386.969 58.7305H390.866V61.9342H386.969V58.7305Z" fill="white"/>
<path fill-rule="evenodd" clip-rule="evenodd" d="M385.848 62.2227H379.183V66.8957H385.848V62.2227ZM385.436 62.6346V66.4838H379.595V62.6346H385.436Z" fill="white"/>
<path d="M380.734 62.9883H384.632V66.192H380.734V62.9883Z" fill="white"/>
<path fill-rule="evenodd" clip-rule="evenodd" d="M373.318 62.2227H366.654V66.8957H373.318V62.2227ZM372.906 62.6346V66.4838H367.066V62.6346H372.906Z" fill="white"/>
<path d="M368.205 62.9883H372.102V66.192H368.205V62.9883Z" fill="white"/>
<path fill-rule="evenodd" clip-rule="evenodd" d="M370.233 58.2734L370.105 58.3622C369.758 58.6033 369.238 59.0486 368.787 59.6113C368.339 60.1714 367.942 60.8694 367.879 61.6135L367.859 61.837H370.429V60.8433H370.727V60.4314H369.73V60.8433H370.017V61.4251H368.32C368.425 60.8747 368.734 60.337 369.109 59.8688C369.48 59.4057 369.902 59.027 370.214 58.7918C370.831 59.3093 371.237 59.7636 371.523 60.2911C371.828 60.854 372.005 61.5161 372.137 62.4579L372.545 62.401C372.41 61.4383 372.224 60.7203 371.885 60.0947C371.545 59.4678 371.06 58.9496 370.353 58.3718L370.233 58.2734Z" fill="white"/>
<path fill-rule="evenodd" clip-rule="evenodd" d="M373.316 57.9648H366.652V62.6379H373.316V57.9648ZM372.904 58.3768V62.226H367.064V58.3768H372.904Z" fill="white"/>
<mask id="path-210-inside-58_4219_4383" fill="white">
<path fill-rule="evenodd" clip-rule="evenodd" d="M365.302 50.4477H349.422V66.3271H365.302V50.4477ZM348.873 49.8984V66.8764H365.851V49.8984H348.873Z"/>
</mask>
<path d="M349.422 50.4477V49.4295H348.404V50.4477H349.422ZM365.302 50.4477H366.32V49.4295H365.302V50.4477ZM349.422 66.3271H348.404V67.3453H349.422V66.3271ZM365.302 66.3271V67.3453H366.32V66.3271H365.302ZM348.873 49.8984V48.8803H347.855V49.8984H348.873ZM348.873 66.8764H347.855V67.8946H348.873V66.8764ZM365.851 66.8764V67.8946H366.869V66.8764H365.851ZM365.851 49.8984H366.869V48.8803H365.851V49.8984ZM349.422 50.4477V51.4659H365.302V50.4477V49.4295H349.422V50.4477ZM349.422 66.3271H350.441V50.4477H349.422H348.404V66.3271H349.422ZM365.302 66.3271V65.3089H349.422V66.3271V67.3453H365.302V66.3271ZM365.302 50.4477H364.284V66.3271H365.302H366.32V50.4477H365.302ZM348.873 49.8984V50.9166H365.851V49.8984V48.8803H348.873V49.8984ZM348.873 66.8764H349.891V49.8984H348.873H347.855V66.8764H348.873ZM365.851 66.8764V65.8582H348.873V66.8764V67.8946H365.851V66.8764ZM365.851 49.8984H364.833V66.8764H365.851H366.869V49.8984H365.851Z" fill="white" mask="url(#path-210-inside-58_4219_4383)"/>
<path d="M357.363 29.6084C364.609 29.6084 371.183 32.0413 376.085 35.999L376.365 36.2246H390.466V48.8779H324.263V36.2246H338.363L338.644 35.999C343.545 32.0412 350.119 29.6084 357.363 29.6084Z" fill="white" stroke="white" stroke-width="2.03637"/>
<path d="M324.206 67.1963V132.826H323.497V67.1963H324.206Z" stroke="white" stroke-width="1.01819"/>
<path d="M356.598 78.626V132.826H327.876V78.626H356.598Z" stroke="white" stroke-width="1.01819"/>
<path d="M388.174 78.626V132.826H359.452V78.626H388.174Z" stroke="white" stroke-width="1.01819"/>
<path d="M355.526 79.5518V132.824H328.981V79.5518H355.526Z" stroke="white" stroke-width="1.01819"/>
<path d="M387.103 79.5518V132.824H360.558V79.5518H387.103Z" stroke="white" stroke-width="1.01819"/>
<path d="M390.722 67.1963V132.826H390.013V67.1963H390.722Z" stroke="white" stroke-width="1.01819"/>
<mask id="path-219-inside-59_4219_4383" fill="white">
<path d="M361.998 107.121H362.582V114.084H361.998V107.121Z"/>
</mask>
<path d="M361.998 107.121V106.103H360.98V107.121H361.998ZM362.582 107.121H363.6V106.103H362.582V107.121ZM362.582 114.084V115.102H363.6V114.084H362.582ZM361.998 114.084H360.98V115.102H361.998V114.084ZM361.998 107.121V108.139H362.582V107.121V106.103H361.998V107.121ZM362.582 107.121H361.563V114.084H362.582H363.6V107.121H362.582ZM362.582 114.084V113.065H361.998V114.084V115.102H362.582V114.084ZM361.998 114.084H363.016V107.121H361.998H360.98V114.084H361.998Z" fill="white" mask="url(#path-219-inside-59_4219_4383)"/>
<mask id="path-221-inside-60_4219_4383" fill="white">
<path d="M330.588 107.121H331.171V114.084H330.588V107.121Z"/>
</mask>
<path d="M330.588 107.121V106.103H329.57V107.121H330.588ZM331.171 107.121H332.19V106.103H331.171V107.121ZM331.171 114.084V115.102H332.19V114.084H331.171ZM330.588 114.084H329.57V115.102H330.588V114.084ZM330.588 107.121V108.139H331.171V107.121V106.103H330.588V107.121ZM331.171 107.121H330.153V114.084H331.171H332.19V107.121H331.171ZM331.171 114.084V113.065H330.588V114.084V115.102H331.171V114.084ZM330.588 114.084H331.606V107.121H330.588H329.57V114.084H330.588Z" fill="white" mask="url(#path-221-inside-60_4219_4383)"/>
</svg>
