<svg width="324" height="110" viewBox="0 0 324 110" fill="none" xmlns="http://www.w3.org/2000/svg">
<path d="M264.913 40.1562V100.928H15.5781V40.1562H264.913Z" stroke="#024C94" stroke-width="1.67269"/>
<path d="M266.165 26.4941V108.931H322.475V26.4941H266.165Z" stroke="#024C94" stroke-width="0.836345"/>
<path d="M256.8 25.6582V24.8975H322.773V25.6582H256.8Z" stroke="#024C94" stroke-width="0.836345"/>
<path d="M265.331 38.9023V38.0391H15.1602V38.9023H265.331Z" stroke="#024C94" stroke-width="0.836345"/>
<mask id="path-5-inside-1_4219_4383" fill="white">
<path fill-rule="evenodd" clip-rule="evenodd" d="M265.298 38.8691H15.1934V38.0725H265.298V38.8691ZM14.7422 39.3203V37.6214H265.75V39.3203H14.7422Z"/>
</mask>
<path d="M15.1934 38.8691V39.7055H14.357V38.8691H15.1934ZM265.298 38.8691H266.135V39.7055H265.298V38.8691ZM15.1934 38.0725H14.357V37.2362H15.1934V38.0725ZM265.298 38.0725V37.2362H266.135V38.0725H265.298ZM14.7422 39.3203V40.1567H13.9058V39.3203H14.7422ZM14.7422 37.6214H13.9058V36.785H14.7422V37.6214ZM265.75 37.6214V36.785H266.586V37.6214H265.75ZM265.75 39.3203H266.586V40.1567H265.75V39.3203ZM15.1934 38.8691V38.0328H265.298V38.8691V39.7055H15.1934V38.8691ZM15.1934 38.0725H16.0297V38.8691H15.1934H14.357V38.0725H15.1934ZM265.298 38.0725V38.9089H15.1934V38.0725V37.2362H265.298V38.0725ZM265.298 38.8691H264.462V38.0725H265.298H266.135V38.8691H265.298ZM14.7422 39.3203V38.484H265.75V39.3203V40.1567H14.7422V39.3203ZM14.7422 37.6214H15.5785V39.3203H14.7422H13.9058V37.6214H14.7422ZM265.75 37.6214V38.4577H14.7422V37.6214V36.785H265.75V37.6214ZM265.75 39.3203H264.913V37.6214H265.75H266.586V39.3203H265.75Z" fill="#024C94" mask="url(#path-5-inside-1_4219_4383)"/>
<path d="M265.331 28.9512V37.2031H15.1602V28.9512H265.331Z" stroke="#024C94" stroke-width="0.836345"/>
<mask id="path-8-inside-2_4219_4383" fill="white">
<path fill-rule="evenodd" clip-rule="evenodd" d="M265.298 28.9844H15.1934V37.1698H265.298V28.9844ZM14.7422 28.5332V37.621H265.75V28.5332H14.7422Z"/>
</mask>
<path d="M15.1934 28.9844V28.148H14.357V28.9844H15.1934ZM265.298 28.9844H266.135V28.148H265.298V28.9844ZM15.1934 37.1698H14.357V38.0062H15.1934V37.1698ZM265.298 37.1698V38.0062H266.135V37.1698H265.298ZM14.7422 28.5332V27.6969H13.9058V28.5332H14.7422ZM14.7422 37.621H13.9058V38.4573H14.7422V37.621ZM265.75 37.621V38.4573H266.586V37.621H265.75ZM265.75 28.5332H266.586V27.6969H265.75V28.5332ZM15.1934 28.9844V29.8207H265.298V28.9844V28.148H15.1934V28.9844ZM15.1934 37.1698H16.0297V28.9844H15.1934H14.357V37.1698H15.1934ZM265.298 37.1698V36.3335H15.1934V37.1698V38.0062H265.298V37.1698ZM265.298 28.9844H264.462V37.1698H265.298H266.135V28.9844H265.298ZM14.7422 28.5332V29.3695H265.75V28.5332V27.6969H14.7422V28.5332ZM14.7422 37.621H15.5785V28.5332H14.7422H13.9058V37.621H14.7422ZM265.75 37.621V36.7847H14.7422V37.621V38.4573H265.75V37.621ZM265.75 28.5332H264.913V37.621H265.75H266.586V28.5332H265.75Z" fill="#024C94" mask="url(#path-8-inside-2_4219_4383)"/>
<path d="M279.892 28.1152V26.4941H1.08984V28.1152H279.892Z" stroke="#024C94" stroke-width="0.836345"/>
<mask id="path-11-inside-3_4219_4383" fill="white">
<path fill-rule="evenodd" clip-rule="evenodd" d="M279.858 28.082H1.12305V26.5276H279.858V28.082ZM0.671875 28.5332V26.0764H280.309V28.5332H0.671875Z"/>
</mask>
<path d="M1.12305 28.082V28.9184H0.286704V28.082H1.12305ZM279.858 28.082H280.695V28.9184H279.858V28.082ZM1.12305 26.5276H0.286704V25.6913H1.12305V26.5276ZM279.858 26.5276V25.6913H280.695V26.5276H279.858ZM0.671875 28.5332V29.3695H-0.16447V28.5332H0.671875ZM0.671875 26.0764H-0.16447V25.2401H0.671875V26.0764ZM280.309 26.0764V25.2401H281.146V26.0764H280.309ZM280.309 28.5332H281.146V29.3695H280.309V28.5332ZM1.12305 28.082V27.2457H279.858V28.082V28.9184H1.12305V28.082ZM1.12305 26.5276H1.95939V28.082H1.12305H0.286704V26.5276H1.12305ZM279.858 26.5276V27.3639H1.12305V26.5276V25.6913H279.858V26.5276ZM279.858 28.082H279.022V26.5276H279.858H280.695V28.082H279.858ZM0.671875 28.5332V27.6969H280.309V28.5332V29.3695H0.671875V28.5332ZM0.671875 26.0764H1.50822V28.5332H0.671875H-0.16447V26.0764H0.671875ZM280.309 26.0764V26.9128H0.671875V26.0764V25.2401H280.309V26.0764ZM280.309 28.5332H279.473V26.0764H280.309H281.146V28.5332H280.309Z" fill="#024C94" mask="url(#path-11-inside-3_4219_4383)"/>
<path d="M272.312 25.2422H10.9873L158.472 1.17578L272.312 25.2422Z" stroke="#024C94" stroke-width="1.67269"/>
<path d="M265.331 108.932V102.183H15.1602V108.932H265.331Z" stroke="#024C94" stroke-width="0.836345"/>
<path d="M42.6172 74.9844V82.418H36.3145V74.9844H42.6172Z" stroke="#024C94" stroke-width="0.836345"/>
<mask id="path-16-inside-4_4219_4383" fill="white">
<path fill-rule="evenodd" clip-rule="evenodd" d="M42.5839 75.0176H36.3477V82.3848H42.5839V75.0176ZM35.8965 74.5664V82.836H43.0351V74.5664H35.8965Z"/>
</mask>
<path d="M36.3477 75.0176V74.1812H35.5113V75.0176H36.3477ZM42.5839 75.0176H43.4202V74.1812H42.5839V75.0176ZM36.3477 82.3848H35.5113V83.2211H36.3477V82.3848ZM42.5839 82.3848V83.2211H43.4202V82.3848H42.5839ZM35.8965 74.5664V73.7301H35.0601V74.5664H35.8965ZM35.8965 82.836H35.0601V83.6723H35.8965V82.836ZM43.0351 82.836V83.6723H43.8714V82.836H43.0351ZM43.0351 74.5664H43.8714V73.7301H43.0351V74.5664ZM36.3477 75.0176V75.8539H42.5839V75.0176V74.1812H36.3477V75.0176ZM36.3477 82.3848H37.184V75.0176H36.3477H35.5113V82.3848H36.3477ZM42.5839 82.3848V81.5485H36.3477V82.3848V83.2211H42.5839V82.3848ZM42.5839 75.0176H41.7476V82.3848H42.5839H43.4202V75.0176H42.5839ZM35.8965 74.5664V75.4028H43.0351V74.5664V73.7301H35.8965V74.5664ZM35.8965 82.836H36.7328V74.5664H35.8965H35.0601V82.836H35.8965ZM43.0351 82.836V81.9996H35.8965V82.836V83.6723H43.0351V82.836ZM43.0351 74.5664H42.1987V82.836H43.0351H43.8714V74.5664H43.0351Z" fill="#024C94" mask="url(#path-16-inside-4_4219_4383)"/>
<path d="M42.6172 59.4766V66.9102H36.3145V59.4766H42.6172Z" stroke="#024C94" stroke-width="0.836345"/>
<mask id="path-19-inside-5_4219_4383" fill="white">
<path fill-rule="evenodd" clip-rule="evenodd" d="M42.5839 59.5098H36.3477V66.877H42.5839V59.5098ZM35.8965 59.0586V67.3282H43.0351V59.0586H35.8965Z"/>
</mask>
<path d="M36.3477 59.5098V58.6734H35.5113V59.5098H36.3477ZM42.5839 59.5098H43.4202V58.6734H42.5839V59.5098ZM36.3477 66.877H35.5113V67.7133H36.3477V66.877ZM42.5839 66.877V67.7133H43.4202V66.877H42.5839ZM35.8965 59.0586V58.2222H35.0601V59.0586H35.8965ZM35.8965 67.3282H35.0601V68.1645H35.8965V67.3282ZM43.0351 67.3282V68.1645H43.8714V67.3282H43.0351ZM43.0351 59.0586H43.8714V58.2222H43.0351V59.0586ZM36.3477 59.5098V60.3461H42.5839V59.5098V58.6734H36.3477V59.5098ZM36.3477 66.877H37.184V59.5098H36.3477H35.5113V66.877H36.3477ZM42.5839 66.877V66.0406H36.3477V66.877V67.7133H42.5839V66.877ZM42.5839 59.5098H41.7476V66.877H42.5839H43.4202V59.5098H42.5839ZM35.8965 59.0586V59.8949H43.0351V59.0586V58.2222H35.8965V59.0586ZM35.8965 67.3282H36.7328V59.0586H35.8965H35.0601V67.3282H35.8965ZM43.0351 67.3282V66.4918H35.8965V67.3282V68.1645H43.0351V67.3282ZM43.0351 59.0586H42.1987V67.3282H43.0351H43.8714V59.0586H43.0351Z" fill="#024C94" mask="url(#path-19-inside-5_4219_4383)"/>
<path d="M49.7559 74.9844V82.418H43.4531V74.9844H49.7559Z" stroke="#024C94" stroke-width="0.836345"/>
<mask id="path-22-inside-6_4219_4383" fill="white">
<path fill-rule="evenodd" clip-rule="evenodd" d="M49.7226 75.0176H43.4863V82.3848H49.7226V75.0176ZM43.0352 74.5664V82.836H50.1737V74.5664H43.0352Z"/>
</mask>
<path d="M43.4863 75.0176V74.1812H42.65V75.0176H43.4863ZM49.7226 75.0176H50.5589V74.1812H49.7226V75.0176ZM43.4863 82.3848H42.65V83.2211H43.4863V82.3848ZM49.7226 82.3848V83.2211H50.5589V82.3848H49.7226ZM43.0352 74.5664V73.7301H42.1988V74.5664H43.0352ZM43.0352 82.836H42.1988V83.6723H43.0352V82.836ZM50.1737 82.836V83.6723H51.0101V82.836H50.1737ZM50.1737 74.5664H51.0101V73.7301H50.1737V74.5664ZM43.4863 75.0176V75.8539H49.7226V75.0176V74.1812H43.4863V75.0176ZM43.4863 82.3848H44.3227V75.0176H43.4863H42.65V82.3848H43.4863ZM49.7226 82.3848V81.5485H43.4863V82.3848V83.2211H49.7226V82.3848ZM49.7226 75.0176H48.8862V82.3848H49.7226H50.5589V75.0176H49.7226ZM43.0352 74.5664V75.4028H50.1737V74.5664V73.7301H43.0352V74.5664ZM43.0352 82.836H43.8715V74.5664H43.0352H42.1988V82.836H43.0352ZM50.1737 82.836V81.9996H43.0352V82.836V83.6723H50.1737V82.836ZM50.1737 74.5664H49.3374V82.836H50.1737H51.0101V74.5664H50.1737Z" fill="#024C94" mask="url(#path-22-inside-6_4219_4383)"/>
<path d="M49.7559 59.4766V66.9102H43.4531V59.4766H49.7559Z" stroke="#024C94" stroke-width="0.836345"/>
<mask id="path-25-inside-7_4219_4383" fill="white">
<path fill-rule="evenodd" clip-rule="evenodd" d="M49.7226 59.5098H43.4863V66.877H49.7226V59.5098ZM43.0352 59.0586V67.3282H50.1737V59.0586H43.0352Z"/>
</mask>
<path d="M43.4863 59.5098V58.6734H42.65V59.5098H43.4863ZM49.7226 59.5098H50.5589V58.6734H49.7226V59.5098ZM43.4863 66.877H42.65V67.7133H43.4863V66.877ZM49.7226 66.877V67.7133H50.5589V66.877H49.7226ZM43.0352 59.0586V58.2222H42.1988V59.0586H43.0352ZM43.0352 67.3282H42.1988V68.1645H43.0352V67.3282ZM50.1737 67.3282V68.1645H51.0101V67.3282H50.1737ZM50.1737 59.0586H51.0101V58.2222H50.1737V59.0586ZM43.4863 59.5098V60.3461H49.7226V59.5098V58.6734H43.4863V59.5098ZM43.4863 66.877H44.3227V59.5098H43.4863H42.65V66.877H43.4863ZM49.7226 66.877V66.0406H43.4863V66.877V67.7133H49.7226V66.877ZM49.7226 59.5098H48.8862V66.877H49.7226H50.5589V59.5098H49.7226ZM43.0352 59.0586V59.8949H50.1737V59.0586V58.2222H43.0352V59.0586ZM43.0352 67.3282H43.8715V59.0586H43.0352H42.1988V67.3282H43.0352ZM50.1737 67.3282V66.4918H43.0352V67.3282V68.1645H50.1737V67.3282ZM50.1737 59.0586H49.3374V67.3282H50.1737H51.0101V59.0586H50.1737Z" fill="#024C94" mask="url(#path-25-inside-7_4219_4383)"/>
<path d="M42.6172 67.2148V74.6484H36.3145V67.2148H42.6172Z" stroke="#024C94" stroke-width="0.836345"/>
<mask id="path-28-inside-8_4219_4383" fill="white">
<path fill-rule="evenodd" clip-rule="evenodd" d="M42.5839 67.248H36.3477V74.6153H42.5839V67.248ZM35.8965 66.7969V75.0664H43.0351V66.7969H35.8965Z"/>
</mask>
<path d="M36.3477 67.248V66.4117H35.5113V67.248H36.3477ZM42.5839 67.248H43.4202V66.4117H42.5839V67.248ZM36.3477 74.6153H35.5113V75.4516H36.3477V74.6153ZM42.5839 74.6153V75.4516H43.4202V74.6153H42.5839ZM35.8965 66.7969V65.9605H35.0601V66.7969H35.8965ZM35.8965 75.0664H35.0601V75.9028H35.8965V75.0664ZM43.0351 75.0664V75.9028H43.8714V75.0664H43.0351ZM43.0351 66.7969H43.8714V65.9605H43.0351V66.7969ZM36.3477 67.248V68.0844H42.5839V67.248V66.4117H36.3477V67.248ZM36.3477 74.6153H37.184V67.248H36.3477H35.5113V74.6153H36.3477ZM42.5839 74.6153V73.7789H36.3477V74.6153V75.4516H42.5839V74.6153ZM42.5839 67.248H41.7476V74.6153H42.5839H43.4202V67.248H42.5839ZM35.8965 66.7969V67.6332H43.0351V66.7969V65.9605H35.8965V66.7969ZM35.8965 75.0664H36.7328V66.7969H35.8965H35.0601V75.0664H35.8965ZM43.0351 75.0664V74.2301H35.8965V75.0664V75.9028H43.0351V75.0664ZM43.0351 66.7969H42.1987V75.0664H43.0351H43.8714V66.7969H43.0351Z" fill="#024C94" mask="url(#path-28-inside-8_4219_4383)"/>
<path d="M42.6172 51.707V59.1406H36.3145V51.707H42.6172Z" stroke="#024C94" stroke-width="0.836345"/>
<mask id="path-31-inside-9_4219_4383" fill="white">
<path fill-rule="evenodd" clip-rule="evenodd" d="M42.5839 51.7402H36.3477V59.1075H42.5839V51.7402ZM35.8965 51.2891V59.5586H43.0351V51.2891H35.8965Z"/>
</mask>
<path d="M36.3477 51.7402V50.9039H35.5113V51.7402H36.3477ZM42.5839 51.7402H43.4202V50.9039H42.5839V51.7402ZM36.3477 59.1075H35.5113V59.9438H36.3477V59.1075ZM42.5839 59.1075V59.9438H43.4202V59.1075H42.5839ZM35.8965 51.2891V50.4527H35.0601V51.2891H35.8965ZM35.8965 59.5586H35.0601V60.395H35.8965V59.5586ZM43.0351 59.5586V60.395H43.8714V59.5586H43.0351ZM43.0351 51.2891H43.8714V50.4527H43.0351V51.2891ZM36.3477 51.7402V52.5766H42.5839V51.7402V50.9039H36.3477V51.7402ZM36.3477 59.1075H37.184V51.7402H36.3477H35.5113V59.1075H36.3477ZM42.5839 59.1075V58.2711H36.3477V59.1075V59.9438H42.5839V59.1075ZM42.5839 51.7402H41.7476V59.1075H42.5839H43.4202V51.7402H42.5839ZM35.8965 51.2891V52.1254H43.0351V51.2891V50.4527H35.8965V51.2891ZM35.8965 59.5586H36.7328V51.2891H35.8965H35.0601V59.5586H35.8965ZM43.0351 59.5586V58.7223H35.8965V59.5586V60.395H43.0351V59.5586ZM43.0351 51.2891H42.1987V59.5586H43.0351H43.8714V51.2891H43.0351Z" fill="#024C94" mask="url(#path-31-inside-9_4219_4383)"/>
<path d="M49.7559 67.2148V74.6484H43.4531V67.2148H49.7559Z" stroke="#024C94" stroke-width="0.836345"/>
<mask id="path-34-inside-10_4219_4383" fill="white">
<path fill-rule="evenodd" clip-rule="evenodd" d="M49.7226 67.248H43.4863V74.6153H49.7226V67.248ZM43.0352 66.7969V75.0664H50.1737V66.7969H43.0352Z"/>
</mask>
<path d="M43.4863 67.248V66.4117H42.65V67.248H43.4863ZM49.7226 67.248H50.5589V66.4117H49.7226V67.248ZM43.4863 74.6153H42.65V75.4516H43.4863V74.6153ZM49.7226 74.6153V75.4516H50.5589V74.6153H49.7226ZM43.0352 66.7969V65.9605H42.1988V66.7969H43.0352ZM43.0352 75.0664H42.1988V75.9028H43.0352V75.0664ZM50.1737 75.0664V75.9028H51.0101V75.0664H50.1737ZM50.1737 66.7969H51.0101V65.9605H50.1737V66.7969ZM43.4863 67.248V68.0844H49.7226V67.248V66.4117H43.4863V67.248ZM43.4863 74.6153H44.3227V67.248H43.4863H42.65V74.6153H43.4863ZM49.7226 74.6153V73.7789H43.4863V74.6153V75.4516H49.7226V74.6153ZM49.7226 67.248H48.8862V74.6153H49.7226H50.5589V67.248H49.7226ZM43.0352 66.7969V67.6332H50.1737V66.7969V65.9605H43.0352V66.7969ZM43.0352 75.0664H43.8715V66.7969H43.0352H42.1988V75.0664H43.0352ZM50.1737 75.0664V74.2301H43.0352V75.0664V75.9028H50.1737V75.0664ZM50.1737 66.7969H49.3374V75.0664H50.1737H51.0101V66.7969H50.1737Z" fill="#024C94" mask="url(#path-34-inside-10_4219_4383)"/>
<path d="M49.7559 51.707V59.1406H43.4531V51.707H49.7559Z" stroke="#024C94" stroke-width="0.836345"/>
<mask id="path-37-inside-11_4219_4383" fill="white">
<path fill-rule="evenodd" clip-rule="evenodd" d="M49.7226 51.7402H43.4863V59.1075H49.7226V51.7402ZM43.0352 51.2891V59.5586H50.1737V51.2891H43.0352Z"/>
</mask>
<path d="M43.4863 51.7402V50.9039H42.65V51.7402H43.4863ZM49.7226 51.7402H50.5589V50.9039H49.7226V51.7402ZM43.4863 59.1075H42.65V59.9438H43.4863V59.1075ZM49.7226 59.1075V59.9438H50.5589V59.1075H49.7226ZM43.0352 51.2891V50.4527H42.1988V51.2891H43.0352ZM43.0352 59.5586H42.1988V60.395H43.0352V59.5586ZM50.1737 59.5586V60.395H51.0101V59.5586H50.1737ZM50.1737 51.2891H51.0101V50.4527H50.1737V51.2891ZM43.4863 51.7402V52.5766H49.7226V51.7402V50.9039H43.4863V51.7402ZM43.4863 59.1075H44.3227V51.7402H43.4863H42.65V59.1075H43.4863ZM49.7226 59.1075V58.2711H43.4863V59.1075V59.9438H49.7226V59.1075ZM49.7226 51.7402H48.8862V59.1075H49.7226H50.5589V51.7402H49.7226ZM43.0352 51.2891V52.1254H50.1737V51.2891V50.4527H43.0352V51.2891ZM43.0352 59.5586H43.8715V51.2891H43.0352H42.1988V59.5586H43.0352ZM50.1737 59.5586V58.7223H43.0352V59.5586V60.395H50.1737V59.5586ZM50.1737 51.2891H49.3374V59.5586H50.1737H51.0101V51.2891H50.1737Z" fill="#024C94" mask="url(#path-37-inside-11_4219_4383)"/>
<mask id="path-39-inside-12_4219_4383" fill="white">
<path d="M35.5605 83.4648H50.5744V82.8374H35.5605V83.4648Z"/>
</mask>
<path d="M35.5605 83.4648V84.3012H34.7242V83.4648H35.5605ZM50.5744 83.4648H51.4107V84.3012H50.5744V83.4648ZM50.5744 82.8374V82.0011H51.4107V82.8374H50.5744ZM35.5605 82.8374H34.7242V82.0011H35.5605V82.8374ZM35.5605 83.4648V82.6285H50.5744V83.4648V84.3012H35.5605V83.4648ZM50.5744 83.4648H49.7381V82.8374H50.5744H51.4107V83.4648H50.5744ZM50.5744 82.8374V83.6738H35.5605V82.8374V82.0011H50.5744V82.8374ZM35.5605 82.8374H36.3969V83.4648H35.5605H34.7242V82.8374H35.5605Z" fill="#024C94" mask="url(#path-39-inside-12_4219_4383)"/>
<path d="M116.691 74.9844V82.418H110.389V74.9844H116.691Z" stroke="#024C94" stroke-width="0.836345"/>
<mask id="path-42-inside-13_4219_4383" fill="white">
<path fill-rule="evenodd" clip-rule="evenodd" d="M116.658 75.0176H110.422V82.3848H116.658V75.0176ZM109.971 74.5664V82.836H117.109V74.5664H109.971Z"/>
</mask>
<path d="M110.422 75.0176V74.1812H109.586V75.0176H110.422ZM116.658 75.0176H117.494V74.1812H116.658V75.0176ZM110.422 82.3848H109.586V83.2211H110.422V82.3848ZM116.658 82.3848V83.2211H117.494V82.3848H116.658ZM109.971 74.5664V73.7301H109.134V74.5664H109.971ZM109.971 82.836H109.134V83.6723H109.971V82.836ZM117.109 82.836V83.6723H117.946V82.836H117.109ZM117.109 74.5664H117.946V73.7301H117.109V74.5664ZM110.422 75.0176V75.8539H116.658V75.0176V74.1812H110.422V75.0176ZM110.422 82.3848H111.258V75.0176H110.422H109.586V82.3848H110.422ZM116.658 82.3848V81.5485H110.422V82.3848V83.2211H116.658V82.3848ZM116.658 75.0176H115.822V82.3848H116.658H117.494V75.0176H116.658ZM109.971 74.5664V75.4028H117.109V74.5664V73.7301H109.971V74.5664ZM109.971 82.836H110.807V74.5664H109.971H109.134V82.836H109.971ZM117.109 82.836V81.9996H109.971V82.836V83.6723H117.109V82.836ZM117.109 74.5664H116.273V82.836H117.109H117.946V74.5664H117.109Z" fill="#024C94" mask="url(#path-42-inside-13_4219_4383)"/>
<path d="M116.691 59.4766V66.9102H110.389V59.4766H116.691Z" stroke="#024C94" stroke-width="0.836345"/>
<mask id="path-45-inside-14_4219_4383" fill="white">
<path fill-rule="evenodd" clip-rule="evenodd" d="M116.658 59.5098H110.422V66.877H116.658V59.5098ZM109.971 59.0586V67.3282H117.109V59.0586H109.971Z"/>
</mask>
<path d="M110.422 59.5098V58.6734H109.586V59.5098H110.422ZM116.658 59.5098H117.494V58.6734H116.658V59.5098ZM110.422 66.877H109.586V67.7133H110.422V66.877ZM116.658 66.877V67.7133H117.494V66.877H116.658ZM109.971 59.0586V58.2222H109.134V59.0586H109.971ZM109.971 67.3282H109.134V68.1645H109.971V67.3282ZM117.109 67.3282V68.1645H117.946V67.3282H117.109ZM117.109 59.0586H117.946V58.2222H117.109V59.0586ZM110.422 59.5098V60.3461H116.658V59.5098V58.6734H110.422V59.5098ZM110.422 66.877H111.258V59.5098H110.422H109.586V66.877H110.422ZM116.658 66.877V66.0406H110.422V66.877V67.7133H116.658V66.877ZM116.658 59.5098H115.822V66.877H116.658H117.494V59.5098H116.658ZM109.971 59.0586V59.8949H117.109V59.0586V58.2222H109.971V59.0586ZM109.971 67.3282H110.807V59.0586H109.971H109.134V67.3282H109.971ZM117.109 67.3282V66.4918H109.971V67.3282V68.1645H117.109V67.3282ZM117.109 59.0586H116.273V67.3282H117.109H117.946V59.0586H117.109Z" fill="#024C94" mask="url(#path-45-inside-14_4219_4383)"/>
<path d="M123.832 74.9844V82.418H117.529V74.9844H123.832Z" stroke="#024C94" stroke-width="0.836345"/>
<mask id="path-48-inside-15_4219_4383" fill="white">
<path fill-rule="evenodd" clip-rule="evenodd" d="M123.799 75.0176H117.563V82.3848H123.799V75.0176ZM117.111 74.5664V82.836H124.25V74.5664H117.111Z"/>
</mask>
<path d="M117.563 75.0176V74.1812H116.726V75.0176H117.563ZM123.799 75.0176H124.635V74.1812H123.799V75.0176ZM117.563 82.3848H116.726V83.2211H117.563V82.3848ZM123.799 82.3848V83.2211H124.635V82.3848H123.799ZM117.111 74.5664V73.7301H116.275V74.5664H117.111ZM117.111 82.836H116.275V83.6723H117.111V82.836ZM124.25 82.836V83.6723H125.086V82.836H124.25ZM124.25 74.5664H125.086V73.7301H124.25V74.5664ZM117.563 75.0176V75.8539H123.799V75.0176V74.1812H117.563V75.0176ZM117.563 82.3848H118.399V75.0176H117.563H116.726V82.3848H117.563ZM123.799 82.3848V81.5485H117.563V82.3848V83.2211H123.799V82.3848ZM123.799 75.0176H122.962V82.3848H123.799H124.635V75.0176H123.799ZM117.111 74.5664V75.4028H124.25V74.5664V73.7301H117.111V74.5664ZM117.111 82.836H117.948V74.5664H117.111H116.275V82.836H117.111ZM124.25 82.836V81.9996H117.111V82.836V83.6723H124.25V82.836ZM124.25 74.5664H123.414V82.836H124.25H125.086V74.5664H124.25Z" fill="#024C94" mask="url(#path-48-inside-15_4219_4383)"/>
<path d="M123.832 59.4766V66.9102H117.529V59.4766H123.832Z" stroke="#024C94" stroke-width="0.836345"/>
<mask id="path-51-inside-16_4219_4383" fill="white">
<path fill-rule="evenodd" clip-rule="evenodd" d="M123.799 59.5098H117.563V66.877H123.799V59.5098ZM117.111 59.0586V67.3282H124.25V59.0586H117.111Z"/>
</mask>
<path d="M117.563 59.5098V58.6734H116.726V59.5098H117.563ZM123.799 59.5098H124.635V58.6734H123.799V59.5098ZM117.563 66.877H116.726V67.7133H117.563V66.877ZM123.799 66.877V67.7133H124.635V66.877H123.799ZM117.111 59.0586V58.2222H116.275V59.0586H117.111ZM117.111 67.3282H116.275V68.1645H117.111V67.3282ZM124.25 67.3282V68.1645H125.086V67.3282H124.25ZM124.25 59.0586H125.086V58.2222H124.25V59.0586ZM117.563 59.5098V60.3461H123.799V59.5098V58.6734H117.563V59.5098ZM117.563 66.877H118.399V59.5098H117.563H116.726V66.877H117.563ZM123.799 66.877V66.0406H117.563V66.877V67.7133H123.799V66.877ZM123.799 59.5098H122.962V66.877H123.799H124.635V59.5098H123.799ZM117.111 59.0586V59.8949H124.25V59.0586V58.2222H117.111V59.0586ZM117.111 67.3282H117.948V59.0586H117.111H116.275V67.3282H117.111ZM124.25 67.3282V66.4918H117.111V67.3282V68.1645H124.25V67.3282ZM124.25 59.0586H123.414V67.3282H124.25H125.086V59.0586H124.25Z" fill="#024C94" mask="url(#path-51-inside-16_4219_4383)"/>
<path d="M116.691 67.2148V74.6484H110.389V67.2148H116.691Z" stroke="#024C94" stroke-width="0.836345"/>
<mask id="path-54-inside-17_4219_4383" fill="white">
<path fill-rule="evenodd" clip-rule="evenodd" d="M116.658 67.248H110.422V74.6153H116.658V67.248ZM109.971 66.7969V75.0664H117.109V66.7969H109.971Z"/>
</mask>
<path d="M110.422 67.248V66.4117H109.586V67.248H110.422ZM116.658 67.248H117.494V66.4117H116.658V67.248ZM110.422 74.6153H109.586V75.4516H110.422V74.6153ZM116.658 74.6153V75.4516H117.494V74.6153H116.658ZM109.971 66.7969V65.9605H109.134V66.7969H109.971ZM109.971 75.0664H109.134V75.9028H109.971V75.0664ZM117.109 75.0664V75.9028H117.946V75.0664H117.109ZM117.109 66.7969H117.946V65.9605H117.109V66.7969ZM110.422 67.248V68.0844H116.658V67.248V66.4117H110.422V67.248ZM110.422 74.6153H111.258V67.248H110.422H109.586V74.6153H110.422ZM116.658 74.6153V73.7789H110.422V74.6153V75.4516H116.658V74.6153ZM116.658 67.248H115.822V74.6153H116.658H117.494V67.248H116.658ZM109.971 66.7969V67.6332H117.109V66.7969V65.9605H109.971V66.7969ZM109.971 75.0664H110.807V66.7969H109.971H109.134V75.0664H109.971ZM117.109 75.0664V74.2301H109.971V75.0664V75.9028H117.109V75.0664ZM117.109 66.7969H116.273V75.0664H117.109H117.946V66.7969H117.109Z" fill="#024C94" mask="url(#path-54-inside-17_4219_4383)"/>
<path d="M116.691 51.707V59.1406H110.389V51.707H116.691Z" stroke="#024C94" stroke-width="0.836345"/>
<mask id="path-57-inside-18_4219_4383" fill="white">
<path fill-rule="evenodd" clip-rule="evenodd" d="M116.658 51.7402H110.422V59.1075H116.658V51.7402ZM109.971 51.2891V59.5586H117.109V51.2891H109.971Z"/>
</mask>
<path d="M110.422 51.7402V50.9039H109.586V51.7402H110.422ZM116.658 51.7402H117.494V50.9039H116.658V51.7402ZM110.422 59.1075H109.586V59.9438H110.422V59.1075ZM116.658 59.1075V59.9438H117.494V59.1075H116.658ZM109.971 51.2891V50.4527H109.134V51.2891H109.971ZM109.971 59.5586H109.134V60.395H109.971V59.5586ZM117.109 59.5586V60.395H117.946V59.5586H117.109ZM117.109 51.2891H117.946V50.4527H117.109V51.2891ZM110.422 51.7402V52.5766H116.658V51.7402V50.9039H110.422V51.7402ZM110.422 59.1075H111.258V51.7402H110.422H109.586V59.1075H110.422ZM116.658 59.1075V58.2711H110.422V59.1075V59.9438H116.658V59.1075ZM116.658 51.7402H115.822V59.1075H116.658H117.494V51.7402H116.658ZM109.971 51.2891V52.1254H117.109V51.2891V50.4527H109.971V51.2891ZM109.971 59.5586H110.807V51.2891H109.971H109.134V59.5586H109.971ZM117.109 59.5586V58.7223H109.971V59.5586V60.395H117.109V59.5586ZM117.109 51.2891H116.273V59.5586H117.109H117.946V51.2891H117.109Z" fill="#024C94" mask="url(#path-57-inside-18_4219_4383)"/>
<path d="M123.832 67.2148V74.6484H117.529V67.2148H123.832Z" stroke="#024C94" stroke-width="0.836345"/>
<mask id="path-60-inside-19_4219_4383" fill="white">
<path fill-rule="evenodd" clip-rule="evenodd" d="M123.799 67.248H117.563V74.6153H123.799V67.248ZM117.111 66.7969V75.0664H124.25V66.7969H117.111Z"/>
</mask>
<path d="M117.563 67.248V66.4117H116.726V67.248H117.563ZM123.799 67.248H124.635V66.4117H123.799V67.248ZM117.563 74.6153H116.726V75.4516H117.563V74.6153ZM123.799 74.6153V75.4516H124.635V74.6153H123.799ZM117.111 66.7969V65.9605H116.275V66.7969H117.111ZM117.111 75.0664H116.275V75.9028H117.111V75.0664ZM124.25 75.0664V75.9028H125.086V75.0664H124.25ZM124.25 66.7969H125.086V65.9605H124.25V66.7969ZM117.563 67.248V68.0844H123.799V67.248V66.4117H117.563V67.248ZM117.563 74.6153H118.399V67.248H117.563H116.726V74.6153H117.563ZM123.799 74.6153V73.7789H117.563V74.6153V75.4516H123.799V74.6153ZM123.799 67.248H122.962V74.6153H123.799H124.635V67.248H123.799ZM117.111 66.7969V67.6332H124.25V66.7969V65.9605H117.111V66.7969ZM117.111 75.0664H117.948V66.7969H117.111H116.275V75.0664H117.111ZM124.25 75.0664V74.2301H117.111V75.0664V75.9028H124.25V75.0664ZM124.25 66.7969H123.414V75.0664H124.25H125.086V66.7969H124.25Z" fill="#024C94" mask="url(#path-60-inside-19_4219_4383)"/>
<path d="M123.832 51.707V59.1406H117.529V51.707H123.832Z" stroke="#024C94" stroke-width="0.836345"/>
<mask id="path-63-inside-20_4219_4383" fill="white">
<path fill-rule="evenodd" clip-rule="evenodd" d="M123.799 51.7402H117.563V59.1075H123.799V51.7402ZM117.111 51.2891V59.5586H124.25V51.2891H117.111Z"/>
</mask>
<path d="M117.563 51.7402V50.9039H116.726V51.7402H117.563ZM123.799 51.7402H124.635V50.9039H123.799V51.7402ZM117.563 59.1075H116.726V59.9438H117.563V59.1075ZM123.799 59.1075V59.9438H124.635V59.1075H123.799ZM117.111 51.2891V50.4527H116.275V51.2891H117.111ZM117.111 59.5586H116.275V60.395H117.111V59.5586ZM124.25 59.5586V60.395H125.086V59.5586H124.25ZM124.25 51.2891H125.086V50.4527H124.25V51.2891ZM117.563 51.7402V52.5766H123.799V51.7402V50.9039H117.563V51.7402ZM117.563 59.1075H118.399V51.7402H117.563H116.726V59.1075H117.563ZM123.799 59.1075V58.2711H117.563V59.1075V59.9438H123.799V59.1075ZM123.799 51.7402H122.962V59.1075H123.799H124.635V51.7402H123.799ZM117.111 51.2891V52.1254H124.25V51.2891V50.4527H117.111V51.2891ZM117.111 59.5586H117.948V51.2891H117.111H116.275V59.5586H117.111ZM124.25 59.5586V58.7223H117.111V59.5586V60.395H124.25V59.5586ZM124.25 51.2891H123.414V59.5586H124.25H125.086V51.2891H124.25Z" fill="#024C94" mask="url(#path-63-inside-20_4219_4383)"/>
<mask id="path-65-inside-21_4219_4383" fill="white">
<path d="M109.635 83.4648H124.649V82.8374H109.635V83.4648Z"/>
</mask>
<path d="M109.635 83.4648V84.3012H108.798V83.4648H109.635ZM124.649 83.4648H125.485V84.3012H124.649V83.4648ZM124.649 82.8374V82.0011H125.485V82.8374H124.649ZM109.635 82.8374H108.798V82.0011H109.635V82.8374ZM109.635 83.4648V82.6285H124.649V83.4648V84.3012H109.635V83.4648ZM124.649 83.4648H123.812V82.8374H124.649H125.485V83.4648H124.649ZM124.649 82.8374V83.6738H109.635V82.8374V82.0011H124.649V82.8374ZM109.635 82.8374H110.471V83.4648H109.635H108.798V82.8374H109.635Z" fill="#024C94" mask="url(#path-65-inside-21_4219_4383)"/>
<path d="M77.5449 74.9844V82.418H71.2422V74.9844H77.5449Z" stroke="#024C94" stroke-width="0.836345"/>
<mask id="path-68-inside-22_4219_4383" fill="white">
<path fill-rule="evenodd" clip-rule="evenodd" d="M77.5116 75.0176H71.2754V82.3848H77.5116V75.0176ZM70.8242 74.5664V82.836H77.9628V74.5664H70.8242Z"/>
</mask>
<path d="M71.2754 75.0176V74.1812H70.439V75.0176H71.2754ZM77.5116 75.0176H78.348V74.1812H77.5116V75.0176ZM71.2754 82.3848H70.439V83.2211H71.2754V82.3848ZM77.5116 82.3848V83.2211H78.348V82.3848H77.5116ZM70.8242 74.5664V73.7301H69.9879V74.5664H70.8242ZM70.8242 82.836H69.9879V83.6723H70.8242V82.836ZM77.9628 82.836V83.6723H78.7991V82.836H77.9628ZM77.9628 74.5664H78.7991V73.7301H77.9628V74.5664ZM71.2754 75.0176V75.8539H77.5116V75.0176V74.1812H71.2754V75.0176ZM71.2754 82.3848H72.1117V75.0176H71.2754H70.439V82.3848H71.2754ZM77.5116 82.3848V81.5485H71.2754V82.3848V83.2211H77.5116V82.3848ZM77.5116 75.0176H76.6753V82.3848H77.5116H78.348V75.0176H77.5116ZM70.8242 74.5664V75.4028H77.9628V74.5664V73.7301H70.8242V74.5664ZM70.8242 82.836H71.6606V74.5664H70.8242H69.9879V82.836H70.8242ZM77.9628 82.836V81.9996H70.8242V82.836V83.6723H77.9628V82.836ZM77.9628 74.5664H77.1265V82.836H77.9628H78.7991V74.5664H77.9628Z" fill="#024C94" mask="url(#path-68-inside-22_4219_4383)"/>
<path d="M77.5449 59.4766V66.9102H71.2422V59.4766H77.5449Z" stroke="#024C94" stroke-width="0.836345"/>
<mask id="path-71-inside-23_4219_4383" fill="white">
<path fill-rule="evenodd" clip-rule="evenodd" d="M77.5116 59.5098H71.2754V66.877H77.5116V59.5098ZM70.8242 59.0586V67.3282H77.9628V59.0586H70.8242Z"/>
</mask>
<path d="M71.2754 59.5098V58.6734H70.439V59.5098H71.2754ZM77.5116 59.5098H78.348V58.6734H77.5116V59.5098ZM71.2754 66.877H70.439V67.7133H71.2754V66.877ZM77.5116 66.877V67.7133H78.348V66.877H77.5116ZM70.8242 59.0586V58.2222H69.9879V59.0586H70.8242ZM70.8242 67.3282H69.9879V68.1645H70.8242V67.3282ZM77.9628 67.3282V68.1645H78.7991V67.3282H77.9628ZM77.9628 59.0586H78.7991V58.2222H77.9628V59.0586ZM71.2754 59.5098V60.3461H77.5116V59.5098V58.6734H71.2754V59.5098ZM71.2754 66.877H72.1117V59.5098H71.2754H70.439V66.877H71.2754ZM77.5116 66.877V66.0406H71.2754V66.877V67.7133H77.5116V66.877ZM77.5116 59.5098H76.6753V66.877H77.5116H78.348V59.5098H77.5116ZM70.8242 59.0586V59.8949H77.9628V59.0586V58.2222H70.8242V59.0586ZM70.8242 67.3282H71.6606V59.0586H70.8242H69.9879V67.3282H70.8242ZM77.9628 67.3282V66.4918H70.8242V67.3282V68.1645H77.9628V67.3282ZM77.9628 59.0586H77.1265V67.3282H77.9628H78.7991V59.0586H77.9628Z" fill="#024C94" mask="url(#path-71-inside-23_4219_4383)"/>
<path d="M84.6855 74.9844V82.418H78.3828V74.9844H84.6855Z" stroke="#024C94" stroke-width="0.836345"/>
<mask id="path-74-inside-24_4219_4383" fill="white">
<path fill-rule="evenodd" clip-rule="evenodd" d="M84.6523 75.0176H78.416V82.3848H84.6523V75.0176ZM77.9648 74.5664V82.836H85.1034V74.5664H77.9648Z"/>
</mask>
<path d="M78.416 75.0176V74.1812H77.5797V75.0176H78.416ZM84.6523 75.0176H85.4886V74.1812H84.6523V75.0176ZM78.416 82.3848H77.5797V83.2211H78.416V82.3848ZM84.6523 82.3848V83.2211H85.4886V82.3848H84.6523ZM77.9648 74.5664V73.7301H77.1285V74.5664H77.9648ZM77.9648 82.836H77.1285V83.6723H77.9648V82.836ZM85.1034 82.836V83.6723H85.9398V82.836H85.1034ZM85.1034 74.5664H85.9398V73.7301H85.1034V74.5664ZM78.416 75.0176V75.8539H84.6523V75.0176V74.1812H78.416V75.0176ZM78.416 82.3848H79.2524V75.0176H78.416H77.5797V82.3848H78.416ZM84.6523 82.3848V81.5485H78.416V82.3848V83.2211H84.6523V82.3848ZM84.6523 75.0176H83.8159V82.3848H84.6523H85.4886V75.0176H84.6523ZM77.9648 74.5664V75.4028H85.1034V74.5664V73.7301H77.9648V74.5664ZM77.9648 82.836H78.8012V74.5664H77.9648H77.1285V82.836H77.9648ZM85.1034 82.836V81.9996H77.9648V82.836V83.6723H85.1034V82.836ZM85.1034 74.5664H84.2671V82.836H85.1034H85.9398V74.5664H85.1034Z" fill="#024C94" mask="url(#path-74-inside-24_4219_4383)"/>
<path d="M84.6855 59.4766V66.9102H78.3828V59.4766H84.6855Z" stroke="#024C94" stroke-width="0.836345"/>
<mask id="path-77-inside-25_4219_4383" fill="white">
<path fill-rule="evenodd" clip-rule="evenodd" d="M84.6523 59.5098H78.416V66.877H84.6523V59.5098ZM77.9648 59.0586V67.3282H85.1034V59.0586H77.9648Z"/>
</mask>
<path d="M78.416 59.5098V58.6734H77.5797V59.5098H78.416ZM84.6523 59.5098H85.4886V58.6734H84.6523V59.5098ZM78.416 66.877H77.5797V67.7133H78.416V66.877ZM84.6523 66.877V67.7133H85.4886V66.877H84.6523ZM77.9648 59.0586V58.2222H77.1285V59.0586H77.9648ZM77.9648 67.3282H77.1285V68.1645H77.9648V67.3282ZM85.1034 67.3282V68.1645H85.9398V67.3282H85.1034ZM85.1034 59.0586H85.9398V58.2222H85.1034V59.0586ZM78.416 59.5098V60.3461H84.6523V59.5098V58.6734H78.416V59.5098ZM78.416 66.877H79.2524V59.5098H78.416H77.5797V66.877H78.416ZM84.6523 66.877V66.0406H78.416V66.877V67.7133H84.6523V66.877ZM84.6523 59.5098H83.8159V66.877H84.6523H85.4886V59.5098H84.6523ZM77.9648 59.0586V59.8949H85.1034V59.0586V58.2222H77.9648V59.0586ZM77.9648 67.3282H78.8012V59.0586H77.9648H77.1285V67.3282H77.9648ZM85.1034 67.3282V66.4918H77.9648V67.3282V68.1645H85.1034V67.3282ZM85.1034 59.0586H84.2671V67.3282H85.1034H85.9398V59.0586H85.1034Z" fill="#024C94" mask="url(#path-77-inside-25_4219_4383)"/>
<path d="M77.5449 67.2148V74.6484H71.2422V67.2148H77.5449Z" stroke="#024C94" stroke-width="0.836345"/>
<mask id="path-80-inside-26_4219_4383" fill="white">
<path fill-rule="evenodd" clip-rule="evenodd" d="M77.5116 67.248H71.2754V74.6153H77.5116V67.248ZM70.8242 66.7969V75.0664H77.9628V66.7969H70.8242Z"/>
</mask>
<path d="M71.2754 67.248V66.4117H70.439V67.248H71.2754ZM77.5116 67.248H78.348V66.4117H77.5116V67.248ZM71.2754 74.6153H70.439V75.4516H71.2754V74.6153ZM77.5116 74.6153V75.4516H78.348V74.6153H77.5116ZM70.8242 66.7969V65.9605H69.9879V66.7969H70.8242ZM70.8242 75.0664H69.9879V75.9028H70.8242V75.0664ZM77.9628 75.0664V75.9028H78.7991V75.0664H77.9628ZM77.9628 66.7969H78.7991V65.9605H77.9628V66.7969ZM71.2754 67.248V68.0844H77.5116V67.248V66.4117H71.2754V67.248ZM71.2754 74.6153H72.1117V67.248H71.2754H70.439V74.6153H71.2754ZM77.5116 74.6153V73.7789H71.2754V74.6153V75.4516H77.5116V74.6153ZM77.5116 67.248H76.6753V74.6153H77.5116H78.348V67.248H77.5116ZM70.8242 66.7969V67.6332H77.9628V66.7969V65.9605H70.8242V66.7969ZM70.8242 75.0664H71.6606V66.7969H70.8242H69.9879V75.0664H70.8242ZM77.9628 75.0664V74.2301H70.8242V75.0664V75.9028H77.9628V75.0664ZM77.9628 66.7969H77.1265V75.0664H77.9628H78.7991V66.7969H77.9628Z" fill="#024C94" mask="url(#path-80-inside-26_4219_4383)"/>
<path d="M77.5449 51.707V59.1406H71.2422V51.707H77.5449Z" stroke="#024C94" stroke-width="0.836345"/>
<mask id="path-83-inside-27_4219_4383" fill="white">
<path fill-rule="evenodd" clip-rule="evenodd" d="M77.5116 51.7402H71.2754V59.1075H77.5116V51.7402ZM70.8242 51.2891V59.5586H77.9628V51.2891H70.8242Z"/>
</mask>
<path d="M71.2754 51.7402V50.9039H70.439V51.7402H71.2754ZM77.5116 51.7402H78.348V50.9039H77.5116V51.7402ZM71.2754 59.1075H70.439V59.9438H71.2754V59.1075ZM77.5116 59.1075V59.9438H78.348V59.1075H77.5116ZM70.8242 51.2891V50.4527H69.9879V51.2891H70.8242ZM70.8242 59.5586H69.9879V60.395H70.8242V59.5586ZM77.9628 59.5586V60.395H78.7991V59.5586H77.9628ZM77.9628 51.2891H78.7991V50.4527H77.9628V51.2891ZM71.2754 51.7402V52.5766H77.5116V51.7402V50.9039H71.2754V51.7402ZM71.2754 59.1075H72.1117V51.7402H71.2754H70.439V59.1075H71.2754ZM77.5116 59.1075V58.2711H71.2754V59.1075V59.9438H77.5116V59.1075ZM77.5116 51.7402H76.6753V59.1075H77.5116H78.348V51.7402H77.5116ZM70.8242 51.2891V52.1254H77.9628V51.2891V50.4527H70.8242V51.2891ZM70.8242 59.5586H71.6606V51.2891H70.8242H69.9879V59.5586H70.8242ZM77.9628 59.5586V58.7223H70.8242V59.5586V60.395H77.9628V59.5586ZM77.9628 51.2891H77.1265V59.5586H77.9628H78.7991V51.2891H77.9628Z" fill="#024C94" mask="url(#path-83-inside-27_4219_4383)"/>
<path d="M84.6855 67.2148V74.6484H78.3828V67.2148H84.6855Z" stroke="#024C94" stroke-width="0.836345"/>
<mask id="path-86-inside-28_4219_4383" fill="white">
<path fill-rule="evenodd" clip-rule="evenodd" d="M84.6523 67.248H78.416V74.6153H84.6523V67.248ZM77.9648 66.7969V75.0664H85.1034V66.7969H77.9648Z"/>
</mask>
<path d="M78.416 67.248V66.4117H77.5797V67.248H78.416ZM84.6523 67.248H85.4886V66.4117H84.6523V67.248ZM78.416 74.6153H77.5797V75.4516H78.416V74.6153ZM84.6523 74.6153V75.4516H85.4886V74.6153H84.6523ZM77.9648 66.7969V65.9605H77.1285V66.7969H77.9648ZM77.9648 75.0664H77.1285V75.9028H77.9648V75.0664ZM85.1034 75.0664V75.9028H85.9398V75.0664H85.1034ZM85.1034 66.7969H85.9398V65.9605H85.1034V66.7969ZM78.416 67.248V68.0844H84.6523V67.248V66.4117H78.416V67.248ZM78.416 74.6153H79.2524V67.248H78.416H77.5797V74.6153H78.416ZM84.6523 74.6153V73.7789H78.416V74.6153V75.4516H84.6523V74.6153ZM84.6523 67.248H83.8159V74.6153H84.6523H85.4886V67.248H84.6523ZM77.9648 66.7969V67.6332H85.1034V66.7969V65.9605H77.9648V66.7969ZM77.9648 75.0664H78.8012V66.7969H77.9648H77.1285V75.0664H77.9648ZM85.1034 75.0664V74.2301H77.9648V75.0664V75.9028H85.1034V75.0664ZM85.1034 66.7969H84.2671V75.0664H85.1034H85.9398V66.7969H85.1034Z" fill="#024C94" mask="url(#path-86-inside-28_4219_4383)"/>
<path d="M84.6855 51.707V59.1406H78.3828V51.707H84.6855Z" stroke="#024C94" stroke-width="0.836345"/>
<mask id="path-89-inside-29_4219_4383" fill="white">
<path fill-rule="evenodd" clip-rule="evenodd" d="M84.6523 51.7402H78.416V59.1075H84.6523V51.7402ZM77.9648 51.2891V59.5586H85.1034V51.2891H77.9648Z"/>
</mask>
<path d="M78.416 51.7402V50.9039H77.5797V51.7402H78.416ZM84.6523 51.7402H85.4886V50.9039H84.6523V51.7402ZM78.416 59.1075H77.5797V59.9438H78.416V59.1075ZM84.6523 59.1075V59.9438H85.4886V59.1075H84.6523ZM77.9648 51.2891V50.4527H77.1285V51.2891H77.9648ZM77.9648 59.5586H77.1285V60.395H77.9648V59.5586ZM85.1034 59.5586V60.395H85.9398V59.5586H85.1034ZM85.1034 51.2891H85.9398V50.4527H85.1034V51.2891ZM78.416 51.7402V52.5766H84.6523V51.7402V50.9039H78.416V51.7402ZM78.416 59.1075H79.2524V51.7402H78.416H77.5797V59.1075H78.416ZM84.6523 59.1075V58.2711H78.416V59.1075V59.9438H84.6523V59.1075ZM84.6523 51.7402H83.8159V59.1075H84.6523H85.4886V51.7402H84.6523ZM77.9648 51.2891V52.1254H85.1034V51.2891V50.4527H77.9648V51.2891ZM77.9648 59.5586H78.8012V51.2891H77.9648H77.1285V59.5586H77.9648ZM85.1034 59.5586V58.7223H77.9648V59.5586V60.395H85.1034V59.5586ZM85.1034 51.2891H84.2671V59.5586H85.1034H85.9398V51.2891H85.1034Z" fill="#024C94" mask="url(#path-89-inside-29_4219_4383)"/>
<mask id="path-91-inside-30_4219_4383" fill="white">
<path d="M70.4883 83.4648H85.5021V82.8374H70.4883V83.4648Z"/>
</mask>
<path d="M70.4883 83.4648V84.3012H69.6519V83.4648H70.4883ZM85.5021 83.4648H86.3385V84.3012H85.5021V83.4648ZM85.5021 82.8374V82.0011H86.3385V82.8374H85.5021ZM70.4883 82.8374H69.6519V82.0011H70.4883V82.8374ZM70.4883 83.4648V82.6285H85.5021V83.4648V84.3012H70.4883V83.4648ZM85.5021 83.4648H84.6658V82.8374H85.5021H86.3385V83.4648H85.5021ZM85.5021 82.8374V83.6738H70.4883V82.8374V82.0011H85.5021V82.8374ZM70.4883 82.8374H71.3246V83.4648H70.4883H69.6519V82.8374H70.4883Z" fill="#024C94" mask="url(#path-91-inside-30_4219_4383)"/>
<path d="M151.623 74.9844V82.418H145.32V74.9844H151.623Z" stroke="#024C94" stroke-width="0.836345"/>
<mask id="path-94-inside-31_4219_4383" fill="white">
<path fill-rule="evenodd" clip-rule="evenodd" d="M151.59 75.0176H145.354V82.3848H151.59V75.0176ZM144.902 74.5664V82.836H152.041V74.5664H144.902Z"/>
</mask>
<path d="M145.354 75.0176V74.1812H144.517V75.0176H145.354ZM151.59 75.0176H152.426V74.1812H151.59V75.0176ZM145.354 82.3848H144.517V83.2211H145.354V82.3848ZM151.59 82.3848V83.2211H152.426V82.3848H151.59ZM144.902 74.5664V73.7301H144.066V74.5664H144.902ZM144.902 82.836H144.066V83.6723H144.902V82.836ZM152.041 82.836V83.6723H152.877V82.836H152.041ZM152.041 74.5664H152.877V73.7301H152.041V74.5664ZM145.354 75.0176V75.8539H151.59V75.0176V74.1812H145.354V75.0176ZM145.354 82.3848H146.19V75.0176H145.354H144.517V82.3848H145.354ZM151.59 82.3848V81.5485H145.354V82.3848V83.2211H151.59V82.3848ZM151.59 75.0176H150.753V82.3848H151.59H152.426V75.0176H151.59ZM144.902 74.5664V75.4028H152.041V74.5664V73.7301H144.902V74.5664ZM144.902 82.836H145.739V74.5664H144.902H144.066V82.836H144.902ZM152.041 82.836V81.9996H144.902V82.836V83.6723H152.041V82.836ZM152.041 74.5664H151.205V82.836H152.041H152.877V74.5664H152.041Z" fill="#024C94" mask="url(#path-94-inside-31_4219_4383)"/>
<path d="M151.623 59.4766V66.9102H145.32V59.4766H151.623Z" stroke="#024C94" stroke-width="0.836345"/>
<mask id="path-97-inside-32_4219_4383" fill="white">
<path fill-rule="evenodd" clip-rule="evenodd" d="M151.59 59.5098H145.354V66.877H151.59V59.5098ZM144.902 59.0586V67.3282H152.041V59.0586H144.902Z"/>
</mask>
<path d="M145.354 59.5098V58.6734H144.517V59.5098H145.354ZM151.59 59.5098H152.426V58.6734H151.59V59.5098ZM145.354 66.877H144.517V67.7133H145.354V66.877ZM151.59 66.877V67.7133H152.426V66.877H151.59ZM144.902 59.0586V58.2222H144.066V59.0586H144.902ZM144.902 67.3282H144.066V68.1645H144.902V67.3282ZM152.041 67.3282V68.1645H152.877V67.3282H152.041ZM152.041 59.0586H152.877V58.2222H152.041V59.0586ZM145.354 59.5098V60.3461H151.59V59.5098V58.6734H145.354V59.5098ZM145.354 66.877H146.19V59.5098H145.354H144.517V66.877H145.354ZM151.59 66.877V66.0406H145.354V66.877V67.7133H151.59V66.877ZM151.59 59.5098H150.753V66.877H151.59H152.426V59.5098H151.59ZM144.902 59.0586V59.8949H152.041V59.0586V58.2222H144.902V59.0586ZM144.902 67.3282H145.739V59.0586H144.902H144.066V67.3282H144.902ZM152.041 67.3282V66.4918H144.902V67.3282V68.1645H152.041V67.3282ZM152.041 59.0586H151.205V67.3282H152.041H152.877V59.0586H152.041Z" fill="#024C94" mask="url(#path-97-inside-32_4219_4383)"/>
<path d="M158.762 74.9844V82.418H152.459V74.9844H158.762Z" stroke="#024C94" stroke-width="0.836345"/>
<mask id="path-100-inside-33_4219_4383" fill="white">
<path fill-rule="evenodd" clip-rule="evenodd" d="M158.728 75.0176H152.492V82.3848H158.728V75.0176ZM152.041 74.5664V82.836H159.18V74.5664H152.041Z"/>
</mask>
<path d="M152.492 75.0176V74.1812H151.656V75.0176H152.492ZM158.728 75.0176H159.565V74.1812H158.728V75.0176ZM152.492 82.3848H151.656V83.2211H152.492V82.3848ZM158.728 82.3848V83.2211H159.565V82.3848H158.728ZM152.041 74.5664V73.7301H151.205V74.5664H152.041ZM152.041 82.836H151.205V83.6723H152.041V82.836ZM159.18 82.836V83.6723H160.016V82.836H159.18ZM159.18 74.5664H160.016V73.7301H159.18V74.5664ZM152.492 75.0176V75.8539H158.728V75.0176V74.1812H152.492V75.0176ZM152.492 82.3848H153.329V75.0176H152.492H151.656V82.3848H152.492ZM158.728 82.3848V81.5485H152.492V82.3848V83.2211H158.728V82.3848ZM158.728 75.0176H157.892V82.3848H158.728H159.565V75.0176H158.728ZM152.041 74.5664V75.4028H159.18V74.5664V73.7301H152.041V74.5664ZM152.041 82.836H152.877V74.5664H152.041H151.205V82.836H152.041ZM159.18 82.836V81.9996H152.041V82.836V83.6723H159.18V82.836ZM159.18 74.5664H158.343V82.836H159.18H160.016V74.5664H159.18Z" fill="#024C94" mask="url(#path-100-inside-33_4219_4383)"/>
<path d="M158.762 59.4766V66.9102H152.459V59.4766H158.762Z" stroke="#024C94" stroke-width="0.836345"/>
<mask id="path-103-inside-34_4219_4383" fill="white">
<path fill-rule="evenodd" clip-rule="evenodd" d="M158.728 59.5098H152.492V66.877H158.728V59.5098ZM152.041 59.0586V67.3282H159.18V59.0586H152.041Z"/>
</mask>
<path d="M152.492 59.5098V58.6734H151.656V59.5098H152.492ZM158.728 59.5098H159.565V58.6734H158.728V59.5098ZM152.492 66.877H151.656V67.7133H152.492V66.877ZM158.728 66.877V67.7133H159.565V66.877H158.728ZM152.041 59.0586V58.2222H151.205V59.0586H152.041ZM152.041 67.3282H151.205V68.1645H152.041V67.3282ZM159.18 67.3282V68.1645H160.016V67.3282H159.18ZM159.18 59.0586H160.016V58.2222H159.18V59.0586ZM152.492 59.5098V60.3461H158.728V59.5098V58.6734H152.492V59.5098ZM152.492 66.877H153.329V59.5098H152.492H151.656V66.877H152.492ZM158.728 66.877V66.0406H152.492V66.877V67.7133H158.728V66.877ZM158.728 59.5098H157.892V66.877H158.728H159.565V59.5098H158.728ZM152.041 59.0586V59.8949H159.18V59.0586V58.2222H152.041V59.0586ZM152.041 67.3282H152.877V59.0586H152.041H151.205V67.3282H152.041ZM159.18 67.3282V66.4918H152.041V67.3282V68.1645H159.18V67.3282ZM159.18 59.0586H158.343V67.3282H159.18H160.016V59.0586H159.18Z" fill="#024C94" mask="url(#path-103-inside-34_4219_4383)"/>
<path d="M151.623 67.2148V74.6484H145.32V67.2148H151.623Z" stroke="#024C94" stroke-width="0.836345"/>
<mask id="path-106-inside-35_4219_4383" fill="white">
<path fill-rule="evenodd" clip-rule="evenodd" d="M151.59 67.248H145.354V74.6153H151.59V67.248ZM144.902 66.7969V75.0664H152.041V66.7969H144.902Z"/>
</mask>
<path d="M145.354 67.248V66.4117H144.517V67.248H145.354ZM151.59 67.248H152.426V66.4117H151.59V67.248ZM145.354 74.6153H144.517V75.4516H145.354V74.6153ZM151.59 74.6153V75.4516H152.426V74.6153H151.59ZM144.902 66.7969V65.9605H144.066V66.7969H144.902ZM144.902 75.0664H144.066V75.9028H144.902V75.0664ZM152.041 75.0664V75.9028H152.877V75.0664H152.041ZM152.041 66.7969H152.877V65.9605H152.041V66.7969ZM145.354 67.248V68.0844H151.59V67.248V66.4117H145.354V67.248ZM145.354 74.6153H146.19V67.248H145.354H144.517V74.6153H145.354ZM151.59 74.6153V73.7789H145.354V74.6153V75.4516H151.59V74.6153ZM151.59 67.248H150.753V74.6153H151.59H152.426V67.248H151.59ZM144.902 66.7969V67.6332H152.041V66.7969V65.9605H144.902V66.7969ZM144.902 75.0664H145.739V66.7969H144.902H144.066V75.0664H144.902ZM152.041 75.0664V74.2301H144.902V75.0664V75.9028H152.041V75.0664ZM152.041 66.7969H151.205V75.0664H152.041H152.877V66.7969H152.041Z" fill="#024C94" mask="url(#path-106-inside-35_4219_4383)"/>
<path d="M151.623 51.707V59.1406H145.32V51.707H151.623Z" stroke="#024C94" stroke-width="0.836345"/>
<mask id="path-109-inside-36_4219_4383" fill="white">
<path fill-rule="evenodd" clip-rule="evenodd" d="M151.59 51.7402H145.354V59.1075H151.59V51.7402ZM144.902 51.2891V59.5586H152.041V51.2891H144.902Z"/>
</mask>
<path d="M145.354 51.7402V50.9039H144.517V51.7402H145.354ZM151.59 51.7402H152.426V50.9039H151.59V51.7402ZM145.354 59.1075H144.517V59.9438H145.354V59.1075ZM151.59 59.1075V59.9438H152.426V59.1075H151.59ZM144.902 51.2891V50.4527H144.066V51.2891H144.902ZM144.902 59.5586H144.066V60.395H144.902V59.5586ZM152.041 59.5586V60.395H152.877V59.5586H152.041ZM152.041 51.2891H152.877V50.4527H152.041V51.2891ZM145.354 51.7402V52.5766H151.59V51.7402V50.9039H145.354V51.7402ZM145.354 59.1075H146.19V51.7402H145.354H144.517V59.1075H145.354ZM151.59 59.1075V58.2711H145.354V59.1075V59.9438H151.59V59.1075ZM151.59 51.7402H150.753V59.1075H151.59H152.426V51.7402H151.59ZM144.902 51.2891V52.1254H152.041V51.2891V50.4527H144.902V51.2891ZM144.902 59.5586H145.739V51.2891H144.902H144.066V59.5586H144.902ZM152.041 59.5586V58.7223H144.902V59.5586V60.395H152.041V59.5586ZM152.041 51.2891H151.205V59.5586H152.041H152.877V51.2891H152.041Z" fill="#024C94" mask="url(#path-109-inside-36_4219_4383)"/>
<path d="M158.762 67.2148V74.6484H152.459V67.2148H158.762Z" stroke="#024C94" stroke-width="0.836345"/>
<mask id="path-112-inside-37_4219_4383" fill="white">
<path fill-rule="evenodd" clip-rule="evenodd" d="M158.728 67.248H152.492V74.6153H158.728V67.248ZM152.041 66.7969V75.0664H159.18V66.7969H152.041Z"/>
</mask>
<path d="M152.492 67.248V66.4117H151.656V67.248H152.492ZM158.728 67.248H159.565V66.4117H158.728V67.248ZM152.492 74.6153H151.656V75.4516H152.492V74.6153ZM158.728 74.6153V75.4516H159.565V74.6153H158.728ZM152.041 66.7969V65.9605H151.205V66.7969H152.041ZM152.041 75.0664H151.205V75.9028H152.041V75.0664ZM159.18 75.0664V75.9028H160.016V75.0664H159.18ZM159.18 66.7969H160.016V65.9605H159.18V66.7969ZM152.492 67.248V68.0844H158.728V67.248V66.4117H152.492V67.248ZM152.492 74.6153H153.329V67.248H152.492H151.656V74.6153H152.492ZM158.728 74.6153V73.7789H152.492V74.6153V75.4516H158.728V74.6153ZM158.728 67.248H157.892V74.6153H158.728H159.565V67.248H158.728ZM152.041 66.7969V67.6332H159.18V66.7969V65.9605H152.041V66.7969ZM152.041 75.0664H152.877V66.7969H152.041H151.205V75.0664H152.041ZM159.18 75.0664V74.2301H152.041V75.0664V75.9028H159.18V75.0664ZM159.18 66.7969H158.343V75.0664H159.18H160.016V66.7969H159.18Z" fill="#024C94" mask="url(#path-112-inside-37_4219_4383)"/>
<path d="M158.762 51.707V59.1406H152.459V51.707H158.762Z" stroke="#024C94" stroke-width="0.836345"/>
<mask id="path-115-inside-38_4219_4383" fill="white">
<path fill-rule="evenodd" clip-rule="evenodd" d="M158.728 51.7402H152.492V59.1075H158.728V51.7402ZM152.041 51.2891V59.5586H159.18V51.2891H152.041Z"/>
</mask>
<path d="M152.492 51.7402V50.9039H151.656V51.7402H152.492ZM158.728 51.7402H159.565V50.9039H158.728V51.7402ZM152.492 59.1075H151.656V59.9438H152.492V59.1075ZM158.728 59.1075V59.9438H159.565V59.1075H158.728ZM152.041 51.2891V50.4527H151.205V51.2891H152.041ZM152.041 59.5586H151.205V60.395H152.041V59.5586ZM159.18 59.5586V60.395H160.016V59.5586H159.18ZM159.18 51.2891H160.016V50.4527H159.18V51.2891ZM152.492 51.7402V52.5766H158.728V51.7402V50.9039H152.492V51.7402ZM152.492 59.1075H153.329V51.7402H152.492H151.656V59.1075H152.492ZM158.728 59.1075V58.2711H152.492V59.1075V59.9438H158.728V59.1075ZM158.728 51.7402H157.892V59.1075H158.728H159.565V51.7402H158.728ZM152.041 51.2891V52.1254H159.18V51.2891V50.4527H152.041V51.2891ZM152.041 59.5586H152.877V51.2891H152.041H151.205V59.5586H152.041ZM159.18 59.5586V58.7223H152.041V59.5586V60.395H159.18V59.5586ZM159.18 51.2891H158.343V59.5586H159.18H160.016V51.2891H159.18Z" fill="#024C94" mask="url(#path-115-inside-38_4219_4383)"/>
<mask id="path-117-inside-39_4219_4383" fill="white">
<path d="M144.566 83.4648H159.58V82.8374H144.566V83.4648Z"/>
</mask>
<path d="M144.566 83.4648V84.3012H143.73V83.4648H144.566ZM159.58 83.4648H160.417V84.3012H159.58V83.4648ZM159.58 82.8374V82.0011H160.417V82.8374H159.58ZM144.566 82.8374H143.73V82.0011H144.566V82.8374ZM144.566 83.4648V82.6285H159.58V83.4648V84.3012H144.566V83.4648ZM159.58 83.4648H158.744V82.8374H159.58H160.417V83.4648H159.58ZM159.58 82.8374V83.6738H144.566V82.8374V82.0011H159.58V82.8374ZM144.566 82.8374H145.403V83.4648H144.566H143.73V82.8374H144.566Z" fill="#024C94" mask="url(#path-117-inside-39_4219_4383)"/>
<path d="M193.404 74.9844V82.418H187.102V74.9844H193.404Z" stroke="#024C94" stroke-width="0.836345"/>
<mask id="path-120-inside-40_4219_4383" fill="white">
<path fill-rule="evenodd" clip-rule="evenodd" d="M193.371 75.0176H187.135V82.3848H193.371V75.0176ZM186.684 74.5664V82.836H193.822V74.5664H186.684Z"/>
</mask>
<path d="M187.135 75.0176V74.1812H186.298V75.0176H187.135ZM193.371 75.0176H194.207V74.1812H193.371V75.0176ZM187.135 82.3848H186.298V83.2211H187.135V82.3848ZM193.371 82.3848V83.2211H194.207V82.3848H193.371ZM186.684 74.5664V73.7301H185.847V74.5664H186.684ZM186.684 82.836H185.847V83.6723H186.684V82.836ZM193.822 82.836V83.6723H194.659V82.836H193.822ZM193.822 74.5664H194.659V73.7301H193.822V74.5664ZM187.135 75.0176V75.8539H193.371V75.0176V74.1812H187.135V75.0176ZM187.135 82.3848H187.971V75.0176H187.135H186.298V82.3848H187.135ZM193.371 82.3848V81.5485H187.135V82.3848V83.2211H193.371V82.3848ZM193.371 75.0176H192.535V82.3848H193.371H194.207V75.0176H193.371ZM186.684 74.5664V75.4028H193.822V74.5664V73.7301H186.684V74.5664ZM186.684 82.836H187.52V74.5664H186.684H185.847V82.836H186.684ZM193.822 82.836V81.9996H186.684V82.836V83.6723H193.822V82.836ZM193.822 74.5664H192.986V82.836H193.822H194.659V74.5664H193.822Z" fill="#024C94" mask="url(#path-120-inside-40_4219_4383)"/>
<path d="M193.404 59.4766V66.9102H187.102V59.4766H193.404Z" stroke="#024C94" stroke-width="0.836345"/>
<mask id="path-123-inside-41_4219_4383" fill="white">
<path fill-rule="evenodd" clip-rule="evenodd" d="M193.371 59.5098H187.135V66.877H193.371V59.5098ZM186.684 59.0586V67.3282H193.822V59.0586H186.684Z"/>
</mask>
<path d="M187.135 59.5098V58.6734H186.298V59.5098H187.135ZM193.371 59.5098H194.207V58.6734H193.371V59.5098ZM187.135 66.877H186.298V67.7133H187.135V66.877ZM193.371 66.877V67.7133H194.207V66.877H193.371ZM186.684 59.0586V58.2222H185.847V59.0586H186.684ZM186.684 67.3282H185.847V68.1645H186.684V67.3282ZM193.822 67.3282V68.1645H194.659V67.3282H193.822ZM193.822 59.0586H194.659V58.2222H193.822V59.0586ZM187.135 59.5098V60.3461H193.371V59.5098V58.6734H187.135V59.5098ZM187.135 66.877H187.971V59.5098H187.135H186.298V66.877H187.135ZM193.371 66.877V66.0406H187.135V66.877V67.7133H193.371V66.877ZM193.371 59.5098H192.535V66.877H193.371H194.207V59.5098H193.371ZM186.684 59.0586V59.8949H193.822V59.0586V58.2222H186.684V59.0586ZM186.684 67.3282H187.52V59.0586H186.684H185.847V67.3282H186.684ZM193.822 67.3282V66.4918H186.684V67.3282V68.1645H193.822V67.3282ZM193.822 59.0586H192.986V67.3282H193.822H194.659V59.0586H193.822Z" fill="#024C94" mask="url(#path-123-inside-41_4219_4383)"/>
<path d="M200.543 74.9844V82.418H194.24V74.9844H200.543Z" stroke="#024C94" stroke-width="0.836345"/>
<mask id="path-126-inside-42_4219_4383" fill="white">
<path fill-rule="evenodd" clip-rule="evenodd" d="M200.51 75.0176H194.273V82.3848H200.51V75.0176ZM193.822 74.5664V82.836H200.961V74.5664H193.822Z"/>
</mask>
<path d="M194.273 75.0176V74.1812H193.437V75.0176H194.273ZM200.51 75.0176H201.346V74.1812H200.51V75.0176ZM194.273 82.3848H193.437V83.2211H194.273V82.3848ZM200.51 82.3848V83.2211H201.346V82.3848H200.51ZM193.822 74.5664V73.7301H192.986V74.5664H193.822ZM193.822 82.836H192.986V83.6723H193.822V82.836ZM200.961 82.836V83.6723H201.797V82.836H200.961ZM200.961 74.5664H201.797V73.7301H200.961V74.5664ZM194.273 75.0176V75.8539H200.51V75.0176V74.1812H194.273V75.0176ZM194.273 82.3848H195.11V75.0176H194.273H193.437V82.3848H194.273ZM200.51 82.3848V81.5485H194.273V82.3848V83.2211H200.51V82.3848ZM200.51 75.0176H199.673V82.3848H200.51H201.346V75.0176H200.51ZM193.822 74.5664V75.4028H200.961V74.5664V73.7301H193.822V74.5664ZM193.822 82.836H194.659V74.5664H193.822H192.986V82.836H193.822ZM200.961 82.836V81.9996H193.822V82.836V83.6723H200.961V82.836ZM200.961 74.5664H200.125V82.836H200.961H201.797V74.5664H200.961Z" fill="#024C94" mask="url(#path-126-inside-42_4219_4383)"/>
<path d="M200.543 59.4766V66.9102H194.24V59.4766H200.543Z" stroke="#024C94" stroke-width="0.836345"/>
<mask id="path-129-inside-43_4219_4383" fill="white">
<path fill-rule="evenodd" clip-rule="evenodd" d="M200.51 59.5098H194.273V66.877H200.51V59.5098ZM193.822 59.0586V67.3282H200.961V59.0586H193.822Z"/>
</mask>
<path d="M194.273 59.5098V58.6734H193.437V59.5098H194.273ZM200.51 59.5098H201.346V58.6734H200.51V59.5098ZM194.273 66.877H193.437V67.7133H194.273V66.877ZM200.51 66.877V67.7133H201.346V66.877H200.51ZM193.822 59.0586V58.2222H192.986V59.0586H193.822ZM193.822 67.3282H192.986V68.1645H193.822V67.3282ZM200.961 67.3282V68.1645H201.797V67.3282H200.961ZM200.961 59.0586H201.797V58.2222H200.961V59.0586ZM194.273 59.5098V60.3461H200.51V59.5098V58.6734H194.273V59.5098ZM194.273 66.877H195.11V59.5098H194.273H193.437V66.877H194.273ZM200.51 66.877V66.0406H194.273V66.877V67.7133H200.51V66.877ZM200.51 59.5098H199.673V66.877H200.51H201.346V59.5098H200.51ZM193.822 59.0586V59.8949H200.961V59.0586V58.2222H193.822V59.0586ZM193.822 67.3282H194.659V59.0586H193.822H192.986V67.3282H193.822ZM200.961 67.3282V66.4918H193.822V67.3282V68.1645H200.961V67.3282ZM200.961 59.0586H200.125V67.3282H200.961H201.797V59.0586H200.961Z" fill="#024C94" mask="url(#path-129-inside-43_4219_4383)"/>
<path d="M193.404 67.2148V74.6484H187.102V67.2148H193.404Z" stroke="#024C94" stroke-width="0.836345"/>
<mask id="path-132-inside-44_4219_4383" fill="white">
<path fill-rule="evenodd" clip-rule="evenodd" d="M193.371 67.248H187.135V74.6153H193.371V67.248ZM186.684 66.7969V75.0664H193.822V66.7969H186.684Z"/>
</mask>
<path d="M187.135 67.248V66.4117H186.298V67.248H187.135ZM193.371 67.248H194.207V66.4117H193.371V67.248ZM187.135 74.6153H186.298V75.4516H187.135V74.6153ZM193.371 74.6153V75.4516H194.207V74.6153H193.371ZM186.684 66.7969V65.9605H185.847V66.7969H186.684ZM186.684 75.0664H185.847V75.9028H186.684V75.0664ZM193.822 75.0664V75.9028H194.659V75.0664H193.822ZM193.822 66.7969H194.659V65.9605H193.822V66.7969ZM187.135 67.248V68.0844H193.371V67.248V66.4117H187.135V67.248ZM187.135 74.6153H187.971V67.248H187.135H186.298V74.6153H187.135ZM193.371 74.6153V73.7789H187.135V74.6153V75.4516H193.371V74.6153ZM193.371 67.248H192.535V74.6153H193.371H194.207V67.248H193.371ZM186.684 66.7969V67.6332H193.822V66.7969V65.9605H186.684V66.7969ZM186.684 75.0664H187.52V66.7969H186.684H185.847V75.0664H186.684ZM193.822 75.0664V74.2301H186.684V75.0664V75.9028H193.822V75.0664ZM193.822 66.7969H192.986V75.0664H193.822H194.659V66.7969H193.822Z" fill="#024C94" mask="url(#path-132-inside-44_4219_4383)"/>
<path d="M193.404 51.707V59.1406H187.102V51.707H193.404Z" stroke="#024C94" stroke-width="0.836345"/>
<mask id="path-135-inside-45_4219_4383" fill="white">
<path fill-rule="evenodd" clip-rule="evenodd" d="M193.371 51.7402H187.135V59.1075H193.371V51.7402ZM186.684 51.2891V59.5586H193.822V51.2891H186.684Z"/>
</mask>
<path d="M187.135 51.7402V50.9039H186.298V51.7402H187.135ZM193.371 51.7402H194.207V50.9039H193.371V51.7402ZM187.135 59.1075H186.298V59.9438H187.135V59.1075ZM193.371 59.1075V59.9438H194.207V59.1075H193.371ZM186.684 51.2891V50.4527H185.847V51.2891H186.684ZM186.684 59.5586H185.847V60.395H186.684V59.5586ZM193.822 59.5586V60.395H194.659V59.5586H193.822ZM193.822 51.2891H194.659V50.4527H193.822V51.2891ZM187.135 51.7402V52.5766H193.371V51.7402V50.9039H187.135V51.7402ZM187.135 59.1075H187.971V51.7402H187.135H186.298V59.1075H187.135ZM193.371 59.1075V58.2711H187.135V59.1075V59.9438H193.371V59.1075ZM193.371 51.7402H192.535V59.1075H193.371H194.207V51.7402H193.371ZM186.684 51.2891V52.1254H193.822V51.2891V50.4527H186.684V51.2891ZM186.684 59.5586H187.52V51.2891H186.684H185.847V59.5586H186.684ZM193.822 59.5586V58.7223H186.684V59.5586V60.395H193.822V59.5586ZM193.822 51.2891H192.986V59.5586H193.822H194.659V51.2891H193.822Z" fill="#024C94" mask="url(#path-135-inside-45_4219_4383)"/>
<path d="M200.543 67.2148V74.6484H194.24V67.2148H200.543Z" stroke="#024C94" stroke-width="0.836345"/>
<mask id="path-138-inside-46_4219_4383" fill="white">
<path fill-rule="evenodd" clip-rule="evenodd" d="M200.51 67.248H194.273V74.6153H200.51V67.248ZM193.822 66.7969V75.0664H200.961V66.7969H193.822Z"/>
</mask>
<path d="M194.273 67.248V66.4117H193.437V67.248H194.273ZM200.51 67.248H201.346V66.4117H200.51V67.248ZM194.273 74.6153H193.437V75.4516H194.273V74.6153ZM200.51 74.6153V75.4516H201.346V74.6153H200.51ZM193.822 66.7969V65.9605H192.986V66.7969H193.822ZM193.822 75.0664H192.986V75.9028H193.822V75.0664ZM200.961 75.0664V75.9028H201.797V75.0664H200.961ZM200.961 66.7969H201.797V65.9605H200.961V66.7969ZM194.273 67.248V68.0844H200.51V67.248V66.4117H194.273V67.248ZM194.273 74.6153H195.11V67.248H194.273H193.437V74.6153H194.273ZM200.51 74.6153V73.7789H194.273V74.6153V75.4516H200.51V74.6153ZM200.51 67.248H199.673V74.6153H200.51H201.346V67.248H200.51ZM193.822 66.7969V67.6332H200.961V66.7969V65.9605H193.822V66.7969ZM193.822 75.0664H194.659V66.7969H193.822H192.986V75.0664H193.822ZM200.961 75.0664V74.2301H193.822V75.0664V75.9028H200.961V75.0664ZM200.961 66.7969H200.125V75.0664H200.961H201.797V66.7969H200.961Z" fill="#024C94" mask="url(#path-138-inside-46_4219_4383)"/>
<path d="M200.543 51.707V59.1406H194.24V51.707H200.543Z" stroke="#024C94" stroke-width="0.836345"/>
<mask id="path-141-inside-47_4219_4383" fill="white">
<path fill-rule="evenodd" clip-rule="evenodd" d="M200.51 51.7402H194.273V59.1075H200.51V51.7402ZM193.822 51.2891V59.5586H200.961V51.2891H193.822Z"/>
</mask>
<path d="M194.273 51.7402V50.9039H193.437V51.7402H194.273ZM200.51 51.7402H201.346V50.9039H200.51V51.7402ZM194.273 59.1075H193.437V59.9438H194.273V59.1075ZM200.51 59.1075V59.9438H201.346V59.1075H200.51ZM193.822 51.2891V50.4527H192.986V51.2891H193.822ZM193.822 59.5586H192.986V60.395H193.822V59.5586ZM200.961 59.5586V60.395H201.797V59.5586H200.961ZM200.961 51.2891H201.797V50.4527H200.961V51.2891ZM194.273 51.7402V52.5766H200.51V51.7402V50.9039H194.273V51.7402ZM194.273 59.1075H195.11V51.7402H194.273H193.437V59.1075H194.273ZM200.51 59.1075V58.2711H194.273V59.1075V59.9438H200.51V59.1075ZM200.51 51.7402H199.673V59.1075H200.51H201.346V51.7402H200.51ZM193.822 51.2891V52.1254H200.961V51.2891V50.4527H193.822V51.2891ZM193.822 59.5586H194.659V51.2891H193.822H192.986V59.5586H193.822ZM200.961 59.5586V58.7223H193.822V59.5586V60.395H200.961V59.5586ZM200.961 51.2891H200.125V59.5586H200.961H201.797V51.2891H200.961Z" fill="#024C94" mask="url(#path-141-inside-47_4219_4383)"/>
<mask id="path-143-inside-48_4219_4383" fill="white">
<path d="M186.348 83.4648H201.362V82.8374H186.348V83.4648Z"/>
</mask>
<path d="M186.348 83.4648V84.3012H185.511V83.4648H186.348ZM201.362 83.4648H202.198V84.3012H201.362V83.4648ZM201.362 82.8374V82.0011H202.198V82.8374H201.362ZM186.348 82.8374H185.511V82.0011H186.348V82.8374ZM186.348 83.4648V82.6285H201.362V83.4648V84.3012H186.348V83.4648ZM201.362 83.4648H200.525V82.8374H201.362H202.198V83.4648H201.362ZM201.362 82.8374V83.6738H186.348V82.8374V82.0011H201.362V82.8374ZM186.348 82.8374H187.184V83.4648H186.348H185.511V82.8374H186.348Z" fill="#024C94" mask="url(#path-143-inside-48_4219_4383)"/>
<path d="M233.646 74.9844V82.418H227.344V74.9844H233.646Z" stroke="#024C94" stroke-width="0.836345"/>
<mask id="path-146-inside-49_4219_4383" fill="white">
<path fill-rule="evenodd" clip-rule="evenodd" d="M233.613 75.0176H227.377V82.3848H233.613V75.0176ZM226.926 74.5664V82.836H234.064V74.5664H226.926Z"/>
</mask>
<path d="M227.377 75.0176V74.1812H226.541V75.0176H227.377ZM233.613 75.0176H234.45V74.1812H233.613V75.0176ZM227.377 82.3848H226.541V83.2211H227.377V82.3848ZM233.613 82.3848V83.2211H234.45V82.3848H233.613ZM226.926 74.5664V73.7301H226.089V74.5664H226.926ZM226.926 82.836H226.089V83.6723H226.926V82.836ZM234.064 82.836V83.6723H234.901V82.836H234.064ZM234.064 74.5664H234.901V73.7301H234.064V74.5664ZM227.377 75.0176V75.8539H233.613V75.0176V74.1812H227.377V75.0176ZM227.377 82.3848H228.213V75.0176H227.377H226.541V82.3848H227.377ZM233.613 82.3848V81.5485H227.377V82.3848V83.2211H233.613V82.3848ZM233.613 75.0176H232.777V82.3848H233.613H234.45V75.0176H233.613ZM226.926 74.5664V75.4028H234.064V74.5664V73.7301H226.926V74.5664ZM226.926 82.836H227.762V74.5664H226.926H226.089V82.836H226.926ZM234.064 82.836V81.9996H226.926V82.836V83.6723H234.064V82.836ZM234.064 74.5664H233.228V82.836H234.064H234.901V74.5664H234.064Z" fill="#024C94" mask="url(#path-146-inside-49_4219_4383)"/>
<path d="M233.646 59.4766V66.9102H227.344V59.4766H233.646Z" stroke="#024C94" stroke-width="0.836345"/>
<mask id="path-149-inside-50_4219_4383" fill="white">
<path fill-rule="evenodd" clip-rule="evenodd" d="M233.613 59.5098H227.377V66.877H233.613V59.5098ZM226.926 59.0586V67.3282H234.064V59.0586H226.926Z"/>
</mask>
<path d="M227.377 59.5098V58.6734H226.541V59.5098H227.377ZM233.613 59.5098H234.45V58.6734H233.613V59.5098ZM227.377 66.877H226.541V67.7133H227.377V66.877ZM233.613 66.877V67.7133H234.45V66.877H233.613ZM226.926 59.0586V58.2222H226.089V59.0586H226.926ZM226.926 67.3282H226.089V68.1645H226.926V67.3282ZM234.064 67.3282V68.1645H234.901V67.3282H234.064ZM234.064 59.0586H234.901V58.2222H234.064V59.0586ZM227.377 59.5098V60.3461H233.613V59.5098V58.6734H227.377V59.5098ZM227.377 66.877H228.213V59.5098H227.377H226.541V66.877H227.377ZM233.613 66.877V66.0406H227.377V66.877V67.7133H233.613V66.877ZM233.613 59.5098H232.777V66.877H233.613H234.45V59.5098H233.613ZM226.926 59.0586V59.8949H234.064V59.0586V58.2222H226.926V59.0586ZM226.926 67.3282H227.762V59.0586H226.926H226.089V67.3282H226.926ZM234.064 67.3282V66.4918H226.926V67.3282V68.1645H234.064V67.3282ZM234.064 59.0586H233.228V67.3282H234.064H234.901V59.0586H234.064Z" fill="#024C94" mask="url(#path-149-inside-50_4219_4383)"/>
<path d="M240.785 74.9844V82.418H234.482V74.9844H240.785Z" stroke="#024C94" stroke-width="0.836345"/>
<mask id="path-152-inside-51_4219_4383" fill="white">
<path fill-rule="evenodd" clip-rule="evenodd" d="M240.752 75.0176H234.516V82.3848H240.752V75.0176ZM234.064 74.5664V82.836H241.203V74.5664H234.064Z"/>
</mask>
<path d="M234.516 75.0176V74.1812H233.679V75.0176H234.516ZM240.752 75.0176H241.588V74.1812H240.752V75.0176ZM234.516 82.3848H233.679V83.2211H234.516V82.3848ZM240.752 82.3848V83.2211H241.588V82.3848H240.752ZM234.064 74.5664V73.7301H233.228V74.5664H234.064ZM234.064 82.836H233.228V83.6723H234.064V82.836ZM241.203 82.836V83.6723H242.039V82.836H241.203ZM241.203 74.5664H242.039V73.7301H241.203V74.5664ZM234.516 75.0176V75.8539H240.752V75.0176V74.1812H234.516V75.0176ZM234.516 82.3848H235.352V75.0176H234.516H233.679V82.3848H234.516ZM240.752 82.3848V81.5485H234.516V82.3848V83.2211H240.752V82.3848ZM240.752 75.0176H239.916V82.3848H240.752H241.588V75.0176H240.752ZM234.064 74.5664V75.4028H241.203V74.5664V73.7301H234.064V74.5664ZM234.064 82.836H234.901V74.5664H234.064H233.228V82.836H234.064ZM241.203 82.836V81.9996H234.064V82.836V83.6723H241.203V82.836ZM241.203 74.5664H240.367V82.836H241.203H242.039V74.5664H241.203Z" fill="#024C94" mask="url(#path-152-inside-51_4219_4383)"/>
<path d="M240.785 59.4766V66.9102H234.482V59.4766H240.785Z" stroke="#024C94" stroke-width="0.836345"/>
<mask id="path-155-inside-52_4219_4383" fill="white">
<path fill-rule="evenodd" clip-rule="evenodd" d="M240.752 59.5098H234.516V66.877H240.752V59.5098ZM234.064 59.0586V67.3282H241.203V59.0586H234.064Z"/>
</mask>
<path d="M234.516 59.5098V58.6734H233.679V59.5098H234.516ZM240.752 59.5098H241.588V58.6734H240.752V59.5098ZM234.516 66.877H233.679V67.7133H234.516V66.877ZM240.752 66.877V67.7133H241.588V66.877H240.752ZM234.064 59.0586V58.2222H233.228V59.0586H234.064ZM234.064 67.3282H233.228V68.1645H234.064V67.3282ZM241.203 67.3282V68.1645H242.039V67.3282H241.203ZM241.203 59.0586H242.039V58.2222H241.203V59.0586ZM234.516 59.5098V60.3461H240.752V59.5098V58.6734H234.516V59.5098ZM234.516 66.877H235.352V59.5098H234.516H233.679V66.877H234.516ZM240.752 66.877V66.0406H234.516V66.877V67.7133H240.752V66.877ZM240.752 59.5098H239.916V66.877H240.752H241.588V59.5098H240.752ZM234.064 59.0586V59.8949H241.203V59.0586V58.2222H234.064V59.0586ZM234.064 67.3282H234.901V59.0586H234.064H233.228V67.3282H234.064ZM241.203 67.3282V66.4918H234.064V67.3282V68.1645H241.203V67.3282ZM241.203 59.0586H240.367V67.3282H241.203H242.039V59.0586H241.203Z" fill="#024C94" mask="url(#path-155-inside-52_4219_4383)"/>
<path d="M233.646 67.2148V74.6484H227.344V67.2148H233.646Z" stroke="#024C94" stroke-width="0.836345"/>
<mask id="path-158-inside-53_4219_4383" fill="white">
<path fill-rule="evenodd" clip-rule="evenodd" d="M233.613 67.248H227.377V74.6153H233.613V67.248ZM226.926 66.7969V75.0664H234.064V66.7969H226.926Z"/>
</mask>
<path d="M227.377 67.248V66.4117H226.541V67.248H227.377ZM233.613 67.248H234.45V66.4117H233.613V67.248ZM227.377 74.6153H226.541V75.4516H227.377V74.6153ZM233.613 74.6153V75.4516H234.45V74.6153H233.613ZM226.926 66.7969V65.9605H226.089V66.7969H226.926ZM226.926 75.0664H226.089V75.9028H226.926V75.0664ZM234.064 75.0664V75.9028H234.901V75.0664H234.064ZM234.064 66.7969H234.901V65.9605H234.064V66.7969ZM227.377 67.248V68.0844H233.613V67.248V66.4117H227.377V67.248ZM227.377 74.6153H228.213V67.248H227.377H226.541V74.6153H227.377ZM233.613 74.6153V73.7789H227.377V74.6153V75.4516H233.613V74.6153ZM233.613 67.248H232.777V74.6153H233.613H234.45V67.248H233.613ZM226.926 66.7969V67.6332H234.064V66.7969V65.9605H226.926V66.7969ZM226.926 75.0664H227.762V66.7969H226.926H226.089V75.0664H226.926ZM234.064 75.0664V74.2301H226.926V75.0664V75.9028H234.064V75.0664ZM234.064 66.7969H233.228V75.0664H234.064H234.901V66.7969H234.064Z" fill="#024C94" mask="url(#path-158-inside-53_4219_4383)"/>
<path d="M233.646 51.707V59.1406H227.344V51.707H233.646Z" stroke="#024C94" stroke-width="0.836345"/>
<mask id="path-161-inside-54_4219_4383" fill="white">
<path fill-rule="evenodd" clip-rule="evenodd" d="M233.613 51.7402H227.377V59.1075H233.613V51.7402ZM226.926 51.2891V59.5586H234.064V51.2891H226.926Z"/>
</mask>
<path d="M227.377 51.7402V50.9039H226.541V51.7402H227.377ZM233.613 51.7402H234.45V50.9039H233.613V51.7402ZM227.377 59.1075H226.541V59.9438H227.377V59.1075ZM233.613 59.1075V59.9438H234.45V59.1075H233.613ZM226.926 51.2891V50.4527H226.089V51.2891H226.926ZM226.926 59.5586H226.089V60.395H226.926V59.5586ZM234.064 59.5586V60.395H234.901V59.5586H234.064ZM234.064 51.2891H234.901V50.4527H234.064V51.2891ZM227.377 51.7402V52.5766H233.613V51.7402V50.9039H227.377V51.7402ZM227.377 59.1075H228.213V51.7402H227.377H226.541V59.1075H227.377ZM233.613 59.1075V58.2711H227.377V59.1075V59.9438H233.613V59.1075ZM233.613 51.7402H232.777V59.1075H233.613H234.45V51.7402H233.613ZM226.926 51.2891V52.1254H234.064V51.2891V50.4527H226.926V51.2891ZM226.926 59.5586H227.762V51.2891H226.926H226.089V59.5586H226.926ZM234.064 59.5586V58.7223H226.926V59.5586V60.395H234.064V59.5586ZM234.064 51.2891H233.228V59.5586H234.064H234.901V51.2891H234.064Z" fill="#024C94" mask="url(#path-161-inside-54_4219_4383)"/>
<path d="M240.785 67.2148V74.6484H234.482V67.2148H240.785Z" stroke="#024C94" stroke-width="0.836345"/>
<mask id="path-164-inside-55_4219_4383" fill="white">
<path fill-rule="evenodd" clip-rule="evenodd" d="M240.752 67.248H234.516V74.6153H240.752V67.248ZM234.064 66.7969V75.0664H241.203V66.7969H234.064Z"/>
</mask>
<path d="M234.516 67.248V66.4117H233.679V67.248H234.516ZM240.752 67.248H241.588V66.4117H240.752V67.248ZM234.516 74.6153H233.679V75.4516H234.516V74.6153ZM240.752 74.6153V75.4516H241.588V74.6153H240.752ZM234.064 66.7969V65.9605H233.228V66.7969H234.064ZM234.064 75.0664H233.228V75.9028H234.064V75.0664ZM241.203 75.0664V75.9028H242.039V75.0664H241.203ZM241.203 66.7969H242.039V65.9605H241.203V66.7969ZM234.516 67.248V68.0844H240.752V67.248V66.4117H234.516V67.248ZM234.516 74.6153H235.352V67.248H234.516H233.679V74.6153H234.516ZM240.752 74.6153V73.7789H234.516V74.6153V75.4516H240.752V74.6153ZM240.752 67.248H239.916V74.6153H240.752H241.588V67.248H240.752ZM234.064 66.7969V67.6332H241.203V66.7969V65.9605H234.064V66.7969ZM234.064 75.0664H234.901V66.7969H234.064H233.228V75.0664H234.064ZM241.203 75.0664V74.2301H234.064V75.0664V75.9028H241.203V75.0664ZM241.203 66.7969H240.367V75.0664H241.203H242.039V66.7969H241.203Z" fill="#024C94" mask="url(#path-164-inside-55_4219_4383)"/>
<path d="M240.785 51.707V59.1406H234.482V51.707H240.785Z" stroke="#024C94" stroke-width="0.836345"/>
<mask id="path-167-inside-56_4219_4383" fill="white">
<path fill-rule="evenodd" clip-rule="evenodd" d="M240.752 51.7402H234.516V59.1075H240.752V51.7402ZM234.064 51.2891V59.5586H241.203V51.2891H234.064Z"/>
</mask>
<path d="M234.516 51.7402V50.9039H233.679V51.7402H234.516ZM240.752 51.7402H241.588V50.9039H240.752V51.7402ZM234.516 59.1075H233.679V59.9438H234.516V59.1075ZM240.752 59.1075V59.9438H241.588V59.1075H240.752ZM234.064 51.2891V50.4527H233.228V51.2891H234.064ZM234.064 59.5586H233.228V60.395H234.064V59.5586ZM241.203 59.5586V60.395H242.039V59.5586H241.203ZM241.203 51.2891H242.039V50.4527H241.203V51.2891ZM234.516 51.7402V52.5766H240.752V51.7402V50.9039H234.516V51.7402ZM234.516 59.1075H235.352V51.7402H234.516H233.679V59.1075H234.516ZM240.752 59.1075V58.2711H234.516V59.1075V59.9438H240.752V59.1075ZM240.752 51.7402H239.916V59.1075H240.752H241.588V51.7402H240.752ZM234.064 51.2891V52.1254H241.203V51.2891V50.4527H234.064V51.2891ZM234.064 59.5586H234.901V51.2891H234.064H233.228V59.5586H234.064ZM241.203 59.5586V58.7223H234.064V59.5586V60.395H241.203V59.5586ZM241.203 51.2891H240.367V59.5586H241.203H242.039V51.2891H241.203Z" fill="#024C94" mask="url(#path-167-inside-56_4219_4383)"/>
<mask id="path-169-inside-57_4219_4383" fill="white">
<path d="M226.588 83.4648H241.602V82.8374H226.588V83.4648Z"/>
</mask>
<path d="M226.588 83.4648V84.3012H225.752V83.4648H226.588ZM241.602 83.4648H242.438V84.3012H241.602V83.4648ZM241.602 82.8374V82.0011H242.438V82.8374H241.602ZM226.588 82.8374H225.752V82.0011H226.588V82.8374ZM226.588 83.4648V82.6285H241.602V83.4648V84.3012H226.588V83.4648ZM241.602 83.4648H240.765V82.8374H241.602H242.438V83.4648H241.602ZM241.602 82.8374V83.6738H226.588V82.8374V82.0011H241.602V82.8374ZM226.588 82.8374H227.424V83.4648H226.588H225.752V82.8374H226.588Z" fill="#024C94" mask="url(#path-169-inside-57_4219_4383)"/>
<path d="M240.788 51.709V82.4219H227.346V51.709H240.788Z" fill="#024C94" stroke="#024C94" stroke-width="0.836345"/>
<path d="M236.293 58.5977L231.506 56.8167L231.506 55.9703L236.293 54.1962L236.293 54.8327L235.264 55.2119L235.264 57.5819L236.293 57.9611L236.293 58.5977ZM234.729 57.3856L234.729 55.4083L232.02 56.3969L234.729 57.3856Z" fill="white"/>
<path d="M236.293 64.6094L231.506 64.6094L231.506 64.0202L235.758 64.0202L235.758 62.2258L231.506 62.2258L231.506 61.6367L235.758 61.6367L235.758 59.8422L231.506 59.8422L231.506 59.2531L236.293 59.2531L236.293 64.6094Z" fill="white"/>
<path d="M236.293 69.5684L231.506 69.5684L231.506 68.9792L235.372 68.9792L231.506 66.4128L231.506 65.7898L236.293 65.7898L236.293 66.379L232.461 66.379L236.293 68.9521L236.293 69.5684Z" fill="white"/>
<path d="M236.353 73.2838L235.574 73.2838L235.574 73.8255C235.565 74.1866 235.479 74.4936 235.317 74.7464C235.154 74.9947 234.933 75.182 234.653 75.3084C234.373 75.4348 234.057 75.498 233.705 75.498C233.335 75.4935 233.017 75.4145 232.75 75.261C232.484 75.1076 232.279 74.8976 232.134 74.6313C231.99 74.3649 231.917 74.0625 231.917 73.7239L231.917 73.2838L231.24 73.2838L231.24 72.6946L231.917 72.6946L231.917 72.2613C231.917 71.9182 231.99 71.6134 232.134 71.3471C232.279 71.0807 232.484 70.8708 232.75 70.7173C233.017 70.5639 233.335 70.4849 233.705 70.4803C234.057 70.4758 234.373 70.5413 234.653 70.6767C234.933 70.8121 235.154 71.0085 235.317 71.2658C235.479 71.5186 235.565 71.8256 235.574 72.1868L235.574 72.6946L236.353 72.6946L236.353 73.2838ZM235.066 73.7036L235.066 73.2838L232.425 73.2838L232.425 73.6765C232.425 73.9293 232.479 74.1483 232.588 74.3333C232.696 74.5139 232.845 74.6539 233.035 74.7532C233.224 74.8525 233.443 74.9022 233.692 74.9022C233.953 74.9022 234.188 74.8615 234.396 74.7803C234.603 74.699 234.768 74.5703 234.89 74.3943C235.007 74.2182 235.066 73.988 235.066 73.7036ZM235.066 72.6946L235.066 72.2748C235.066 71.9904 235.007 71.7602 234.89 71.5841C234.768 71.408 234.603 71.2794 234.396 71.1981C234.188 71.1169 233.953 71.0762 233.692 71.0762C233.443 71.0762 233.224 71.1259 233.035 71.2252C232.845 71.3245 232.696 71.4667 232.588 71.6518C232.479 71.8324 232.425 72.0491 232.425 72.3019L232.425 72.6946L235.066 72.6946Z" fill="white"/>
<path d="M236.293 80.1953L231.506 78.4144L231.506 77.568L236.293 75.7938L236.293 76.4303L235.264 76.8095L235.264 79.1796L236.293 79.5588L236.293 80.1953ZM234.729 78.9832L234.729 77.0059L232.02 77.9946L234.729 78.9832Z" fill="white"/>
<path d="M291.258 45.9307C291.29 46.1636 291.31 46.4682 291.322 46.8174C291.331 47.0604 291.336 47.3145 291.341 47.5664C291.346 47.8166 291.351 48.0663 291.359 48.2949C291.368 48.5225 291.38 48.7386 291.4 48.9209C291.419 49.0874 291.451 49.2801 291.521 49.4268C291.532 49.448 291.547 49.4754 291.567 49.5059C291.558 49.5224 291.549 49.5383 291.541 49.5537C291.508 49.6145 291.483 49.6603 291.464 49.6953C291.398 49.7655 291.343 49.8138 291.299 49.8467C291.283 49.8061 291.265 49.7499 291.248 49.6738C291.213 49.5164 291.189 49.3167 291.174 49.0869C291.144 48.6271 291.156 48.0962 291.168 47.6338C291.174 47.4068 291.179 47.1928 291.18 47.0205C291.18 46.9001 291.178 46.761 291.161 46.6465C291.171 46.5377 291.176 46.4336 291.168 46.3418C291.163 46.2874 291.153 46.2169 291.125 46.1455C291.116 46.1212 291.101 46.0917 291.081 46.0596C291.097 46.0457 291.112 46.0319 291.128 46.0195C291.18 45.9781 291.223 45.9498 291.258 45.9307Z" stroke="#024C94" stroke-width="0.836345"/>
<path fill-rule="evenodd" clip-rule="evenodd" d="M283.52 51.1875L283.625 51.2604C283.91 51.4584 284.337 51.8242 284.707 52.2864C285.076 52.7465 285.402 53.3198 285.454 53.931L285.47 54.1147H283.359V53.2984H283.114V52.96H283.933V53.2984H283.698V53.7763H285.091C285.005 53.3242 284.751 52.8825 284.443 52.498C284.139 52.1176 283.792 51.8065 283.535 51.6133C283.029 52.0384 282.696 52.4115 282.461 52.8448C282.21 53.3072 282.064 53.851 281.956 54.6247L281.621 54.5779C281.732 53.7872 281.884 53.1974 282.163 52.6835C282.442 52.1685 282.841 51.7429 283.421 51.2683L283.52 51.1875Z" fill="#024C94"/>
<path fill-rule="evenodd" clip-rule="evenodd" d="M280.988 50.9336H286.462V54.7721H280.988V50.9336ZM281.327 51.272V54.4337H286.124V51.272H281.327Z" fill="#024C94"/>
<path fill-rule="evenodd" clip-rule="evenodd" d="M273.245 51.1875L273.35 51.2604C273.635 51.4584 274.062 51.8242 274.432 52.2864C274.801 52.7465 275.126 53.3198 275.179 53.931L275.194 54.1147H273.084V53.2984H272.839V52.96H273.658V53.2984H273.422V53.7763H274.816C274.73 53.3242 274.476 52.8825 274.168 52.498C273.863 52.1176 273.517 51.8065 273.26 51.6133C272.754 52.0384 272.42 52.4115 272.185 52.8448C271.934 53.3072 271.789 53.851 271.681 54.6247L271.346 54.5779C271.456 53.7872 271.609 53.1974 271.888 52.6835C272.167 52.1685 272.566 51.7429 273.146 51.2683L273.245 51.1875Z" fill="#024C94"/>
<path fill-rule="evenodd" clip-rule="evenodd" d="M270.713 50.9336H276.187V54.7721H270.713V50.9336ZM271.051 51.272V54.4337H275.849V51.272H271.051Z" fill="#024C94"/>
<path fill-rule="evenodd" clip-rule="evenodd" d="M278.79 47.6914L278.685 47.7643C278.401 47.9624 277.973 48.3282 277.603 48.7903C277.235 49.2504 276.909 49.8237 276.856 50.4349L276.841 50.6186H278.951V49.8023H279.196V49.4639H278.377V49.8023H278.613V50.2802H277.219C277.305 49.8281 277.559 49.3864 277.867 49.0019C278.172 48.6215 278.519 48.3104 278.775 48.1172C279.281 48.5423 279.615 48.9154 279.85 49.3487C280.101 49.8111 280.246 50.3549 280.354 51.1286L280.689 51.0818C280.579 50.2911 280.426 49.7013 280.147 49.1874C279.868 48.6724 279.47 48.2468 278.889 47.7722L278.79 47.6914Z" fill="#024C94"/>
<path fill-rule="evenodd" clip-rule="evenodd" d="M281.324 47.4355H275.85V51.274H281.324V47.4355ZM280.986 47.7739V50.9357H276.188V47.7739H280.986Z" fill="#024C94"/>
<path fill-rule="evenodd" clip-rule="evenodd" d="M276.188 47.4355H270.713V51.274H276.188V47.4355ZM275.849 47.7739V50.9357H271.052V47.7739H275.849Z" fill="#024C94"/>
<path d="M271.984 48.0664H275.186V50.6979H271.984V48.0664Z" fill="#024C94"/>
<path fill-rule="evenodd" clip-rule="evenodd" d="M286.461 47.4355H280.987V51.274H286.461V47.4355ZM286.123 47.7739V50.9357H281.325V47.7739H286.123Z" fill="#024C94"/>
<path d="M282.26 48.0664H285.461V50.6979H282.26V48.0664Z" fill="#024C94"/>
<path fill-rule="evenodd" clip-rule="evenodd" d="M281.344 50.9355H275.87V54.774H281.344V50.9355ZM281.005 51.2739V54.4357H276.208V51.2739H281.005Z" fill="#024C94"/>
<path d="M277.143 51.5645H280.344V54.196H277.143V51.5645Z" fill="#024C94"/>
<path fill-rule="evenodd" clip-rule="evenodd" d="M271.053 50.9355H265.579V54.774H271.053V50.9355ZM270.714 51.2739V54.4357H265.917V51.2739H270.714Z" fill="#024C94"/>
<path d="M266.852 51.5645H270.053V54.196H266.852V51.5645Z" fill="#024C94"/>
<path fill-rule="evenodd" clip-rule="evenodd" d="M268.517 47.6914L268.412 47.7643C268.127 47.9624 267.7 48.3282 267.33 48.7903C266.961 49.2504 266.635 49.8237 266.583 50.4349L266.567 50.6186H268.678V49.8023H268.923V49.4639H268.104V49.8023H268.339V50.2802H266.946C267.032 49.8281 267.286 49.3864 267.594 49.0019C267.898 48.6215 268.245 48.3104 268.502 48.1172C269.008 48.5423 269.342 48.9154 269.577 49.3487C269.827 49.8111 269.973 50.3549 270.081 51.1286L270.416 51.0818C270.306 50.2911 270.153 49.7013 269.874 49.1874C269.595 48.6724 269.196 48.2468 268.616 47.7722L268.517 47.6914Z" fill="#024C94"/>
<path fill-rule="evenodd" clip-rule="evenodd" d="M271.049 47.4355H265.575V51.274H271.049V47.4355ZM270.71 47.7739V50.9357H265.913V47.7739H270.71Z" fill="#024C94"/>
<path fill-rule="evenodd" clip-rule="evenodd" d="M319.552 51.1875L319.656 51.2604C319.941 51.4584 320.369 51.8242 320.739 52.2864C321.107 52.7465 321.433 53.3198 321.485 53.931L321.501 54.1147H319.391V53.2984H319.146V52.96H319.965V53.2984H319.729V53.7763H321.123C321.036 53.3242 320.783 52.8825 320.475 52.498C320.17 52.1176 319.823 51.8065 319.567 51.6133C319.061 52.0384 318.727 52.4115 318.492 52.8448C318.241 53.3072 318.096 53.851 317.987 54.6247L317.652 54.5779C317.763 53.7872 317.916 53.1974 318.194 52.6835C318.474 52.1685 318.872 51.7429 319.453 51.2683L319.552 51.1875Z" fill="#024C94"/>
<path fill-rule="evenodd" clip-rule="evenodd" d="M317.02 50.9336H322.494V54.7721H317.02V50.9336ZM317.358 51.272V54.4337H322.155V51.272H317.358Z" fill="#024C94"/>
<path fill-rule="evenodd" clip-rule="evenodd" d="M309.284 51.1875L309.389 51.2604C309.674 51.4584 310.101 51.8242 310.471 52.2864C310.84 52.7465 311.165 53.3198 311.218 53.931L311.233 54.1147H309.123V53.2984H308.878V52.96H309.697V53.2984H309.461V53.7763H310.855C310.769 53.3242 310.515 52.8825 310.207 52.498C309.902 52.1176 309.556 51.8065 309.299 51.6133C308.793 52.0384 308.459 52.4115 308.224 52.8448C307.973 53.3072 307.828 53.851 307.72 54.6247L307.385 54.5779C307.495 53.7872 307.648 53.1974 307.927 52.6835C308.206 52.1685 308.605 51.7429 309.185 51.2683L309.284 51.1875Z" fill="#024C94"/>
<path fill-rule="evenodd" clip-rule="evenodd" d="M306.752 50.9336H312.226V54.7721H306.752V50.9336ZM307.09 51.272V54.4337H311.888V51.272H307.09Z" fill="#024C94"/>
<path fill-rule="evenodd" clip-rule="evenodd" d="M314.829 47.6914L314.724 47.7643C314.44 47.9624 314.012 48.3282 313.642 48.7903C313.274 49.2504 312.948 49.8237 312.896 50.4349L312.88 50.6186H314.99V49.8023H315.235V49.4639H314.416V49.8023H314.652V50.2802H313.258C313.344 49.8281 313.598 49.3864 313.906 49.0019C314.211 48.6215 314.558 48.3104 314.814 48.1172C315.32 48.5423 315.654 48.9154 315.889 49.3487C316.14 49.8111 316.285 50.3549 316.393 51.1286L316.729 51.0818C316.618 50.2911 316.465 49.7013 316.187 49.1874C315.907 48.6724 315.509 48.2468 314.928 47.7722L314.829 47.6914Z" fill="#024C94"/>
<path fill-rule="evenodd" clip-rule="evenodd" d="M317.361 47.4355H311.887V51.274H317.361V47.4355ZM317.023 47.7739V50.9357H312.226V47.7739H317.023Z" fill="#024C94"/>
<path fill-rule="evenodd" clip-rule="evenodd" d="M312.223 47.4355H306.749V51.274H312.223V47.4355ZM311.884 47.7739V50.9357H307.087V47.7739H311.884Z" fill="#024C94"/>
<path d="M308.02 48.0664H311.221V50.6979H308.02V48.0664Z" fill="#024C94"/>
<path fill-rule="evenodd" clip-rule="evenodd" d="M322.496 47.4355H317.022V51.274H322.496V47.4355ZM322.158 47.7739V50.9357H317.36V47.7739H322.158Z" fill="#024C94"/>
<path d="M318.295 48.0664H321.496V50.6979H318.295V48.0664Z" fill="#024C94"/>
<path fill-rule="evenodd" clip-rule="evenodd" d="M317.379 50.9355H311.905V54.774H317.379V50.9355ZM317.041 51.2739V54.4357H312.243V51.2739H317.041Z" fill="#024C94"/>
<path d="M313.178 51.5645H316.379V54.196H313.178V51.5645Z" fill="#024C94"/>
<path fill-rule="evenodd" clip-rule="evenodd" d="M307.086 50.9355H301.612V54.774H307.086V50.9355ZM306.748 51.2739V54.4357H301.95V51.2739H306.748Z" fill="#024C94"/>
<path d="M302.885 51.5645H306.086V54.196H302.885V51.5645Z" fill="#024C94"/>
<path fill-rule="evenodd" clip-rule="evenodd" d="M304.552 47.6914L304.447 47.7643C304.162 47.9624 303.735 48.3282 303.365 48.7903C302.996 49.2504 302.67 49.8237 302.618 50.4349L302.602 50.6186H304.713V49.8023H304.958V49.4639H304.139V49.8023H304.375V50.2802H302.981C303.067 49.8281 303.321 49.3864 303.629 49.0019C303.934 48.6215 304.28 48.3104 304.537 48.1172C305.043 48.5423 305.377 48.9154 305.612 49.3487C305.863 49.8111 306.008 50.3549 306.116 51.1286L306.451 51.0818C306.341 50.2911 306.188 49.7013 305.909 49.1874C305.63 48.6724 305.231 48.2468 304.651 47.7722L304.552 47.6914Z" fill="#024C94"/>
<path fill-rule="evenodd" clip-rule="evenodd" d="M307.084 47.4355H301.61V51.274H307.084V47.4355ZM306.746 47.7739V50.9357H301.948V47.7739H306.746Z" fill="#024C94"/>
<mask id="path-210-inside-58_4219_4383" fill="white">
<path fill-rule="evenodd" clip-rule="evenodd" d="M300.5 41.2637H287.457V54.3071H300.5V41.2637ZM287.006 40.8125V54.7583H300.952V40.8125H287.006Z"/>
</mask>
<path d="M287.457 41.2637V40.4273H286.621V41.2637H287.457ZM300.5 41.2637H301.337V40.4273H300.5V41.2637ZM287.457 54.3071H286.621V55.1435H287.457V54.3071ZM300.5 54.3071V55.1435H301.337V54.3071H300.5ZM287.006 40.8125V39.9762H286.17V40.8125H287.006ZM287.006 54.7583H286.17V55.5947H287.006V54.7583ZM300.952 54.7583V55.5947H301.788V54.7583H300.952ZM300.952 40.8125H301.788V39.9762H300.952V40.8125ZM287.457 41.2637V42.1H300.5V41.2637V40.4273H287.457V41.2637ZM287.457 54.3071H288.293V41.2637H287.457H286.621V54.3071H287.457ZM300.5 54.3071V53.4708H287.457V54.3071V55.1435H300.5V54.3071ZM300.5 41.2637H299.664V54.3071H300.5H301.337V41.2637H300.5ZM287.006 40.8125V41.6488H300.952V40.8125V39.9762H287.006V40.8125ZM287.006 54.7583H287.842V40.8125H287.006H286.17V54.7583H287.006ZM300.952 54.7583V53.922H287.006V54.7583V55.5947H300.952V54.7583ZM300.952 40.8125H300.115V54.7583H300.952H301.788V40.8125H300.952Z" fill="#024C94" mask="url(#path-210-inside-58_4219_4383)"/>
<path d="M293.979 24.1445C299.931 24.1445 305.331 26.1435 309.357 29.3945L309.587 29.5801H321.17V39.9736H266.789V29.5801H278.372L278.603 29.3945C282.629 26.1437 288.029 24.1446 293.979 24.1445Z" fill="white" stroke="#024C94" stroke-width="1.67269"/>
<path d="M266.745 55.0195V108.929H266.162V55.0195H266.745Z" stroke="#024C94" stroke-width="0.836345"/>
<path d="M293.353 64.4102V108.93H269.76V64.4102H293.353Z" stroke="#024C94" stroke-width="0.836345"/>
<path d="M319.288 64.4102V108.93H295.695V64.4102H319.288Z" stroke="#024C94" stroke-width="0.836345"/>
<path d="M292.473 65.1699V108.929H270.668V65.1699H292.473Z" stroke="#024C94" stroke-width="0.836345"/>
<path d="M318.408 65.1699V108.929H296.604V65.1699H318.408Z" stroke="#024C94" stroke-width="0.836345"/>
<path d="M321.382 55.0195V108.929H320.799V55.0195H321.382Z" stroke="#024C94" stroke-width="0.836345"/>
<mask id="path-219-inside-59_4219_4383" fill="white">
<path d="M297.787 87.8145H298.266V93.5334H297.787V87.8145Z"/>
</mask>
<path d="M297.787 87.8145V86.9781H296.951V87.8145H297.787ZM298.266 87.8145H299.103V86.9781H298.266V87.8145ZM298.266 93.5334V94.3698H299.103V93.5334H298.266ZM297.787 93.5334H296.951V94.3698H297.787V93.5334ZM297.787 87.8145V88.6508H298.266V87.8145V86.9781H297.787V87.8145ZM298.266 87.8145H297.43V93.5334H298.266H299.103V87.8145H298.266ZM298.266 93.5334V92.6971H297.787V93.5334V94.3698H298.266V93.5334ZM297.787 93.5334H298.623V87.8145H297.787H296.951V93.5334H297.787Z" fill="#024C94" mask="url(#path-219-inside-59_4219_4383)"/>
<mask id="path-221-inside-60_4219_4383" fill="white">
<path d="M271.986 87.8145H272.466V93.5334H271.986V87.8145Z"/>
</mask>
<path d="M271.986 87.8145V86.9781H271.15V87.8145H271.986ZM272.466 87.8145H273.302V86.9781H272.466V87.8145ZM272.466 93.5334V94.3698H273.302V93.5334H272.466ZM271.986 93.5334H271.15V94.3698H271.986V93.5334ZM271.986 87.8145V88.6508H272.466V87.8145V86.9781H271.986V87.8145ZM272.466 87.8145H271.629V93.5334H272.466H273.302V87.8145H272.466ZM272.466 93.5334V92.6971H271.986V93.5334V94.3698H272.466V93.5334ZM271.986 93.5334H272.823V87.8145H271.986H271.15V93.5334H271.986Z" fill="#024C94" mask="url(#path-221-inside-60_4219_4383)"/>
</svg>
