<svg width="258" height="173" viewBox="0 0 258 173" fill="none" xmlns="http://www.w3.org/2000/svg">
<path d="M11.1406 172.311H6.07422V129.242H11.1406V172.311ZM251.094 1.05762H249.953V4.17578H251.094V5.7168H249.953V5.71875H250.613V9.46484H249.953V38.7656H257.345V39.2168H249.953V171.294H257.345V171.745H249.953V172.311H229.05V171.519H99.9268V172.311H79.0234V129.242H79.6885V129.239H79.0234V117.089L78.3096 116.354C77.0055 115.009 74.9133 113.789 72.2676 112.73C69.6358 111.678 66.5217 110.81 63.2363 110.137C57.7289 109.008 51.7992 108.438 46.9531 108.433V108.534L46.0762 108.491C45.7807 108.477 45.4785 108.465 45.1709 108.456C44.8636 108.465 44.5618 108.477 44.2666 108.491L43.3896 108.534V108.433C38.5436 108.438 32.6138 109.008 27.1064 110.137C23.8211 110.81 20.7069 111.678 18.0752 112.73C15.5839 113.727 13.5834 114.867 12.2695 116.119V118.386H11.1406V129.24H6.07422V118.386H4.14844V109.25L4.33398 109.02C7.64223 104.924 18.044 98.1324 37.9365 96.5938C38.587 96.5434 39.1834 96.5044 39.7432 96.4717L39.7188 95.8223H51.3047L51.2773 96.5146C51.6363 96.5384 52.0114 96.5632 52.4062 96.5938C64.7567 97.549 73.4296 100.527 79.0234 103.615V83.0146H6.0752V88.4609H1.97266V49.5566H1.59766V46.2158H79.5947V49.5566H79.5977V46.2158H79.6885V46.2139H0.804688V44.2129H0V40.6553H79.6885V9.46484H79.0225V5.71875H79.6885V5.7168H78.5479V4.17578H79.6885V1.05762H78.5479V0H251.094V1.05762ZM6.91016 171.475H10.3047V130.078H6.91016V171.475ZM80.5244 170.683H99.0908V130.078H80.5244V170.683ZM93.5088 38.9902H104.86V40.6572H103.422V44.2129H102.031V46.2139H80.5244V46.2158H99.4785V49.5566H98.6641V79.2168H98.667V83.0146H98.6641V129.239H80.5244V129.242H99.9268V170.683H108.958V146.12H117.989L116.602 136.284H118.958L118.93 135.332H127.147L127.119 136.284H129.515L128.127 146.12H137.158V170.683H149.871V146.12H158.902L157.515 136.284H159.872L159.844 135.332H168.062L168.033 136.284H170.428L169.04 146.12H178.071V170.683H193.594V146.12H202.626L201.238 136.284H203.595L203.566 135.332H211.784L211.756 136.284H214.151L212.764 146.12H221.794V170.683H229.05V129.242H247.41V129.239H230.318V88.9609H247.41V88.96H230.318V54.2949H247.41V54.2939H230.318V49.5566H229.536V46.2158H247.41V46.2139H227.768V44.2129H226.212V40.6572H224.654V38.9902H239.206L167.502 10.1172L93.5088 38.9902ZM230.722 170.638H247.41V130.915H230.722V170.638ZM247.861 170.638H248.28V130.915H247.861V170.638ZM110.631 169.847H135.485V147.793H110.631V169.847ZM151.544 169.847H176.398V147.793H151.544V169.847ZM195.267 169.847H220.121V147.793H195.267V169.847ZM120.874 144.448H125.203L125.396 137.957H120.681L120.874 144.448ZM161.788 144.448H166.117L166.311 137.957H161.595L161.788 144.448ZM205.511 144.448H209.84L210.033 137.957H205.317L205.511 144.448ZM126.931 142.628L127.59 137.957H127.069L126.931 142.628ZM211.567 142.628L212.227 137.957H211.706L211.567 142.628ZM167.845 142.619L168.503 137.957H167.983L167.845 142.619ZM160.05 142.286L159.922 137.957H159.439L160.05 142.286ZM119.136 142.277L119.008 137.957H118.526L119.136 142.277ZM203.772 142.277L203.645 137.957H203.163L203.772 142.277ZM248.5 46.2139H247.861V129.242H249.117V44.2129H248.5V46.2139ZM139.294 129.241H106.825V128.014H139.294V129.241ZM179.531 129.241H147.062V128.014H179.531V129.241ZM220.027 129.241H187.559V128.014H220.027V129.241ZM6.91016 128.404H10.3047V118.386H6.91016V128.404ZM80.5244 128.402H97.8271V124.465H80.5244V128.402ZM231.154 128.402H246.805V124.465H231.154V128.402ZM137.918 128.008H108.298V66.2852H137.918V128.008ZM178.155 128.008H148.535V66.2852H178.155V128.008ZM218.651 128.008H189.031V66.2852H218.651V128.008ZM109.651 126.654H122.383V113.183H109.651V126.654ZM123.833 126.654H136.564V113.183H123.833V126.654ZM149.889 126.654H162.62V113.183H149.889V126.654ZM164.07 126.654H176.802V113.183H164.07V126.654ZM190.385 126.654H203.116V113.183H190.385V126.654ZM204.566 126.654H217.298V113.183H204.566V126.654ZM80.5244 122.793H97.8271V118.521H80.5244V122.793ZM231.154 122.793H246.805V118.521H231.154V122.793ZM80.5244 116.852H97.8271V112.914H80.5244V116.852ZM231.154 116.852H246.805V112.914H231.154V116.852ZM37.8691 98.2773C18.7672 99.7934 8.94345 106.207 5.82031 109.852V116.713H6.07422V116.473H10.5967V115.433L10.833 115.189C12.3751 113.599 14.7176 112.273 17.4541 111.178C20.2046 110.077 23.4202 109.185 26.7705 108.498C30.5882 107.715 34.6081 107.194 38.3545 106.94L37.8691 98.2773ZM52.7197 106.994C56.2546 107.264 60.002 107.766 63.5723 108.498C66.9226 109.185 70.1382 110.077 72.8887 111.178C74.8768 111.973 76.6568 112.891 78.0732 113.943V105.001C72.8497 102.147 64.7501 99.342 53.2051 98.3379L52.7197 106.994ZM109.651 111.45H122.383V97.9785H109.651V111.45ZM123.833 111.45H136.564V97.9785H123.833V111.45ZM149.889 111.45H162.62V97.9785H149.889V111.45ZM164.07 111.45H176.802V97.9785H164.07V111.45ZM190.385 111.45H203.116V97.9785H190.385V111.45ZM204.566 111.45H217.298V97.9785H204.566V111.45ZM80.5244 111.242H97.8271V106.971H80.5244V111.242ZM231.154 111.242H246.805V106.971H231.154V111.242ZM39.8066 98.1426C39.4551 98.1634 39.0889 98.1892 38.7031 98.2168L39.1846 106.786H40.1377L39.8066 98.1426ZM43.3896 98.0146C42.4908 98.0264 41.6143 98.0506 40.6426 98.0977L40.9746 106.786H41.6104C42.2164 106.77 42.8103 106.76 43.3896 106.76V98.0146ZM46.9531 106.76C47.5325 106.76 48.1264 106.77 48.7324 106.786H50.0488L50.3789 98.1348C49.1256 98.063 48.0563 98.0291 46.9531 98.0146V106.76ZM50.8848 106.786H51.8936L52.3711 98.2686C52.3399 98.2661 52.3086 98.2641 52.2773 98.2617C51.9059 98.233 51.5525 98.2092 51.2139 98.1865L50.8848 106.786ZM45.0625 98.0049V106.779C45.0987 106.78 45.1348 106.781 45.1709 106.782C45.2073 106.781 45.2437 106.78 45.2803 106.779V98.0049C45.2439 98.0048 45.2075 98.004 45.1709 98.0039C45.1346 98.004 45.0985 98.0048 45.0625 98.0049ZM80.5244 105.298H97.8271V101.357H80.5244V105.298ZM231.154 105.298H246.805V101.357H231.154V105.298ZM80.5244 99.6855H97.8271V95.4111H80.5244V99.6855ZM231.154 99.6855H246.805V95.4111H231.154V99.6855ZM109.651 96.3105H122.383V82.8389H109.651V96.3105ZM123.833 96.3105H136.564V82.8389H123.833V96.3105ZM149.889 96.3105H162.62V82.8389H149.889V96.3105ZM164.07 96.3105H176.802V82.8389H164.07V96.3105ZM190.385 96.3105H203.116V82.8389H190.385V96.3105ZM204.566 96.3105H217.298V82.8389H204.566V96.3105ZM80.5244 93.7373H97.8271V89.7969H80.5244V93.7373ZM231.154 93.7373H246.805V89.7969H231.154V93.7373ZM80.5244 88.125H97.8271V83.8506H80.5244V88.125ZM231.154 88.123H246.805V84.1855H231.154V88.123ZM2.80859 87.624H5.23926V83.0146H2.80859V87.624ZM231.154 82.5137H246.805V78.2422H231.154V82.5137ZM80.5244 82.1777H97.8271V80.0527H80.5244V82.1777ZM3.64551 81.3408H5.23926V80.0527H3.64551V81.3408ZM6.0752 81.3408H77.3535V80.0527H6.0752V81.3408ZM109.651 81.1104H122.383V67.6387H109.651V81.1104ZM123.833 81.1104H136.564V67.6387H123.833V81.1104ZM149.889 81.1104H162.62V67.6387H149.889V81.1104ZM164.07 81.1104H176.802V67.6387H164.07V81.1104ZM190.385 81.1104H203.116V67.6387H190.385V81.1104ZM204.566 81.1104H217.298V67.6387H204.566V81.1104ZM3.64551 79.2168H77.3535V51.2295H3.64551V79.2168ZM80.5244 79.2168H97.8271V50.3926H80.5244V79.2168ZM75.3135 77.502H6.25V53.3672H75.3135V77.502ZM231.154 76.5703H246.805V72.6328H231.154V76.5703ZM7.92285 75.8291H73.6406V55.04H7.92285V75.8291ZM14.6201 75.8281H10.6094V55.0469H14.6201V75.8281ZM22.1904 75.8281H18.1797V55.0469H22.1904V75.8281ZM29.7607 75.8281H25.75V55.0469H29.7607V75.8281ZM37.3389 75.8281H33.3281V55.0469H37.3389V75.8281ZM46.6357 75.8281H42.625V55.0469H46.6357V75.8281ZM54.2061 75.8281H50.1953V55.0469H54.2061V75.8281ZM61.7803 75.8281H57.7695V55.0469H61.7803V75.8281ZM69.3506 75.8281H65.3398V55.0469H69.3506V75.8281ZM11.4453 74.9922H13.7842V55.8828H11.4453V74.9922ZM19.0156 74.9922H21.3545V55.8828H19.0156V74.9922ZM26.5859 74.9922H28.9248V55.8828H26.5859V74.9922ZM34.1641 74.9922H36.5029V55.8828H34.1641V74.9922ZM43.4609 74.9922H45.7998V55.8828H43.4609V74.9922ZM51.0312 74.9922H53.3701V55.8828H51.0312V74.9922ZM58.6055 74.9922H60.9443V55.8828H58.6055V74.9922ZM66.1758 74.9922H68.5146V55.8828H66.1758V74.9922ZM231.154 70.9609H246.805V66.6895H231.154V70.9609ZM231.154 65.0186H246.805V61.0781H231.154V65.0186ZM170.269 43.6006H173.646L171.688 64.1094H157.397L155.44 43.6006H158.763L158.723 41.6201H170.309L170.269 43.6006ZM158.158 63.2725H159.157L158.779 44.4365H156.36L158.158 63.2725ZM159.993 63.2725H169.038L169.415 44.4365H159.616L159.993 63.2725ZM169.874 63.2725H170.929L172.727 44.4365H170.252L169.874 63.2725ZM231.154 59.4062H246.805V55.1318H231.154V59.4062ZM231.154 53.458H246.805V49.5566H231.154V53.458ZM2.43359 48.7207H78.7588V47.0527H2.43359V48.7207ZM80.5244 48.7207H98.6416V47.0527H80.5244V48.7207ZM230.373 48.668H246.805V47.0527H230.373V48.668ZM1.64062 45.3779H79.6885V45.0488H1.64062V45.3779ZM80.5244 45.3779H80.7188V45.0488H80.5244V45.3779ZM82.3867 45.3779H101.194V45.0488H82.3867V45.3779ZM228.604 45.3779H247.41V45.0488H228.604V45.3779ZM80.5244 40.6553H81.5498V44.2129H81.5508V38.9902H82.4551L82.4541 38.9883L158.115 9.46484H80.5244V40.6553ZM159.599 43.6006H169.433L169.455 42.4561H159.576L159.599 43.6006ZM0.835938 43.377H79.6885V41.4922H0.835938V43.377ZM80.5244 43.377H80.7139V41.4922H80.5244V43.377ZM82.3867 43.377H102.586V41.4922H87.0967L83.916 42.7334L83.4316 41.4922H82.3867V43.377ZM227.049 43.377H247.41V42.2939L245.419 41.4922H227.049V43.377ZM248.497 42.7324L247.861 42.4756V43.377H249.082V41.4922H248.966L248.497 42.7324ZM84.3906 41.6494L84.7939 41.4922H84.3291L84.3906 41.6494ZM247.861 41.5752L248.018 41.6387L248.072 41.4922H247.861V41.5752ZM84.7471 38.9902H85.6768L161.344 9.46484H160.414L84.7471 38.9902ZM90.2764 38.9902H91.2051L166.368 9.66113L165.911 9.47656L90.2764 38.9902ZM168.638 9.67383L241.442 38.9902H242.327L169.087 9.49902L168.638 9.67383ZM246.799 38.9902H247.41V38.8809L174.359 9.46484H173.476L246.799 38.9902ZM249.117 38.667V9.46484H176.598L249.117 38.667ZM80.5244 8.62793H160.261L165.573 6.55469H80.5244V8.62793ZM162.56 8.62793H163.488L166.647 7.39453L166.808 6.96973L162.56 8.62793ZM168.394 7.41797L171.397 8.62793H172.28L168.229 6.99609L168.394 7.41797ZM174.52 8.62793H249.117V6.55469H169.371L174.52 8.62793ZM80.5244 5.71875H167.281L167.282 5.7168H80.5244V5.71875ZM167.295 5.71875H167.716L167.721 5.7168H167.29L167.295 5.71875ZM167.73 5.71875H249.117V5.7168H167.729L167.73 5.71875ZM80.5244 4.17578H249.117V4.1748H80.5244V4.17578ZM80.5244 3.33789H249.117V1.89258H80.5244V3.33789Z" fill="#E06053"/>
</svg>
