<svg width="42" height="40" viewBox="0 0 42 40" fill="none" xmlns="http://www.w3.org/2000/svg">
<path d="M21.4395 1.13184C28.029 6.59281 32.4684 11.4223 35.5664 17.2119C38.6614 22.9961 40.3866 29.6817 41.6436 38.8037L40.1914 39.0039V39.0098H40.1523L40.1387 39.0117V39.0098H1.98242V37.4922H39.9209C38.6948 29.2299 37.0297 23.1663 34.2266 17.9277C31.3262 12.5076 27.1778 7.91496 20.9199 2.67676C17.8529 4.91265 13.4157 8.83243 9.55469 13.7197C5.6601 18.6495 2.40821 24.4927 1.66504 30.5312H15.0244V32.0498H-0.00390625L0.0654297 31.2266C0.636062 24.4719 4.20741 18.0389 8.36328 12.7783C12.526 7.50918 17.3374 3.33789 20.5166 1.09668L20.9922 0.761719L21.4395 1.13184ZM20.8564 28.7305C21.8429 28.7305 22.6425 29.5301 22.6426 30.5166C22.6426 31.5031 21.843 32.3027 20.8564 32.3027C19.87 32.3026 19.0703 31.5031 19.0703 30.5166C19.0704 29.5302 19.87 28.7306 20.8564 28.7305ZM22.2197 27.4199H19.6885V11.0605H22.2197V27.4199Z" fill="white"/>
</svg>
