<svg width="100" height="97" viewBox="0 0 100 97" fill="none" xmlns="http://www.w3.org/2000/svg">
<path d="M92.2084 0.333984H4.86719V96.4062H92.2084V0.333984Z" fill="white"/>
<path d="M92.2084 0.333984H4.86719V96.4062H92.2084V0.333984Z" stroke="white" stroke-width="0.22" stroke-miterlimit="22.93"/>
<path d="M92.2099 0.648438H4.66406V96.6011H92.2099V0.648438Z" fill="#232E50"/>
<path d="M82.6882 10.9414H13.082V87.8699H82.6882V10.9414Z" fill="white"/>
<path d="M79.8347 14.002H16.3242V84.8186H79.8347V14.002Z" fill="#253154"/>
<path d="M76.6354 17.3828H19.2207V81.2542H76.6354V17.3828Z" fill="white"/>
<path d="M73.2778 20.6387H22.2578V77.5395H73.2778V20.6387Z" fill="#2A3860"/>
<path fill-rule="evenodd" clip-rule="evenodd" d="M36.0598 50.9463C30.5391 63.1952 33.4375 33.3936 31.2292 24.2764C25.2255 19.2505 13.8622 41.5512 1.53274 68.5999C-0.997557 75.1158 2.68288 75.5957 5.76524 67.4129C10.0437 54.3305 15.5644 42.3088 22.5802 31.5752C24.4894 28.6203 25.2485 29.0749 24.8575 32.939C25.8006 36.9042 21.6601 71.6811 32.5864 58.7502C33.4605 57.2096 35.1627 53.0172 36.2438 53.8759C36.6349 54.179 36.4278 56.4267 38.6361 58.0683C40.4303 57.3864 41.8105 55.1387 42.9606 53.6486C43.6277 52.7647 42.7306 56.3004 46.227 55.7701L55.3131 43.7484C51.8626 56.8055 48.5733 68.7009 64.5371 49.5572C65.0892 51.1483 67.2055 51.2998 70.9089 50.0623C69.5287 54.5578 80.777 44.304 84.4805 42.915C90.5532 40.642 92.3934 40.1621 96.6489 40.7177C100.72 40.4147 99.9613 37.8891 94.3716 38.672C89.15 39.657 82.7783 40.5915 74.9574 47.562C71.1159 48.3954 73.2552 44.8091 72.4271 43.4453C71.53 42.7634 71.2539 43.1423 70.9089 44.304C66.1243 53.7244 64.4221 41.0461 70.0118 40.5662C67.3895 38.268 64.6061 41.5512 64.2611 48.0419C51.6096 62.9174 59.8216 46.9811 62.5819 37.3335C56.3252 33.8482 45.951 62.6648 47.9062 45.0617L43.4897 45.8194C43.2596 53.9012 39.9933 54.2547 40.7523 46.6781L36.1978 47.5367L36.0368 50.9463H36.0598Z" fill="white"/>
</svg>
