<svg width="2135" height="457" viewBox="0 0 2135 457" fill="none" xmlns="http://www.w3.org/2000/svg">
<path d="M1391.99 179.843C1387.54 179.843 1383.9 176.092 1383.9 171.452C1383.9 166.812 1387.54 163.082 1391.99 163.082C1396.45 163.082 1400.09 166.833 1400.09 171.473C1400.09 176.114 1396.45 179.843 1391.99 179.843ZM1391.99 166.335C1389.28 166.335 1387.04 168.633 1387.04 171.473C1387.04 174.314 1389.25 176.612 1391.99 176.612C1394.73 176.612 1396.95 174.314 1396.95 171.473C1396.95 168.633 1394.71 166.335 1391.99 166.335Z" fill="#E06053"/>
<path d="M1392 203.744C1385.84 199.536 1370.72 177.276 1372.94 167.184C1375.27 156.581 1384.2 151.832 1392 151.832C1392 151.832 1392 151.832 1392.02 151.832C1399.82 151.832 1408.75 156.581 1411.07 167.205C1413.28 177.295 1398.97 199.536 1392 203.744ZM1392 155.085C1385.91 155.085 1378.09 158.445 1376.02 167.899C1374.23 175.971 1385 192.926 1392 199.596C1399.5 192.651 1409.77 175.96 1408.02 167.899C1405.93 158.445 1398.08 155.085 1392 155.085Z" fill="#E06053"/>
<path d="M1182.19 246.093C1177.74 246.093 1174.1 242.342 1174.1 237.702C1174.1 233.062 1177.74 229.332 1182.19 229.332C1186.65 229.332 1190.28 233.083 1190.28 237.723C1190.28 242.364 1186.65 246.093 1182.19 246.093ZM1182.19 232.585C1179.47 232.585 1177.23 234.883 1177.23 237.723C1177.23 240.564 1179.45 242.862 1182.19 242.862C1184.93 242.862 1187.15 240.564 1187.15 237.723C1187.15 234.883 1184.91 232.585 1182.19 232.585Z" fill="#E06053"/>
<path d="M1182.19 269.994C1176.03 265.786 1160.92 243.526 1163.14 233.434C1165.46 222.831 1174.39 218.082 1182.19 218.082C1182.19 218.082 1182.19 218.082 1182.21 218.082C1190.02 218.082 1198.95 222.831 1201.27 233.455C1203.47 243.545 1189.17 265.786 1182.19 269.994ZM1182.19 221.335C1176.11 221.335 1168.28 224.695 1166.21 234.149C1164.43 242.221 1175.19 259.176 1182.19 265.846C1189.7 258.901 1199.97 242.21 1198.22 234.149C1196.12 224.695 1188.28 221.335 1182.19 221.335Z" fill="#E06053"/>
<path d="M1496.26 149.828C1491.81 149.828 1488.17 146.076 1488.17 141.436C1488.17 136.796 1491.81 133.066 1496.26 133.066C1500.72 133.066 1504.36 136.818 1504.36 141.458C1504.36 146.098 1500.72 149.828 1496.26 149.828ZM1496.26 136.319C1493.54 136.319 1491.3 138.617 1491.3 141.458C1491.3 144.298 1493.52 146.597 1496.26 146.597C1499 146.597 1501.22 144.298 1501.22 141.458C1501.22 138.617 1498.98 136.319 1496.26 136.319Z" fill="#E06053"/>
<path d="M1496.26 173.728C1490.1 169.52 1474.99 147.26 1477.21 137.168C1479.53 126.565 1488.46 121.816 1496.26 121.816C1496.26 121.816 1496.26 121.816 1496.28 121.816C1504.09 121.816 1513.02 126.565 1515.34 137.19C1517.54 147.279 1503.24 169.52 1496.26 173.728ZM1496.26 125.069C1490.18 125.069 1482.35 128.43 1480.28 137.884C1478.5 145.955 1489.26 162.911 1496.26 169.581C1503.77 162.635 1514.04 145.945 1512.29 137.884C1510.19 128.43 1502.35 125.069 1496.26 125.069Z" fill="#E06053"/>
<path d="M2134.54 107.979C1982.1 118.228 1831.49 92.5606 1626.38 142.891C1258.54 233.151 1014.04 363.98 612.218 375.634C274.13 385.44 4.87451 266.706 4.87451 266.706" stroke="#DDDDDD" stroke-dasharray="10 10"/>
</svg>
