<svg width="1936" height="365" viewBox="0 0 1936 365" fill="none" xmlns="http://www.w3.org/2000/svg">
<path d="M824.748 364.892C821.394 364.899 818.04 364.901 814.686 364.896L814.688 363.896C818.04 363.901 821.393 363.899 824.746 363.892L824.748 364.892ZM794.573 363.801C797.925 363.828 801.278 363.85 804.63 363.866L804.627 364.366L804.625 364.866C801.272 364.85 797.918 364.828 794.565 364.801L794.573 363.801ZM844.868 364.774C841.516 364.806 838.163 364.832 834.81 364.852L834.804 363.852C838.156 363.832 841.507 363.806 844.858 363.774L844.868 364.774ZM774.466 363.569C777.817 363.619 781.168 363.663 784.521 363.702L784.509 364.702C781.155 364.663 777.803 364.619 774.451 364.569L774.458 364.069L774.466 363.569ZM864.985 364.509C861.632 364.566 858.278 364.616 854.923 364.66L854.917 364.16L854.91 363.66C858.264 363.616 861.616 363.566 864.968 363.509L864.985 364.509ZM754.348 363.205C757.698 363.277 761.05 363.343 764.403 363.403L764.395 363.903L764.385 364.403C761.031 364.343 757.678 364.277 754.326 364.205L754.348 363.205ZM885.094 363.59L885.106 364.089C881.756 364.172 878.403 364.249 875.05 364.318L875.028 363.318C878.381 363.249 881.732 363.173 885.081 363.09L885.094 363.59ZM734.252 362.713C737.6 362.805 740.95 362.893 744.301 362.975L744.288 363.475L744.276 363.975C740.924 363.893 737.573 363.805 734.225 363.713L734.252 362.713ZM905.158 363.005L905.177 363.505C903.496 363.565 901.828 363.62 900.175 363.671C898.502 363.722 896.827 363.772 895.153 363.82L895.14 363.321L895.125 362.821C896.798 362.773 898.471 362.723 900.144 362.672C901.796 362.621 903.462 362.565 905.141 362.505L905.158 363.005ZM714.132 362.096C717.481 362.209 720.832 362.317 724.186 362.42L724.17 362.919L724.155 363.419C720.801 363.316 717.448 363.209 714.098 363.096L714.115 362.596L714.132 362.096ZM925.342 362.079L925.369 362.578C921.961 362.768 918.594 362.939 915.273 363.092L915.251 362.592L915.228 362.093C918.545 361.94 921.909 361.77 925.313 361.58L925.342 362.079ZM704.092 361.742L704.073 362.242L704.055 362.741C700.705 362.618 697.357 362.491 694.013 362.358L694.033 361.858L694.053 361.359C697.396 361.492 700.743 361.619 704.092 361.742ZM945.52 360.758L945.557 361.257C942.159 361.512 938.794 361.748 935.464 361.966L935.432 361.467L935.398 360.969C938.725 360.751 942.088 360.515 945.482 360.26L945.52 360.758ZM683.982 360.945L683.962 361.444L683.94 361.944C680.586 361.802 677.234 361.654 673.886 361.502L673.909 361.002L673.932 360.503C677.279 360.655 680.629 360.803 683.982 360.945ZM663.9 360.032L663.876 360.532L663.852 361.031C660.504 360.87 657.16 360.704 653.82 360.533L653.846 360.034L653.871 359.534C657.21 359.705 660.554 359.871 663.9 360.032ZM965.661 359.555C962.285 359.873 958.934 360.173 955.61 360.454L955.568 359.955L955.526 359.457C958.847 359.176 962.195 358.877 965.567 358.559L965.661 359.555ZM643.799 359.007L643.772 359.506L643.745 360.005C640.391 359.824 637.041 359.639 633.695 359.45L633.752 358.452C637.097 358.641 640.446 358.826 643.799 359.007ZM623.73 357.871L623.701 358.371L623.671 358.87C620.325 358.672 616.984 358.469 613.648 358.263L613.679 357.764L613.71 357.265C617.045 357.471 620.386 357.673 623.73 357.871ZM985.76 357.464C982.391 357.847 979.041 358.211 975.712 358.558L975.608 357.563C978.934 357.218 982.281 356.853 985.646 356.47L985.76 357.464ZM603.638 356.628L603.573 357.626C600.22 357.41 596.872 357.188 593.529 356.964L593.562 356.466L593.597 355.967C596.938 356.191 600.285 356.412 603.638 356.628ZM583.588 355.281L583.553 355.78L583.519 356.279C580.173 356.046 576.833 355.809 573.5 355.568L573.572 354.57C576.905 354.811 580.244 355.048 583.588 355.281ZM1005.75 354.483L1005.82 354.979C1002.46 355.429 999.126 355.859 995.803 356.271L995.741 355.774L995.681 355.277C999 354.866 1002.34 354.437 1005.68 353.988L1005.75 354.483ZM563.502 353.83L563.464 354.329L563.427 354.827C560.076 354.577 556.731 354.322 553.393 354.064L553.431 353.565L553.47 353.067C556.807 353.325 560.152 353.58 563.502 353.83ZM1025.73 351.596L1025.81 352.09C1022.47 352.608 1019.13 353.107 1015.81 353.587L1015.67 352.597C1018.99 352.117 1022.32 351.619 1025.65 351.102L1025.73 351.596ZM543.477 352.283L543.437 352.781L543.397 353.279C540.05 353.012 536.709 352.743 533.376 352.469L533.417 351.97L533.458 351.472C536.79 351.746 540.13 352.016 543.477 352.283ZM523.394 350.633L523.352 351.131L523.309 351.629C519.961 351.346 516.62 351.059 513.288 350.77L513.374 349.773C516.706 350.063 520.046 350.35 523.394 350.633ZM1045.75 348.773C1042.42 349.364 1039.1 349.935 1035.79 350.486L1035.7 349.993L1035.62 349.499C1038.93 348.949 1042.25 348.379 1045.57 347.789L1045.75 348.773ZM503.402 348.894L503.358 349.392L503.313 349.89C499.96 349.59 496.615 349.287 493.278 348.981L493.324 348.483L493.369 347.985C496.705 348.291 500.05 348.594 503.402 348.894ZM483.316 347.052L483.27 347.55L483.223 348.047C479.88 347.732 476.545 347.416 473.221 347.096L473.316 346.1C476.64 346.42 479.974 346.737 483.316 347.052ZM1065.49 344.522L1065.59 345.013C1062.29 345.68 1058.98 346.325 1055.68 346.951L1055.49 345.969C1058.79 345.344 1062.09 344.698 1065.39 344.032L1065.49 344.522ZM463.373 345.131L463.324 345.628L463.274 346.126C459.909 345.794 456.553 345.459 453.208 345.121L453.259 344.624L453.309 344.126C456.653 344.463 460.008 344.799 463.373 345.131ZM443.274 343.103L443.223 343.6L443.172 344.098C439.837 343.754 436.512 343.407 433.198 343.058L433.251 342.561L433.304 342.062C436.616 342.412 439.94 342.759 443.274 343.103ZM1085.24 340.286L1085.35 340.773C1082.06 341.522 1078.78 342.248 1075.48 342.954L1075.38 342.465L1075.28 341.977C1078.56 341.272 1081.85 340.545 1085.13 339.798L1085.24 340.286ZM423.356 341.004L423.303 341.501L423.25 341.998C419.879 341.635 416.518 341.27 413.171 340.902L413.226 340.405L413.279 339.908C416.626 340.276 419.986 340.641 423.356 341.004ZM403.275 338.799L403.22 339.296L403.164 339.792C399.841 339.42 396.53 339.045 393.232 338.669L393.289 338.173L393.347 337.676C396.644 338.052 399.953 338.427 403.275 338.799ZM1104.87 335.539L1104.99 336.023C1101.73 336.859 1098.46 337.673 1095.19 338.465L1095.07 337.979L1094.95 337.493C1098.22 336.703 1101.49 335.89 1104.74 335.055L1104.87 335.539ZM383.335 336.522L383.277 337.019L383.219 337.516C379.857 337.125 376.509 336.731 373.175 336.336L373.233 335.84L373.292 335.343C376.625 335.738 379.973 336.131 383.335 336.522ZM363.335 334.152L363.274 334.648L363.215 335.146C359.9 334.746 356.6 334.344 353.314 333.94L353.375 333.444L353.437 332.948C356.721 333.351 360.021 333.753 363.335 334.152ZM1124.49 330.724C1121.26 331.654 1118.01 332.561 1114.76 333.445L1114.63 332.963L1114.5 332.479C1117.75 331.597 1120.98 330.692 1124.21 329.763L1124.49 330.724ZM343.351 331.7L343.228 332.692C339.881 332.275 336.551 331.855 333.237 331.435L333.301 330.938L333.363 330.442C336.676 330.863 340.005 331.282 343.351 331.7ZM323.476 329.177L323.411 329.672L323.348 330.168C319.986 329.734 316.643 329.299 313.317 328.863L313.383 328.367L313.447 327.872C316.772 328.308 320.115 328.743 323.476 329.177ZM1143.67 324.345L1143.82 324.82C1140.62 325.855 1137.41 326.864 1134.18 327.85L1134.03 327.372L1133.89 326.894C1137.11 325.91 1140.32 324.902 1143.51 323.869L1143.67 324.345ZM303.43 326.548L303.363 327.043L303.298 327.539C299.977 327.097 296.675 326.653 293.393 326.209L293.46 325.714L293.526 325.218C296.808 325.662 300.109 326.105 303.43 326.548ZM283.573 323.861L283.437 324.852C280.066 324.389 276.717 323.925 273.391 323.461L273.46 322.966L273.528 322.471C276.854 322.935 280.203 323.398 283.573 323.861ZM263.617 321.079L263.547 321.573L263.477 322.068C260.152 321.598 256.851 321.128 253.573 320.657L253.716 319.667C256.993 320.137 260.293 320.609 263.617 321.079ZM1162.76 317.797L1162.93 318.267C1159.77 319.413 1156.6 320.534 1153.41 321.629L1153.24 321.155L1153.08 320.683C1156.27 319.59 1159.44 318.472 1162.59 317.327L1162.76 317.797ZM243.654 318.213L243.582 318.707L243.51 319.202C240.181 318.717 236.877 318.233 233.601 317.749L233.674 317.254L233.747 316.76C237.023 317.244 240.326 317.728 243.654 318.213ZM223.863 315.29L223.715 316.278C220.331 315.772 216.976 315.266 213.652 314.762L213.727 314.267L213.802 313.772C217.125 314.277 220.48 314.783 223.863 315.29ZM1179.71 251.445C1189.21 251.445 1200.07 256.914 1202.9 269.149C1205.41 280.031 1190.3 303.183 1181.41 310.061C1181.41 310.059 1181.41 310.058 1181.42 310.057L1181.8 310.982C1178.69 312.256 1175.56 313.501 1172.4 314.719L1172.04 313.785C1174.46 312.851 1176.87 311.9 1179.26 310.934C1171.51 305.428 1153.85 280.529 1156.5 269.124C1159.33 256.913 1170.2 251.445 1179.69 251.445H1179.71ZM203.923 312.263L203.771 313.251C200.432 312.737 197.126 312.224 193.853 311.714L193.93 311.22L194.007 310.727C197.279 311.237 200.585 311.749 203.923 312.263ZM183.977 309.151L183.898 309.645L183.82 310.139C180.512 309.616 177.24 309.095 174.005 308.577L174.084 308.083L174.163 307.59C177.398 308.108 180.669 308.629 183.977 309.151ZM1200.1 302.454L1200.31 302.908C1197.27 304.318 1194.2 305.698 1191.1 307.049L1190.9 306.59L1190.71 306.132C1193.8 304.784 1196.86 303.408 1199.89 302.001L1200.1 302.454ZM164.15 305.975L164.07 306.469L163.99 306.962C160.631 306.417 157.315 305.875 154.042 305.337L154.123 304.844L154.204 304.35C157.476 304.888 160.792 305.43 164.15 305.975ZM1179.69 255.19C1172.28 255.19 1162.76 259.061 1160.24 269.948C1158.07 279.244 1171.17 298.771 1179.69 306.452C1188.82 298.454 1201.31 279.232 1199.18 269.948C1196.64 259.061 1187.09 255.19 1179.69 255.19ZM144.42 302.73L144.256 303.717C140.842 303.148 137.478 302.584 134.167 302.025L134.333 301.039C137.644 301.598 141.006 302.162 144.42 302.73ZM124.559 299.378L124.474 299.871L124.39 300.364C120.983 299.782 117.635 299.205 114.35 298.636L114.435 298.143L114.521 297.65C117.806 298.22 121.152 298.795 124.559 299.378ZM1218.21 293.495L1218.44 293.938C1215.48 295.504 1212.47 297.039 1209.43 298.541L1208.99 297.645C1212.02 296.146 1215.02 294.616 1217.98 293.054L1218.21 293.495ZM104.674 295.933L104.588 296.426L104.501 296.918C101.112 296.323 97.7942 295.736 94.5508 295.159L94.6377 294.667L94.7256 294.175C97.9683 294.752 101.285 295.338 104.674 295.933ZM84.8535 292.406L84.6758 293.391C81.269 292.776 77.9539 292.174 74.7334 291.585L74.8232 291.094L74.9131 290.602C78.1328 291.19 81.4476 291.792 84.8535 292.406ZM65.1143 288.797L65.0234 289.289L64.9316 289.78C61.4609 289.137 58.1176 288.512 54.9053 287.907L54.998 287.416L55.0898 286.925C58.3014 287.529 61.6443 288.153 65.1143 288.797ZM1235.79 283.558L1236.04 283.985C1233.18 285.722 1230.27 287.423 1227.32 289.09L1227.07 288.654L1226.83 288.22C1229.77 286.558 1232.67 284.861 1235.53 283.13L1235.79 283.558ZM35.4434 283.171C38.5567 283.775 41.8681 284.413 45.3711 285.082L45.1836 286.064C41.6796 285.395 38.3672 284.757 35.2529 284.152L35.3486 283.661L35.4434 283.171ZM1179.68 264.402C1185.11 264.402 1189.53 268.722 1189.53 274.065C1189.53 279.409 1185.11 283.705 1179.68 283.705C1174.26 283.705 1169.84 279.385 1169.83 274.041C1169.83 268.697 1174.26 264.402 1179.68 264.402ZM15.6084 279.248C18.4903 279.83 21.785 280.488 25.4756 281.218L25.3789 281.709L25.2812 282.199C21.5895 281.469 18.2942 280.81 15.4111 280.229L15.6084 279.248ZM1179.68 268.147C1176.38 268.147 1173.65 270.794 1173.65 274.065C1173.65 277.337 1176.35 279.984 1179.68 279.984C1183.02 279.984 1185.72 277.337 1185.72 274.065C1185.72 270.794 1182.99 268.147 1179.68 268.147ZM1252.68 272.54L1252.97 272.949C1250.23 274.874 1247.44 276.761 1244.6 278.61L1244.33 278.191L1244.05 277.772C1246.88 275.929 1249.66 274.049 1252.39 272.131L1252.68 272.54ZM1.1084 276.259C1.11156 276.259 1.11677 276.26 1.12305 276.262C1.13571 276.264 1.15458 276.269 1.17969 276.274C1.23045 276.285 1.30701 276.302 1.4082 276.323C1.61067 276.366 1.91376 276.43 2.31543 276.515C3.1195 276.684 4.31966 276.936 5.90234 277.265L5.80078 277.754L5.69922 278.244C4.11541 277.916 2.91454 277.663 2.10938 277.493C1.70692 277.408 1.40325 277.344 1.2002 277.301C1.09873 277.279 1.02174 277.263 0.970703 277.252C0.945453 277.247 0.925836 277.243 0.913086 277.24C0.907182 277.239 0.902559 277.238 0.899414 277.237C0.897924 277.237 0.896343 277.237 0.895508 277.236L0.894531 277.235C0.895442 277.231 0.904716 277.187 0.999023 276.747C1.09365 276.306 1.10266 276.262 1.10352 276.258H1.10449C1.10529 276.258 1.10696 276.258 1.1084 276.259ZM1268.76 260.303L1269.08 260.688C1266.49 262.825 1263.85 264.921 1261.14 266.976L1260.84 266.577L1260.54 266.18C1263.23 264.133 1265.86 262.046 1268.44 259.918L1268.76 260.303ZM1283.98 247.299C1282.71 248.506 1281.53 249.629 1280.44 250.657C1279.22 251.808 1277.99 252.947 1276.74 254.076L1276.07 253.334C1277.31 252.21 1278.54 251.075 1279.75 249.93C1280.84 248.902 1282.02 247.781 1283.29 246.574L1283.98 247.299ZM1297.9 233.364L1298.24 233.727C1295.73 236.111 1293.34 238.382 1291.11 240.51L1290.76 240.147L1290.42 239.786C1292.65 237.658 1295.04 235.386 1297.56 233.001L1297.9 233.364ZM1312.24 219.895L1312.58 220.261C1310.11 222.554 1307.71 224.804 1305.38 226.99L1305.04 226.626L1304.7 226.262C1307.02 224.074 1309.43 221.823 1311.9 219.528L1312.24 219.895ZM1327.07 206.978C1324.62 209.197 1322.19 211.408 1319.8 213.597L1319.46 213.229L1319.12 212.859C1321.51 210.669 1323.94 208.456 1326.4 206.235L1327.07 206.978ZM1475.57 198.148L1475.78 198.602C1472.69 200.038 1469.55 201.089 1466.38 201.636L1466.3 201.144L1466.21 200.65C1469.28 200.122 1472.33 199.101 1475.36 197.694L1475.57 198.148ZM1447.8 197.084C1450.76 198.88 1453.72 200.015 1456.67 200.594L1456.58 201.085L1456.48 201.575C1453.41 200.973 1450.34 199.792 1447.28 197.938L1447.54 197.512L1447.8 197.084ZM1341.47 193.556L1341.8 193.934C1339.32 196.079 1336.86 198.244 1334.41 200.416L1333.74 199.668C1336.19 197.494 1338.67 195.326 1341.14 193.178L1341.47 193.556ZM1491.8 187.323L1492.12 187.71C1490.85 188.746 1489.57 189.765 1488.28 190.767C1486.96 191.782 1485.64 192.753 1484.31 193.669L1483.74 192.845C1485.06 191.941 1486.37 190.981 1487.66 189.976C1488.95 188.98 1490.22 187.966 1491.48 186.936L1491.8 187.323ZM1434.13 183.584C1436.18 186.461 1438.23 188.933 1440.3 191.033L1439.59 191.734C1437.48 189.591 1435.39 187.078 1433.32 184.163L1433.72 183.874L1434.13 183.584ZM1356.5 180.87L1356.81 181.257C1354.31 183.305 1351.79 185.403 1349.27 187.537L1348.94 187.155L1348.62 186.773C1351.15 184.637 1353.67 182.535 1356.18 180.483L1356.5 180.87ZM1506.39 174.268L1506.73 174.627C1504.38 176.911 1501.99 179.146 1499.57 181.324L1498.9 180.58C1501.32 178.411 1503.69 176.184 1506.04 173.909L1506.39 174.268ZM1424.53 166.697C1425.99 169.829 1427.47 172.712 1428.96 175.357L1428.52 175.603L1428.08 175.848C1426.58 173.178 1425.1 170.273 1423.62 167.12L1424.08 166.908L1424.53 166.697ZM1371.98 168.722L1372.28 169.123C1369.73 171.025 1367.13 173.021 1364.49 175.092L1364.18 174.698L1363.87 174.306C1366.51 172.23 1369.12 170.229 1371.68 168.321L1371.98 168.722ZM1519.98 160.181L1520.35 160.518C1518.14 162.936 1515.91 165.325 1513.65 167.674L1512.93 166.98C1515.18 164.638 1517.41 162.257 1519.61 159.844L1519.98 160.181ZM1388.18 157.572L1388.44 157.997C1385.82 159.616 1383.09 161.417 1380.26 163.371L1379.98 162.96L1379.69 162.549C1382.53 160.587 1385.28 158.776 1387.92 157.146L1388.18 157.572ZM1415.7 149.104C1417.12 149.982 1418.2 151.335 1418.89 153.176C1419.47 154.742 1420.06 156.265 1420.66 157.741L1420.19 157.927L1419.73 158.113C1419.13 156.629 1418.54 155.101 1417.95 153.527C1417.33 151.863 1416.38 150.701 1415.18 149.956L1415.44 149.53L1415.7 149.104ZM1532.87 145.445L1533.25 145.768C1531.15 148.262 1529.02 150.743 1526.87 153.201L1526.5 152.873L1526.12 152.544C1528.26 150.09 1530.39 147.613 1532.49 145.122L1532.87 145.445ZM1406.04 149.594C1403.35 150.303 1400.3 151.531 1396.96 153.2L1396.51 152.306C1399.89 150.618 1403 149.36 1405.78 148.627L1406.04 149.594ZM1409.68 87.1953C1419.17 87.1954 1430.04 92.6636 1432.86 104.899C1435.54 116.519 1418.14 142.131 1409.65 146.978C1402.16 142.131 1383.76 116.496 1386.47 104.874C1389.29 92.6633 1400.16 87.1953 1409.65 87.1953H1409.68ZM1409.65 90.9404C1402.25 90.9404 1392.73 94.8109 1390.21 105.698C1388.04 114.994 1401.13 134.521 1409.65 142.202C1418.78 134.204 1431.28 114.982 1429.15 105.698C1426.6 94.8111 1417.06 90.9405 1409.65 90.9404ZM1545.38 130.376L1545.76 130.692C1543.7 133.212 1541.62 135.736 1539.54 138.253L1539.15 137.935L1538.77 137.615C1540.85 135.1 1542.92 132.578 1544.99 130.059L1545.38 130.376ZM1557.88 57.0625C1567.37 57.0625 1578.24 62.5308 1581.06 74.7666C1583.74 86.3859 1566.34 111.998 1557.85 116.845C1557.71 116.75 1557.56 116.646 1557.4 116.535C1555.59 118.718 1553.78 120.914 1551.97 123.12L1551.58 122.803L1551.2 122.485C1553 120.29 1554.8 118.102 1556.6 115.928C1548.51 109.378 1532.1 85.761 1534.67 74.7412C1537.49 62.5305 1548.36 57.0625 1557.85 57.0625H1557.88ZM1409.65 100.152C1415.07 100.152 1419.5 104.472 1419.5 109.815C1419.5 115.159 1415.07 119.455 1409.65 119.455C1404.23 119.455 1399.8 115.135 1399.8 109.791C1399.8 104.447 1404.23 100.152 1409.65 100.152ZM1409.65 103.897C1406.34 103.897 1403.62 106.544 1403.62 109.815C1403.62 113.087 1406.32 115.734 1409.65 115.734C1412.98 115.734 1415.68 113.087 1415.68 109.815C1415.68 106.544 1412.96 103.897 1409.65 103.897ZM1557.85 60.8076C1550.45 60.8076 1540.93 64.6781 1538.41 75.5654C1536.23 84.861 1549.33 104.388 1557.85 112.069C1566.98 104.071 1579.48 84.8487 1577.35 75.5654C1574.8 64.6783 1565.26 60.8077 1557.85 60.8076ZM1583.88 86.0361L1584.23 86.3887C1581.95 88.6819 1579.7 91.0357 1577.46 93.4395L1576.73 92.7578C1578.97 90.347 1581.23 87.9854 1583.52 85.6836L1583.88 86.0361ZM1557.85 70.0234C1563.27 70.0234 1567.7 74.3428 1567.7 79.6865C1567.7 85.0303 1563.27 89.3252 1557.85 89.3252C1552.43 89.3252 1548 85.0058 1548 79.6621C1548 74.3183 1552.43 70.0234 1557.85 70.0234ZM1557.85 73.7686C1554.54 73.7686 1551.82 76.4154 1551.82 79.6865C1551.82 82.9577 1554.51 85.6045 1557.85 85.6045C1561.18 85.6045 1563.88 82.9577 1563.88 79.6865C1563.88 76.4154 1561.16 73.7686 1557.85 73.7686ZM1598.31 72.7061L1598.63 73.0898C1597.31 74.1955 1596.06 75.2751 1594.87 76.3232C1593.66 77.3954 1592.45 78.4872 1591.25 79.5977L1590.91 79.2314L1590.57 78.8643C1591.78 77.7487 1592.99 76.6508 1594.21 75.5732C1595.4 74.5193 1596.67 73.4345 1597.99 72.3232L1598.31 72.7061ZM1614.1 60.6797L1614.39 61.0908C1611.54 63.0748 1608.87 65.0245 1606.37 66.9238L1606.07 66.5254L1605.77 66.1279C1608.27 64.2201 1610.96 62.2616 1613.82 60.2695L1614.1 60.6797ZM1630.87 49.9355L1631.12 50.3662C1628.17 52.1066 1625.36 53.8424 1622.67 55.5645L1622.13 54.7227C1624.83 52.9941 1627.66 51.2515 1630.61 49.5049L1630.87 49.9355ZM1648.33 40.4199L1648.55 40.8672C1645.51 42.3947 1642.58 43.9327 1639.75 45.4746L1639.51 45.0352L1639.27 44.5967C1642.11 43.0496 1645.06 41.506 1648.1 39.9736L1648.33 40.4199ZM1666.4 32.042L1666.6 32.502C1663.48 33.8315 1660.45 35.1802 1657.51 36.543L1657.3 36.0898L1657.09 35.6357C1660.04 34.2686 1663.08 32.9158 1666.21 31.582L1666.4 32.042ZM1685.1 25.2461C1681.93 26.3871 1678.83 27.5526 1675.8 28.7383L1675.44 27.8066C1678.47 26.6175 1681.58 25.449 1684.76 24.3047L1685.1 25.2461ZM1703.82 18.5742L1703.97 19.0527C1700.74 20.0151 1697.59 21.0054 1694.49 22.0195L1694.34 21.5449L1694.18 21.0693C1697.28 20.0524 1700.45 19.0597 1703.68 18.0947L1703.82 18.5742ZM1723.01 13.3877L1723.13 13.873C1719.87 14.6666 1716.66 15.4899 1713.51 16.3398L1713.38 15.8574L1713.25 15.374C1716.41 14.5219 1719.62 13.6969 1722.9 12.9014L1723.01 13.3877ZM1742.47 9.16504L1742.56 9.65625C1739.26 10.2899 1736.01 10.9544 1732.81 11.6475L1732.71 11.1582L1732.6 10.6699C1735.8 9.97516 1739.06 9.30897 1742.37 8.67383L1742.47 9.16504ZM1930.64 8.66406C1932.29 8.92746 1933.95 9.19728 1935.61 9.47461L1935.45 10.4609C1933.78 10.184 1932.13 9.91441 1930.48 9.65137L1930.56 9.15723L1930.64 8.66406ZM1910.92 5.80273C1914.19 6.22924 1917.49 6.68363 1920.81 7.16602L1920.74 7.66113L1920.66 8.15527C1917.35 7.67356 1914.06 7.21984 1910.79 6.79395L1910.86 6.29883L1910.92 5.80273ZM1762.11 5.86914L1762.18 6.36328C1758.86 6.84261 1755.59 7.35345 1752.37 7.89355L1752.28 7.40039L1752.2 6.90723C1755.43 6.3659 1758.71 5.8544 1762.03 5.37402L1762.11 5.86914ZM1891.13 3.51953C1894.42 3.84843 1897.74 4.20628 1901.09 4.59277L1901.03 5.08984L1900.97 5.58594C1897.63 5.20004 1894.32 4.84302 1891.04 4.51465L1891.08 4.01758L1891.13 3.51953ZM1781.83 3.46094L1781.88 3.95801C1778.54 4.29268 1775.25 4.65941 1772 5.05566L1771.94 4.55859L1771.88 4.0625C1775.14 3.66538 1778.44 3.29827 1781.78 2.96289L1781.83 3.46094ZM1871.3 1.85059C1874.59 2.07448 1877.92 2.32767 1881.27 2.61035L1881.19 3.60645C1877.84 3.32421 1874.52 3.07217 1871.23 2.84863L1871.3 1.85059ZM1801.71 2.38477C1798.37 2.58132 1795.07 2.80946 1791.82 3.06738L1791.78 2.56836L1791.74 2.07031C1795 1.81185 1798.31 1.58367 1801.65 1.38672L1801.71 2.38477ZM1851.45 0.832031C1854.72 0.944386 1858.03 1.08631 1861.37 1.25781L1861.34 1.75684L1861.31 2.25586C1857.98 2.08466 1854.68 1.94419 1851.41 1.83203L1851.43 1.33203L1851.45 0.832031ZM1821.57 1.10645L1821.58 1.60547C1818.22 1.67248 1814.9 1.77086 1811.62 1.89941L1811.6 1.40039L1811.58 0.900391C1814.87 0.77159 1818.2 0.673582 1821.56 0.606445L1821.57 1.10645ZM1831.52 0.500977C1834.79 0.49654 1838.1 0.521365 1841.45 0.577148L1841.44 1.07715L1841.43 1.57715C1838.09 1.52146 1834.79 1.49655 1831.52 1.50098V1.00098L1831.52 0.500977Z" fill="#2D3D69"/>
</svg>
