<?xml version="1.0" standalone="no"?>
<!DOCTYPE svg PUBLIC "-//W3C//DTD SVG 20010904//EN"
 "http://www.w3.org/TR/2001/REC-SVG-20010904/DTD/svg10.dtd">
<svg version="1.0" xmlns="http://www.w3.org/2000/svg"
 width="640.000000pt" height="1280.000000pt" viewBox="0 0 640.000000 1280.000000"
 preserveAspectRatio="xMidYMid meet">
<metadata>
Created by potrace 1.15, written by Peter Selinger 2001-2017
</metadata>
<g transform="translate(0.000000,1280.000000) scale(0.100000,-0.100000)"
fill="#000000" stroke="none">
<path d="M1150 12725 l0 -75 65 0 65 0 0 -55 0 -55 -65 0 -65 0 0 -75 0 -75
195 0 195 0 0 -60 0 -60 -130 0 -130 0 0 -65 0 -65 -65 0 -65 0 0 -75 0 -75
65 0 65 0 0 -65 0 -65 140 0 140 0 0 65 0 65 65 0 65 0 0 65 0 66 58 -3 57 -3
1 -60 1 -60 67 -3 66 -3 0 -64 0 -65 65 0 65 0 0 -65 0 -65 65 0 65 0 0 -55 0
-55 -327 -2 -328 -3 -3 -67 -3 -68 -64 0 -65 0 0 -65 0 -65 -65 0 -65 0 0
-205 0 -205 65 0 65 0 0 -65 0 -65 75 0 75 0 0 65 0 65 65 0 65 0 0 75 0 75
-75 0 -75 0 0 -65 0 -65 -55 0 -55 0 0 120 0 120 65 0 65 0 0 65 0 65 190 0
190 0 0 -65 0 -65 65 0 65 0 0 -65 0 -65 65 0 65 0 0 -65 0 -65 65 0 65 0 0
-65 0 -65 275 0 275 0 0 65 0 65 55 0 55 0 0 -65 0 -65 65 0 65 0 0 -60 0 -60
-65 0 -65 0 0 -65 0 -65 -55 0 -55 0 0 65 0 65 -275 0 -275 0 0 -65 0 -65 -65
0 -65 0 0 -65 0 -65 -65 0 -65 0 0 -65 0 -65 -65 0 -65 0 0 -65 0 -65 -190 0
-190 0 0 65 0 65 -65 0 -65 0 0 120 0 120 55 0 55 0 0 -65 0 -65 75 0 75 0 0
75 0 75 -65 0 -65 0 0 65 0 65 -75 0 -75 0 0 -65 0 -65 -65 0 -65 0 0 -205 0
-205 65 0 65 0 0 -65 0 -65 65 0 64 0 3 -67 3 -68 328 -3 327 -2 0 -55 0 -55
-65 0 -65 0 0 -65 0 -65 -65 0 -65 0 0 -65 0 -64 -66 -3 -67 -3 1 -62 0 -63
-59 0 -59 0 0 65 0 65 -65 0 -65 0 0 65 0 65 -140 0 -140 0 0 -65 0 -65 -65 0
-65 0 0 -75 0 -74 63 -3 62 -3 3 -67 3 -68 129 0 130 0 0 -55 0 -55 -195 0
-195 0 0 -75 0 -75 65 0 65 0 0 -55 0 -55 -65 0 -65 0 0 -75 0 -75 75 0 75 0
0 65 0 65 55 0 55 0 0 -65 0 -65 75 0 75 0 0 195 0 195 55 0 55 0 0 -130 0
-129 68 -3 67 -3 0 -63 0 -62 78 0 77 0 0 65 0 65 65 0 65 0 0 140 0 140 -65
0 -65 0 0 65 0 64 -67 3 -68 3 0 55 0 55 68 3 67 3 0 64 0 65 65 0 65 0 0 65
0 65 65 0 65 0 0 65 0 65 55 0 55 0 0 -330 0 -330 65 0 65 0 0 -65 0 -65 65 0
65 0 0 -65 0 -65 210 0 210 0 0 65 0 65 65 0 65 0 0 75 0 75 -65 0 -65 0 0 65
0 65 -75 0 -75 0 0 -75 0 -75 65 0 65 0 0 -55 0 -55 -120 0 -120 0 0 65 0 64
-67 3 -68 3 0 185 0 185 68 3 67 3 0 64 0 65 65 0 65 0 0 65 0 65 65 0 65 0 0
65 0 65 65 0 65 0 0 275 0 275 -65 0 -65 0 0 55 0 55 65 0 65 0 0 65 0 65 55
0 55 0 0 -65 0 -65 65 0 65 0 0 -55 0 -55 -65 0 -65 0 0 -275 0 -275 65 0 64
0 3 -62 3 -63 68 -3 67 -3 0 -64 0 -65 65 0 65 0 0 -65 0 -65 65 0 65 0 0
-190 0 -190 -65 0 -65 0 0 -65 0 -65 -125 0 -125 0 0 55 0 54 68 3 67 3 3 73
3 72 -81 0 -80 0 0 -65 0 -65 -65 0 -65 0 0 -75 0 -75 65 0 65 0 0 -65 0 -65
210 0 210 0 0 65 0 65 65 0 65 0 0 65 0 65 65 0 65 0 0 330 0 330 55 0 55 0 0
-65 0 -65 70 0 70 0 0 -65 0 -65 65 0 65 0 0 -65 0 -64 63 -3 62 -3 0 -55 0
-55 -62 -3 -63 -3 0 -64 0 -65 -65 0 -65 0 0 -140 0 -140 65 0 65 0 0 -65 0
-65 75 0 75 0 0 65 0 65 65 0 65 0 0 130 0 130 55 0 55 0 0 -195 0 -195 75 0
75 0 0 65 0 66 58 -3 57 -3 3 -62 3 -63 74 0 75 0 0 75 0 74 -67 3 -68 3 -3
53 -3 52 70 0 71 0 0 75 0 75 -200 0 -200 0 0 55 0 54 131 3 132 3 1 65 1 65
68 3 67 3 0 74 0 74 -67 3 -68 3 -3 63 -3 62 -139 0 -140 0 0 -65 0 -65 -65 0
-65 0 0 -65 0 -65 -55 0 -55 0 0 65 0 65 -65 0 -65 0 0 65 0 65 -65 0 -65 0 0
65 0 65 -70 0 -70 0 0 55 0 55 330 0 330 0 0 70 0 70 65 0 65 0 0 65 0 65 65
0 65 0 0 205 0 205 -65 0 -65 0 0 65 0 65 -75 0 -75 0 0 -65 0 -65 -65 0 -65
0 0 -75 0 -75 75 0 75 0 0 65 0 65 55 0 55 0 0 -120 0 -120 -65 0 -65 0 0 -65
0 -65 -185 0 -184 0 -3 63 -3 62 -67 3 -68 3 0 64 0 65 -65 0 -65 0 0 65 0 65
-65 0 -65 0 0 65 0 65 -275 0 -275 0 0 -65 0 -65 -55 0 -55 0 0 65 0 65 -65 0
-66 0 3 58 3 57 62 3 62 3 3 62 3 62 53 3 52 3 0 -65 0 -66 275 0 275 0 0 65
0 65 65 0 65 0 0 65 0 65 65 0 65 0 0 65 0 65 70 0 70 0 0 65 0 65 185 0 185
0 0 -65 0 -65 65 0 65 0 0 -120 0 -120 -55 0 -55 0 0 65 0 65 -75 0 -75 0 0
-75 0 -75 65 0 65 0 0 -65 0 -65 75 0 75 0 0 65 0 65 65 0 65 0 0 205 0 205
-65 0 -65 0 0 65 0 65 -65 0 -64 0 -3 68 -3 67 -328 3 -328 2 3 53 3 52 68 3
67 3 0 64 0 65 65 0 65 0 0 65 0 65 65 0 65 0 0 65 0 65 55 0 55 0 0 -65 0
-65 65 0 65 0 0 -65 0 -65 140 0 139 0 3 63 3 62 68 3 67 3 0 74 0 74 -67 3
-68 3 0 63 0 62 -133 0 -133 0 3 58 3 57 198 3 198 2 -3 73 -3 72 -68 3 -68 3
3 52 3 52 68 3 67 3 0 74 0 75 -75 0 -75 0 0 -65 0 -65 -60 0 -60 0 0 65 0 65
-75 0 -75 0 0 -201 0 -200 -52 3 -53 3 -3 133 -3 132 -64 0 -65 0 0 65 0 65
-75 0 -75 0 0 -65 0 -65 -65 0 -65 0 0 -140 0 -139 63 -3 62 -3 3 -67 3 -68
64 0 65 0 0 -55 0 -55 -65 0 -65 0 0 -65 0 -65 -65 0 -65 0 0 -65 0 -64 -67
-3 -68 -3 -3 -62 -3 -63 -54 0 -55 0 0 328 0 327 -62 0 -63 0 -3 68 -3 67 -64
0 -65 0 0 65 0 65 -207 -2 -208 -3 -3 -62 -3 -62 -62 -3 -62 -3 -3 -72 -3 -73
65 0 65 0 3 -67 3 -68 75 0 75 0 0 74 0 74 -65 1 -65 1 0 55 0 55 123 3 122 3
0 -65 0 -65 63 -3 62 -3 3 -187 2 -188 -65 0 -65 0 0 -65 0 -65 -65 0 -65 0 0
-65 0 -64 -67 -3 -68 -3 -3 -67 -3 -68 -64 0 -65 0 0 -270 0 -270 65 0 65 0 0
-55 0 -54 -62 -3 -63 -3 -3 -68 -3 -68 -52 3 -52 3 -3 68 -3 67 -64 0 -65 0 0
55 0 55 65 0 65 0 0 270 0 270 -65 0 -65 0 0 70 0 70 -65 0 -65 0 0 65 0 65
-65 0 -65 0 0 65 0 65 -70 0 -70 0 2 188 3 187 68 3 67 3 0 64 0 65 120 0 121
0 -3 -57 -3 -58 -62 0 -63 0 0 -77 0 -78 75 0 75 0 0 70 0 70 65 0 65 0 0 75
0 75 -65 0 -65 0 0 65 0 65 -207 -2 -208 -3 -3 -62 -3 -62 -62 -3 -62 -3 -3
-68 -3 -68 -62 2 -62 3 -3 -327 -2 -327 -55 0 -55 0 0 65 0 65 -65 0 -65 0 0
65 0 65 -65 0 -65 0 0 65 0 64 -67 3 -68 3 -3 52 -3 52 68 3 68 3 3 68 3 67
64 0 65 0 0 140 0 140 -65 0 -65 0 0 65 0 65 -77 0 -78 0 0 -62 0 -63 -67 -3
-68 -3 0 -135 0 -135 -52 3 -53 3 -3 198 -2 197 -75 0 -75 0 0 -65 0 -65 -55
0 -55 0 0 65 0 65 -75 0 -75 0 0 -75z m130 0 l0 -55 -55 0 -55 0 0 55 0 55 55
0 55 0 0 -55z m260 -135 l0 -190 -185 0 -185 0 0 60 0 60 65 0 65 0 0 65 0 65
65 0 65 0 0 65 0 65 55 0 55 0 0 -190z m400 125 l0 -65 65 0 66 0 -3 -122 -3
-123 -60 0 -60 0 -5 -65 -5 -65 -55 0 -55 0 -5 65 -5 65 -60 0 -60 0 -3 123
-3 122 66 0 65 0 0 65 0 65 60 0 60 0 0 -65z m2630 0 l0 -65 65 0 66 0 -3
-122 -3 -123 -60 -1 -60 -1 -3 -67 -3 -66 -54 0 -54 0 -3 67 -3 67 -62 -3 -63
-2 0 125 0 126 65 0 65 0 0 65 0 65 55 0 55 0 0 -65z m390 0 l0 -64 68 -3 67
-3 3 -62 3 -62 62 -3 62 -3 0 -55 0 -55 -185 0 -185 0 -3 188 -2 187 55 0 55
0 0 -65z m270 10 l0 -55 -60 0 -60 0 0 55 0 55 60 0 60 0 0 -55z m-2240 -130
l0 -55 -130 0 -129 0 -3 -67 -3 -68 -65 -1 -65 -1 0 -204 0 -204 68 -3 67 -3
0 -64 0 -65 65 0 65 0 0 -65 0 -65 65 0 64 0 3 -66 3 -67 60 -1 60 -1 3 -252
2 -253 -55 0 -55 0 0 65 0 65 -65 0 -65 0 0 65 0 65 -65 0 -65 0 0 65 0 64
-67 3 -68 3 -3 62 -3 62 -62 3 -62 3 -3 68 -3 67 -65 0 -64 0 2 318 3 317 62
3 62 3 3 62 3 62 63 3 62 3 0 64 0 65 190 0 190 0 0 -55z m790 -10 l0 -65 65
0 65 0 0 -65 0 -65 65 0 65 0 0 -320 0 -320 -65 0 -65 0 0 -70 0 -70 -65 0
-65 0 0 -65 0 -65 -65 0 -65 0 0 -65 0 -65 -65 0 -65 0 0 -65 0 -65 -70 0 -70
0 0 -65 0 -65 -55 0 -55 0 2 253 3 252 60 0 60 0 5 65 5 65 68 3 67 3 0 64 0
65 65 0 65 0 0 65 0 65 65 0 65 0 -2 207 -3 207 -62 -3 -62 -2 -3 68 -3 68
-132 3 -133 3 0 48 c0 26 3 51 7 54 3 4 89 7 190 7 l183 0 0 -65z m-662 -122
l-3 -58 -50 0 -50 0 -3 58 -3 57 56 0 56 0 -3 -57z m262 -4 l0 -60 -52 3 -53
3 -3 58 -3 57 56 0 55 0 0 -61z m-1710 -129 l0 -60 -55 0 -55 0 0 53 c0 30 3
57 7 60 3 4 28 7 55 7 l48 0 0 -60z m135 0 l0 -55 -55 0 -55 0 -3 44 c-5 67 0
72 60 69 l53 -3 0 -55z m1183 -2 l3 -58 -56 0 -55 0 0 61 0 60 53 -3 52 -3 3
-57z m527 2 l0 -55 -55 0 -55 0 -3 44 c-5 67 0 72 60 69 l53 -3 0 -55z m1185
0 l0 -60 -55 0 -55 0 0 60 0 60 55 0 55 0 0 -60z m130 0 l0 -60 -55 0 -55 0 0
60 0 60 55 0 55 0 0 -60z m-3290 -145 l0 -65 65 0 65 0 0 -55 0 -55 -65 0 -65
0 0 -65 0 -65 -120 0 -120 0 0 65 0 65 -65 0 -65 0 0 55 0 55 65 0 65 0 0 65
0 65 120 0 120 0 0 -65z m130 10 l0 -55 -55 0 -55 0 0 55 0 55 55 0 55 0 0
-55z m136 3 l-1 -53 -57 -3 -58 -3 0 56 0 55 59 0 59 0 -2 -52z m2894 -3 l0
-55 -55 0 -55 0 0 55 0 55 55 0 55 0 0 -55z m130 0 l0 -55 -55 0 -55 0 0 55 0
55 55 0 55 0 0 -55z m269 -7 l-3 -63 67 -3 67 -3 0 -54 0 -54 -67 -3 -67 -3 3
-62 2 -63 -125 0 -126 0 0 65 0 65 -65 0 -65 0 0 55 0 55 65 0 65 0 0 65 0 65
126 0 125 0 -2 -62z m-3159 -123 l0 -56 -57 3 -58 3 -3 53 -3 52 60 0 61 0 0
-55z m2630 0 l0 -55 -55 0 -55 0 0 55 0 55 55 0 55 0 0 -55z m-2500 -130 l0
-55 -55 0 -55 0 0 55 0 55 55 0 55 0 0 -55z m2370 0 l0 -55 -55 0 -55 0 0 55
0 55 55 0 55 0 0 -55z m-2240 -130 l0 -55 -55 0 -55 0 0 55 0 55 55 0 55 0 0
-55z m2108 -2 l3 -53 -60 0 -61 0 0 55 0 56 58 -3 57 -3 3 -52z m-1978 -133
l0 -60 -55 0 -55 0 0 60 0 60 55 0 55 0 0 -60z m130 -1 l0 -60 -52 3 -53 3 -3
58 -3 57 56 0 55 0 0 -61z m1580 0 l0 -60 -52 3 -53 3 -3 58 -3 57 56 0 55 0
0 -61z m130 0 l0 -60 -52 3 -53 3 -3 58 -3 57 56 0 55 0 0 -61z m-1972 -141
l3 -68 64 0 65 0 0 -65 0 -65 65 0 65 0 0 -65 0 -65 65 0 65 0 0 -65 0 -64 68
-3 67 -3 3 -62 3 -62 62 -3 62 -3 3 -52 3 -53 -255 0 -256 0 0 65 0 65 -65 0
-65 0 0 65 0 65 -65 0 -65 0 0 65 0 65 -65 0 -65 0 0 65 0 65 -210 0 -210 0 0
-65 0 -65 -65 0 -65 0 0 -130 0 -130 -55 0 -55 0 0 185 0 185 65 0 65 0 0 65
0 65 65 0 65 0 0 63 c0 35 3 67 7 70 4 4 146 6 317 5 l311 -3 3 -67z m130 10
l3 -58 -56 0 -55 0 0 61 0 60 53 -3 52 -3 3 -57z m132 2 l0 -60 -55 0 -55 0 0
53 c0 30 3 57 7 60 3 4 28 7 55 7 l48 0 0 -60z m130 -1 l0 -60 -52 3 -53 3 -3
44 c-5 65 0 71 58 71 l50 0 0 -61z m1318 -1 l3 -58 -56 0 -55 0 0 61 0 60 53
-3 52 -3 3 -57z m132 2 l0 -60 -55 0 -55 0 0 53 c0 30 3 57 7 60 3 4 28 7 55
7 l48 0 0 -60z m130 -1 l0 -60 -52 3 -53 3 -3 44 c-5 65 0 71 58 71 l50 0 0
-61z m658 -11 l3 -68 64 0 65 0 0 -65 0 -65 65 0 65 0 0 -185 0 -185 -55 0
-55 0 0 130 0 130 -65 0 -65 0 0 65 0 65 -205 0 -205 0 0 -65 0 -65 -70 0 -70
0 0 -65 0 -65 -65 0 -65 0 0 -65 0 -65 -65 0 -65 0 0 -65 0 -65 -256 0 -255 0
3 53 3 52 68 3 67 3 0 64 0 65 65 0 65 0 0 65 0 65 65 0 65 0 0 65 0 65 65 0
65 0 0 65 0 65 65 0 65 0 0 63 c0 35 3 67 7 70 4 4 146 6 317 5 l311 -3 3 -67z
m-2368 -123 l0 -55 -55 0 -55 0 0 55 0 55 55 0 55 0 0 -55z m130 0 l0 -55 -55
0 -55 0 0 55 0 55 55 0 55 0 0 -55z m140 0 l0 -56 -57 3 -58 3 -3 53 -3 52 60
0 61 0 0 -55z m1050 0 l0 -55 -55 0 -55 0 0 55 0 55 55 0 55 0 0 -55z m130 0
l0 -55 -55 0 -55 0 0 55 0 55 55 0 55 0 0 -55z m130 0 l0 -55 -55 0 -55 0 0
55 0 55 55 0 55 0 0 -55z m-1450 -130 l0 -55 -55 0 -55 0 0 55 0 55 55 0 55 0
0 -55z m140 0 l0 -55 -60 0 -60 0 0 55 0 55 60 0 60 0 0 -55z m130 0 l0 -55
-55 0 -55 0 0 55 0 55 55 0 55 0 0 -55z m790 0 l0 -55 -55 0 -55 0 0 55 0 55
55 0 55 0 0 -55z m130 0 l0 -55 -55 0 -55 0 0 55 0 55 55 0 55 0 0 -55z m130
0 l0 -55 -55 0 -55 0 0 55 0 55 55 0 55 0 0 -55z m-1180 -130 l0 -55 -60 0
-60 0 0 55 0 55 60 0 60 0 0 -55z m130 0 l0 -55 -55 0 -55 0 0 55 0 55 55 0
55 0 0 -55z m130 0 l0 -55 -55 0 -55 0 0 55 0 55 55 0 55 0 0 -55z m530 0 l0
-55 -60 0 -60 0 0 55 0 55 60 0 60 0 0 -55z m130 0 l0 -55 -55 0 -55 0 0 55 0
55 55 0 55 0 0 -55z m130 0 l0 -55 -55 0 -55 0 0 55 0 55 55 0 55 0 0 -55z
m-2110 -130 l0 -55 -55 0 -55 0 0 55 0 55 55 0 55 0 0 -55z m1190 0 l0 -55
-54 0 -54 0 -4 51 c-1 28 -1 53 1 55 2 2 28 4 58 4 l53 0 0 -55z m130 0 l0
-55 -55 0 -55 0 0 55 0 55 55 0 55 0 0 -55z m528 -2 l3 -53 -60 0 -61 0 0 48
c0 27 3 52 7 56 4 4 30 6 58 4 l50 -3 3 -52z m130 0 l3 -53 -55 0 -56 0 0 56
0 55 53 -3 52 -3 3 -52z m1182 2 l0 -55 -55 0 -55 0 0 55 0 55 55 0 55 0 0
-55z m-3290 -130 l0 -55 -55 0 -55 0 0 55 0 55 55 0 55 0 0 -55z m1580 -5 l0
-60 -55 0 -55 0 0 60 0 60 55 0 55 0 0 -60z m260 -1 l0 -60 -52 3 -53 3 -3 44
c-5 65 0 71 58 71 l50 0 0 -61z m1580 6 l0 -55 -55 0 -55 0 0 55 0 55 55 0 55
0 0 -55z m-1710 -135 l0 -60 -55 0 -55 0 0 53 c0 30 3 57 7 60 3 4 28 7 55 7
l48 0 0 -60z m-1710 -135 l0 -55 -55 0 -55 0 0 55 0 55 55 0 55 0 0 -55z
m1320 0 l0 -55 -65 0 -64 0 -3 -62 -3 -63 -67 -3 -68 -3 0 -64 0 -65 -65 0
-65 0 0 -65 0 -65 -65 0 -65 0 0 -65 0 -65 -65 0 -65 0 0 -70 0 -70 -320 0
-320 0 0 70 0 70 -65 0 -65 0 0 65 0 65 -65 0 -65 0 0 185 0 185 55 0 55 0 0
-130 0 -130 65 0 65 0 0 -65 0 -65 210 0 210 0 0 65 0 65 65 0 65 0 0 65 0 65
65 0 65 0 0 65 0 65 65 0 65 0 0 65 0 65 255 0 255 0 0 -55z m260 0 l0 -55
-55 0 -55 0 0 55 0 55 55 0 55 0 0 -55z m260 0 l0 -55 -55 0 -55 0 0 55 0 55
55 0 55 0 0 -55z m660 -10 l0 -65 65 0 65 0 0 -65 0 -65 65 0 65 0 0 -65 0
-65 70 0 70 0 0 -65 0 -65 205 0 205 0 0 65 0 65 65 0 65 0 0 130 0 130 55 0
55 0 0 -185 0 -185 -65 0 -65 0 0 -65 0 -64 -62 -3 -63 -3 -3 -68 -3 -67 -317
2 -317 3 -3 68 -3 67 -64 0 -65 0 0 65 0 65 -65 0 -65 0 0 65 0 65 -65 0 -65
0 0 65 0 65 -65 0 -65 0 0 65 0 64 -67 3 -68 3 -3 53 -3 52 255 0 256 0 0 -65z
m920 10 l0 -55 -55 0 -55 0 0 55 0 55 55 0 55 0 0 -55z m-3290 -130 l0 -55
-55 0 -55 0 0 55 0 55 55 0 55 0 0 -55z m1190 0 l0 -55 -55 0 -55 0 0 55 0 55
55 0 55 0 0 -55z m130 0 l0 -55 -55 0 -55 0 0 55 0 55 55 0 55 0 0 -55z m530
0 l0 -55 -60 0 -60 0 0 55 0 55 60 0 60 0 0 -55z m130 0 l0 -55 -55 0 -55 0 0
55 0 55 55 0 55 0 0 -55z m1180 0 l0 -55 -55 0 -55 0 0 55 0 55 55 0 55 0 0
-55z m-2100 -130 l0 -55 -60 0 -60 0 0 55 0 55 60 0 60 0 0 -55z m130 0 l0
-55 -55 0 -55 0 0 55 0 55 55 0 55 0 0 -55z m130 0 l0 -55 -55 0 -55 0 0 55 0
55 55 0 55 0 0 -55z m130 -200 l0 -255 -65 0 -65 0 0 -65 0 -65 -65 0 -65 0 0
-65 0 -65 -65 0 -65 0 0 -65 0 -64 -67 -3 -68 -3 0 -205 0 -205 68 -3 67 -3 0
-64 0 -65 130 0 130 0 0 -55 0 -55 -190 0 -190 0 0 65 0 65 -65 0 -65 0 0 65
0 65 -65 0 -65 0 0 320 0 320 65 0 65 0 0 65 0 65 65 0 65 0 0 65 0 64 68 3
67 3 3 68 3 67 64 0 65 0 0 65 0 65 65 0 65 0 0 65 0 65 55 0 55 0 0 -255z
m260 190 l0 -64 68 -3 67 -3 3 -62 3 -62 62 -3 62 -3 3 -67 3 -68 64 0 65 0 0
-65 0 -65 65 0 65 0 0 -65 0 -65 65 0 65 0 0 -320 0 -320 -65 0 -65 0 0 -65 0
-65 -65 0 -65 0 0 -65 0 -65 -190 0 -190 0 0 55 0 55 135 0 135 0 0 65 0 65
65 0 65 0 0 210 0 210 -65 0 -65 0 0 65 0 65 -65 0 -64 0 -3 63 -3 62 -67 3
-68 3 0 64 0 65 -65 0 -65 0 0 255 0 255 55 0 55 0 0 -65z m140 10 l0 -55 -60
0 -60 0 0 55 0 55 60 0 60 0 0 -55z m130 0 l0 -55 -55 0 -55 0 0 55 0 55 55 0
55 0 0 -55z m130 0 l0 -55 -55 0 -55 0 0 55 0 55 55 0 55 0 0 -55z m-1190
-130 l0 -55 -55 0 -55 0 0 55 0 55 55 0 55 0 0 -55z m138 -2 l3 -53 -60 0 -61
0 0 48 c0 27 3 52 7 56 4 4 30 6 58 4 l50 -3 3 -52z m132 2 l0 -55 -55 0 -55
0 0 55 0 55 55 0 55 0 0 -55z m790 0 l0 -55 -55 0 -55 0 0 55 0 55 55 0 55 0
0 -55z m130 0 l0 -55 -55 0 -55 0 0 55 0 55 55 0 55 0 0 -55z m130 0 l0 -55
-55 0 -55 0 0 55 0 55 55 0 55 0 0 -55z m-1450 -135 l0 -60 -55 0 -55 0 0 60
0 60 55 0 55 0 0 -60z m130 -1 l0 -60 -52 3 -53 3 -3 44 c-5 65 0 71 58 71
l50 0 0 -61z m135 1 l0 -55 -55 0 -55 0 -3 44 c-5 67 0 72 60 69 l53 -3 0 -55z
m1055 0 l0 -60 -55 0 -55 0 0 60 0 60 55 0 55 0 0 -60z m130 0 l0 -60 -55 0
-55 0 0 60 0 60 55 0 55 0 0 -60z m130 0 l0 -60 -55 0 -55 0 0 60 0 60 55 0
55 0 0 -60z m-1710 -130 l0 -60 -55 0 -55 0 0 60 0 60 55 0 55 0 0 -60z m1840
0 l0 -60 -55 0 -55 0 0 53 c0 30 3 57 7 60 3 4 28 7 55 7 l48 0 0 -60z m-1710
-5 l0 -55 -55 0 -55 0 0 55 0 55 55 0 55 0 0 -55z m130 0 l0 -55 -55 0 -55 0
0 55 0 55 55 0 55 0 0 -55z m1320 0 l0 -55 -55 0 -55 0 0 55 0 55 55 0 55 0 0
-55z m130 0 l0 -55 -55 0 -55 0 0 55 0 55 55 0 55 0 0 -55z m-1710 -130 l0
-55 -55 0 -55 0 0 55 0 55 55 0 55 0 0 -55z m130 0 l0 -55 -55 0 -55 0 0 55 0
55 55 0 55 0 0 -55z m1580 0 l0 -55 -55 0 -55 0 0 55 0 55 55 0 55 0 0 -55z
m130 0 l0 -55 -55 0 -55 0 0 55 0 55 55 0 55 0 0 -55z m-1970 -130 l0 -55 -55
0 -55 0 0 55 0 55 55 0 55 0 0 -55z m2110 0 l0 -55 -60 0 -60 0 0 55 0 55 60
0 60 0 0 -55z m-2770 -140 l0 -65 65 0 65 0 0 -55 0 -54 -62 -3 -63 -3 -3 -67
-3 -68 -119 0 -119 0 -3 68 -3 67 -63 0 -62 0 0 58 0 57 65 0 65 0 0 65 0 65
120 0 120 0 0 -65z m530 10 l0 -55 -55 0 -55 0 0 55 0 55 55 0 55 0 0 -55z
m2370 0 l0 -55 -55 0 -55 0 0 55 0 55 55 0 55 0 0 -55z m658 -12 l3 -63 64 0
65 0 0 -55 0 -54 -66 -3 -67 -3 -1 -65 -1 -65 -122 -3 -122 -3 -3 68 -3 68
-62 3 -63 3 0 54 0 55 65 0 65 0 0 65 0 66 123 -3 122 -3 3 -62z m-3160 -120
l3 -53 -60 0 -61 0 0 48 c0 27 3 52 7 56 4 4 30 6 58 4 l50 -3 3 -52z m2632 2
l0 -55 -55 0 -55 0 0 55 0 55 55 0 55 0 0 -55z m-2900 -136 l0 -60 -52 3 -53
3 -3 58 -3 57 56 0 55 0 0 -61z m135 1 l0 -55 -55 0 -55 0 -3 44 c-5 67 0 72
60 69 l53 -3 0 -55z m2895 0 l0 -60 -55 0 -55 0 0 60 0 60 55 0 55 0 0 -60z
m130 0 l0 -60 -55 0 -55 0 0 60 0 60 55 0 55 0 0 -60z m-3160 -135 l0 -55 -55
0 -55 0 0 55 0 55 55 0 55 0 0 -55z m136 3 l-1 -53 -57 -3 -58 -3 0 56 0 55
59 0 59 0 -2 -52z m134 -13 l0 -65 65 0 65 0 0 -120 0 -120 -65 0 -65 0 0 -65
0 -65 -60 0 -60 0 0 65 0 65 -65 0 -65 0 0 120 0 120 65 0 65 0 0 65 0 65 60
0 60 0 0 -65z m1050 10 l0 -55 -55 0 -55 0 0 55 0 55 55 0 55 0 0 -55z m528 3
l-3 -53 -55 0 -55 0 -3 53 -3 52 61 0 61 0 -3 -52z m1052 -13 l0 -65 65 0 65
0 0 -120 0 -120 -65 0 -65 0 0 -65 0 -65 -55 0 -55 0 0 65 0 65 -65 0 -65 0 0
120 0 119 63 3 62 3 3 63 3 62 54 0 55 0 0 -65z m130 10 l0 -55 -55 0 -55 0 0
55 0 55 55 0 55 0 0 -55z m130 0 l0 -55 -55 0 -55 0 0 55 0 55 55 0 55 0 0
-55z m-3290 -260 l0 -185 -55 0 -55 0 0 65 0 65 -65 0 -65 0 0 65 0 65 -65 0
-65 0 0 55 0 55 185 0 185 0 0 -185z m1580 130 l0 -55 -55 0 -55 0 0 55 0 55
55 0 55 0 0 -55z m260 0 l0 -55 -55 0 -55 0 0 55 0 55 55 0 55 0 0 -55z m1850
0 l0 -55 -65 0 -64 0 -3 -62 -3 -63 -65 -5 -65 -5 -3 -62 -3 -63 -54 0 -55 0
0 185 0 185 190 0 190 0 0 -55z m-3950 -260 l0 -55 -55 0 -55 0 0 55 0 55 55
0 55 0 0 -55z m3950 0 l0 -55 -60 0 -60 0 0 48 c0 27 3 52 7 55 3 4 30 7 60 7
l53 0 0 -55z"/>
<path d="M3120 12205 l0 -65 -65 0 -65 0 0 -75 0 -75 65 0 65 0 0 -65 0 -65
75 0 75 0 0 65 0 65 65 0 65 0 0 75 0 75 -65 0 -65 0 0 65 0 65 -75 0 -75 0 0
-65z m132 -17 l3 -63 63 -3 62 -3 0 -54 0 -54 -62 -3 -63 -3 -3 -62 -3 -63
-54 0 -55 0 0 65 0 65 -65 0 -65 0 0 55 0 55 65 0 65 0 0 65 0 65 55 0 54 0 3
-62z"/>
<path d="M1809 10953 c0 -4 -1 -35 -2 -68 l-2 -60 -68 -3 -68 -3 3 -72 3 -72
66 -5 67 -5 0 -60 0 -60 73 0 74 0 3 62 3 62 62 3 62 3 3 73 3 72 -65 0 -65 0
-3 68 -3 67 -72 3 c-40 2 -73 -1 -74 -5z m129 -80 l3 -62 62 -3 62 -3 3 -57 3
-58 -66 0 -65 0 0 -65 0 -66 -57 3 -58 3 -3 63 -3 62 -65 0 -65 0 3 58 3 57
63 3 62 3 0 58 c0 32 3 61 7 65 4 4 30 6 58 4 l50 -3 3 -62z"/>
<path d="M4438 10893 l-3 -68 -62 -3 -63 -3 0 -74 0 -75 65 0 65 0 0 -65 0
-66 73 3 72 3 3 63 3 62 64 0 65 0 0 75 0 75 -65 0 -64 0 -3 68 -3 67 -72 3
-72 3 -3 -68z m132 -18 l0 -64 63 -3 62 -3 3 -57 3 -58 -66 0 -65 0 0 -65 0
-65 -55 0 -55 0 0 65 0 65 -63 0 c-35 0 -66 2 -68 4 -2 2 -2 29 -1 60 l4 56
64 0 64 0 0 65 0 65 55 0 55 0 0 -65z"/>
<path d="M3120 9575 l0 -65 -65 0 -65 0 0 -75 0 -75 65 0 64 0 3 -67 3 -68 70
0 70 0 5 65 5 65 63 3 62 3 0 74 0 75 -65 0 -65 0 0 65 0 65 -75 0 -75 0 0
-65z m130 -20 l0 -65 65 0 65 0 0 -55 0 -54 -62 -3 -63 -3 -3 -67 -3 -68 -54
0 -54 0 -3 68 -3 67 -62 3 -63 3 0 54 0 55 65 0 65 0 0 65 0 65 55 0 55 0 0
-65z"/>
<path d="M1160 8375 l0 -65 65 0 65 0 0 -65 0 -65 -65 0 -65 0 0 -65 0 -65
195 0 195 0 0 -70 0 -70 -130 0 -130 0 0 -65 0 -65 -65 0 -65 0 0 -65 0 -65
65 0 65 0 0 -65 0 -65 130 0 130 0 0 65 0 65 65 0 65 0 0 65 0 65 65 0 64 0 3
-62 3 -63 68 -3 67 -3 0 -64 0 -65 65 0 65 0 0 -65 0 -65 65 0 65 0 0 -65 0
-65 -330 0 -330 0 0 -65 0 -65 -65 0 -65 0 0 -70 0 -70 -65 0 -65 0 0 -195 0
-195 65 0 65 0 0 -65 0 -65 65 0 65 0 0 65 0 65 65 0 65 0 0 65 0 65 -65 0
-65 0 0 -65 0 -65 -65 0 -65 0 0 130 0 130 65 0 65 0 0 65 0 65 200 0 200 0 0
-65 0 -65 65 0 65 0 0 -65 0 -65 65 0 65 0 0 -65 0 -65 65 0 65 0 0 -65 0 -65
265 0 265 0 0 65 0 65 65 0 65 0 0 -65 0 -65 65 0 65 0 0 -70 0 -70 -65 0 -65
0 0 -65 0 -65 -65 0 -65 0 0 -65 0 -65 -65 0 -65 0 0 -65 0 -64 -67 -3 -68 -3
-3 -62 -3 -63 -64 0 -65 0 0 65 0 65 65 0 65 0 0 65 0 64 68 3 67 3 3 62 3 62
62 3 62 3 0 65 0 65 -260 0 -260 0 -3 -67 -3 -68 -64 0 -65 0 0 -65 0 -65 -65
0 -65 0 0 -65 0 -65 -65 0 -65 0 0 -65 0 -65 -200 0 -200 0 0 65 0 65 -65 0
-65 0 0 130 0 130 65 0 65 0 0 -65 0 -65 65 0 65 0 0 65 0 65 -65 0 -65 0 0
70 0 70 -65 0 -65 0 0 -70 0 -70 -65 0 -65 0 0 -195 0 -195 65 0 65 0 0 -65 0
-65 65 0 65 0 0 -65 0 -65 330 0 330 0 0 65 0 65 65 0 65 0 0 65 0 65 65 0 65
0 0 -65 0 -64 -62 -3 -63 -3 -3 -67 -3 -68 -64 0 -65 0 0 -65 0 -65 -65 0 -65
0 0 -65 0 -65 -65 0 -65 0 0 -65 0 -64 -67 -3 -68 -3 -3 -62 -3 -63 -64 0 -65
0 0 65 0 65 -65 0 -65 0 0 65 0 65 -130 0 -130 0 0 -65 0 -65 -65 0 -65 0 0
-65 0 -65 65 0 65 0 0 -65 0 -65 130 0 130 0 0 -70 0 -70 -195 0 -195 0 0 -65
0 -65 65 0 65 0 0 -65 0 -65 -65 0 -65 0 0 -65 0 -65 65 0 65 0 0 65 0 65 65
0 65 0 0 -65 0 -65 65 0 65 0 0 195 0 195 65 0 65 0 0 -130 0 -130 65 0 65 0
0 -65 0 -65 70 0 70 0 0 65 0 65 65 0 65 0 0 130 0 130 -65 0 -64 0 -3 68 -3
67 -65 0 -65 0 -3 -67 -3 -68 -64 0 -65 0 0 70 0 70 65 0 65 0 0 65 0 65 70 0
70 0 0 65 0 65 65 0 65 0 0 65 0 65 65 0 65 0 0 65 0 65 65 0 65 0 0 -330 0
-330 65 0 65 0 0 -65 0 -65 65 0 64 0 3 -62 3 -63 198 -3 197 -2 0 65 0 65 65
0 65 0 0 65 0 65 -65 0 -64 0 -3 68 -3 67 -62 3 -63 3 0 -71 0 -70 65 0 65 0
0 -65 0 -65 -130 0 -130 0 0 65 0 64 -67 3 -68 3 0 195 0 195 68 3 67 3 0 64
0 65 65 0 65 0 0 65 0 65 65 0 65 0 0 65 0 65 65 0 65 0 0 265 0 265 -65 0
-65 0 0 65 0 65 65 0 65 0 0 65 0 65 65 0 65 0 0 -65 0 -65 65 0 65 0 0 -65 0
-65 -65 0 -65 0 2 -262 3 -263 62 -3 62 -3 3 -62 3 -62 68 -3 67 -3 0 -64 0
-65 65 0 65 0 0 -65 0 -65 65 0 65 0 0 -200 0 -200 -65 0 -65 0 0 -65 0 -65
-135 0 -135 0 0 65 0 64 68 3 67 3 0 65 0 65 -65 0 -65 0 -3 -67 -3 -68 -64 0
-65 0 0 -65 0 -65 65 0 65 0 0 -65 0 -65 200 0 200 0 0 65 0 65 65 0 65 0 0
65 0 65 65 0 65 0 0 330 0 330 65 0 65 0 0 -65 0 -65 70 0 70 0 0 -65 0 -65
65 0 65 0 0 -65 0 -65 65 0 65 0 0 -65 0 -65 -65 0 -64 0 -3 -67 -3 -68 -65
-3 -65 -3 3 -129 3 -130 65 0 64 0 0 -65 0 -65 65 0 65 0 0 65 0 65 65 0 65 0
0 130 0 130 65 0 65 0 0 -195 0 -195 65 0 65 0 0 65 0 65 70 0 70 0 0 -65 0
-65 65 0 65 0 0 65 0 65 -65 0 -65 0 0 65 0 65 65 0 65 0 0 65 0 65 -200 0
-201 0 3 68 3 67 133 3 132 3 0 64 0 65 65 0 65 0 0 65 0 65 -65 0 -65 0 0 65
0 65 -135 0 -135 0 0 -65 0 -65 -65 0 -65 0 0 -65 0 -65 -65 0 -65 0 0 65 0
65 -65 0 -65 0 0 65 0 65 -65 0 -65 0 0 65 0 65 -70 0 -70 0 0 65 0 65 -65 0
-65 0 0 70 0 70 65 0 65 0 0 -65 0 -65 330 0 330 0 0 65 0 65 65 0 65 0 0 65
0 65 65 0 65 0 0 195 0 195 -65 0 -65 0 0 70 0 70 -65 0 -65 0 0 -70 0 -70
-65 0 -65 0 0 -65 0 -65 65 0 65 0 0 65 0 65 65 0 65 0 0 -130 0 -130 -65 0
-65 0 0 -65 0 -65 -195 0 -195 0 0 65 0 65 -70 0 -70 0 0 65 0 65 -65 0 -65 0
0 65 0 64 -62 3 -63 3 -5 65 -5 65 -260 0 -260 0 0 -65 0 -65 68 -3 67 -3 0
-64 0 -65 -65 0 -65 0 0 65 0 65 -70 0 -70 0 0 65 0 65 -65 0 -65 0 0 70 0 70
65 0 65 0 0 65 0 65 65 0 65 0 0 -65 0 -65 265 0 265 0 0 65 0 65 65 0 65 0 0
65 0 65 65 0 65 0 0 65 0 64 68 3 67 3 3 63 3 62 194 0 195 0 0 -65 0 -65 65
0 65 0 0 -130 0 -130 -65 0 -65 0 0 65 0 65 -65 0 -65 0 0 -65 0 -65 65 0 65
0 0 -65 0 -65 65 0 65 0 0 65 0 65 65 0 65 0 0 195 0 195 -65 0 -65 0 0 70 0
70 -65 0 -65 0 0 65 0 65 -330 0 -330 0 0 65 0 65 70 0 70 0 0 65 0 65 65 0
65 0 0 65 0 65 65 0 65 0 0 65 0 65 65 0 65 0 0 -65 0 -65 65 0 65 0 0 -65 0
-65 135 0 135 0 0 65 0 65 65 0 65 0 0 65 0 65 -65 0 -65 0 0 65 0 64 -132 3
-133 3 -3 68 -3 67 201 0 200 0 0 65 0 65 -65 0 -65 0 0 65 0 65 65 0 65 0 0
65 0 65 -65 0 -65 0 0 -65 0 -65 -70 0 -70 0 0 65 0 65 -65 0 -65 0 0 -195 0
-195 -65 0 -65 0 0 130 0 130 -65 0 -65 0 0 65 0 65 -65 0 -65 0 0 -65 0 -65
-64 0 -65 0 -3 -130 -3 -129 65 -3 65 -3 3 -67 3 -68 64 0 65 0 0 -65 0 -65
-65 0 -65 0 0 -65 0 -65 -65 0 -65 0 0 -65 0 -65 -70 0 -70 0 0 -65 0 -65 -65
0 -65 0 0 330 0 330 -65 0 -65 0 0 65 0 65 -65 0 -65 0 0 65 0 65 -200 0 -200
0 0 -65 0 -65 -65 0 -65 0 0 -65 0 -65 65 0 64 0 3 -67 3 -68 65 0 65 0 0 65
0 65 -67 3 -68 3 0 64 0 65 135 0 135 0 0 -65 0 -65 65 0 65 0 0 -200 0 -200
-65 0 -65 0 0 -65 0 -65 -65 0 -65 0 0 -65 0 -64 -67 -3 -68 -3 -3 -62 -3 -62
-62 -3 -62 -3 -3 -262 -2 -263 65 0 65 0 0 -65 0 -65 -65 0 -65 0 0 -65 0 -65
-65 0 -65 0 0 65 0 65 -65 0 -65 0 0 65 0 65 65 0 65 0 0 265 0 265 -65 0 -65
0 0 65 0 65 -65 0 -65 0 0 65 0 65 -65 0 -65 0 0 65 0 64 -67 3 -68 3 0 195 0
195 68 3 67 3 0 64 0 65 130 0 130 0 0 -65 0 -65 -65 0 -65 0 0 -70 0 -71 63
3 62 3 3 68 3 67 64 0 65 0 0 65 0 65 -65 0 -65 0 0 65 0 65 -197 -2 -198 -3
-3 -62 -3 -63 -64 0 -65 0 0 -65 0 -65 -65 0 -65 0 0 -330 0 -330 -65 0 -65 0
0 65 0 65 -65 0 -65 0 0 65 0 65 -65 0 -65 0 0 65 0 65 -70 0 -70 0 0 65 0 65
-65 0 -65 0 0 70 0 70 65 0 64 0 3 -67 3 -68 65 0 65 0 3 68 3 67 64 0 65 0 0
130 0 130 -65 0 -65 0 0 65 0 65 -70 0 -70 0 0 -65 0 -65 -65 0 -65 0 0 -130
0 -130 -65 0 -65 0 0 195 0 195 -65 0 -65 0 0 -65 0 -65 -65 0 -65 0 0 65 0
65 -65 0 -65 0 0 -65z m3550 -395 l0 -70 65 0 65 0 0 -65 0 -65 -65 0 -65 0 0
65 0 65 -65 0 -65 0 0 70 0 70 65 0 65 0 0 -70z m-3030 -135 l0 -65 -65 0 -65
0 0 65 0 65 65 0 65 0 0 -65z m790 -520 l0 -65 65 0 64 0 3 -67 3 -68 68 -3
67 -3 0 -64 0 -65 65 0 65 0 0 -65 0 -65 65 0 65 0 0 -65 0 -65 -65 0 -65 0 0
-65 0 -65 -65 0 -65 0 0 65 0 65 -70 0 -70 0 0 65 0 65 -65 0 -65 0 0 65 0 65
-65 0 -65 0 0 70 0 70 -65 0 -65 0 0 65 0 65 65 0 65 0 0 65 0 65 65 0 65 0 0
-65z m1580 0 l0 -65 65 0 65 0 0 -65 0 -65 -65 0 -65 0 0 65 0 65 -65 0 -65 0
0 -70 0 -70 65 0 65 0 0 -65 0 -65 -65 0 -65 0 0 -65 0 -65 -65 0 -65 0 0 -65
0 -65 -65 0 -65 0 0 -65 0 -65 -65 0 -65 0 0 65 0 65 -70 0 -70 0 0 65 0 65
70 0 70 0 0 65 0 65 65 0 65 0 0 65 0 65 65 0 65 0 0 70 0 70 65 0 65 0 0 65
0 65 65 0 65 0 0 -65z m-1050 -1320 l0 -65 -65 0 -65 0 0 -65 0 -65 -65 0 -65
0 0 -65 0 -64 -67 -3 -68 -3 -3 -67 -3 -68 -64 0 -65 0 0 -65 0 -65 -65 0 -65
0 0 65 0 65 65 0 65 0 0 70 0 70 65 0 65 0 0 65 0 65 70 0 70 0 0 65 0 65 65
0 65 0 0 65 0 65 65 0 65 0 0 -65z m530 0 l0 -65 65 0 65 0 0 65 0 65 65 0 65
0 0 -65 0 -65 65 0 65 0 0 -65 0 -65 65 0 65 0 0 -65 0 -65 -65 0 -65 0 0 -70
0 -70 65 0 65 0 0 -65 0 -65 -65 0 -65 0 0 65 0 65 -65 0 -65 0 0 70 0 70 -65
0 -65 0 0 65 0 65 -65 0 -65 0 0 65 0 65 -70 0 -70 0 0 65 0 65 70 0 70 0 0
-65z m-1850 -1050 l0 -65 -65 0 -65 0 0 65 0 65 65 0 65 0 0 -65z m3160 0 l0
-65 -65 0 -65 0 0 -70 0 -70 -65 0 -65 0 0 70 0 70 65 0 65 0 0 65 0 65 65 0
65 0 0 -65z"/>
<path d="M2342 7193 l3 -68 63 -3 62 -3 0 -64 0 -65 65 0 65 0 0 -65 0 -65 70
0 70 0 0 -65 0 -65 65 0 65 0 0 65 0 65 -65 0 -65 0 0 65 0 65 -70 0 -70 0 0
65 0 65 -65 0 -65 0 0 70 0 70 -65 0 -66 0 3 -67z"/>
<path d="M3790 7055 l0 -65 -65 0 -65 0 0 -65 0 -65 -65 0 -65 0 0 -65 0 -65
65 0 65 0 0 65 0 65 65 0 65 0 0 65 0 65 65 0 65 0 0 65 0 65 -65 0 -65 0 0
-65z"/>
<path d="M3660 5875 l0 -65 65 0 65 0 0 -65 0 -65 65 0 65 0 0 65 0 65 -65 0
-65 0 0 65 0 65 -65 0 -65 0 0 -65z"/>
<path d="M3124 7921 c-2 -2 -4 -33 -4 -68 l0 -63 -65 0 -65 0 0 -75 0 -75 65
0 65 0 0 -65 0 -65 75 0 75 0 0 65 0 65 65 0 65 0 0 75 0 75 -65 0 -64 0 -3
66 -3 66 -68 2 c-38 0 -71 -1 -73 -3z m128 -78 l3 -68 63 -3 62 -3 0 -54 0
-55 -65 0 -65 0 0 -65 0 -65 -55 0 -55 0 0 65 0 65 -65 0 -65 0 0 55 0 55 65
0 65 0 0 63 c0 35 3 67 7 70 3 4 28 7 54 7 l48 0 3 -67z"/>
<path d="M1809 6605 c0 -3 -1 -31 -1 -62 l0 -58 -67 -5 -66 -5 0 -75 0 -75 66
-5 67 -5 0 -60 0 -60 73 0 74 0 3 62 3 62 62 3 62 3 0 75 0 75 -62 3 -62 3 -3
62 -3 62 -72 3 c-40 2 -73 0 -74 -3z m129 -82 l3 -62 62 -3 62 -3 0 -55 0 -55
-62 -3 -62 -3 -3 -62 -3 -62 -55 0 -55 0 -3 62 -3 62 -62 3 -62 3 0 55 0 55
63 3 62 3 0 58 c0 32 3 61 7 65 4 4 30 6 58 4 l50 -3 3 -62z"/>
<path d="M4440 6545 l0 -65 -65 0 -66 0 3 -77 3 -78 63 -3 62 -3 0 -65 0 -65
73 3 72 3 3 62 3 62 62 3 62 3 0 75 0 75 -62 3 -62 3 -3 62 -3 62 -72 3 -73 3
0 -66z m130 -20 l0 -65 65 0 65 0 0 -60 0 -60 -65 0 -65 0 0 -65 0 -65 -55 0
-55 0 0 65 0 65 -65 0 -65 0 0 60 0 60 65 0 65 0 0 65 0 65 55 0 55 0 0 -65z"/>
<path d="M3120 5225 l0 -65 -65 0 -65 0 0 -75 0 -75 65 0 65 0 0 -65 0 -65 75
0 75 0 0 65 0 65 65 0 65 0 0 75 0 75 -65 0 -65 0 0 65 0 65 -75 0 -75 0 0
-65z m130 -20 l0 -65 65 0 65 0 0 -55 0 -54 -62 -3 -63 -3 -3 -62 -3 -63 -54
0 -55 0 0 65 0 65 -65 0 -65 0 0 55 0 55 65 0 65 0 0 65 0 65 55 0 55 0 0 -65z"/>
<path d="M1160 4015 l0 -65 65 0 65 0 0 -65 0 -65 -65 0 -65 0 0 -65 0 -65
195 0 195 0 0 -65 0 -65 -130 0 -129 0 -3 -67 -3 -68 -62 -3 -63 -3 0 -64 0
-65 65 0 65 0 0 -65 0 -65 130 0 130 0 0 65 0 65 65 0 65 0 0 65 0 64 -62 3
-63 3 -3 68 -3 67 65 0 65 0 3 -67 3 -68 62 -3 62 -3 3 -62 3 -62 68 -3 67 -3
0 -64 0 -65 65 0 65 0 0 -65 0 -65 65 0 65 0 0 -65 0 -65 -330 0 -330 0 0 -65
0 -65 -65 0 -64 0 -3 -67 -3 -68 -62 -3 -63 -3 0 -194 0 -195 65 0 65 0 0 -65
0 -65 65 0 65 0 0 65 0 65 65 0 65 0 0 65 0 65 -65 0 -65 0 0 -65 0 -65 -65 0
-65 0 0 130 0 130 65 0 65 0 0 65 0 65 200 0 200 0 0 -65 0 -65 65 0 65 0 0
-65 0 -65 65 0 65 0 0 -65 0 -65 65 0 65 0 0 -65 0 -65 265 0 265 0 0 65 0 65
65 0 65 0 0 -65 0 -65 65 0 65 0 0 -65 0 -65 -65 0 -65 0 0 -70 0 -70 -65 0
-65 0 0 -65 0 -65 -65 0 -65 0 0 -65 0 -65 -70 0 -70 0 0 65 0 64 68 3 67 3 1
65 1 65 67 3 67 3 -3 62 -3 62 -262 3 -263 2 0 -65 0 -65 -65 0 -65 0 0 -70 0
-70 -65 0 -65 0 0 -65 0 -65 -65 0 -65 0 0 -65 0 -65 -200 0 -200 0 0 65 0 65
-65 0 -65 0 0 135 0 135 65 0 65 0 0 -70 0 -70 65 0 65 0 0 70 0 70 -65 0 -65
0 0 65 0 65 -65 0 -65 0 0 -65 0 -65 -65 0 -65 0 0 -200 0 -200 65 0 65 0 0
-65 0 -65 65 0 65 0 0 -65 0 -65 330 0 330 0 0 -70 0 -70 -65 0 -65 0 0 -65 0
-65 -65 0 -65 0 0 -65 0 -64 -67 -3 -68 -3 -3 -63 -3 -62 -64 0 -65 0 0 65 0
65 -65 0 -65 0 0 65 0 65 -130 0 -130 0 0 -65 0 -65 -65 0 -65 0 0 -65 0 -65
65 0 65 0 0 -65 0 -65 130 0 129 0 3 -68 3 -67 63 -3 62 -3 0 -129 0 -130 65
0 65 0 0 -65 0 -65 70 0 70 0 0 65 0 65 65 0 66 0 -3 131 -3 132 -60 -1 -60 0
-5 67 -5 66 -67 3 -68 3 0 64 0 65 70 0 70 0 0 65 0 65 65 0 65 0 0 65 0 65
65 0 65 0 0 65 0 65 65 0 65 0 2 -327 3 -328 60 0 60 0 5 -65 5 -65 62 -3 62
-3 3 -62 3 -62 198 -3 197 -2 0 65 0 65 65 0 65 0 0 63 c0 35 -2 66 -4 68 -2
2 -32 2 -65 1 l-61 -4 0 -64 0 -64 -130 0 -129 0 -3 66 -3 66 -65 2 -65 1 0
195 0 195 65 5 65 5 3 63 3 62 64 0 65 0 0 65 0 65 65 0 65 0 0 70 0 70 65 0
65 0 0 260 0 260 -65 0 -65 0 0 65 0 65 65 0 65 0 0 70 0 70 65 0 64 0 3 -67
3 -68 63 -3 62 -3 0 -64 0 -65 -65 0 -65 0 0 -260 0 -260 65 0 64 0 3 -68 3
-67 68 -3 67 -3 0 -64 0 -65 65 0 65 0 0 -65 0 -65 65 0 65 0 -2 -197 c-2
-150 -6 -198 -15 -199 -7 -1 -35 -2 -63 -3 l-49 -1 -3 -62 -3 -63 -132 -3
-133 -3 0 66 0 65 -55 0 c-30 0 -58 0 -62 0 -5 0 -8 -28 -8 -62 l0 -63 62 -3
62 -3 3 -62 3 -62 198 -3 197 -2 0 65 0 65 65 0 65 0 0 65 0 65 65 0 65 0 0
330 0 330 65 0 64 0 3 -62 3 -63 65 0 65 0 3 63 3 62 -71 0 -70 0 0 70 0 70
330 0 330 0 0 65 0 65 65 0 65 0 0 65 0 65 65 0 65 0 0 200 0 200 -65 0 -65 0
0 65 0 65 -65 0 -65 0 0 -65 0 -65 -65 0 -65 0 0 -70 0 -70 65 0 65 0 0 70 0
70 65 0 65 0 0 -135 0 -135 -65 0 -65 0 0 -65 0 -65 -195 0 -195 0 0 65 0 64
-67 3 -68 3 -3 62 -3 62 -62 3 -62 3 -3 68 -3 67 -64 0 -65 0 0 65 0 65 -262
-2 -263 -3 -3 -62 -3 -62 68 -3 68 -3 3 -67 3 -68 -66 0 -65 0 0 65 0 65 -70
0 -70 0 0 70 0 70 -65 0 -65 0 0 65 0 65 65 0 65 0 0 65 0 65 65 0 65 0 0 -65
0 -65 265 0 265 0 0 65 0 65 65 0 65 0 0 65 0 65 65 0 65 0 0 65 0 64 68 3 67
3 3 63 3 62 194 0 195 0 0 -65 0 -65 65 0 65 0 0 -130 0 -130 -65 0 -65 0 0
65 0 65 -65 0 -65 0 0 -65 0 -65 65 0 65 0 0 -65 0 -65 65 0 65 0 0 65 0 65
65 0 65 0 0 195 0 194 -62 3 -63 3 -3 68 -3 67 -64 0 -65 0 0 65 0 65 -330 0
-330 0 0 65 0 64 68 3 67 3 3 63 3 62 64 0 65 0 0 65 0 65 65 0 65 0 0 65 0
65 65 0 65 0 0 -65 0 -65 65 0 65 0 0 -65 0 -66 133 3 132 3 3 62 3 62 62 3
62 3 3 63 3 62 -65 0 -65 0 -3 68 -3 67 -132 3 -133 3 0 64 0 65 200 0 200 0
0 65 0 65 -65 0 -65 0 0 65 0 65 65 0 65 0 0 65 0 65 -65 0 -65 0 0 -65 0 -65
-70 0 -70 0 0 65 0 65 -65 0 -65 0 0 -195 0 -195 -65 0 -65 0 0 130 0 130 -65
0 -65 0 0 65 0 65 -65 0 -65 0 0 -65 0 -65 -65 0 -65 0 0 -130 0 -130 65 0 65
0 0 -65 0 -65 65 0 65 0 0 -71 0 -71 -65 4 -65 3 0 -67 0 -68 -67 0 -68 0 3
-65 4 -65 -71 0 -71 0 0 -65 0 -65 -65 0 -65 0 0 330 0 330 -65 0 -65 0 0 65
0 65 -65 0 -65 0 0 65 0 65 -200 0 -200 0 0 -65 0 -65 -65 0 -65 0 0 -65 0
-65 65 0 65 0 0 -65 0 -65 70 0 71 0 -3 63 -3 62 -67 3 -68 3 0 64 0 65 135 0
135 0 0 -65 0 -65 65 0 65 0 0 -200 0 -200 -65 0 -65 0 0 -65 0 -65 -65 0 -65
0 0 -65 0 -65 -70 0 -70 0 0 -65 0 -65 -65 0 -65 0 0 -265 0 -265 65 0 65 0 0
-65 0 -65 -65 0 -65 0 0 -65 0 -65 -65 0 -65 0 0 65 0 65 -65 0 -65 0 0 65 0
65 65 0 65 0 0 265 0 265 -65 0 -65 0 0 65 0 65 -65 0 -65 0 0 65 0 65 -65 0
-65 0 0 65 0 64 -67 3 -68 3 0 195 0 195 68 3 67 3 0 64 0 65 130 0 130 0 0
-65 0 -65 -65 0 -65 0 0 -65 0 -65 65 0 65 0 0 65 0 65 65 0 65 0 0 65 0 65
-65 0 -65 0 0 65 0 65 -200 0 -200 0 0 -65 0 -65 -65 0 -65 0 0 -65 0 -65 -65
0 -65 0 0 -330 0 -330 -65 0 -65 0 0 65 0 65 -65 0 -65 0 0 65 0 65 -65 0 -64
0 -3 67 -3 67 -67 -3 -68 -2 0 70 0 71 70 0 70 0 0 65 0 65 65 0 65 0 0 130 0
130 -65 0 -65 0 0 65 0 65 -70 0 -70 0 0 -65 0 -65 -65 0 -65 0 0 -130 0 -130
-65 0 -65 0 0 195 0 195 -65 0 -65 0 0 -65 0 -65 -65 0 -65 0 0 65 0 65 -65 0
-65 0 0 -65z m650 -390 l0 -65 -65 0 -65 0 0 65 0 65 65 0 65 0 0 -65z m2900
0 l0 -65 65 0 66 0 -3 -67 -3 -68 -60 0 -60 0 -3 68 -3 67 -64 0 -65 0 0 65 0
65 65 0 65 0 0 -65z m-2240 -660 l0 -65 65 0 65 0 0 -65 0 -64 68 -3 67 -3 3
-67 3 -68 64 0 65 0 0 -65 0 -65 65 0 65 0 0 -65 0 -65 -65 0 -65 0 0 -65 0
-65 -65 0 -65 0 0 65 0 64 -67 3 -68 3 -3 62 -3 62 -62 3 -62 3 -3 62 -3 62
-62 3 -62 3 -3 68 -3 67 -64 0 -65 0 0 65 0 65 65 0 65 0 0 65 0 65 65 0 65 0
0 -65z m1580 0 l0 -65 65 0 65 0 0 -65 0 -65 -65 0 -64 0 -3 -67 -3 -68 -60 0
-60 0 -3 68 -3 67 -64 0 -65 0 0 -70 0 -70 65 0 65 0 0 -65 0 -65 -65 0 -65 0
0 -65 0 -65 -65 0 -65 0 0 -65 0 -65 -65 0 -65 0 0 65 0 65 -70 0 -70 0 0 65
0 65 70 0 70 0 0 65 0 65 65 0 65 0 0 70 0 70 65 0 65 0 0 65 0 65 65 0 65 0
0 65 0 65 65 0 65 0 0 -65z m-1050 -1320 l0 -65 -65 0 -65 0 0 -65 0 -65 -65
0 -65 0 0 -65 0 -64 -67 -3 -68 -3 -3 -62 -3 -63 -64 0 -65 0 0 -70 0 -70 -65
0 -65 0 0 70 0 70 -65 0 -65 0 0 65 0 65 65 0 65 0 0 65 0 65 65 0 65 0 0 65
0 65 65 0 65 0 0 -65 0 -65 70 0 70 0 0 65 0 65 65 0 65 0 0 65 0 65 65 0 65
0 0 -65z m530 0 l0 -65 65 0 65 0 0 65 0 65 65 0 65 0 0 -65 0 -65 65 0 65 0
0 -65 0 -65 65 0 65 0 0 -65 0 -65 65 0 65 0 0 -65 0 -65 -65 0 -65 0 0 -70 0
-70 -65 0 -65 0 0 70 0 70 -65 0 -65 0 0 65 0 65 -65 0 -65 0 0 65 0 65 -65 0
-65 0 0 65 0 65 -70 0 -70 0 0 65 0 65 70 0 70 0 0 -65z m-1850 -1050 l0 -65
65 0 65 0 0 -68 0 -69 -65 -2 -65 -2 0 70 0 71 -65 0 -65 0 0 65 0 65 65 0 65
0 0 -65z"/>
<path d="M2340 2835 l0 -65 65 0 65 0 0 -70 0 -70 65 0 65 0 0 -65 0 -65 70 0
70 0 0 -65 0 -65 65 0 65 0 0 65 0 65 -65 0 -65 0 0 65 0 65 -70 0 -70 0 0 70
0 70 -65 0 -65 0 0 65 0 65 -65 0 -65 0 0 -65z"/>
<path d="M3920 2835 l0 -65 65 0 65 0 0 65 0 65 -65 0 -65 0 0 -65z"/>
<path d="M3660 2565 l0 -65 -65 0 -65 0 0 -65 0 -65 65 0 65 0 0 65 0 65 65 0
65 0 0 65 0 65 -65 0 -65 0 0 -65z"/>
<path d="M2470 1385 l0 -65 -65 0 -65 0 0 -65 0 -65 65 0 65 0 0 65 0 65 65 0
65 0 0 65 0 65 -65 0 -65 0 0 -65z"/>
<path d="M3660 1515 l0 -65 65 0 65 0 0 -65 0 -65 65 0 65 0 0 -65 0 -65 65 0
65 0 0 65 0 65 -65 0 -65 0 0 65 0 65 -65 0 -65 0 0 65 0 65 -65 0 -65 0 0
-65z"/>
<path d="M3127 3563 c-4 -3 -7 -35 -7 -70 l0 -63 -65 0 -66 0 3 -72 3 -73 63
-3 62 -3 0 -64 0 -65 75 0 75 0 0 65 0 65 65 0 65 0 0 75 0 74 -62 3 -63 3 -3
68 -3 67 -68 0 c-37 0 -71 -3 -74 -7z m125 -80 l3 -67 63 3 62 2 0 -60 0 -61
-65 0 -65 0 0 -65 0 -65 -55 0 -55 0 0 65 0 65 -65 0 -66 0 3 58 3 57 60 1 60
1 3 67 3 66 54 0 54 0 3 -67z"/>
<path d="M1809 2243 c0 -4 0 -34 1 -65 l1 -57 -68 -3 -68 -3 -3 -72 -3 -72 68
-3 68 -3 2 -60 c1 -33 2 -64 2 -68 1 -4 34 -7 74 -5 l72 3 3 68 3 67 65 0 65
0 -3 73 -3 72 -62 3 -62 3 -3 62 -3 62 -72 3 c-40 2 -73 -1 -74 -5z m131 -78
l0 -65 65 0 65 0 0 -55 0 -55 -65 0 -64 0 -3 -67 -3 -68 -55 0 -55 0 -3 68 -3
67 -64 0 -65 0 0 55 0 55 65 0 65 0 0 58 c0 32 3 62 7 65 3 4 30 7 60 7 l53 0
0 -65z"/>
<path d="M4440 2185 l0 -65 -65 0 -65 0 0 -75 0 -74 63 -3 62 -3 3 -68 3 -68
72 3 72 3 3 68 3 67 65 0 65 0 -3 73 -3 72 -62 3 -63 3 0 64 0 65 -75 0 -75 0
0 -65z m130 -20 l0 -65 65 0 65 0 0 -55 0 -54 -62 -3 -63 -3 -3 -67 -3 -68
-54 0 -54 0 -3 68 -3 67 -65 3 -65 3 3 54 4 55 64 0 64 0 0 65 0 65 55 0 55 0
0 -65z"/>
<path d="M3120 865 l0 -65 -65 0 -65 0 0 -75 0 -75 65 0 65 0 0 -65 0 -65 75
0 75 0 0 65 0 65 65 0 65 0 0 75 0 75 -65 0 -65 0 0 65 0 65 -75 0 -75 0 0
-65z m132 -17 l3 -63 63 -3 62 -3 0 -54 0 -54 -62 -3 -63 -3 -3 -62 -3 -63
-54 0 -55 0 0 65 0 65 -65 0 -65 0 0 55 0 55 65 0 65 0 0 65 0 65 55 0 54 0 3
-62z"/>
<path d="M4320 855 l0 -65 65 0 65 0 0 -65 0 -65 65 0 65 0 0 -65 0 -65 -65 0
-64 0 -3 -67 -3 -68 -63 -1 -63 -2 0 -128 0 -129 65 -3 66 -3 0 -64 0 -65 65
0 65 0 0 65 0 65 65 0 65 0 0 130 0 129 -62 3 -63 3 -3 68 -3 67 65 0 65 0 3
-67 3 -68 63 -3 62 -3 0 -194 0 -195 65 0 65 0 0 65 0 65 70 0 70 0 0 -65 0
-65 65 0 65 0 0 65 0 65 -65 0 -65 0 0 65 0 64 63 3 62 3 0 63 0 64 -197 -2
-198 -1 0 71 0 70 135 0 135 0 0 65 0 65 65 0 65 0 0 65 0 65 -65 0 -65 0 0
65 0 65 -135 0 -135 0 0 -65 0 -65 -65 0 -65 0 0 -65 0 -65 -65 0 -65 0 0 65
0 65 -65 0 -65 0 0 65 0 65 -65 0 -65 0 0 -65z m520 -260 l0 -65 -65 0 -65 0
0 65 0 65 65 0 65 0 0 -65z"/>
<path d="M2870 460 l0 -71 63 3 62 3 3 68 3 67 -66 0 -65 0 0 -70z"/>
<path d="M3394 517 c-3 -8 -4 -39 -2 -68 l3 -54 65 0 65 0 0 65 0 65 -63 3
c-47 2 -64 -1 -68 -11z"/>
<path d="M1160 328 l0 -68 65 0 65 0 0 -65 0 -65 -65 0 -65 0 0 -65 0 -65 65
0 65 0 0 65 0 65 65 0 65 0 0 -65 0 -65 65 0 65 0 0 195 0 194 -195 3 -195 3
0 -67z"/>
</g>
</svg>
