<svg width="171" height="76" viewBox="0 0 171 76" fill="none" xmlns="http://www.w3.org/2000/svg">
<path d="M40.4648 35.5352L43.2939 38.3633L40.4648 41.1914L5.82812 75.8281L0.171875 70.1719L31.9805 38.3633L0.171875 6.55469L5.82812 0.898438L40.4648 35.5352ZM71.8281 35.5352L74.6572 38.3633L71.8281 41.1914L37.1914 75.8281L31.5352 70.1719L63.3438 38.3633L31.5352 6.55469L37.1914 0.898438L71.8281 35.5352ZM103.828 35.5352L106.657 38.3633L103.828 41.1914L69.1914 75.8281L63.5352 70.1719L95.3438 38.3633L63.5352 6.55469L69.1914 0.898438L103.828 35.5352ZM135.828 35.5352L138.657 38.3633L135.828 41.1914L101.191 75.8281L95.5352 70.1719L127.344 38.3633L95.5352 6.55469L101.191 0.898438L135.828 35.5352ZM167.828 35.5352L170.657 38.3633L167.828 41.1914L133.191 75.8281L127.535 70.1719L159.344 38.3633L127.535 6.55469L133.191 0.898438L167.828 35.5352Z" fill="url(#paint0_linear_4544_2126)"/>
<defs>
<linearGradient id="paint0_linear_4544_2126" x1="170.657" y1="38.3633" x2="0.171875" y2="38.3633" gradientUnits="userSpaceOnUse">
<stop stop-color="#0766C2"/>
<stop offset="0.5" stop-color="white" stop-opacity="0.5"/>
<stop offset="1" stop-color="white" stop-opacity="0.05"/>
</linearGradient>
</defs>
</svg>
