<svg width="14" height="14" viewBox="0 0 14 14" fill="none" xmlns="http://www.w3.org/2000/svg">
<path d="M7.0013 13.2702C3.54214 13.2702 0.730469 10.4585 0.730469 6.99935C0.730469 3.54018 3.54214 0.728516 7.0013 0.728516C10.4605 0.728516 13.2721 3.54018 13.2721 6.99935C13.2721 10.4585 10.4605 13.2702 7.0013 13.2702ZM7.0013 1.60352C4.0263 1.60352 1.60547 4.02435 1.60547 6.99935C1.60547 9.97435 4.0263 12.3952 7.0013 12.3952C9.9763 12.3952 12.3971 9.97435 12.3971 6.99935C12.3971 4.02435 9.9763 1.60352 7.0013 1.60352Z" fill="#7B7B7B"/>
<path d="M9.16323 9.29253C9.0874 9.29253 9.01156 9.27503 8.94156 9.22836L7.13323 8.14919C6.68406 7.88086 6.35156 7.29169 6.35156 6.77253V4.38086C6.35156 4.14169 6.5499 3.94336 6.78906 3.94336C7.02823 3.94336 7.22656 4.14169 7.22656 4.38086V6.77253C7.22656 6.98253 7.40156 7.29169 7.5824 7.39669L9.39073 8.47586C9.60073 8.59836 9.6649 8.86669 9.5424 9.07669C9.4549 9.21669 9.30906 9.29253 9.16323 9.29253Z" fill="#7B7B7B"/>
</svg>
