<svg width="512" height="482" viewBox="0 0 512 482" fill="none" xmlns="http://www.w3.org/2000/svg">
<path d="M146.08 0.284767C143.84 1.00477 141.96 3.60477 142.4 5.48477C142.48 5.84477 141.76 6.16477 140.28 6.48477C135.76 7.40477 133.52 9.68477 133.52 13.2448C133.52 15.6448 134.68 18.4048 135.96 19.0848C137.6 20.0048 140.48 19.3648 143.72 17.3648C146.36 15.7648 146.6 15.6848 145.88 16.6448C145.2 17.5648 145.16 17.9248 145.52 18.9248C145.76 19.5648 146.44 20.5648 147.04 21.1648C148.56 22.8048 150.16 22.6448 154.88 20.4048L158.8 18.5248L159.56 19.4448C159.96 19.9648 160.32 20.8048 160.32 21.3248C160.32 23.2448 159.52 24.0848 155.64 26.0848C150.48 28.7648 141.8 33.8848 132.52 39.7248C115.32 50.6048 108.2 54.3248 101.16 56.1248C97.9605 56.9648 98.0405 56.7248 98.7605 61.1248L99.2405 63.8848L100.68 63.6448C109.12 62.1248 119.32 57.3248 134.68 47.7248C149.32 38.5248 158.76 33.1248 165.12 30.2848C177.32 24.8048 186.64 22.7248 196.48 23.2048C206.76 23.7648 215.08 26.7248 224.72 33.2848C227.16 34.9248 229.24 36.2848 229.36 36.2848C229.48 36.2848 230.64 35.3648 231.92 34.2048L234.28 32.1648L231.12 29.6448C222.16 22.6048 213.84 18.5648 203.88 16.4048C198.76 15.3248 186.8 15.4048 181.12 16.6448C177.68 17.3648 167.84 20.4448 165 21.6848C164.4 21.9248 164.36 21.8448 164.72 20.8848C165.68 18.4048 164.84 13.2448 162.88 9.16477C161.32 5.96477 158 2.60477 155.12 1.32477C152.48 0.124767 148.2 -0.355232 146.08 0.284767Z" fill="white" fill-opacity="0.4"/>
<path d="M27.7235 3.84529C17.3635 5.52529 8.76346 11.8853 4.28346 21.2853C2.12346 25.7653 1.40346 28.9253 1.36346 33.8853C1.32346 45.8453 8.12346 56.0053 21.4435 63.8853C23.8835 65.3253 33.1635 69.6053 33.3635 69.3653C33.4035 69.3253 33.1635 67.4453 32.8035 65.2453L32.2035 61.1653L29.4035 59.8453C22.8835 56.8053 16.6835 51.7253 13.4835 46.8453C8.64346 39.4053 8.48346 30.4053 13.0035 22.7253C14.7635 19.8053 18.9235 15.7653 21.8435 14.1653C24.4035 12.7653 29.4035 11.4853 32.2035 11.4853C35.4435 11.4853 39.4435 12.5253 42.8035 14.2453L45.8035 15.7653L48.6435 13.4053C50.2435 12.0853 51.5235 10.8853 51.5235 10.7253C51.5235 9.80529 42.4035 5.3653 38.6435 4.48529C35.4435 3.7253 30.3235 3.44529 27.7235 3.84529Z" fill="white" fill-opacity="0.4"/>
<path d="M77.1642 5.72477C65.4042 7.76477 53.3242 14.5648 45.2842 23.7248C42.6842 26.6848 38.1642 32.6848 38.5242 32.6848C38.6442 32.6848 41.0442 32.1248 43.8442 31.4448C48.0842 30.4048 49.0442 30.0048 49.7242 29.1248C55.2042 21.8448 63.8842 16.4048 74.4042 13.6848C79.8042 12.2848 88.6442 11.8848 94.3242 12.8448C107.524 15.0048 119.844 21.8448 130.204 32.8048L133.124 35.8848L136.524 34.0048C138.364 32.9248 139.924 31.9648 139.924 31.8048C139.924 31.1648 129.924 21.4448 126.924 19.2048C118.324 12.7648 110.004 8.84477 99.9242 6.40477C96.3642 5.56477 94.5642 5.36477 88.1242 5.24477C82.6842 5.16477 79.5642 5.28477 77.1642 5.72477Z" fill="white" fill-opacity="0.4"/>
<path d="M277.724 17.7253C265.964 19.8053 257.124 23.8053 235.124 36.9653C216.644 48.0053 212.084 50.3653 203.164 53.5253C199.444 54.8053 199.444 54.8053 202.684 52.4853C205.164 50.6853 207.644 47.6853 208.324 45.6453C208.924 43.8453 208.604 40.6853 207.644 39.0453C207.084 38.0853 203.004 35.0853 202.244 35.0853C202.124 35.0853 202.124 35.6853 202.204 36.3653C202.284 37.1253 202.004 36.6053 201.564 35.1653C200.204 30.5653 198.044 29.2453 192.444 29.6053C188.844 29.8053 187.404 30.4453 186.644 32.0853C185.964 33.5653 186.884 35.2053 189.884 37.9653C191.324 39.2853 192.124 40.1653 191.644 39.9253C191.164 39.6853 190.324 39.4853 189.724 39.4853C188.364 39.4853 187.524 41.4053 187.524 44.6453C187.524 46.6453 187.684 47.2453 188.564 48.2853C189.164 48.9653 190.404 49.8853 191.364 50.3653C192.444 50.8453 193.124 51.4453 193.124 51.8453C193.124 52.8853 191.204 54.5253 188.564 55.7253C186.404 56.7253 185.924 56.7653 182.724 56.5653C172.204 55.8053 161.644 51.3253 151.684 43.4453L149.244 41.5253L146.564 43.3253L143.844 45.1653L145.564 46.6053C155.484 55.1653 166.084 60.7253 176.724 62.9653C181.724 64.0053 190.804 63.8853 196.204 62.7253C206.924 60.4853 216.284 56.2053 232.724 46.0453C259.124 29.8053 267.204 25.7653 279.004 23.0453C284.124 21.8453 293.724 21.5653 298.964 22.4453C304.804 23.4453 313.604 26.4853 314.044 27.6453C314.204 28.0053 313.844 29.2053 313.324 30.3653C311.564 34.1253 312.284 39.4853 314.764 41.2453C316.644 42.5653 321.524 41.4453 321.524 39.6853C321.524 38.4453 322.244 39.1253 322.684 40.7653C323.284 43.2053 324.524 45.0453 325.964 45.6453L327.244 46.1653L324.484 47.0053C298.004 54.9653 278.924 56.3253 263.844 51.3253C257.964 49.3653 252.884 46.7253 248.164 43.1253L245.804 41.3253L244.844 42.5253C242.364 45.5253 241.844 46.3253 242.164 46.6453C243.244 47.5653 247.604 50.6853 249.324 51.7653C260.844 58.8053 271.724 61.4853 286.884 60.9653C301.764 60.4453 312.244 57.9253 344.924 47.0453C378.724 35.7653 388.284 33.4053 403.124 32.8053C411.324 32.4853 413.084 33.0053 414.724 36.2853C416.084 39.0053 416.084 39.2853 414.484 39.8453C411.004 41.0853 408.204 44.9653 408.404 48.2053C408.524 50.0453 408.564 50.0853 410.244 50.6453C411.844 51.1253 412.084 51.1253 413.924 50.2053C415.044 49.6453 415.924 49.2453 415.924 49.3253C415.924 49.3653 415.284 50.3253 414.524 51.4853C412.644 54.2453 412.604 56.2853 414.324 57.8853C417.044 60.4053 422.804 61.0453 424.964 59.0453C426.524 57.6453 427.124 55.8453 427.124 52.8053C427.124 50.7253 427.244 50.2453 427.604 50.6053C427.884 50.8853 429.044 51.0853 430.204 51.0853C432.524 51.0853 433.124 50.5253 433.124 48.2853C433.124 46.4853 432.244 45.0453 429.844 42.8853C427.044 40.3653 424.324 39.0853 421.604 39.0853H419.524L418.484 36.8053C417.964 35.5253 417.204 34.2053 416.844 33.8053C416.244 33.1253 416.324 33.0853 418.364 33.0853C421.844 33.0853 432.044 34.2053 438.644 35.2853C447.084 36.7253 456.964 39.2853 466.924 42.6853C489.804 50.5253 493.004 51.3653 498.924 50.9653C506.044 50.5253 510.884 46.9253 511.764 41.5253C512.324 37.9253 509.724 34.3653 505.284 32.6853C502.204 31.5253 494.324 31.0053 494.324 31.9653C494.324 32.4453 495.084 32.6853 497.324 33.0453C502.724 33.8453 506.444 35.7253 507.924 38.4053C510.924 43.6853 503.124 48.6453 494.324 47.1253C490.764 46.4853 488.164 45.6053 476.204 41.0453C461.204 35.2853 453.444 32.8453 443.124 30.7253C425.884 27.1653 405.444 26.1653 391.324 28.2453C378.764 30.1253 367.884 33.0453 340.124 42.0853C332.684 44.4853 330.684 44.9653 332.724 43.8853C334.004 43.2053 335.124 41.0853 335.124 39.3653C335.124 37.2453 334.244 35.4053 332.164 33.1653C330.124 30.9653 330.004 30.6853 331.084 30.6853C331.524 30.6853 332.324 30.1253 332.844 29.4053C333.684 28.3653 333.764 27.9653 333.444 27.1253C332.404 24.2853 329.364 22.6853 324.564 22.4053C320.684 22.1653 318.404 22.6853 316.604 24.2853L315.284 25.4453L311.044 23.2453C305.844 20.6053 299.764 18.5253 294.724 17.6853C290.084 16.9653 282.044 16.9653 277.724 17.7253Z" fill="white" fill-opacity="0.4"/>
<path d="M59.6411 22.5258L57.1211 24.7658L59.3611 27.6058C64.8011 34.5658 66.3611 39.8858 67.8811 56.8058C68.0411 58.9658 68.3211 60.8058 68.4011 60.9258C68.5211 61.0458 70.2811 60.8058 72.3211 60.4458L76.0011 59.7658L75.7211 56.3258C74.7211 42.8858 72.4011 34.0858 68.1211 27.4458C66.1611 24.4458 62.8411 20.2858 62.3611 20.2858C62.2411 20.2858 61.0011 21.3258 59.6411 22.5258Z" fill="white" fill-opacity="0.4"/>
<path d="M56.3238 33.1245C43.3238 34.0045 29.2438 40.0445 21.6038 47.9645L19.8438 49.7645L22.9238 52.2845C26.3238 55.0445 25.7238 55.0845 29.3238 51.9245C34.5238 47.3645 42.0438 43.3245 48.6038 41.6045C51.5238 40.8445 53.9238 40.5245 58.0438 40.4045C61.0438 40.2845 63.5238 40.1245 63.5238 40.0445C63.5238 39.6445 61.0438 33.2445 60.8038 33.0845C60.6438 32.9645 58.6438 32.9645 56.3238 33.1245Z" fill="white" fill-opacity="0.4"/>
<path d="M73.2427 33.7248C73.4027 34.1648 73.7627 35.6448 74.1227 37.0848L74.7627 39.7248L77.8027 41.0848C83.2827 43.5248 87.1227 48.4048 88.6827 54.8048C89.7227 59.0848 89.6027 70.3648 88.4427 74.9648C88.2427 75.8848 88.3227 75.8848 91.6427 75.8848C94.5627 75.8848 95.0827 75.7648 95.2827 75.1648C95.9227 73.0048 96.4027 65.4448 96.2427 59.9648C96.0027 52.8448 95.1627 49.3248 92.5227 44.8848C89.2827 39.4048 81.9627 34.6448 74.5627 33.2848C73.2027 33.0048 73.0427 33.0448 73.2427 33.7248Z" fill="white" fill-opacity="0.4"/>
<path d="M40.5211 47.2851L35.7211 49.4451L35.2011 52.1651C34.5211 55.7651 34.8011 64.7651 35.7211 68.2851C39.0411 80.8051 48.0811 88.0851 61.3611 88.9651L64.9611 89.2051L65.5611 85.7651C66.2411 81.8851 66.2411 81.8851 63.5611 81.8851C61.4011 81.8851 56.3611 80.5251 53.8811 79.2451C49.2811 76.9251 45.6011 72.2051 44.0811 66.6851C42.9211 62.6051 43.1211 54.0451 44.4411 49.0851C45.0011 47.0051 45.4411 45.2851 45.4011 45.2451C45.3611 45.2051 43.1611 46.1251 40.5211 47.2851Z" fill="white" fill-opacity="0.4"/>
<path d="M9.56226 62.3655C7.56226 66.6055 6.16226 70.8855 5.48226 74.6855C4.84226 78.3655 4.84226 85.6455 5.52226 88.8855C7.60226 99.0455 13.6023 109.886 24.0023 122.406C25.6423 124.406 25.9223 125.006 25.9223 126.486C25.9223 127.766 25.6423 128.526 24.9223 129.406C23.1623 131.526 21.3223 131.966 13.1223 132.246C6.00226 132.486 5.64226 132.526 3.84226 133.566C0.72226 135.446 -0.39774 137.406 0.12226 140.126C0.36226 141.566 0.40226 141.566 1.92226 141.366L3.44226 141.166L2.84226 142.606C1.84226 145.006 1.48226 148.286 1.96226 150.606C2.72226 154.326 6.20226 157.886 9.12226 157.886C12.1623 157.886 13.2823 155.406 13.0423 149.206C12.9223 145.246 13.2023 144.126 13.6423 146.846C14.2423 150.606 16.3223 151.246 19.3223 148.606C22.5623 145.766 23.0023 143.446 21.3223 138.606C20.7623 137.046 20.3223 135.606 20.3223 135.446C20.3223 135.286 20.9223 135.006 21.6423 134.886C24.6023 134.206 27.6023 131.886 28.3623 129.606L28.8023 128.286L33.4023 133.926C48.6423 152.606 55.0823 164.286 57.9623 178.286C58.7223 182.006 58.8823 184.126 58.8823 189.486C58.8823 193.126 58.6423 197.446 58.3623 199.086C56.0423 212.766 51.0023 224.766 41.3623 239.646L38.5623 244.006L39.7223 247.326C40.3623 249.166 41.0023 250.686 41.1223 250.686C41.2423 250.686 42.6823 248.726 44.3623 246.366C57.9623 227.286 64.8823 210.766 66.4023 193.806C67.5623 180.686 64.1623 166.646 56.6023 153.286C52.5623 146.126 47.5223 139.046 38.7623 128.126C25.0423 111.126 20.8423 105.166 17.5223 98.1655C15.1223 93.0855 14.0823 90.0055 13.4823 85.8055C12.6023 79.7255 13.6423 73.0055 16.4023 67.0055L17.6423 64.3255L16.2823 63.2055C15.5623 62.6055 14.1223 61.4055 13.0423 60.5655L11.1223 59.0055L9.56226 62.3655Z" fill="white" fill-opacity="0.4"/>
<path d="M83.7238 60.1648C76.1638 62.8048 62.8038 64.6848 51.5238 64.6848H46.8438L47.5238 67.7648L48.2038 70.8848L55.7638 70.8448C60.5238 70.8448 65.2438 70.5648 68.5238 70.1248C74.1638 69.3648 82.0838 67.8048 84.5638 66.9248L86.1238 66.4048L85.9638 63.9248C85.8838 62.5648 85.7238 61.0048 85.5638 60.5248C85.3238 59.6448 85.2838 59.6048 83.7238 60.1648Z" fill="white" fill-opacity="0.4"/>
<path d="M71.2434 72.4044L68.7234 72.8044V79.6844C68.7234 102.164 64.1634 114.404 50.8434 127.844L45.5234 133.204L46.9234 135.244C49.6034 139.044 49.3634 138.884 50.4034 138.164C50.9234 137.804 52.8034 136.204 54.6434 134.524C65.4034 124.804 71.2834 114.964 73.8834 102.204C75.0834 96.4844 75.5234 91.7244 75.8034 81.3644L76.0434 71.8844L74.8834 71.9244C74.2434 71.9644 72.6034 72.1644 71.2434 72.4044Z" fill="white" fill-opacity="0.4"/>
<path d="M91.7233 78.1655C89.0833 78.4855 81.9633 79.9255 80.0033 80.4855L77.9233 81.1255V84.2855C77.9233 88.8855 77.7233 88.7255 82.0433 87.6455C87.5233 86.2455 93.2433 85.4855 98.4033 85.4855C107.643 85.4855 113.643 88.1655 116.203 93.4055C118.443 98.0055 117.283 104.445 113.603 107.485C106.843 113.045 96.8433 108.165 94.3633 98.1255C94.0833 97.0455 93.8833 94.4855 93.8833 92.3655V88.5655L90.6833 88.8055C88.9233 88.9255 87.3633 89.1255 87.2433 89.2455C87.0833 89.3655 87.0033 91.6055 87.0033 94.1655C87.0033 97.9255 87.2033 99.4855 87.9233 101.685C90.6833 110.445 96.8833 116.245 104.883 117.565C113.723 119.045 122.723 113.085 124.963 104.285C125.843 100.845 125.563 95.3255 124.363 92.3255C121.363 84.8855 114.323 79.8855 104.643 78.2855C102.243 77.9255 94.3233 77.8455 91.7233 78.1655Z" fill="white" fill-opacity="0.4"/>
<path d="M33.6835 143.165C23.5235 153.725 17.6835 165.965 15.8835 180.445C15.2435 185.845 15.6035 197.085 16.6835 203.285C19.1635 217.565 23.1235 229.445 34.3635 256.205C43.6435 278.285 46.2035 285.285 48.1635 293.765C50.0035 301.965 49.9235 311.925 47.9235 321.485C45.8835 331.205 43.0435 338.485 35.2435 354.085C27.3235 369.885 25.3635 374.645 23.3235 383.165C19.6035 398.805 21.7235 416.565 29.6435 436.325C30.8435 439.285 33.8835 446.165 36.4035 451.685C38.9635 457.165 41.4435 462.925 41.9235 464.445C43.6835 469.765 42.9635 473.805 39.7635 476.605C35.2035 480.605 29.1235 476.405 29.1235 469.285C29.1235 468.285 28.9635 467.885 28.6035 468.005C28.2835 468.125 28.1235 469.245 28.1235 471.925C28.1635 474.965 28.3235 476.005 29.0035 477.285C31.2435 481.525 35.4435 482.925 39.7635 480.925C44.5235 478.725 46.8835 473.085 45.9235 466.285C45.2835 461.805 43.9635 458.045 38.6835 446.125C29.0835 424.485 26.3635 413.365 26.8435 397.445C27.0435 389.605 28.1235 382.725 28.8835 384.085C29.8035 385.645 32.9635 388.805 34.4035 389.525C35.3235 390.005 35.9235 390.605 35.9235 391.045C35.9235 391.445 35.3635 393.365 34.6835 395.325C32.5635 401.325 33.0435 403.645 36.7235 405.205L38.6435 406.005L38.2435 407.445C36.2035 414.805 44.2835 417.885 49.7235 411.805C51.2435 410.165 53.1235 406.605 53.1235 405.405C53.1235 405.045 53.6035 403.805 54.2035 402.645C56.2435 398.525 55.7235 394.205 52.8035 391.365C50.8435 389.445 49.6835 389.085 45.7635 389.085C37.9635 389.085 32.0835 385.805 30.5235 380.525C29.9235 378.605 29.9635 378.525 31.3635 374.925C33.1235 370.525 33.5235 369.685 39.5635 358.285C45.5235 346.965 47.9235 341.605 50.3235 334.285C53.5635 324.365 55.1235 314.725 55.1235 304.325C55.1235 290.645 52.2435 280.885 39.1235 249.685C27.9635 223.205 24.2835 211.485 22.5635 196.925L22.3235 194.925L23.5635 196.805C31.8035 209.285 54.6435 203.645 54.8835 189.125C54.9235 185.565 53.7635 183.765 50.7635 182.885C49.8435 182.605 49.8435 182.645 50.1235 184.525C50.4435 186.965 49.8835 186.485 48.9635 183.645C47.0835 177.805 43.3235 175.045 38.5635 175.925C34.8035 176.605 33.1235 178.285 33.1235 181.325C33.1235 182.565 33.4435 183.125 35.0435 184.685L36.9235 186.605L35.6435 186.565C33.4435 186.485 31.9235 188.685 31.9235 191.965C31.9235 193.525 32.1235 193.845 34.3635 195.965C37.0435 198.565 37.2435 199.485 35.0035 199.485C32.6835 199.485 29.5635 198.325 27.8835 196.805C23.3635 192.685 21.7235 183.125 24.0835 174.525C26.7635 164.605 31.2435 156.565 38.6435 148.285L41.0835 145.565L38.5635 143.325C37.1635 142.085 35.9235 141.085 35.8435 141.085C35.7635 141.085 34.8035 142.045 33.6835 143.165ZM39.3635 403.485L38.8035 405.285L38.7635 403.445C38.7235 401.565 39.0035 400.805 39.6035 401.405C39.7635 401.565 39.6835 402.525 39.3635 403.485Z" fill="white" fill-opacity="0.4"/>
<path d="M29.0807 254.766C27.2807 257.686 19.8807 273.126 18.4807 276.886C16.0007 283.646 15.4007 287.366 15.3607 296.486C15.3207 307.046 16.1607 310.486 20.4007 316.966L22.0007 319.486L21.3207 322.046C19.3207 329.326 22.6007 334.486 29.5207 335.006C31.0007 335.086 32.8807 335.086 33.6807 334.926C35.4407 334.606 37.3207 333.046 38.3207 331.126C38.8807 330.006 39.4407 329.526 40.6407 329.166C42.4007 328.646 45.6807 325.926 46.4807 324.326C48.8807 319.566 45.6407 313.246 41.2407 314.086C40.3607 314.246 39.2407 314.966 38.1607 316.046L36.4407 317.766L35.6807 316.406C33.8407 312.966 28.4807 312.926 24.2407 316.286L22.7607 317.486L21.6007 314.366C19.4007 308.686 19.3207 308.206 19.3607 299.686C19.4007 295.286 19.6007 290.526 19.8807 289.086C21.2007 281.926 25.8007 271.326 31.0007 263.566L33.5207 259.846L31.9207 256.686C31.0407 254.926 30.2407 253.486 30.1207 253.486C30.0007 253.486 29.5607 254.086 29.0807 254.766ZM34.7207 320.046C34.7207 320.126 34.4007 320.446 34.0407 320.726C33.4007 321.246 33.3607 321.206 33.8807 320.566C34.4007 319.926 34.7207 319.726 34.7207 320.046Z" fill="white" fill-opacity="0.4"/>
</svg>
