<svg width="41" height="44" viewBox="0 0 41 44" fill="none" xmlns="http://www.w3.org/2000/svg">
<path d="M28.0947 1.82812C31.3721 1.90076 33.6297 2.6668 35.1768 3.77246C36.7134 4.87077 37.662 6.38394 38.1855 8.16699C39.1702 11.5209 38.6134 15.7161 37.6191 19.3105H26.4307C26.0446 18.643 25.7284 17.9108 25.1768 16.7793C23.6298 13.6063 22.6626 9.60645 23.0156 6.52832C23.1906 5.003 23.6744 3.82884 24.4336 3.05469C25.1637 2.31038 26.2931 1.78823 28.0947 1.82812Z" stroke="#E06053" stroke-width="2.62838" stroke-miterlimit="16" stroke-linecap="round"/>
<path d="M38.1533 24.1484C38.3055 25.5405 38.0068 27.1634 37.2803 28.5107C36.3957 30.1509 35.0247 31.1526 33.3164 31.0693C30.9304 30.9529 29.3217 29.5747 28.2559 27.7969C27.5204 26.57 27.093 25.2221 26.8926 24.1484H38.1533Z" stroke="#E06053" stroke-width="2.62838" stroke-miterlimit="16" stroke-linecap="round"/>
<path d="M39.2305 16.9902L24.0589 16.9902" stroke="#E06053" stroke-width="0.876126"/>
<path d="M11.5908 11.2512C8.56973 12.5012 6.7553 14.0279 5.72795 15.6142C4.70726 17.1904 4.38822 18.9418 4.56502 20.7914C4.89764 24.2693 6.9774 27.9731 9.2407 30.9589L19.6462 26.922C19.7568 26.1617 19.7776 25.3661 19.8695 24.1152C20.1277 20.6042 19.5388 16.5321 18.0636 13.7939C17.3323 12.4366 16.4445 11.5183 15.4495 11.0719C14.4935 10.6429 13.2503 10.5646 11.5908 11.2512Z" stroke="#E06053" stroke-width="2.62838" stroke-miterlimit="16" stroke-linecap="round"/>
<path d="M10.5395 35.6468C10.9163 36.9992 11.7989 38.4041 12.9778 39.3965C14.413 40.6046 16.0599 41.0384 17.6142 40.3462C19.7876 39.3781 20.7716 37.5175 21.1017 35.477C21.3297 34.0677 21.2254 32.6569 21.0115 31.5842L10.5395 35.6468Z" stroke="#E06053" stroke-width="2.62838" stroke-miterlimit="16" stroke-linecap="round"/>
<path d="M6.875 29.3809L20.9906 23.9047" stroke="#E06053" stroke-width="0.876126"/>
</svg>
