<svg width="46" height="46" viewBox="0 0 46 46" fill="none" xmlns="http://www.w3.org/2000/svg">
<path d="M33.1883 4.61719H11.8508C5.02578 4.61719 3.76953 5.87344 3.76953 12.6984V34.0172C3.76953 40.8609 5.02578 42.1172 11.8508 42.1172H33.1695C39.9945 42.1172 41.2508 40.8609 41.2508 34.0359V12.6984C41.2695 5.87344 40.0133 4.61719 33.1883 4.61719ZM27.7508 24.3609L21.132 30.9797C20.8508 31.2609 20.4945 31.3922 20.1383 31.3922C19.782 31.3922 19.4258 31.2609 19.1445 30.9797C18.6008 30.4359 18.6008 29.5359 19.1445 28.9922L24.7695 23.3672L19.1445 17.7422C18.6008 17.1984 18.6008 16.2984 19.1445 15.7547C19.6883 15.2109 20.5883 15.2109 21.132 15.7547L27.7508 22.3734C28.3133 22.9172 28.3133 23.8172 27.7508 24.3609Z" fill="white" fill-opacity="0.7"/>
</svg>
