<svg width="48" height="48" viewBox="0 0 48 48" fill="none" xmlns="http://www.w3.org/2000/svg">
<path fill-rule="evenodd" clip-rule="evenodd" d="M24 12.5C20.4102 12.5 17.5 15.4101 17.5 19C17.5 22.5899 20.4102 25.5 24 25.5C27.5899 25.5 30.5 22.5899 30.5 19C30.5 15.4101 27.5899 12.5 24 12.5ZM20.5 19C20.5 17.067 22.067 15.5 24 15.5C25.933 15.5 27.5 17.067 27.5 19C27.5 20.933 25.933 22.5 24 22.5C22.067 22.5 20.5 20.933 20.5 19Z" fill="white"/>
<path fill-rule="evenodd" clip-rule="evenodd" d="M24 4.5C15.9919 4.5 9.50001 10.9919 9.50001 19C9.50001 21.9363 10.3728 24.6687 11.873 26.952L6.70096 35.9103C6.40683 36.4197 6.43764 37.0541 6.77975 37.5326C7.12187 38.0112 7.71213 38.2456 8.28934 38.1321L13.5171 37.1044L15.2409 42.1456C15.4313 42.7022 15.9294 43.0962 16.5149 43.1532C17.1004 43.2102 17.6652 42.9197 17.9593 42.4103L23.1188 33.4737C23.4103 33.4911 23.7041 33.5 24 33.5C24.2959 33.5 24.5897 33.4911 24.8812 33.4737L30.0407 42.4103C30.3352 42.9202 30.9007 43.2107 31.4867 43.153C32.0728 43.0953 32.5708 42.7001 32.7601 42.1425L34.4753 37.0911L39.7075 38.1315C40.285 38.2463 40.8764 38.0126 41.2193 37.5339C41.5623 37.0553 41.5935 36.4202 41.2991 35.9103L36.127 26.952C37.6272 24.6687 38.5 21.9363 38.5 19C38.5 10.9919 32.0081 4.5 24 4.5ZM12.5 19C12.5 12.6487 17.6487 7.5 24 7.5C30.3513 7.5 35.5 12.6487 35.5 19C35.5 25.3513 30.3513 30.5 24 30.5C17.6487 30.5 12.5 25.3513 12.5 19ZM19.9675 32.9319C17.6616 32.2656 15.5919 31.0424 13.9138 29.4172L10.9494 34.5517L14.2233 33.9081C14.9594 33.7634 15.6893 34.1848 15.932 34.8946L17.0116 38.0518L19.9675 32.9319ZM30.9837 38.0435L28.0325 32.9319C30.3385 32.2656 32.4081 31.0424 34.0862 29.4172L37.0459 34.5435L33.7703 33.8922C33.0321 33.7454 32.2994 34.1684 32.0574 34.8811L30.9837 38.0435Z" fill="white"/>
</svg>
