<svg width="367" height="80" viewBox="0 0 367 80" fill="none" xmlns="http://www.w3.org/2000/svg">
<path d="M118.715 49.1504C121.956 28.4298 127.564 19.1187 144.521 6.73828C152.612 11.7629 169.151 25.5424 170.582 40.4638H144.521V29.6521H138.38H150.528" stroke="#7B7B7B" stroke-width="5"/>
<path d="M297.27 49.1504C300.51 28.4298 306.119 19.1187 323.076 6.73828C331.167 11.7629 347.706 25.5424 349.137 40.4638H323.076V29.6521H316.935H329.083" stroke="#7B7B7B" stroke-width="5"/>
<path d="M99.8281 49.1504C96.5874 28.4298 90.9785 19.1187 74.0215 6.73828C65.9308 11.7629 49.3919 25.5424 47.961 40.4638H74.0215V29.6521H80.1629H68.0149" stroke="#7B7B7B" stroke-width="5"/>
<path d="M278.383 49.1504C275.142 28.4298 269.533 19.1187 252.576 6.73828C244.486 11.7629 227.947 25.5424 226.516 40.4638H252.576V29.6521H258.718H246.57" stroke="#7B7B7B" stroke-width="5"/>
<rect x="109.273" y="2.78906" width="76.1758" height="46.3613" stroke="#7B7B7B" stroke-width="5"/>
<rect x="287.828" y="2.78906" width="76.1758" height="46.3613" stroke="#7B7B7B" stroke-width="5"/>
<rect width="76.1758" height="46.3613" transform="matrix(-1 0 0 1 109.273 2.78906)" stroke="#7B7B7B" stroke-width="5"/>
<rect width="76.1758" height="46.3613" transform="matrix(-1 0 0 1 287.828 2.78906)" stroke="#7B7B7B" stroke-width="5"/>
<rect width="26.4102" height="46.3613" transform="matrix(-1 0 0 1 33.0938 2.78906)" stroke="#7B7B7B" stroke-width="5"/>
<rect width="26.4102" height="46.3613" transform="matrix(-1 0 0 1 211.648 2.78906)" stroke="#7B7B7B" stroke-width="5"/>
<path d="M6.89062 49.3105V68.9141" stroke="#7B7B7B" stroke-width="5"/>
<path d="M185.445 49.3105V68.9141" stroke="#7B7B7B" stroke-width="5"/>
<path d="M33.0938 49.3105V68.9141" stroke="#7B7B7B" stroke-width="5"/>
<path d="M211.648 49.3105V68.9141" stroke="#7B7B7B" stroke-width="5"/>
<circle cx="33.0957" cy="72.627" r="6.20508" fill="#7B7B7B" stroke="#7B7B7B"/>
<circle cx="211.65" cy="72.627" r="6.20508" fill="#7B7B7B" stroke="#7B7B7B"/>
<circle cx="6.89258" cy="72.627" r="6.20508" fill="#7B7B7B" stroke="#7B7B7B"/>
<circle cx="185.447" cy="72.627" r="6.20508" fill="#7B7B7B" stroke="#7B7B7B"/>
</svg>
