<svg width="184" height="383" viewBox="0 0 184 383" fill="none" xmlns="http://www.w3.org/2000/svg">
<path d="M53.4796 68.7203L37.7339 68.7203L37.7339 42.6736C52.6009 44.5888 72.3038 63.0686 76.6472 90.4959C61.4794 90.4984 31.2731 90.5085 12.547 90.5309C12.547 81.243 12.547 11.6067 12.547 3.41913C43.7571 8.79223 110.512 36.9324 110.512 128.531L110.512 315.163C138.631 326.776 164.711 346.876 167.873 379.745L110.512 379.745L110.512 339.39C121.572 342.325 142.028 357.183 145.148 365.463L127.263 365.463" stroke="#7B7B7B" stroke-width="5"/>
<path d="M140.676 2.91267L140.676 310.16C159.714 323.836 170.211 354.64 170.211 379.746" stroke="#7B7B7B" stroke-width="5"/>
<path d="M146.098 195.912C146.098 187.734 150.343 180.107 155.51 176.197C158.485 178.348 164.565 184.245 165.091 190.632H155.51V186.004" stroke="#7B7B7B" stroke-width="3"/>
<rect x="140.547" y="171.211" width="29.8691" height="26.089" stroke="#7B7B7B" stroke-width="4"/>
<path d="M134.996 195.912C134.996 187.734 130.75 180.107 125.584 176.197C122.609 178.348 116.529 184.245 116.002 190.632H125.584V186.004" stroke="#7B7B7B" stroke-width="3"/>
<rect width="29.8691" height="26.089" transform="matrix(-1 0 0 1 140.547 171.211)" stroke="#7B7B7B" stroke-width="4"/>
<path d="M170.277 3.41992L170.508 382.211" stroke="#7B7B7B" stroke-width="5"/>
<path d="M10.082 2.85547H172.766" stroke="#7B7B7B" stroke-width="5"/>
</svg>
