<svg width="184" height="383" viewBox="0 0 184 383" fill="none" xmlns="http://www.w3.org/2000/svg">
<path d="M53.482 68.7203L37.7364 68.7203L37.7364 42.6736C52.6033 44.5888 72.3063 63.0686 76.6497 90.4959C61.4818 90.4984 31.2755 90.5085 12.5494 90.5309C12.5494 81.243 12.5494 11.6067 12.5494 3.41913C43.7595 8.79223 110.515 36.9324 110.515 128.531L110.515 315.163C138.633 326.776 164.713 346.876 167.876 379.745L110.515 379.745L110.515 339.39C121.575 342.325 142.031 357.183 145.15 365.463L127.266 365.463" stroke="black" stroke-width="5"/>
<path d="M140.677 2.91267L140.677 310.16C159.715 323.836 170.211 354.64 170.211 379.746" stroke="black" stroke-width="5"/>
<path d="M146.1 195.912C146.1 187.734 150.346 180.107 155.513 176.197C158.487 178.348 164.568 184.245 165.094 190.632H155.513V186.004" stroke="black" stroke-width="3"/>
<rect x="140.547" y="171.211" width="29.8691" height="26.089" stroke="black" stroke-width="4"/>
<path d="M134.995 195.912C134.995 187.734 130.749 180.107 125.582 176.197C122.608 178.348 116.527 184.245 116.001 190.632H125.582V186.004" stroke="black" stroke-width="3"/>
<rect width="29.8691" height="26.089" transform="matrix(-1 0 0 1 140.547 171.211)" stroke="black" stroke-width="4"/>
<path d="M170.28 3.41992L170.51 382.211" stroke="black" stroke-width="5"/>
<path d="M10.084 2.85547H172.768" stroke="black" stroke-width="5"/>
</svg>
