<svg width="367" height="80" viewBox="0 0 367 80" fill="none" xmlns="http://www.w3.org/2000/svg">
<path d="M118.713 49.1504C121.954 28.4298 127.562 19.1187 144.52 6.73828C152.61 11.7629 169.149 25.5424 170.58 40.4638H144.52V29.6521H138.378H150.526" stroke="black" stroke-width="5"/>
<path d="M297.268 49.1504C300.508 28.4298 306.117 19.1187 323.074 6.73828C331.165 11.7629 347.704 25.5424 349.135 40.4638H323.074V29.6521H316.933H329.081" stroke="black" stroke-width="5"/>
<path d="M99.8262 49.1504C96.5854 28.4298 90.9766 19.1187 74.0195 6.73828C65.9289 11.7629 49.3899 25.5424 47.9591 40.4638H74.0195V29.6521H80.161H68.013" stroke="black" stroke-width="5"/>
<path d="M278.381 49.1504C275.14 28.4298 269.531 19.1187 252.574 6.73828C244.484 11.7629 227.945 25.5424 226.514 40.4638H252.574V29.6521H258.716H246.568" stroke="black" stroke-width="5"/>
<rect x="109.27" y="2.78906" width="76.1758" height="46.3613" stroke="black" stroke-width="5"/>
<rect x="287.824" y="2.78906" width="76.1758" height="46.3613" stroke="black" stroke-width="5"/>
<rect width="76.1758" height="46.3613" transform="matrix(-1 0 0 1 109.27 2.78906)" stroke="black" stroke-width="5"/>
<rect width="76.1758" height="46.3613" transform="matrix(-1 0 0 1 287.824 2.78906)" stroke="black" stroke-width="5"/>
<rect width="26.4102" height="46.3613" transform="matrix(-1 0 0 1 33.0938 2.78906)" stroke="black" stroke-width="5"/>
<rect width="26.4102" height="46.3613" transform="matrix(-1 0 0 1 211.648 2.78906)" stroke="black" stroke-width="5"/>
<path d="M6.89062 49.3105V68.9141" stroke="black" stroke-width="5"/>
<path d="M185.445 49.3105V68.9141" stroke="black" stroke-width="5"/>
<path d="M33.0938 49.3105V68.9141" stroke="black" stroke-width="5"/>
<path d="M211.648 49.3105V68.9141" stroke="black" stroke-width="5"/>
<circle cx="33.0938" cy="72.627" r="6.70508" fill="black"/>
<circle cx="211.648" cy="72.627" r="6.70508" fill="black"/>
<circle cx="6.89062" cy="72.627" r="6.70508" fill="black"/>
<circle cx="185.445" cy="72.627" r="6.70508" fill="black"/>
</svg>
