<svg width="47" height="43" viewBox="0 0 47 43" fill="none" xmlns="http://www.w3.org/2000/svg">
<path d="M23.5557 43.0098C22.2044 43.0098 20.8745 42.5966 19.8234 41.7703L16.4343 39.1144C16.0911 38.839 15.2331 38.5635 14.7827 38.5635H11.0289C7.85435 38.5635 5.28036 36.2027 5.28036 33.291V29.9269C5.28036 29.5137 4.98006 28.7268 4.70121 28.4317L1.78402 25.2839C0.0251196 23.3756 0.0251196 20.3852 1.78402 18.4572L4.70121 15.3094C4.98006 15.0143 5.28036 14.2274 5.28036 13.8142V10.4697C5.28036 7.55805 7.85435 5.19723 11.0289 5.19723H14.7398C15.1902 5.19723 16.0268 4.90213 16.3914 4.6267L19.7805 1.97077C21.8826 0.337868 25.1645 0.337868 27.2666 1.97077L30.6557 4.6267C30.9989 4.90213 31.8783 5.17756 32.3288 5.17756H35.9752C39.1498 5.17756 41.7238 7.53838 41.7238 10.4501V13.7946C41.7238 14.2077 42.0456 14.975 42.3459 15.3094L45.2416 18.4178C47.0434 20.3655 47.022 23.3756 45.2416 25.2839L42.3459 28.3923C42.0456 28.7268 41.7453 29.494 41.7453 29.9072V33.2517C41.7453 36.1634 39.1713 38.5242 35.9967 38.5242H32.3502C31.8998 38.5242 31.0632 38.8193 30.6771 39.0947L27.288 41.7507C26.237 42.5966 24.8856 43.0098 23.5557 43.0098ZM11.0289 8.14826C9.6347 8.14826 8.49785 9.19096 8.49785 10.4697V13.8142C8.49785 14.9356 7.94015 16.3521 7.1465 17.2178L4.22931 20.3655C3.50001 21.1721 3.50001 22.5886 4.22931 23.3756L7.12505 26.5037C7.89725 27.3103 8.4764 28.7858 8.4764 29.9072V33.2714C8.4764 34.5501 9.61325 35.5928 11.0075 35.5928H14.7398C15.941 35.5928 17.5283 36.124 18.4721 36.8519L21.8826 39.5275C22.7621 40.2161 24.3065 40.2161 25.1859 39.5275L28.575 36.8716C29.5403 36.124 31.1061 35.6125 32.3073 35.6125H35.9538C37.348 35.6125 38.4849 34.5698 38.4849 33.291V29.9465C38.4849 28.8448 39.064 27.4086 39.8577 26.5233L42.7749 23.3952C43.5256 22.5886 43.5256 21.1721 42.7749 20.3655L39.8791 17.2571C39.064 16.3718 38.5063 14.9356 38.5063 13.8339V10.4697C38.5063 9.19096 37.3695 8.14826 35.9752 8.14826H32.3288C31.1061 8.14826 29.5188 7.61707 28.575 6.88915L25.1645 4.21355C24.285 3.52498 22.7621 3.52498 21.8612 4.21355L18.4935 6.88915C17.5283 7.61707 15.9624 8.14826 14.7398 8.14826H11.0289Z" fill="#E06053"/>
</svg>
