<svg width="14" height="14" viewBox="0 0 14 14" fill="none" xmlns="http://www.w3.org/2000/svg">
<path d="M6.99969 8.266C5.75719 8.266 4.74219 7.25684 4.74219 6.0085C4.74219 4.76017 5.75719 3.75684 6.99969 3.75684C8.24219 3.75684 9.25719 4.766 9.25719 6.01434C9.25719 7.26267 8.24219 8.266 6.99969 8.266ZM6.99969 4.63184C6.24135 4.63184 5.61719 5.25017 5.61719 6.01434C5.61719 6.7785 6.23552 7.39684 6.99969 7.39684C7.76385 7.39684 8.38219 6.7785 8.38219 6.01434C8.38219 5.25017 7.75802 4.63184 6.99969 4.63184Z" fill="#7B7B7B"/>
<path d="M7.00096 13.277C6.13762 13.277 5.26846 12.9503 4.59179 12.3028C2.87096 10.6462 0.969291 8.00366 1.68679 4.85949C2.33429 2.00699 4.82512 0.729492 7.00096 0.729492C7.00096 0.729492 7.00096 0.729492 7.00679 0.729492C9.18262 0.729492 11.6735 2.00699 12.321 4.86533C13.0326 8.00949 11.131 10.6462 9.41012 12.3028C8.73346 12.9503 7.86429 13.277 7.00096 13.277ZM7.00096 1.60449C5.30346 1.60449 3.12179 2.50866 2.54429 5.05199C1.91429 7.79949 3.64096 10.1678 5.20429 11.667C6.21346 12.6412 7.79429 12.6412 8.80346 11.667C10.361 10.1678 12.0876 7.79949 11.4693 5.05199C10.886 2.50866 8.69846 1.60449 7.00096 1.60449Z" fill="#7B7B7B"/>
</svg>
