<svg width="36" height="36" viewBox="0 0 36 36" fill="none" xmlns="http://www.w3.org/2000/svg">
<g clip-path="url(#clip0_65_516)">
<path fill-rule="evenodd" clip-rule="evenodd" d="M36 18C36 27.9411 27.9411 36 18 36C8.05887 36 0 27.9411 0 18C0 8.05887 8.05887 0 18 0C27.9411 0 36 8.05887 36 18ZM18.6449 13.2893C16.8941 14.0175 13.395 15.5247 8.14766 17.8109C7.29557 18.1497 6.8492 18.4812 6.80857 18.8054C6.7399 19.3532 7.42589 19.5689 8.36003 19.8626C8.48709 19.9026 8.61875 19.944 8.75372 19.9878C9.67277 20.2866 10.9091 20.6361 11.5517 20.65C12.1347 20.6626 12.7854 20.4222 13.5038 19.9289C18.4066 16.6194 20.9374 14.9466 21.0963 14.9106C21.2084 14.8851 21.3637 14.8531 21.469 14.9467C21.5742 15.0402 21.5639 15.2174 21.5527 15.2649C21.4848 15.5546 18.792 18.0581 17.3985 19.3536C16.9641 19.7575 16.6559 20.0439 16.5929 20.1094C16.4518 20.2559 16.308 20.3946 16.1698 20.5278C15.316 21.3509 14.6757 21.9681 16.2052 22.9761C16.9403 23.4605 17.5284 23.861 18.1152 24.2606C18.7561 24.697 19.3952 25.1323 20.2222 25.6744C20.4329 25.8125 20.6342 25.956 20.8301 26.0957C21.5759 26.6274 22.2459 27.105 23.0737 27.0289C23.5547 26.9846 24.0515 26.5323 24.3038 25.1834C24.9001 21.9956 26.0723 15.0886 26.3431 12.2424C26.3669 11.993 26.337 11.6739 26.313 11.5338C26.2891 11.3937 26.239 11.1941 26.0569 11.0463C25.8412 10.8713 25.5083 10.8344 25.3594 10.837C24.6824 10.849 23.6436 11.2101 18.6449 13.2893Z" fill="black"/>
</g>
<defs>
<clipPath id="clip0_65_516">
<rect width="36" height="36" fill="white"/>
</clipPath>
</defs>
</svg>
