<svg width="36" height="36" viewBox="0 0 36 36" fill="none" xmlns="http://www.w3.org/2000/svg">
<path d="M35.6414 10.8004C35.6414 10.8004 35.2898 8.31841 34.207 7.22856C32.8359 5.79419 31.3031 5.78716 30.6 5.70278C25.5656 5.33716 18.007 5.33716 18.007 5.33716H17.993C17.993 5.33716 10.4344 5.33716 5.4 5.70278C4.69688 5.78716 3.16406 5.79419 1.79297 7.22856C0.710156 8.31841 0.365625 10.8004 0.365625 10.8004C0.365625 10.8004 0 13.7184 0 16.6293V19.3575C0 22.2684 0.358594 25.1864 0.358594 25.1864C0.358594 25.1864 0.710156 27.6684 1.78594 28.7583C3.15703 30.1926 4.95703 30.1434 5.75859 30.2981C8.64141 30.5723 18 30.6567 18 30.6567C18 30.6567 25.5656 30.6426 30.6 30.284C31.3031 30.1997 32.8359 30.1926 34.207 28.7583C35.2898 27.6684 35.6414 25.1864 35.6414 25.1864C35.6414 25.1864 36 22.2754 36 19.3575V16.6293C36 13.7184 35.6414 10.8004 35.6414 10.8004ZM14.2805 22.6692V12.5512L24.0047 17.6278L14.2805 22.6692Z" fill="black"/>
</svg>
